%TF.GenerationSoftware,KiCad,Pcbnew,10.0.5-10.0.5~ubuntu24.04.1*%
%TF.CreationDate,2026-08-21T18:44:55+02:00*%
%TF.ProjectId,pcb,7063622e-6b69-4636-9164-5f7063625858,rev?*%
%TF.SameCoordinates,Original*%
%TF.FileFunction,Copper,L4,Bot*%
%TF.FilePolarity,Positive*%
%FSLAX46Y46*%
G04 Gerber Fmt 4.6, Leading zero omitted, Abs format (unit mm)*
G04 Created by KiCad (PCBNEW 10.0.5-10.0.5~ubuntu24.04.1) date 2026-08-21 18:44:55*
%MOMM*%
%LPD*%
G01*
G04 APERTURE LIST*
G04 Aperture macros list*
%AMRoundRect*
0 Rectangle with rounded corners*
0 $1 Rounding radius*
0 $2 $3 $4 $5 $6 $7 $8 $9 X,Y pos of 4 corners*
0 Add a 4 corners polygon primitive as box body*
4,1,4,$2,$3,$4,$5,$6,$7,$8,$9,$2,$3,0*
0 Add four circle primitives for the rounded corners*
1,1,$1+$1,$2,$3*
1,1,$1+$1,$4,$5*
1,1,$1+$1,$6,$7*
1,1,$1+$1,$8,$9*
0 Add four rect primitives between the rounded corners*
20,1,$1+$1,$2,$3,$4,$5,0*
20,1,$1+$1,$4,$5,$6,$7,0*
20,1,$1+$1,$6,$7,$8,$9,0*
20,1,$1+$1,$8,$9,$2,$3,0*%
G04 Aperture macros list end*
%TA.AperFunction,ComponentPad*%
%ADD10RoundRect,0.250000X-0.550000X0.550000X-0.550000X-0.550000X0.550000X-0.550000X0.550000X0.550000X0*%
%TD*%
%TA.AperFunction,ComponentPad*%
%ADD11C,1.600000*%
%TD*%
%TA.AperFunction,ComponentPad*%
%ADD12RoundRect,0.250000X-1.050000X1.050000X-1.050000X-1.050000X1.050000X-1.050000X1.050000X1.050000X0*%
%TD*%
%TA.AperFunction,ComponentPad*%
%ADD13C,2.600000*%
%TD*%
%TA.AperFunction,ComponentPad*%
%ADD14RoundRect,0.250000X1.050000X1.050000X-1.050000X1.050000X-1.050000X-1.050000X1.050000X-1.050000X0*%
%TD*%
%TA.AperFunction,ComponentPad*%
%ADD15O,1.000000X1.700000*%
%TD*%
%TA.AperFunction,ComponentPad*%
%ADD16O,1.600000X1.200000*%
%TD*%
%TA.AperFunction,ComponentPad*%
%ADD17C,1.200000*%
%TD*%
%TA.AperFunction,ComponentPad*%
%ADD18RoundRect,0.250000X1.050000X-1.050000X1.050000X1.050000X-1.050000X1.050000X-1.050000X-1.050000X0*%
%TD*%
%TA.AperFunction,ComponentPad*%
%ADD19C,3.000000*%
%TD*%
%TA.AperFunction,ComponentPad*%
%ADD20C,2.500000*%
%TD*%
%TA.AperFunction,ComponentPad*%
%ADD21R,1.700000X1.700000*%
%TD*%
%TA.AperFunction,ComponentPad*%
%ADD22C,1.700000*%
%TD*%
%TA.AperFunction,ComponentPad*%
%ADD23RoundRect,0.249999X0.850001X-0.850001X0.850001X0.850001X-0.850001X0.850001X-0.850001X-0.850001X0*%
%TD*%
%TA.AperFunction,ComponentPad*%
%ADD24C,2.200000*%
%TD*%
%TA.AperFunction,ComponentPad*%
%ADD25RoundRect,0.250000X0.550000X-0.550000X0.550000X0.550000X-0.550000X0.550000X-0.550000X-0.550000X0*%
%TD*%
%TA.AperFunction,ComponentPad*%
%ADD26R,1.500000X1.500000*%
%TD*%
%TA.AperFunction,ComponentPad*%
%ADD27C,1.500000*%
%TD*%
%TA.AperFunction,ViaPad*%
%ADD28C,0.600000*%
%TD*%
%TA.AperFunction,Conductor*%
%ADD29C,0.300000*%
%TD*%
G04 APERTURE END LIST*
D10*
%TO.P,C3,1*%
%TO.N,+5V*%
X109359432Y-118494888D03*
D11*
%TO.P,C3,2*%
%TO.N,GND*%
X109359432Y-120494888D03*
%TD*%
D12*
%TO.P,J4,1,Pin_1_1*%
%TO.N,GND*%
X70839432Y-77400000D03*
D13*
%TO.P,J4,2,Pin_2_2*%
%TO.N,/Sensor inputs/soil_temp*%
X70839432Y-82400000D03*
%TO.P,J4,3,Pin_3_3*%
%TO.N,+3.3V*%
X70839432Y-87400000D03*
%TD*%
D12*
%TO.P,J3,1,Pin_1_1*%
%TO.N,/Sensor inputs/water level*%
X70839432Y-66100000D03*
D13*
%TO.P,J3,2,Pin_2_2*%
%TO.N,+3.3V*%
X70839432Y-71100000D03*
%TD*%
D14*
%TO.P,J5,1,Pin_1_1*%
%TO.N,GND*%
X91739432Y-68200000D03*
D13*
%TO.P,J5,2,Pin_2_2*%
%TO.N,/Sensor inputs/humidity*%
X86739432Y-68200000D03*
%TO.P,J5,3,Pin_3_3*%
%TO.N,+3.3V*%
X81739432Y-68200000D03*
%TD*%
D15*
%TO.P,USB1,7,EH_7*%
%TO.N,GND2*%
X142489432Y-57000000D03*
X142489432Y-60810000D03*
X151129432Y-57000000D03*
X151129432Y-60810000D03*
%TD*%
D16*
%TO.P,Q2,1,E_1*%
%TO.N,GND*%
X126559432Y-103329000D03*
D17*
%TO.P,Q2,2,B_2*%
%TO.N,Net-(Q2-B)*%
X124019432Y-100789000D03*
%TO.P,Q2,3,C_3*%
%TO.N,Net-(D1-A)*%
X121479432Y-103329000D03*
%TD*%
D18*
%TO.P,J10,1,Pin_1_1*%
%TO.N,GND1*%
X70172500Y-59100000D03*
D13*
%TO.P,J10,2,Pin_2_2*%
%TO.N,Net-(J10-Pin_2)*%
X70172500Y-54100000D03*
%TO.P,J10,3,Pin_3_3*%
%TO.N,Net-(J10-Pin_3)*%
X70172500Y-49100000D03*
%TO.P,J10,4,Pin_4_4*%
%TO.N,VDD*%
X70172500Y-44100000D03*
%TD*%
D18*
%TO.P,J6,1,Pin_1_1*%
%TO.N,/screen/rst*%
X147639432Y-124700000D03*
D13*
%TO.P,J6,2,Pin_2_2*%
%TO.N,/screen/cs*%
X147639432Y-119700000D03*
%TO.P,J6,3,Pin_3_3*%
%TO.N,/screen/dc*%
X147639432Y-114700000D03*
%TO.P,J6,4,Pin_4_4*%
%TO.N,/screen/sda*%
X147639432Y-109700000D03*
%TO.P,J6,5,Pin_5_5*%
%TO.N,/screen/scl*%
X147639432Y-104700000D03*
%TO.P,J6,6,Pin_6_6*%
%TO.N,GND*%
X147639432Y-99700000D03*
%TO.P,J6,7,Pin_7_7*%
%TO.N,+3.3V*%
X147639432Y-94700000D03*
%TD*%
D19*
%TO.P,K1,1*%
%TO.N,Net-(J9-Pin_2)*%
X96619432Y-110329000D03*
D20*
%TO.P,K1,2*%
%TO.N,Net-(D1-A)*%
X94669432Y-104279000D03*
D19*
%TO.P,K1,3*%
%TO.N,Net-(J9-Pin_1)*%
X82469432Y-104279000D03*
%TO.P,K1,4*%
%TO.N,N/C*%
X82419432Y-116329000D03*
D20*
%TO.P,K1,5*%
%TO.N,+5V*%
X94669432Y-116279000D03*
%TD*%
D21*
%TO.P,J8,1,Pin_1_1*%
%TO.N,GND*%
X129619432Y-86629000D03*
D22*
%TO.P,J8,2,Pin_2_2*%
%TO.N,/Programing pins/RX*%
X129619432Y-84089000D03*
%TO.P,J8,3,Pin_3_3*%
%TO.N,/Programing pins/TX*%
X129619432Y-81549000D03*
%TO.P,J8,4,Pin_4_4*%
%TO.N,+3.3V*%
X129619432Y-79009000D03*
%TD*%
D18*
%TO.P,J2,1,Pin_1_1*%
%TO.N,GND*%
X147619432Y-88729000D03*
D13*
%TO.P,J2,2,Pin_2_2*%
%TO.N,/Sensor inputs/air sensor*%
X147619432Y-83729000D03*
%TO.P,J2,3,Pin_3_3*%
%TO.N,/Sensor inputs/light sensor*%
X147619432Y-78729000D03*
%TO.P,J2,4,Pin_4_4*%
%TO.N,+3.3V*%
X147619432Y-73729000D03*
%TD*%
D23*
%TO.P,D1,1,K_1*%
%TO.N,+5V*%
X100379432Y-115069000D03*
D24*
%TO.P,D1,2,A_2*%
%TO.N,Net-(D1-A)*%
X100379432Y-104909000D03*
%TD*%
D25*
%TO.P,C7,1*%
%TO.N,+3.3V*%
X100859432Y-80995113D03*
D11*
%TO.P,C7,2*%
%TO.N,GND*%
X100859432Y-78995113D03*
%TD*%
D26*
%TO.P,U3,1,VDD_1*%
%TO.N,VDD*%
X89200000Y-47320000D03*
D27*
%TO.P,U3,2,SDA_2*%
%TO.N,Net-(J10-Pin_2)*%
X89200000Y-49860000D03*
%TO.P,U3,3,GND_3*%
%TO.N,GND1*%
X89200000Y-52400000D03*
%TO.P,U3,4,GND_4*%
X89200000Y-54940000D03*
%TD*%
D21*
%TO.P,J11,1,Pin_1_1*%
%TO.N,/control/input for G9*%
X113414432Y-91200000D03*
D22*
%TO.P,J11,2,Pin_2_2*%
%TO.N,GND*%
X110874432Y-91200000D03*
%TD*%
D12*
%TO.P,J9,1,Pin_1_1*%
%TO.N,Net-(J9-Pin_1)*%
X70879432Y-105289000D03*
D13*
%TO.P,J9,2,Pin_2_2*%
%TO.N,Net-(J9-Pin_2)*%
X70879432Y-110289000D03*
%TD*%
D12*
%TO.P,J7,1,Pin_1_1*%
%TO.N,Net-(J7-Pin_1)*%
X70839432Y-93800000D03*
D13*
%TO.P,J7,2,Pin_2_2*%
%TO.N,GND*%
X70839432Y-98800000D03*
%TD*%
D11*
%TO.P,R4,1*%
%TO.N,VDD*%
X83000000Y-46130000D03*
%TO.P,R4,2*%
%TO.N,Net-(J10-Pin_3)*%
X83000000Y-48670000D03*
%TD*%
D25*
%TO.P,C1,1*%
%TO.N,+3.3V*%
X109089432Y-103280000D03*
D11*
%TO.P,C1,2*%
%TO.N,GND*%
X109089432Y-101280000D03*
%TD*%
D28*
%TO.N,GND*%
X118419432Y-83929000D03*
X118019432Y-78329000D03*
X119619432Y-82629000D03*
X116419432Y-84629000D03*
X115619432Y-83929000D03*
X120419432Y-82629000D03*
X117619432Y-83929000D03*
X119619432Y-81929000D03*
X120419432Y-81929000D03*
X83539432Y-98800000D03*
X116419432Y-78329000D03*
X118419432Y-81929000D03*
X119619432Y-83929000D03*
X122819432Y-78229000D03*
X114019432Y-78329000D03*
X120419432Y-83929000D03*
X117619432Y-80729000D03*
X120419432Y-78229000D03*
X116419432Y-81929000D03*
X110719432Y-86329000D03*
X108699432Y-115350000D03*
X116419432Y-83929000D03*
X119619432Y-79929000D03*
X115619432Y-81929000D03*
X118419432Y-82629000D03*
X110719432Y-77329000D03*
X116419432Y-79929000D03*
X119619432Y-84629000D03*
X120419432Y-84629000D03*
X110719432Y-87329000D03*
X114819432Y-88529000D03*
X120419432Y-80729000D03*
X117619432Y-82629000D03*
X117619432Y-79929000D03*
X118419432Y-84629000D03*
X110719432Y-78329000D03*
X119619432Y-78229000D03*
X115619432Y-84629000D03*
X116019432Y-80329000D03*
X107239432Y-124700000D03*
X120419432Y-79929000D03*
X118419432Y-80729000D03*
X116419432Y-80729000D03*
X108199432Y-115850000D03*
X117619432Y-84629000D03*
X115619432Y-82629000D03*
X121219432Y-78229000D03*
X124019432Y-88529000D03*
X119619432Y-80729000D03*
X107699432Y-115350000D03*
X80539432Y-94200000D03*
X117619432Y-81929000D03*
X107739432Y-125200000D03*
X116419432Y-82629000D03*
X122019432Y-78229000D03*
X113219432Y-78329000D03*
X118419432Y-79929000D03*
X114819432Y-78329000D03*
X115619432Y-80729000D03*
X125319432Y-77329000D03*
X118819432Y-78329000D03*
X79339432Y-94200000D03*
X110719432Y-79129000D03*
X107239432Y-125700000D03*
X117219432Y-78329000D03*
X115619432Y-78329000D03*
%TO.N,+3.3V*%
X114489432Y-102950000D03*
X114489432Y-103950000D03*
X121739432Y-92200000D03*
X120139432Y-92200000D03*
X114989432Y-103450000D03*
%TO.N,/Sensor inputs/light sensor*%
X110769432Y-84679000D03*
%TO.N,/Sensor inputs/air sensor*%
X116419432Y-88629000D03*
%TO.N,/control/input for G9*%
X121739432Y-89087500D03*
%TO.N,/screen/rst*%
X125339432Y-84800000D03*
%TO.N,/screen/cs*%
X125339432Y-83800000D03*
%TO.N,GND2*%
X146354432Y-47450000D03*
X145354432Y-47450000D03*
X145854432Y-47950000D03*
X146854432Y-49450000D03*
X145354432Y-49450000D03*
%TD*%
%TO.N,/Sensor inputs/light sensor*%
D29*
X146698432Y-77808000D02*
X147619432Y-78729000D01*
X124164936Y-77378000D02*
X124966936Y-78180000D01*
X125768432Y-78180000D02*
X126140432Y-77808000D01*
X110769432Y-84679000D02*
X112368432Y-83080000D01*
X124966936Y-78180000D02*
X125768432Y-78180000D01*
X112368432Y-83080000D02*
X112368432Y-77976504D01*
X126140432Y-77808000D02*
X146698432Y-77808000D01*
X112368432Y-77976504D02*
X112966936Y-77378000D01*
X112966936Y-77378000D02*
X124164936Y-77378000D01*
%TO.N,/Sensor inputs/air sensor*%
X116419432Y-88629000D02*
X117622928Y-88629000D01*
X146778432Y-82888000D02*
X147619432Y-83729000D01*
X117622928Y-88629000D02*
X123363928Y-82888000D01*
X123363928Y-82888000D02*
X146778432Y-82888000D01*
%TO.N,/control/input for G9*%
X119626932Y-91200000D02*
X121739432Y-89087500D01*
X113414432Y-91200000D02*
X119626932Y-91200000D01*
%TO.N,/screen/rst*%
X147709432Y-122370000D02*
X147709432Y-124739000D01*
X125339432Y-84800000D02*
X125339432Y-100000000D01*
X125339432Y-100000000D02*
X147709432Y-122370000D01*
%TO.N,/screen/cs*%
X125339432Y-83800000D02*
X125990432Y-84451000D01*
X125990432Y-98020000D02*
X147709432Y-119739000D01*
X125990432Y-84451000D02*
X125990432Y-98020000D01*
%TO.N,VDD*%
X70172500Y-44100000D02*
X73392500Y-47320000D01*
X73392500Y-47320000D02*
X89200000Y-47320000D01*
%TO.N,Net-(J10-Pin_2)*%
X70172500Y-54100000D02*
X74412500Y-49860000D01*
X74412500Y-49860000D02*
X89200000Y-49860000D01*
%TD*%
M02*
