M48
; DRILL file KiCad 10.0.5-10.0.5~ubuntu24.04.1 date 2026-08-21T18:45:08
; FORMAT={-:-/ absolute / metric / decimal}
; #@! TF.CreationDate,2026-08-21T18:45:08+02:00
; #@! TF.GenerationSoftware,Kicad,Pcbnew,10.0.5-10.0.5~ubuntu24.04.1
; #@! TF.FileFunction,Plated,1,4,PTH
FMAT,2
METRIC
; #@! TA.AperFunction,Plated,PTH,ViaDrill
T1C0.300
; #@! TA.AperFunction,Plated,PTH,ComponentDrill
T2C0.500
; #@! TA.AperFunction,Plated,PTH,ComponentDrill
T3C0.700
; #@! TA.AperFunction,Plated,PTH,ComponentDrill
T4C0.800
; #@! TA.AperFunction,Plated,PTH,ComponentDrill
T5C1.000
; #@! TA.AperFunction,Plated,PTH,ComponentDrill
T6C1.100
; #@! TA.AperFunction,Plated,PTH,ComponentDrill
T7C1.300
%
G90
G05
T1
X79.339Y-94.2
X80.539Y-94.2
X83.539Y-98.8
X107.239Y-124.7
X107.239Y-125.7
X107.699Y-115.35
X107.739Y-125.2
X108.199Y-115.85
X108.699Y-115.35
X110.719Y-77.329
X110.719Y-78.329
X110.719Y-79.129
X110.719Y-86.329
X110.719Y-87.329
X110.769Y-84.679
X113.219Y-78.329
X114.019Y-78.329
X114.489Y-102.95
X114.489Y-103.95
X114.819Y-78.329
X114.819Y-88.529
X114.989Y-103.45
X115.619Y-78.329
X115.619Y-80.729
X115.619Y-81.929
X115.619Y-82.629
X115.619Y-83.929
X115.619Y-84.629
X116.019Y-80.329
X116.419Y-78.329
X116.419Y-79.929
X116.419Y-80.729
X116.419Y-81.929
X116.419Y-82.629
X116.419Y-83.929
X116.419Y-84.629
X116.419Y-88.629
X117.219Y-78.329
X117.619Y-79.929
X117.619Y-80.729
X117.619Y-81.929
X117.619Y-82.629
X117.619Y-83.929
X117.619Y-84.629
X118.019Y-78.329
X118.419Y-79.929
X118.419Y-80.729
X118.419Y-81.929
X118.419Y-82.629
X118.419Y-83.929
X118.419Y-84.629
X118.819Y-78.329
X119.619Y-78.229
X119.619Y-79.929
X119.619Y-80.729
X119.619Y-81.929
X119.619Y-82.629
X119.619Y-83.929
X119.619Y-84.629
X120.139Y-92.2
X120.419Y-78.229
X120.419Y-79.929
X120.419Y-80.729
X120.419Y-81.929
X120.419Y-82.629
X120.419Y-83.929
X120.419Y-84.629
X121.219Y-78.229
X121.739Y-89.087
X121.739Y-92.2
X122.019Y-78.229
X122.819Y-78.229
X124.019Y-88.529
X125.319Y-77.329
X125.339Y-83.8
X125.339Y-84.8
X145.354Y-47.45
X145.354Y-49.45
X145.854Y-47.95
X146.354Y-47.45
X146.854Y-49.45
T3
X121.479Y-103.329
X124.019Y-100.789
X126.559Y-103.329
T4
X83.0Y-46.13
X83.0Y-48.67
X89.2Y-47.32
X89.2Y-49.86
X89.2Y-52.4
X89.2Y-54.94
X100.859Y-78.995
X100.859Y-80.995
X109.089Y-101.28
X109.089Y-103.28
X109.359Y-118.495
X109.359Y-120.495
T5
X94.669Y-104.279
X94.669Y-116.279
X110.874Y-91.2
X113.414Y-91.2
X129.619Y-79.009
X129.619Y-81.549
X129.619Y-84.089
X129.619Y-86.629
T6
X100.379Y-104.909
X100.379Y-115.069
T7
X70.172Y-44.1
X70.172Y-49.1
X70.172Y-54.1
X70.172Y-59.1
X70.839Y-66.1
X70.839Y-71.1
X70.839Y-77.4
X70.839Y-82.4
X70.839Y-87.4
X70.839Y-93.8
X70.839Y-98.8
X70.879Y-105.289
X70.879Y-110.289
X81.739Y-68.2
X82.419Y-116.329
X82.469Y-104.279
X86.739Y-68.2
X91.739Y-68.2
X96.619Y-110.329
X147.619Y-73.729
X147.619Y-78.729
X147.619Y-83.729
X147.619Y-88.729
X147.639Y-94.7
X147.639Y-99.7
X147.639Y-104.7
X147.639Y-109.7
X147.639Y-114.7
X147.639Y-119.7
X147.639Y-124.7
T2
G00X142.489Y-56.65
M15
G01X142.489Y-57.35
M16
G05
G00X142.489Y-60.46
M15
G01X142.489Y-61.16
M16
G05
G00X151.129Y-56.65
M15
G01X151.129Y-57.35
M16
G05
G00X151.129Y-60.46
M15
G01X151.129Y-61.16
M16
G05
M30
