%TF.GenerationSoftware,KiCad,Pcbnew,10.0.5-10.0.5~ubuntu24.04.1*%
%TF.CreationDate,2026-08-25T13:52:06+02:00*%
%TF.ProjectId,pcb,7063622e-6b69-4636-9164-5f7063625858,rev?*%
%TF.SameCoordinates,Original*%
%TF.FileFunction,Copper,L3,Inr*%
%TF.FilePolarity,Positive*%
%FSLAX46Y46*%
G04 Gerber Fmt 4.6, Leading zero omitted, Abs format (unit mm)*
G04 Created by KiCad (PCBNEW 10.0.5-10.0.5~ubuntu24.04.1) date 2026-08-25 13:52:06*
%MOMM*%
%LPD*%
G01*
G04 APERTURE LIST*
G04 Aperture macros list*
%AMRoundRect*
0 Rectangle with rounded corners*
0 $1 Rounding radius*
0 $2 $3 $4 $5 $6 $7 $8 $9 X,Y pos of 4 corners*
0 Add a 4 corners polygon primitive as box body*
4,1,4,$2,$3,$4,$5,$6,$7,$8,$9,$2,$3,0*
0 Add four circle primitives for the rounded corners*
1,1,$1+$1,$2,$3*
1,1,$1+$1,$4,$5*
1,1,$1+$1,$6,$7*
1,1,$1+$1,$8,$9*
0 Add four rect primitives between the rounded corners*
20,1,$1+$1,$2,$3,$4,$5,0*
20,1,$1+$1,$4,$5,$6,$7,0*
20,1,$1+$1,$6,$7,$8,$9,0*
20,1,$1+$1,$8,$9,$2,$3,0*%
G04 Aperture macros list end*
%TA.AperFunction,ComponentPad*%
%ADD10RoundRect,0.250000X-0.550000X0.550000X-0.550000X-0.550000X0.550000X-0.550000X0.550000X0.550000X0*%
%TD*%
%TA.AperFunction,ComponentPad*%
%ADD11C,1.600000*%
%TD*%
%TA.AperFunction,ComponentPad*%
%ADD12RoundRect,0.250000X-1.050000X1.050000X-1.050000X-1.050000X1.050000X-1.050000X1.050000X1.050000X0*%
%TD*%
%TA.AperFunction,ComponentPad*%
%ADD13C,2.600000*%
%TD*%
%TA.AperFunction,ComponentPad*%
%ADD14RoundRect,0.250000X0.550000X-0.550000X0.550000X0.550000X-0.550000X0.550000X-0.550000X-0.550000X0*%
%TD*%
%TA.AperFunction,ComponentPad*%
%ADD15RoundRect,0.250000X1.050000X1.050000X-1.050000X1.050000X-1.050000X-1.050000X1.050000X-1.050000X0*%
%TD*%
%TA.AperFunction,ComponentPad*%
%ADD16O,1.000000X1.700000*%
%TD*%
%TA.AperFunction,ComponentPad*%
%ADD17O,1.600000X1.200000*%
%TD*%
%TA.AperFunction,ComponentPad*%
%ADD18C,1.200000*%
%TD*%
%TA.AperFunction,ComponentPad*%
%ADD19RoundRect,0.250000X1.050000X-1.050000X1.050000X1.050000X-1.050000X1.050000X-1.050000X-1.050000X0*%
%TD*%
%TA.AperFunction,ComponentPad*%
%ADD20C,3.000000*%
%TD*%
%TA.AperFunction,ComponentPad*%
%ADD21C,2.500000*%
%TD*%
%TA.AperFunction,ComponentPad*%
%ADD22R,1.700000X1.700000*%
%TD*%
%TA.AperFunction,ComponentPad*%
%ADD23C,1.700000*%
%TD*%
%TA.AperFunction,ComponentPad*%
%ADD24RoundRect,0.249999X0.850001X-0.850001X0.850001X0.850001X-0.850001X0.850001X-0.850001X-0.850001X0*%
%TD*%
%TA.AperFunction,ComponentPad*%
%ADD25C,2.200000*%
%TD*%
%TA.AperFunction,ViaPad*%
%ADD26C,0.600000*%
%TD*%
G04 APERTURE END LIST*
D10*
%TO.N,+5V*%
%TO.C,C3*%
X109359432Y-118494888D03*
D11*
%TO.N,GND*%
X109359432Y-120494888D03*
%TD*%
D12*
%TO.N,GND*%
%TO.C,J4*%
X70839432Y-77400000D03*
D13*
%TO.N,/Sensor inputs/soil_temp*%
X70839432Y-82400000D03*
%TO.N,+3.3V*%
X70839432Y-87400000D03*
%TD*%
D14*
%TO.N,+3.3V*%
%TO.C,C5*%
X109064432Y-103175000D03*
D11*
%TO.N,GND*%
X109064432Y-101175000D03*
%TD*%
D12*
%TO.N,/Sensor inputs/water level*%
%TO.C,J3*%
X70839432Y-66100000D03*
D13*
%TO.N,GND*%
X70839432Y-71100000D03*
%TD*%
D15*
%TO.N,GND*%
%TO.C,J5*%
X91739432Y-68200000D03*
D13*
%TO.N,/Sensor inputs/humidity*%
X86739432Y-68200000D03*
%TO.N,+3.3V*%
X81739432Y-68200000D03*
%TD*%
D16*
%TO.N,GND*%
%TO.C,USB1*%
X97365432Y-122195500D03*
X97365432Y-126005500D03*
X106005432Y-122195500D03*
X106005432Y-126005500D03*
%TD*%
D17*
%TO.N,GND*%
%TO.C,Q2*%
X126559432Y-103329000D03*
D18*
%TO.N,Net-(Q2-B)*%
X124019432Y-100789000D03*
%TO.N,Net-(D1-A)*%
X121479432Y-103329000D03*
%TD*%
D19*
%TO.N,/screen/rst*%
%TO.C,J6*%
X147639432Y-124700000D03*
D13*
%TO.N,/screen/cs*%
X147639432Y-119700000D03*
%TO.N,/screen/dc*%
X147639432Y-114700000D03*
%TO.N,/screen/sda*%
X147639432Y-109700000D03*
%TO.N,/screen/scl*%
X147639432Y-104700000D03*
%TO.N,GND*%
X147639432Y-99700000D03*
%TO.N,+3.3V*%
X147639432Y-94700000D03*
%TD*%
D20*
%TO.N,Net-(J9-Pin_2)*%
%TO.C,K1*%
X96619432Y-110329000D03*
D21*
%TO.N,Net-(D1-A)*%
X94669432Y-104279000D03*
D20*
%TO.N,Net-(J9-Pin_1)*%
X82469432Y-104279000D03*
%TO.N,N/C*%
X82419432Y-116329000D03*
D21*
%TO.N,+5V*%
X94669432Y-116279000D03*
%TD*%
D22*
%TO.N,GND*%
%TO.C,J8*%
X129619432Y-86629000D03*
D23*
%TO.N,/Programing pins/RX*%
X129619432Y-84089000D03*
%TO.N,/Programing pins/TX*%
X129619432Y-81549000D03*
%TO.N,+3.3V*%
X129619432Y-79009000D03*
%TD*%
D19*
%TO.N,GND*%
%TO.C,J2*%
X147619432Y-88729000D03*
D13*
%TO.N,/Sensor inputs/air sensor*%
X147619432Y-83729000D03*
%TO.N,/Sensor inputs/light sensor*%
X147619432Y-78729000D03*
%TO.N,+3.3V*%
X147619432Y-73729000D03*
%TD*%
D24*
%TO.N,+5V*%
%TO.C,D1*%
X100379432Y-115069000D03*
D25*
%TO.N,Net-(D1-A)*%
X100379432Y-104909000D03*
%TD*%
D22*
%TO.N,/control/input for G9*%
%TO.C,J11*%
X113414432Y-91200000D03*
D23*
%TO.N,GND*%
X110874432Y-91200000D03*
%TD*%
D12*
%TO.N,Net-(J9-Pin_1)*%
%TO.C,J9*%
X70879432Y-105289000D03*
D13*
%TO.N,Net-(J9-Pin_2)*%
X70879432Y-110289000D03*
%TD*%
D12*
%TO.N,Net-(J7-Pin_1)*%
%TO.C,J7*%
X70839432Y-93800000D03*
D13*
%TO.N,GND*%
X70839432Y-98800000D03*
%TD*%
D14*
%TO.N,+3.3V*%
%TO.C,C1*%
X100923432Y-80935113D03*
D11*
%TO.N,GND*%
X100923432Y-78935113D03*
%TD*%
D26*
%TO.N,GND*%
X118419432Y-83929000D03*
X118019432Y-78329000D03*
X119619432Y-82629000D03*
X91525432Y-124430000D03*
X116419432Y-84629000D03*
X115619432Y-83929000D03*
X120419432Y-82629000D03*
X117619432Y-83929000D03*
X119619432Y-81929000D03*
X120419432Y-81929000D03*
X83539432Y-98800000D03*
X116419432Y-78329000D03*
X118419432Y-81929000D03*
X119619432Y-83929000D03*
X122819432Y-78229000D03*
X114019432Y-78329000D03*
X120419432Y-83929000D03*
X117619432Y-80729000D03*
X91525432Y-122906000D03*
X120419432Y-78229000D03*
X116419432Y-81929000D03*
X110719432Y-86329000D03*
X108699432Y-115350000D03*
X116419432Y-83929000D03*
X119619432Y-79929000D03*
X115619432Y-81929000D03*
X118419432Y-82629000D03*
X110719432Y-77329000D03*
X116419432Y-79929000D03*
X119619432Y-84629000D03*
X120419432Y-84629000D03*
X110719432Y-87329000D03*
X114819432Y-88529000D03*
X120419432Y-80729000D03*
X117619432Y-82629000D03*
X117619432Y-79929000D03*
X118419432Y-84629000D03*
X110719432Y-78329000D03*
X119619432Y-78229000D03*
X115619432Y-84629000D03*
X116019432Y-80329000D03*
X120419432Y-79929000D03*
X118419432Y-80729000D03*
X116419432Y-80729000D03*
X108199432Y-115850000D03*
X117619432Y-84629000D03*
X115619432Y-82629000D03*
X121219432Y-78229000D03*
X124019432Y-88529000D03*
X119619432Y-80729000D03*
X107699432Y-115350000D03*
X80539432Y-94200000D03*
X117619432Y-81929000D03*
X116419432Y-82629000D03*
X122019432Y-78229000D03*
X113219432Y-78329000D03*
X118419432Y-79929000D03*
X114819432Y-78329000D03*
X115619432Y-80729000D03*
X125319432Y-77329000D03*
X118819432Y-78329000D03*
X79339432Y-94200000D03*
X110719432Y-79129000D03*
X117219432Y-78329000D03*
X115619432Y-78329000D03*
%TO.N,+3.3V*%
X114489432Y-102950000D03*
X114489432Y-103950000D03*
X121739432Y-92200000D03*
X120139432Y-92200000D03*
X114989432Y-103450000D03*
%TO.N,/Sensor inputs/light sensor*%
X110769432Y-84679000D03*
%TO.N,/control/input for G9*%
X121739432Y-89087500D03*
%TO.N,/screen/rst*%
X125339432Y-84800000D03*
%TO.N,/screen/cs*%
X125339432Y-83800000D03*
%TO.N,/Sensor inputs/air sensor*%
X116419432Y-88629000D03*
%TD*%
%TA.AperFunction,Conductor*%
%TO.N,+3.3V*%
G36*
X96373666Y-63320185D02*
G01*
X96419421Y-63372989D01*
X96430627Y-63424605D01*
X96424040Y-71223134D01*
X96419432Y-71238778D01*
X96419432Y-71279000D01*
X96419432Y-76679000D01*
X110080115Y-76679000D01*
X110147154Y-76698685D01*
X110192909Y-76751489D01*
X110202853Y-76820647D01*
X110178044Y-76876953D01*
X110178702Y-76877393D01*
X110176204Y-76881130D01*
X110175971Y-76881661D01*
X110175320Y-76882453D01*
X110098660Y-76997182D01*
X110098653Y-76997195D01*
X110045853Y-77124667D01*
X110045850Y-77124677D01*
X110018932Y-77260004D01*
X110018932Y-77260007D01*
X110018932Y-77397993D01*
X110018932Y-77397995D01*
X110018931Y-77397995D01*
X110045850Y-77533322D01*
X110045853Y-77533332D01*
X110098653Y-77660804D01*
X110098660Y-77660817D01*
X110165005Y-77760109D01*
X110185883Y-77826787D01*
X110167398Y-77894167D01*
X110165005Y-77897891D01*
X110098660Y-77997182D01*
X110098653Y-77997195D01*
X110045853Y-78124667D01*
X110045850Y-78124677D01*
X110018932Y-78260004D01*
X110018932Y-78260007D01*
X110018932Y-78397993D01*
X110018932Y-78397995D01*
X110018931Y-78397995D01*
X110045850Y-78533322D01*
X110045853Y-78533332D01*
X110098655Y-78660809D01*
X110101527Y-78666181D01*
X110100297Y-78666837D01*
X110119066Y-78726805D01*
X110101258Y-78791675D01*
X110101527Y-78791819D01*
X110100895Y-78793000D01*
X110100571Y-78794182D01*
X110098748Y-78797017D01*
X110098655Y-78797190D01*
X110045853Y-78924667D01*
X110045850Y-78924677D01*
X110018932Y-79060004D01*
X110018932Y-79060007D01*
X110018932Y-79197993D01*
X110018932Y-79197995D01*
X110018931Y-79197995D01*
X110045850Y-79333322D01*
X110045853Y-79333332D01*
X110098653Y-79460804D01*
X110098660Y-79460817D01*
X110175317Y-79575541D01*
X110175320Y-79575545D01*
X110272886Y-79673111D01*
X110272890Y-79673114D01*
X110387614Y-79749771D01*
X110387627Y-79749778D01*
X110491483Y-79792796D01*
X110515104Y-79802580D01*
X110515108Y-79802580D01*
X110515109Y-79802581D01*
X110650436Y-79829500D01*
X110650439Y-79829500D01*
X110788427Y-79829500D01*
X110879473Y-79811389D01*
X110923760Y-79802580D01*
X111051243Y-79749775D01*
X111165974Y-79673114D01*
X111263546Y-79575542D01*
X111340207Y-79460811D01*
X111393012Y-79333328D01*
X111408509Y-79255420D01*
X111419932Y-79197995D01*
X111419932Y-79060004D01*
X111393013Y-78924677D01*
X111393012Y-78924676D01*
X111393012Y-78924672D01*
X111383861Y-78902580D01*
X111340209Y-78797193D01*
X111337338Y-78791822D01*
X111338571Y-78791162D01*
X111319797Y-78731228D01*
X111337596Y-78666316D01*
X111337338Y-78666178D01*
X111337946Y-78665040D01*
X111338274Y-78663845D01*
X111340122Y-78660968D01*
X111340203Y-78660816D01*
X111340207Y-78660811D01*
X111393012Y-78533328D01*
X111412903Y-78433332D01*
X111419932Y-78397995D01*
X112518931Y-78397995D01*
X112545850Y-78533322D01*
X112545853Y-78533332D01*
X112598653Y-78660804D01*
X112598660Y-78660817D01*
X112675317Y-78775541D01*
X112675320Y-78775545D01*
X112772886Y-78873111D01*
X112772890Y-78873114D01*
X112887614Y-78949771D01*
X112887627Y-78949778D01*
X113008006Y-78999640D01*
X113015104Y-79002580D01*
X113015108Y-79002580D01*
X113015109Y-79002581D01*
X113150436Y-79029500D01*
X113150439Y-79029500D01*
X113288427Y-79029500D01*
X113379473Y-79011389D01*
X113423760Y-79002580D01*
X113551243Y-78949775D01*
X113551248Y-78949771D01*
X113556610Y-78946906D01*
X113557269Y-78948139D01*
X113617204Y-78929365D01*
X113682115Y-78947164D01*
X113682254Y-78946906D01*
X113683391Y-78947514D01*
X113684587Y-78947842D01*
X113687463Y-78949690D01*
X113687625Y-78949777D01*
X113731818Y-78968082D01*
X113815104Y-79002580D01*
X113815108Y-79002580D01*
X113815109Y-79002581D01*
X113950436Y-79029500D01*
X113950439Y-79029500D01*
X114088427Y-79029500D01*
X114179473Y-79011389D01*
X114223760Y-79002580D01*
X114351243Y-78949775D01*
X114351248Y-78949771D01*
X114356610Y-78946906D01*
X114357269Y-78948139D01*
X114417204Y-78929365D01*
X114482115Y-78947164D01*
X114482254Y-78946906D01*
X114483391Y-78947514D01*
X114484587Y-78947842D01*
X114487463Y-78949690D01*
X114487625Y-78949777D01*
X114531818Y-78968082D01*
X114615104Y-79002580D01*
X114615108Y-79002580D01*
X114615109Y-79002581D01*
X114750436Y-79029500D01*
X114750439Y-79029500D01*
X114888427Y-79029500D01*
X114979473Y-79011389D01*
X115023760Y-79002580D01*
X115151243Y-78949775D01*
X115151248Y-78949771D01*
X115156610Y-78946906D01*
X115157269Y-78948139D01*
X115217204Y-78929365D01*
X115282115Y-78947164D01*
X115282254Y-78946906D01*
X115283391Y-78947514D01*
X115284587Y-78947842D01*
X115287463Y-78949690D01*
X115287625Y-78949777D01*
X115331818Y-78968082D01*
X115415104Y-79002580D01*
X115415108Y-79002580D01*
X115415109Y-79002581D01*
X115550436Y-79029500D01*
X115550439Y-79029500D01*
X115688427Y-79029500D01*
X115779473Y-79011389D01*
X115823760Y-79002580D01*
X115951243Y-78949775D01*
X115951248Y-78949771D01*
X115956610Y-78946906D01*
X115957269Y-78948139D01*
X116017204Y-78929365D01*
X116082115Y-78947164D01*
X116082254Y-78946906D01*
X116083391Y-78947514D01*
X116084587Y-78947842D01*
X116087463Y-78949690D01*
X116087625Y-78949777D01*
X116131818Y-78968082D01*
X116215104Y-79002580D01*
X116215108Y-79002580D01*
X116215109Y-79002581D01*
X116239248Y-79007383D01*
X116301159Y-79039768D01*
X116335733Y-79100484D01*
X116331993Y-79170254D01*
X116291126Y-79226925D01*
X116239248Y-79250617D01*
X116215109Y-79255418D01*
X116215099Y-79255421D01*
X116087627Y-79308221D01*
X116087614Y-79308228D01*
X115972890Y-79384885D01*
X115972886Y-79384888D01*
X115875320Y-79482454D01*
X115875314Y-79482462D01*
X115798658Y-79597186D01*
X115798654Y-79597192D01*
X115785789Y-79628252D01*
X115741947Y-79682655D01*
X115718684Y-79695357D01*
X115687624Y-79708222D01*
X115687618Y-79708226D01*
X115572894Y-79784882D01*
X115572886Y-79784888D01*
X115475320Y-79882454D01*
X115475314Y-79882462D01*
X115398658Y-79997186D01*
X115398654Y-79997192D01*
X115385789Y-80028252D01*
X115341947Y-80082655D01*
X115318684Y-80095357D01*
X115287624Y-80108222D01*
X115287618Y-80108226D01*
X115172894Y-80184882D01*
X115172886Y-80184888D01*
X115075320Y-80282454D01*
X115075317Y-80282458D01*
X114998660Y-80397182D01*
X114998653Y-80397195D01*
X114945853Y-80524667D01*
X114945850Y-80524677D01*
X114918932Y-80660004D01*
X114918932Y-80660007D01*
X114918932Y-80797993D01*
X114918932Y-80797995D01*
X114918931Y-80797995D01*
X114945850Y-80933322D01*
X114945853Y-80933332D01*
X114998653Y-81060804D01*
X114998660Y-81060817D01*
X115075317Y-81175541D01*
X115075320Y-81175545D01*
X115141094Y-81241319D01*
X115174579Y-81302642D01*
X115169595Y-81372334D01*
X115141094Y-81416681D01*
X115075320Y-81482454D01*
X115075317Y-81482458D01*
X114998660Y-81597182D01*
X114998653Y-81597195D01*
X114945853Y-81724667D01*
X114945850Y-81724677D01*
X114918932Y-81860004D01*
X114918932Y-81860007D01*
X114918932Y-81997993D01*
X114918932Y-81997995D01*
X114918931Y-81997995D01*
X114945850Y-82133322D01*
X114945853Y-82133332D01*
X114986535Y-82231548D01*
X114994004Y-82301017D01*
X114986535Y-82326452D01*
X114945853Y-82424667D01*
X114945850Y-82424677D01*
X114918932Y-82560004D01*
X114918932Y-82560007D01*
X114918932Y-82697993D01*
X114918932Y-82697995D01*
X114918931Y-82697995D01*
X114945850Y-82833322D01*
X114945853Y-82833332D01*
X114998653Y-82960804D01*
X114998660Y-82960817D01*
X115075317Y-83075541D01*
X115075320Y-83075545D01*
X115172886Y-83173111D01*
X115172890Y-83173114D01*
X115177056Y-83175898D01*
X115221861Y-83229510D01*
X115230568Y-83298835D01*
X115200413Y-83361863D01*
X115177056Y-83382102D01*
X115172890Y-83384885D01*
X115172886Y-83384888D01*
X115075320Y-83482454D01*
X115075317Y-83482458D01*
X114998660Y-83597182D01*
X114998653Y-83597195D01*
X114945853Y-83724667D01*
X114945850Y-83724677D01*
X114918932Y-83860004D01*
X114918932Y-83860007D01*
X114918932Y-83997993D01*
X114918932Y-83997995D01*
X114918931Y-83997995D01*
X114945850Y-84133322D01*
X114945853Y-84133332D01*
X114986535Y-84231548D01*
X114994004Y-84301017D01*
X114986535Y-84326452D01*
X114945853Y-84424667D01*
X114945850Y-84424677D01*
X114918932Y-84560004D01*
X114918932Y-84560007D01*
X114918932Y-84697993D01*
X114918932Y-84697995D01*
X114918931Y-84697995D01*
X114945850Y-84833322D01*
X114945853Y-84833332D01*
X114998653Y-84960804D01*
X114998660Y-84960817D01*
X115075317Y-85075541D01*
X115075320Y-85075545D01*
X115172886Y-85173111D01*
X115172890Y-85173114D01*
X115287614Y-85249771D01*
X115287627Y-85249778D01*
X115410080Y-85300499D01*
X115415104Y-85302580D01*
X115415108Y-85302580D01*
X115415109Y-85302581D01*
X115550436Y-85329500D01*
X115550439Y-85329500D01*
X115688427Y-85329500D01*
X115806511Y-85306011D01*
X115823760Y-85302580D01*
X115951243Y-85249775D01*
X115951248Y-85249771D01*
X115956610Y-85246906D01*
X115957269Y-85248139D01*
X116017204Y-85229365D01*
X116082115Y-85247164D01*
X116082254Y-85246906D01*
X116083391Y-85247514D01*
X116084587Y-85247842D01*
X116087463Y-85249690D01*
X116087625Y-85249777D01*
X116210080Y-85300499D01*
X116215104Y-85302580D01*
X116215108Y-85302580D01*
X116215109Y-85302581D01*
X116350436Y-85329500D01*
X116350439Y-85329500D01*
X116488427Y-85329500D01*
X116606511Y-85306011D01*
X116623760Y-85302580D01*
X116751243Y-85249775D01*
X116865974Y-85173114D01*
X116893697Y-85145391D01*
X116931751Y-85107338D01*
X116993074Y-85073853D01*
X117062766Y-85078837D01*
X117107113Y-85107338D01*
X117172886Y-85173111D01*
X117172890Y-85173114D01*
X117287614Y-85249771D01*
X117287627Y-85249778D01*
X117410080Y-85300499D01*
X117415104Y-85302580D01*
X117415108Y-85302580D01*
X117415109Y-85302581D01*
X117550436Y-85329500D01*
X117550439Y-85329500D01*
X117688427Y-85329500D01*
X117806511Y-85306011D01*
X117823760Y-85302580D01*
X117951243Y-85249775D01*
X117951248Y-85249771D01*
X117956610Y-85246906D01*
X117957269Y-85248139D01*
X118017204Y-85229365D01*
X118082115Y-85247164D01*
X118082254Y-85246906D01*
X118083391Y-85247514D01*
X118084587Y-85247842D01*
X118087463Y-85249690D01*
X118087625Y-85249777D01*
X118210080Y-85300499D01*
X118215104Y-85302580D01*
X118215108Y-85302580D01*
X118215109Y-85302581D01*
X118350436Y-85329500D01*
X118350439Y-85329500D01*
X118488427Y-85329500D01*
X118606511Y-85306011D01*
X118623760Y-85302580D01*
X118751243Y-85249775D01*
X118865974Y-85173114D01*
X118893697Y-85145391D01*
X118931751Y-85107338D01*
X118993074Y-85073853D01*
X119062766Y-85078837D01*
X119107113Y-85107338D01*
X119172886Y-85173111D01*
X119172890Y-85173114D01*
X119287614Y-85249771D01*
X119287627Y-85249778D01*
X119410080Y-85300499D01*
X119415104Y-85302580D01*
X119415108Y-85302580D01*
X119415109Y-85302581D01*
X119550436Y-85329500D01*
X119550439Y-85329500D01*
X119688427Y-85329500D01*
X119806511Y-85306011D01*
X119823760Y-85302580D01*
X119951243Y-85249775D01*
X119951248Y-85249771D01*
X119956610Y-85246906D01*
X119957269Y-85248139D01*
X120017204Y-85229365D01*
X120082115Y-85247164D01*
X120082254Y-85246906D01*
X120083391Y-85247514D01*
X120084587Y-85247842D01*
X120087463Y-85249690D01*
X120087625Y-85249777D01*
X120210080Y-85300499D01*
X120215104Y-85302580D01*
X120215108Y-85302580D01*
X120215109Y-85302581D01*
X120350436Y-85329500D01*
X120350439Y-85329500D01*
X120488427Y-85329500D01*
X120606511Y-85306011D01*
X120623760Y-85302580D01*
X120751243Y-85249775D01*
X120865974Y-85173114D01*
X120963546Y-85075542D01*
X121040207Y-84960811D01*
X121093012Y-84833328D01*
X121107865Y-84758657D01*
X121119932Y-84697995D01*
X121119932Y-84560004D01*
X121093013Y-84424677D01*
X121093012Y-84424676D01*
X121093012Y-84424672D01*
X121052327Y-84326451D01*
X121044859Y-84256984D01*
X121052328Y-84231548D01*
X121093012Y-84133328D01*
X121101821Y-84089041D01*
X121119932Y-83997995D01*
X121119932Y-83860004D01*
X121119931Y-83860002D01*
X121098085Y-83750172D01*
X121094889Y-83734108D01*
X124838932Y-83734108D01*
X124838932Y-83865891D01*
X124873040Y-83993187D01*
X124875815Y-83997993D01*
X124938932Y-84107314D01*
X124938934Y-84107316D01*
X125032119Y-84200501D01*
X125033590Y-84201630D01*
X125034515Y-84202897D01*
X125037865Y-84206247D01*
X125037342Y-84206769D01*
X125074788Y-84258060D01*
X125078938Y-84327807D01*
X125044721Y-84388725D01*
X125033590Y-84398370D01*
X125032119Y-84399498D01*
X124938934Y-84492683D01*
X124938932Y-84492686D01*
X124873040Y-84606812D01*
X124846326Y-84706512D01*
X124838932Y-84734108D01*
X124838932Y-84865892D01*
X124840975Y-84873517D01*
X124873040Y-84993187D01*
X124884100Y-85012343D01*
X124938932Y-85107314D01*
X125032118Y-85200500D01*
X125146246Y-85266392D01*
X125273540Y-85300500D01*
X125273542Y-85300500D01*
X125405322Y-85300500D01*
X125405324Y-85300500D01*
X125532618Y-85266392D01*
X125646746Y-85200500D01*
X125739932Y-85107314D01*
X125805824Y-84993186D01*
X125839932Y-84865892D01*
X125839932Y-84734108D01*
X125805824Y-84606814D01*
X125739932Y-84492686D01*
X125646746Y-84399500D01*
X125646743Y-84399498D01*
X125645279Y-84398375D01*
X125644353Y-84397107D01*
X125640999Y-84393753D01*
X125641522Y-84393229D01*
X125604077Y-84341947D01*
X125599923Y-84272201D01*
X125634136Y-84211281D01*
X125645279Y-84201625D01*
X125646738Y-84200504D01*
X125646746Y-84200500D01*
X125739932Y-84107314D01*
X125805824Y-83993186D01*
X125839932Y-83865892D01*
X125839932Y-83734108D01*
X125805824Y-83606814D01*
X125800270Y-83597195D01*
X125782316Y-83566097D01*
X125739932Y-83492686D01*
X125646746Y-83399500D01*
X125567569Y-83353787D01*
X125532619Y-83333608D01*
X125437886Y-83308225D01*
X125405324Y-83299500D01*
X125273540Y-83299500D01*
X125146244Y-83333608D01*
X125032118Y-83399500D01*
X125032115Y-83399502D01*
X124938934Y-83492683D01*
X124938932Y-83492686D01*
X124873040Y-83606812D01*
X124838932Y-83734108D01*
X121094889Y-83734108D01*
X121093013Y-83724677D01*
X121093012Y-83724676D01*
X121093012Y-83724672D01*
X121075893Y-83683342D01*
X121040210Y-83597195D01*
X121040203Y-83597182D01*
X120963546Y-83482458D01*
X120963543Y-83482454D01*
X120865977Y-83384888D01*
X120865973Y-83384885D01*
X120861812Y-83382105D01*
X120817004Y-83328495D01*
X120808294Y-83259171D01*
X120838445Y-83196142D01*
X120861812Y-83175895D01*
X120862009Y-83175762D01*
X120865974Y-83173114D01*
X120963546Y-83075542D01*
X121040207Y-82960811D01*
X121093012Y-82833328D01*
X121119932Y-82697993D01*
X121119932Y-82560007D01*
X121119932Y-82560004D01*
X121093013Y-82424677D01*
X121093012Y-82424676D01*
X121093012Y-82424672D01*
X121052327Y-82326451D01*
X121044859Y-82256984D01*
X121052328Y-82231548D01*
X121093012Y-82133328D01*
X121109859Y-82048632D01*
X121119932Y-81997995D01*
X121119932Y-81860004D01*
X121093013Y-81724677D01*
X121093012Y-81724676D01*
X121093012Y-81724672D01*
X121063105Y-81652469D01*
X121040210Y-81597195D01*
X121040203Y-81597182D01*
X120985637Y-81515520D01*
X120963546Y-81482458D01*
X120895268Y-81414180D01*
X120892904Y-81411529D01*
X120879396Y-81383031D01*
X120864285Y-81355358D01*
X120864546Y-81351703D01*
X120862977Y-81348393D01*
X120867019Y-81317125D01*
X120869269Y-81285666D01*
X120871543Y-81282126D01*
X120871935Y-81279100D01*
X120878502Y-81271299D01*
X120897770Y-81241319D01*
X120963543Y-81175545D01*
X120963546Y-81175542D01*
X121040207Y-81060811D01*
X121093012Y-80933328D01*
X121119932Y-80797993D01*
X121119932Y-80660007D01*
X121119932Y-80660004D01*
X121093013Y-80524677D01*
X121093012Y-80524676D01*
X121093012Y-80524672D01*
X121057816Y-80439700D01*
X121040209Y-80397193D01*
X121037338Y-80391822D01*
X121038571Y-80391162D01*
X121019797Y-80331228D01*
X121037596Y-80266316D01*
X121037338Y-80266178D01*
X121037946Y-80265040D01*
X121038274Y-80263845D01*
X121040122Y-80260968D01*
X121040203Y-80260816D01*
X121040207Y-80260811D01*
X121093012Y-80133328D01*
X121119932Y-79997993D01*
X121119932Y-79860007D01*
X121119932Y-79860004D01*
X121093013Y-79724677D01*
X121093012Y-79724676D01*
X121093012Y-79724672D01*
X121089911Y-79717186D01*
X121040210Y-79597195D01*
X121040203Y-79597182D01*
X120963546Y-79482458D01*
X120963543Y-79482454D01*
X120865977Y-79384888D01*
X120865973Y-79384885D01*
X120751249Y-79308228D01*
X120751236Y-79308221D01*
X120623764Y-79255421D01*
X120623754Y-79255418D01*
X120488427Y-79228500D01*
X120488425Y-79228500D01*
X120350439Y-79228500D01*
X120350437Y-79228500D01*
X120215109Y-79255418D01*
X120215099Y-79255421D01*
X120087622Y-79308223D01*
X120082251Y-79311095D01*
X120081594Y-79309865D01*
X120021627Y-79328634D01*
X119956756Y-79310826D01*
X119956613Y-79311095D01*
X119955431Y-79310463D01*
X119954250Y-79310139D01*
X119951414Y-79308316D01*
X119951241Y-79308223D01*
X119823764Y-79255421D01*
X119823754Y-79255418D01*
X119688427Y-79228500D01*
X119688425Y-79228500D01*
X119550439Y-79228500D01*
X119550437Y-79228500D01*
X119415109Y-79255418D01*
X119415099Y-79255421D01*
X119287627Y-79308221D01*
X119287614Y-79308228D01*
X119172890Y-79384885D01*
X119172886Y-79384888D01*
X119107113Y-79450662D01*
X119045790Y-79484147D01*
X118976098Y-79479163D01*
X118931751Y-79450662D01*
X118865977Y-79384888D01*
X118865973Y-79384885D01*
X118751249Y-79308228D01*
X118751236Y-79308221D01*
X118630854Y-79258358D01*
X118630851Y-79258357D01*
X118623760Y-79255420D01*
X118545707Y-79239894D01*
X118545614Y-79239874D01*
X118488425Y-79228500D01*
X118350439Y-79228500D01*
X118350438Y-79228500D01*
X118293259Y-79239872D01*
X118293153Y-79239894D01*
X118215104Y-79255420D01*
X118208014Y-79258356D01*
X118208008Y-79258358D01*
X118087622Y-79308223D01*
X118082251Y-79311095D01*
X118081594Y-79309865D01*
X118021627Y-79328634D01*
X117956756Y-79310826D01*
X117956613Y-79311095D01*
X117955431Y-79310463D01*
X117954250Y-79310139D01*
X117951414Y-79308316D01*
X117951241Y-79308223D01*
X117830854Y-79258358D01*
X117830851Y-79258357D01*
X117823760Y-79255420D01*
X117745707Y-79239894D01*
X117745614Y-79239874D01*
X117688425Y-79228500D01*
X117550439Y-79228500D01*
X117550438Y-79228500D01*
X117493259Y-79239872D01*
X117493153Y-79239894D01*
X117415104Y-79255420D01*
X117408014Y-79258356D01*
X117408008Y-79258358D01*
X117287627Y-79308221D01*
X117287614Y-79308228D01*
X117172890Y-79384885D01*
X117172886Y-79384888D01*
X117107113Y-79450662D01*
X117045790Y-79484147D01*
X116976098Y-79479163D01*
X116931751Y-79450662D01*
X116865977Y-79384888D01*
X116865973Y-79384885D01*
X116751249Y-79308228D01*
X116751236Y-79308221D01*
X116623764Y-79255421D01*
X116623752Y-79255418D01*
X116599616Y-79250617D01*
X116537705Y-79218232D01*
X116503131Y-79157517D01*
X116506870Y-79087747D01*
X116547736Y-79031075D01*
X116599616Y-79007383D01*
X116609709Y-79005374D01*
X116623760Y-79002580D01*
X116751243Y-78949775D01*
X116751248Y-78949771D01*
X116756610Y-78946906D01*
X116757269Y-78948139D01*
X116817204Y-78929365D01*
X116882115Y-78947164D01*
X116882254Y-78946906D01*
X116883391Y-78947514D01*
X116884587Y-78947842D01*
X116887463Y-78949690D01*
X116887625Y-78949777D01*
X116931818Y-78968082D01*
X117015104Y-79002580D01*
X117015108Y-79002580D01*
X117015109Y-79002581D01*
X117150436Y-79029500D01*
X117150439Y-79029500D01*
X117288427Y-79029500D01*
X117321955Y-79022830D01*
X117423760Y-79002580D01*
X117551243Y-78949775D01*
X117551250Y-78949770D01*
X117556610Y-78946906D01*
X117557269Y-78948139D01*
X117617204Y-78929365D01*
X117682115Y-78947164D01*
X117682254Y-78946906D01*
X117683391Y-78947514D01*
X117684587Y-78947842D01*
X117687463Y-78949690D01*
X117687625Y-78949777D01*
X117725379Y-78965415D01*
X117815104Y-79002580D01*
X117893294Y-79018133D01*
X117950434Y-79029499D01*
X117950437Y-79029500D01*
X117950439Y-79029500D01*
X118088427Y-79029500D01*
X118121955Y-79022830D01*
X118223760Y-79002580D01*
X118351243Y-78949775D01*
X118351250Y-78949770D01*
X118356610Y-78946906D01*
X118357269Y-78948139D01*
X118417204Y-78929365D01*
X118482115Y-78947164D01*
X118482254Y-78946906D01*
X118483391Y-78947514D01*
X118484587Y-78947842D01*
X118487463Y-78949690D01*
X118487625Y-78949777D01*
X118525379Y-78965415D01*
X118615104Y-79002580D01*
X118693294Y-79018133D01*
X118750434Y-79029499D01*
X118750437Y-79029500D01*
X118750439Y-79029500D01*
X118888427Y-79029500D01*
X118979473Y-79011389D01*
X119023760Y-79002580D01*
X119151243Y-78949775D01*
X119151248Y-78949771D01*
X119151251Y-78949770D01*
X119188820Y-78924667D01*
X119240710Y-78889994D01*
X119307386Y-78869116D01*
X119357053Y-78878535D01*
X119415099Y-78902578D01*
X119415104Y-78902580D01*
X119415108Y-78902580D01*
X119415109Y-78902581D01*
X119550436Y-78929500D01*
X119550439Y-78929500D01*
X119688427Y-78929500D01*
X119815555Y-78904212D01*
X119823760Y-78902580D01*
X119951243Y-78849775D01*
X119951248Y-78849771D01*
X119956610Y-78846906D01*
X119957269Y-78848139D01*
X120017204Y-78829365D01*
X120082115Y-78847164D01*
X120082254Y-78846906D01*
X120083391Y-78847514D01*
X120084587Y-78847842D01*
X120087463Y-78849690D01*
X120087625Y-78849777D01*
X120157054Y-78878535D01*
X120215104Y-78902580D01*
X120215108Y-78902580D01*
X120215109Y-78902581D01*
X120350436Y-78929500D01*
X120350439Y-78929500D01*
X120488427Y-78929500D01*
X120615555Y-78904212D01*
X120623760Y-78902580D01*
X120751243Y-78849775D01*
X120751248Y-78849771D01*
X120756610Y-78846906D01*
X120757269Y-78848139D01*
X120817204Y-78829365D01*
X120882115Y-78847164D01*
X120882254Y-78846906D01*
X120883391Y-78847514D01*
X120884587Y-78847842D01*
X120887463Y-78849690D01*
X120887625Y-78849777D01*
X120957054Y-78878535D01*
X121015104Y-78902580D01*
X121015108Y-78902580D01*
X121015109Y-78902581D01*
X121150436Y-78929500D01*
X121150439Y-78929500D01*
X121288427Y-78929500D01*
X121415555Y-78904212D01*
X121423760Y-78902580D01*
X121551243Y-78849775D01*
X121551248Y-78849771D01*
X121556610Y-78846906D01*
X121557269Y-78848139D01*
X121617204Y-78829365D01*
X121682115Y-78847164D01*
X121682254Y-78846906D01*
X121683391Y-78847514D01*
X121684587Y-78847842D01*
X121687463Y-78849690D01*
X121687625Y-78849777D01*
X121757054Y-78878535D01*
X121815104Y-78902580D01*
X121815108Y-78902580D01*
X121815109Y-78902581D01*
X121950436Y-78929500D01*
X121950439Y-78929500D01*
X122088427Y-78929500D01*
X122215555Y-78904212D01*
X122223760Y-78902580D01*
X122351243Y-78849775D01*
X122351248Y-78849771D01*
X122356610Y-78846906D01*
X122357269Y-78848139D01*
X122417204Y-78829365D01*
X122482115Y-78847164D01*
X122482254Y-78846906D01*
X122483391Y-78847514D01*
X122484587Y-78847842D01*
X122487463Y-78849690D01*
X122487625Y-78849777D01*
X122557054Y-78878535D01*
X122615104Y-78902580D01*
X122615108Y-78902580D01*
X122615109Y-78902581D01*
X122750436Y-78929500D01*
X122750439Y-78929500D01*
X122888427Y-78929500D01*
X123015555Y-78904212D01*
X123022890Y-78902753D01*
X128269432Y-78902753D01*
X128269432Y-79115246D01*
X128302674Y-79325127D01*
X128302674Y-79325130D01*
X128368336Y-79527217D01*
X128464807Y-79716550D01*
X128504160Y-79770716D01*
X129136469Y-79138408D01*
X129153507Y-79201993D01*
X129219333Y-79316007D01*
X129312425Y-79409099D01*
X129426439Y-79474925D01*
X129490022Y-79491962D01*
X128857714Y-80124269D01*
X128857714Y-80124270D01*
X128911881Y-80163624D01*
X129101214Y-80260095D01*
X129277405Y-80317343D01*
X129335080Y-80356780D01*
X129362279Y-80421139D01*
X129350364Y-80489985D01*
X129303120Y-80541461D01*
X129286540Y-80549835D01*
X129121835Y-80618057D01*
X128949774Y-80733024D01*
X128803456Y-80879342D01*
X128688490Y-81051403D01*
X128609302Y-81242579D01*
X128609300Y-81242587D01*
X128568932Y-81445530D01*
X128568932Y-81652469D01*
X128609300Y-81855412D01*
X128609302Y-81855420D01*
X128688491Y-82046598D01*
X128689850Y-82048632D01*
X128803456Y-82218657D01*
X128949774Y-82364975D01*
X128949777Y-82364977D01*
X129121834Y-82479941D01*
X129313012Y-82559130D01*
X129515962Y-82599499D01*
X129515966Y-82599500D01*
X129515967Y-82599500D01*
X129722898Y-82599500D01*
X129722899Y-82599499D01*
X129925852Y-82559130D01*
X130117030Y-82479941D01*
X130289087Y-82364977D01*
X130435409Y-82218655D01*
X130550373Y-82046598D01*
X130629562Y-81855420D01*
X130669932Y-81652465D01*
X130669932Y-81445535D01*
X130629562Y-81242580D01*
X130550373Y-81051402D01*
X130435409Y-80879345D01*
X130435407Y-80879342D01*
X130289089Y-80733024D01*
X130179810Y-80660007D01*
X130117030Y-80618059D01*
X130117025Y-80618057D01*
X130055323Y-80592499D01*
X129952322Y-80549834D01*
X129897920Y-80505994D01*
X129875855Y-80439700D01*
X129893134Y-80372001D01*
X129944271Y-80324390D01*
X129961458Y-80317343D01*
X130137649Y-80260095D01*
X130326986Y-80163622D01*
X130381148Y-80124270D01*
X130381149Y-80124270D01*
X129748840Y-79491962D01*
X129812425Y-79474925D01*
X129926439Y-79409099D01*
X130019531Y-79316007D01*
X130085357Y-79201993D01*
X130102394Y-79138408D01*
X130734702Y-79770717D01*
X130734702Y-79770716D01*
X130774054Y-79716554D01*
X130870527Y-79527217D01*
X130936189Y-79325130D01*
X130936189Y-79325127D01*
X130969432Y-79115246D01*
X130969432Y-78902753D01*
X130936189Y-78692872D01*
X130936188Y-78692865D01*
X130920426Y-78644353D01*
X130909557Y-78610902D01*
X146118932Y-78610902D01*
X146118932Y-78847097D01*
X146155878Y-79080368D01*
X146228865Y-79304996D01*
X146319285Y-79482454D01*
X146336089Y-79515433D01*
X146474915Y-79706510D01*
X146641922Y-79873517D01*
X146832999Y-80012343D01*
X146902313Y-80047660D01*
X147043435Y-80119566D01*
X147043437Y-80119566D01*
X147043440Y-80119568D01*
X147163844Y-80158689D01*
X147268063Y-80192553D01*
X147501335Y-80229500D01*
X147501340Y-80229500D01*
X147737529Y-80229500D01*
X147970800Y-80192553D01*
X147994390Y-80184888D01*
X148195424Y-80119568D01*
X148405865Y-80012343D01*
X148596942Y-79873517D01*
X148763949Y-79706510D01*
X148902775Y-79515433D01*
X149010000Y-79304992D01*
X149082985Y-79080368D01*
X149092842Y-79018133D01*
X149119932Y-78847097D01*
X149119932Y-78610902D01*
X149082985Y-78377631D01*
X149044765Y-78260004D01*
X149010000Y-78153008D01*
X149009998Y-78153005D01*
X149009998Y-78153003D01*
X148953434Y-78041991D01*
X148902775Y-77942567D01*
X148763949Y-77751490D01*
X148596942Y-77584483D01*
X148405865Y-77445657D01*
X148195428Y-77338433D01*
X147970800Y-77265446D01*
X147737529Y-77228500D01*
X147737524Y-77228500D01*
X147501340Y-77228500D01*
X147501335Y-77228500D01*
X147268063Y-77265446D01*
X147043435Y-77338433D01*
X146832998Y-77445657D01*
X146723982Y-77524862D01*
X146641922Y-77584483D01*
X146641920Y-77584485D01*
X146641919Y-77584485D01*
X146474917Y-77751487D01*
X146474917Y-77751488D01*
X146474915Y-77751490D01*
X146450650Y-77784888D01*
X146336089Y-77942566D01*
X146228865Y-78153003D01*
X146155878Y-78377631D01*
X146118932Y-78610902D01*
X130909557Y-78610902D01*
X130870527Y-78490782D01*
X130774056Y-78301449D01*
X130734702Y-78247282D01*
X130734701Y-78247282D01*
X130102394Y-78879590D01*
X130085357Y-78816007D01*
X130019531Y-78701993D01*
X129926439Y-78608901D01*
X129812425Y-78543075D01*
X129748841Y-78526037D01*
X130381148Y-77893728D01*
X130326982Y-77854375D01*
X130137649Y-77757904D01*
X129935561Y-77692242D01*
X129725678Y-77659000D01*
X129513186Y-77659000D01*
X129303304Y-77692242D01*
X129303301Y-77692242D01*
X129101214Y-77757904D01*
X128911871Y-77854380D01*
X128857714Y-77893727D01*
X128857714Y-77893728D01*
X129490023Y-78526037D01*
X129426439Y-78543075D01*
X129312425Y-78608901D01*
X129219333Y-78701993D01*
X129153507Y-78816007D01*
X129136469Y-78879591D01*
X128504160Y-78247282D01*
X128504159Y-78247282D01*
X128464812Y-78301439D01*
X128368336Y-78490782D01*
X128302674Y-78692869D01*
X128302674Y-78692872D01*
X128269432Y-78902753D01*
X123022890Y-78902753D01*
X123023760Y-78902580D01*
X123151243Y-78849775D01*
X123155537Y-78846906D01*
X123233551Y-78794779D01*
X123248733Y-78784633D01*
X123265974Y-78773114D01*
X123363546Y-78675542D01*
X123440207Y-78560811D01*
X123447554Y-78543075D01*
X123493010Y-78433332D01*
X123493012Y-78433328D01*
X123504091Y-78377631D01*
X123519932Y-78297995D01*
X123519932Y-78160004D01*
X123493013Y-78024677D01*
X123493012Y-78024676D01*
X123493012Y-78024672D01*
X123483861Y-78002580D01*
X123440210Y-77897195D01*
X123440203Y-77897182D01*
X123363546Y-77782458D01*
X123363543Y-77782454D01*
X123265977Y-77684888D01*
X123265973Y-77684885D01*
X123151249Y-77608228D01*
X123151236Y-77608221D01*
X123023764Y-77555421D01*
X123023754Y-77555418D01*
X122888427Y-77528500D01*
X122888425Y-77528500D01*
X122750439Y-77528500D01*
X122750437Y-77528500D01*
X122615109Y-77555418D01*
X122615099Y-77555421D01*
X122487622Y-77608223D01*
X122482251Y-77611095D01*
X122481594Y-77609865D01*
X122421627Y-77628634D01*
X122356756Y-77610826D01*
X122356613Y-77611095D01*
X122355431Y-77610463D01*
X122354250Y-77610139D01*
X122351414Y-77608316D01*
X122351241Y-77608223D01*
X122223764Y-77555421D01*
X122223754Y-77555418D01*
X122088427Y-77528500D01*
X122088425Y-77528500D01*
X121950439Y-77528500D01*
X121950437Y-77528500D01*
X121815109Y-77555418D01*
X121815099Y-77555421D01*
X121687622Y-77608223D01*
X121682251Y-77611095D01*
X121681594Y-77609865D01*
X121621627Y-77628634D01*
X121556756Y-77610826D01*
X121556613Y-77611095D01*
X121555431Y-77610463D01*
X121554250Y-77610139D01*
X121551414Y-77608316D01*
X121551241Y-77608223D01*
X121423764Y-77555421D01*
X121423754Y-77555418D01*
X121288427Y-77528500D01*
X121288425Y-77528500D01*
X121150439Y-77528500D01*
X121150437Y-77528500D01*
X121015109Y-77555418D01*
X121015099Y-77555421D01*
X120887622Y-77608223D01*
X120882251Y-77611095D01*
X120881594Y-77609865D01*
X120821627Y-77628634D01*
X120756756Y-77610826D01*
X120756613Y-77611095D01*
X120755431Y-77610463D01*
X120754250Y-77610139D01*
X120751414Y-77608316D01*
X120751241Y-77608223D01*
X120623764Y-77555421D01*
X120623754Y-77555418D01*
X120488427Y-77528500D01*
X120488425Y-77528500D01*
X120350439Y-77528500D01*
X120350437Y-77528500D01*
X120215109Y-77555418D01*
X120215099Y-77555421D01*
X120087622Y-77608223D01*
X120082251Y-77611095D01*
X120081594Y-77609865D01*
X120021627Y-77628634D01*
X119956756Y-77610826D01*
X119956613Y-77611095D01*
X119955431Y-77610463D01*
X119954250Y-77610139D01*
X119951414Y-77608316D01*
X119951241Y-77608223D01*
X119823764Y-77555421D01*
X119823754Y-77555418D01*
X119688427Y-77528500D01*
X119688425Y-77528500D01*
X119550439Y-77528500D01*
X119550437Y-77528500D01*
X119415109Y-77555418D01*
X119415099Y-77555421D01*
X119287627Y-77608221D01*
X119287614Y-77608228D01*
X119198153Y-77668005D01*
X119131475Y-77688883D01*
X119081811Y-77679465D01*
X119054143Y-77668005D01*
X119023760Y-77655420D01*
X119023758Y-77655419D01*
X119023754Y-77655418D01*
X118888427Y-77628500D01*
X118888425Y-77628500D01*
X118750439Y-77628500D01*
X118750437Y-77628500D01*
X118615109Y-77655418D01*
X118615099Y-77655421D01*
X118487622Y-77708223D01*
X118482251Y-77711095D01*
X118481594Y-77709865D01*
X118421627Y-77728634D01*
X118356756Y-77710826D01*
X118356613Y-77711095D01*
X118355431Y-77710463D01*
X118354250Y-77710139D01*
X118351414Y-77708316D01*
X118351241Y-77708223D01*
X118223764Y-77655421D01*
X118223754Y-77655418D01*
X118088427Y-77628500D01*
X118088425Y-77628500D01*
X117950439Y-77628500D01*
X117950437Y-77628500D01*
X117815109Y-77655418D01*
X117815099Y-77655421D01*
X117687622Y-77708223D01*
X117682251Y-77711095D01*
X117681594Y-77709865D01*
X117621627Y-77728634D01*
X117556756Y-77710826D01*
X117556613Y-77711095D01*
X117555431Y-77710463D01*
X117554250Y-77710139D01*
X117551414Y-77708316D01*
X117551241Y-77708223D01*
X117423764Y-77655421D01*
X117423754Y-77655418D01*
X117288427Y-77628500D01*
X117288425Y-77628500D01*
X117150439Y-77628500D01*
X117150437Y-77628500D01*
X117015109Y-77655418D01*
X117015099Y-77655421D01*
X116887622Y-77708223D01*
X116882251Y-77711095D01*
X116881594Y-77709865D01*
X116821627Y-77728634D01*
X116756756Y-77710826D01*
X116756613Y-77711095D01*
X116755431Y-77710463D01*
X116754250Y-77710139D01*
X116751414Y-77708316D01*
X116751241Y-77708223D01*
X116623764Y-77655421D01*
X116623754Y-77655418D01*
X116488427Y-77628500D01*
X116488425Y-77628500D01*
X116350439Y-77628500D01*
X116350437Y-77628500D01*
X116215109Y-77655418D01*
X116215099Y-77655421D01*
X116087622Y-77708223D01*
X116082251Y-77711095D01*
X116081594Y-77709865D01*
X116021627Y-77728634D01*
X115956756Y-77710826D01*
X115956613Y-77711095D01*
X115955431Y-77710463D01*
X115954250Y-77710139D01*
X115951414Y-77708316D01*
X115951241Y-77708223D01*
X115823764Y-77655421D01*
X115823754Y-77655418D01*
X115688427Y-77628500D01*
X115688425Y-77628500D01*
X115550439Y-77628500D01*
X115550437Y-77628500D01*
X115415109Y-77655418D01*
X115415099Y-77655421D01*
X115287622Y-77708223D01*
X115282251Y-77711095D01*
X115281594Y-77709865D01*
X115221627Y-77728634D01*
X115156756Y-77710826D01*
X115156613Y-77711095D01*
X115155431Y-77710463D01*
X115154250Y-77710139D01*
X115151414Y-77708316D01*
X115151241Y-77708223D01*
X115023764Y-77655421D01*
X115023754Y-77655418D01*
X114888427Y-77628500D01*
X114888425Y-77628500D01*
X114750439Y-77628500D01*
X114750437Y-77628500D01*
X114615109Y-77655418D01*
X114615099Y-77655421D01*
X114487622Y-77708223D01*
X114482251Y-77711095D01*
X114481594Y-77709865D01*
X114421627Y-77728634D01*
X114356756Y-77710826D01*
X114356613Y-77711095D01*
X114355431Y-77710463D01*
X114354250Y-77710139D01*
X114351414Y-77708316D01*
X114351241Y-77708223D01*
X114223764Y-77655421D01*
X114223754Y-77655418D01*
X114088427Y-77628500D01*
X114088425Y-77628500D01*
X113950439Y-77628500D01*
X113950437Y-77628500D01*
X113815109Y-77655418D01*
X113815099Y-77655421D01*
X113687622Y-77708223D01*
X113682251Y-77711095D01*
X113681594Y-77709865D01*
X113621627Y-77728634D01*
X113556756Y-77710826D01*
X113556613Y-77711095D01*
X113555431Y-77710463D01*
X113554250Y-77710139D01*
X113551414Y-77708316D01*
X113551241Y-77708223D01*
X113423764Y-77655421D01*
X113423754Y-77655418D01*
X113288427Y-77628500D01*
X113288425Y-77628500D01*
X113150439Y-77628500D01*
X113150437Y-77628500D01*
X113015109Y-77655418D01*
X113015099Y-77655421D01*
X112887627Y-77708221D01*
X112887614Y-77708228D01*
X112772890Y-77784885D01*
X112772886Y-77784888D01*
X112675320Y-77882454D01*
X112675317Y-77882458D01*
X112598660Y-77997182D01*
X112598653Y-77997195D01*
X112545853Y-78124667D01*
X112545850Y-78124677D01*
X112518932Y-78260004D01*
X112518932Y-78260007D01*
X112518932Y-78397993D01*
X112518932Y-78397995D01*
X112518931Y-78397995D01*
X111419932Y-78397995D01*
X111419932Y-78260004D01*
X111393013Y-78124677D01*
X111393012Y-78124676D01*
X111393012Y-78124672D01*
X111351589Y-78024667D01*
X111340210Y-77997195D01*
X111340208Y-77997191D01*
X111340207Y-77997189D01*
X111273857Y-77897890D01*
X111252980Y-77831214D01*
X111271464Y-77763834D01*
X111273858Y-77760109D01*
X111306788Y-77710826D01*
X111340207Y-77660811D01*
X111343117Y-77653787D01*
X111361951Y-77608316D01*
X111393012Y-77533328D01*
X111419932Y-77397993D01*
X111419932Y-77260007D01*
X111419932Y-77260004D01*
X111393013Y-77124677D01*
X111393012Y-77124676D01*
X111393012Y-77124672D01*
X111393010Y-77124667D01*
X111340210Y-76997195D01*
X111340203Y-76997182D01*
X111263543Y-76882453D01*
X111262893Y-76881661D01*
X111262682Y-76881164D01*
X111260162Y-76877393D01*
X111260877Y-76876914D01*
X111235582Y-76817350D01*
X111247376Y-76748483D01*
X111294531Y-76696925D01*
X111358749Y-76679000D01*
X124680115Y-76679000D01*
X124747154Y-76698685D01*
X124792909Y-76751489D01*
X124802853Y-76820647D01*
X124778044Y-76876953D01*
X124778702Y-76877393D01*
X124776204Y-76881130D01*
X124775971Y-76881661D01*
X124775320Y-76882453D01*
X124698660Y-76997182D01*
X124698653Y-76997195D01*
X124645853Y-77124667D01*
X124645850Y-77124677D01*
X124618932Y-77260004D01*
X124618932Y-77260007D01*
X124618932Y-77397993D01*
X124618932Y-77397995D01*
X124618931Y-77397995D01*
X124645850Y-77533322D01*
X124645853Y-77533332D01*
X124698653Y-77660804D01*
X124698660Y-77660817D01*
X124775317Y-77775541D01*
X124775320Y-77775545D01*
X124872886Y-77873111D01*
X124872890Y-77873114D01*
X124987614Y-77949771D01*
X124987627Y-77949778D01*
X125102072Y-77997182D01*
X125115104Y-78002580D01*
X125115108Y-78002580D01*
X125115109Y-78002581D01*
X125250436Y-78029500D01*
X125250439Y-78029500D01*
X125388427Y-78029500D01*
X125479473Y-78011389D01*
X125523760Y-78002580D01*
X125651243Y-77949775D01*
X125765974Y-77873114D01*
X125765977Y-77873111D01*
X125785783Y-77853306D01*
X125863543Y-77775545D01*
X125863546Y-77775542D01*
X125940207Y-77660811D01*
X125943117Y-77653787D01*
X125961951Y-77608316D01*
X125993012Y-77533328D01*
X126019932Y-77397993D01*
X126019932Y-77260007D01*
X126019932Y-77260004D01*
X125993013Y-77124677D01*
X125993012Y-77124676D01*
X125993012Y-77124672D01*
X125993010Y-77124667D01*
X125940210Y-76997195D01*
X125940203Y-76997182D01*
X125863543Y-76882453D01*
X125862893Y-76881661D01*
X125862682Y-76881164D01*
X125860162Y-76877393D01*
X125860877Y-76876914D01*
X125835582Y-76817350D01*
X125847376Y-76748483D01*
X125894531Y-76696925D01*
X125958749Y-76679000D01*
X139619432Y-76679000D01*
X139619432Y-73611014D01*
X145819432Y-73611014D01*
X145819432Y-73846985D01*
X145850231Y-74080914D01*
X145911302Y-74308837D01*
X146001592Y-74526819D01*
X146001597Y-74526828D01*
X146119576Y-74731171D01*
X146119577Y-74731172D01*
X146182153Y-74812723D01*
X147018390Y-73976487D01*
X147043410Y-74036890D01*
X147114544Y-74143351D01*
X147205081Y-74233888D01*
X147311542Y-74305022D01*
X147371943Y-74330041D01*
X146535707Y-75166277D01*
X146617259Y-75228854D01*
X146617260Y-75228855D01*
X146821603Y-75346834D01*
X146821612Y-75346839D01*
X147039595Y-75437129D01*
X147039593Y-75437129D01*
X147267517Y-75498200D01*
X147501446Y-75528999D01*
X147501461Y-75529000D01*
X147737403Y-75529000D01*
X147737417Y-75528999D01*
X147971346Y-75498200D01*
X148199269Y-75437129D01*
X148417251Y-75346839D01*
X148417260Y-75346834D01*
X148621613Y-75228850D01*
X148703155Y-75166279D01*
X148703155Y-75166276D01*
X147866919Y-74330041D01*
X147927322Y-74305022D01*
X148033783Y-74233888D01*
X148124320Y-74143351D01*
X148195454Y-74036890D01*
X148220473Y-73976488D01*
X149056708Y-74812723D01*
X149056711Y-74812723D01*
X149119282Y-74731181D01*
X149237266Y-74526828D01*
X149237271Y-74526819D01*
X149327561Y-74308837D01*
X149388632Y-74080914D01*
X149419431Y-73846985D01*
X149419432Y-73846971D01*
X149419432Y-73611028D01*
X149419431Y-73611014D01*
X149388632Y-73377085D01*
X149327561Y-73149162D01*
X149237271Y-72931180D01*
X149237266Y-72931171D01*
X149119287Y-72726828D01*
X149119286Y-72726827D01*
X149056709Y-72645275D01*
X148220473Y-73481511D01*
X148195454Y-73421110D01*
X148124320Y-73314649D01*
X148033783Y-73224112D01*
X147927322Y-73152978D01*
X147866920Y-73127958D01*
X148703155Y-72291721D01*
X148621604Y-72229145D01*
X148621603Y-72229144D01*
X148417260Y-72111165D01*
X148417251Y-72111160D01*
X148199268Y-72020870D01*
X148199270Y-72020870D01*
X147971346Y-71959799D01*
X147737417Y-71929000D01*
X147501446Y-71929000D01*
X147267517Y-71959799D01*
X147039594Y-72020870D01*
X146821612Y-72111160D01*
X146821603Y-72111165D01*
X146617260Y-72229144D01*
X146617250Y-72229150D01*
X146535707Y-72291720D01*
X146535707Y-72291721D01*
X147371944Y-73127958D01*
X147311542Y-73152978D01*
X147205081Y-73224112D01*
X147114544Y-73314649D01*
X147043410Y-73421110D01*
X147018390Y-73481511D01*
X146182153Y-72645275D01*
X146182152Y-72645275D01*
X146119582Y-72726818D01*
X146119576Y-72726828D01*
X146001597Y-72931171D01*
X146001592Y-72931180D01*
X145911302Y-73149162D01*
X145850231Y-73377085D01*
X145819432Y-73611014D01*
X139619432Y-73611014D01*
X139619432Y-71237298D01*
X139618270Y-71226509D01*
X139617174Y-66078711D01*
X147388932Y-66078711D01*
X147388932Y-66321288D01*
X147412775Y-66502402D01*
X147420594Y-66561789D01*
X147426054Y-66582165D01*
X147483379Y-66796104D01*
X147522108Y-66889603D01*
X147576208Y-67020212D01*
X147697496Y-67230289D01*
X147697498Y-67230292D01*
X147697499Y-67230293D01*
X147845165Y-67422736D01*
X147845171Y-67422743D01*
X148016688Y-67594260D01*
X148016695Y-67594266D01*
X148055417Y-67623978D01*
X148209143Y-67741936D01*
X148419220Y-67863224D01*
X148643332Y-67956054D01*
X148877643Y-68018838D01*
X149058018Y-68042584D01*
X149118143Y-68050500D01*
X149118144Y-68050500D01*
X149360721Y-68050500D01*
X149408820Y-68044167D01*
X149601221Y-68018838D01*
X149835532Y-67956054D01*
X150059644Y-67863224D01*
X150269721Y-67741936D01*
X150462170Y-67594265D01*
X150633697Y-67422738D01*
X150781368Y-67230289D01*
X150902656Y-67020212D01*
X150995486Y-66796100D01*
X151058270Y-66561789D01*
X151089932Y-66321288D01*
X151089932Y-66078712D01*
X151058270Y-65838211D01*
X150995486Y-65603900D01*
X150902656Y-65379788D01*
X150781368Y-65169711D01*
X150633697Y-64977262D01*
X150633692Y-64977256D01*
X150462175Y-64805739D01*
X150462168Y-64805733D01*
X150269725Y-64658067D01*
X150269724Y-64658066D01*
X150269721Y-64658064D01*
X150059644Y-64536776D01*
X150059637Y-64536773D01*
X149835536Y-64443947D01*
X149601217Y-64381161D01*
X149360721Y-64349500D01*
X149360720Y-64349500D01*
X149118144Y-64349500D01*
X149118143Y-64349500D01*
X148877646Y-64381161D01*
X148643327Y-64443947D01*
X148419226Y-64536773D01*
X148419217Y-64536777D01*
X148209138Y-64658067D01*
X148016695Y-64805733D01*
X148016688Y-64805739D01*
X147845171Y-64977256D01*
X147845165Y-64977263D01*
X147697499Y-65169706D01*
X147576209Y-65379785D01*
X147576205Y-65379794D01*
X147483379Y-65603895D01*
X147420593Y-65838214D01*
X147388932Y-66078711D01*
X139617174Y-66078711D01*
X139616609Y-63424524D01*
X139636279Y-63357483D01*
X139689074Y-63311717D01*
X139740609Y-63300500D01*
X152614932Y-63300500D01*
X152681971Y-63320185D01*
X152727726Y-63372989D01*
X152738932Y-63424500D01*
X152738932Y-128575500D01*
X152719247Y-128642539D01*
X152666443Y-128688294D01*
X152614932Y-128699500D01*
X64363932Y-128699500D01*
X64296893Y-128679815D01*
X64251138Y-128627011D01*
X64239932Y-128575500D01*
X64239932Y-125078711D01*
X65888932Y-125078711D01*
X65888932Y-125321288D01*
X65920593Y-125561785D01*
X65983379Y-125796104D01*
X66052460Y-125962880D01*
X66076208Y-126020212D01*
X66197496Y-126230289D01*
X66197498Y-126230292D01*
X66197499Y-126230293D01*
X66345165Y-126422736D01*
X66345171Y-126422743D01*
X66516688Y-126594260D01*
X66516694Y-126594265D01*
X66709143Y-126741936D01*
X66919220Y-126863224D01*
X67143332Y-126956054D01*
X67377643Y-127018838D01*
X67558018Y-127042584D01*
X67618143Y-127050500D01*
X67618144Y-127050500D01*
X67860721Y-127050500D01*
X67908820Y-127044167D01*
X68101221Y-127018838D01*
X68335532Y-126956054D01*
X68559644Y-126863224D01*
X68769721Y-126741936D01*
X68962170Y-126594265D01*
X69133697Y-126422738D01*
X69281368Y-126230289D01*
X69402656Y-126020212D01*
X69495486Y-125796100D01*
X69556926Y-125566804D01*
X96464932Y-125566804D01*
X96464932Y-126444195D01*
X96499535Y-126618158D01*
X96499538Y-126618167D01*
X96567415Y-126782040D01*
X96567422Y-126782053D01*
X96665967Y-126929534D01*
X96665970Y-126929538D01*
X96791393Y-127054961D01*
X96791397Y-127054964D01*
X96938878Y-127153509D01*
X96938891Y-127153516D01*
X97061795Y-127204423D01*
X97102766Y-127221394D01*
X97102768Y-127221394D01*
X97102773Y-127221396D01*
X97276736Y-127255999D01*
X97276739Y-127256000D01*
X97276741Y-127256000D01*
X97454125Y-127256000D01*
X97454126Y-127255999D01*
X97512114Y-127244464D01*
X97628090Y-127221396D01*
X97628093Y-127221394D01*
X97628098Y-127221394D01*
X97791979Y-127153513D01*
X97939467Y-127054964D01*
X98064896Y-126929535D01*
X98163445Y-126782047D01*
X98231326Y-126618166D01*
X98236081Y-126594265D01*
X98265931Y-126444195D01*
X98265932Y-126444193D01*
X98265932Y-125566806D01*
X98265931Y-125566804D01*
X105104932Y-125566804D01*
X105104932Y-126444195D01*
X105139535Y-126618158D01*
X105139538Y-126618167D01*
X105207415Y-126782040D01*
X105207422Y-126782053D01*
X105305967Y-126929534D01*
X105305970Y-126929538D01*
X105431393Y-127054961D01*
X105431397Y-127054964D01*
X105578878Y-127153509D01*
X105578891Y-127153516D01*
X105701795Y-127204423D01*
X105742766Y-127221394D01*
X105742768Y-127221394D01*
X105742773Y-127221396D01*
X105916736Y-127255999D01*
X105916739Y-127256000D01*
X105916741Y-127256000D01*
X106094125Y-127256000D01*
X106094126Y-127255999D01*
X106152114Y-127244464D01*
X106268090Y-127221396D01*
X106268093Y-127221394D01*
X106268098Y-127221394D01*
X106431979Y-127153513D01*
X106579467Y-127054964D01*
X106704896Y-126929535D01*
X106803445Y-126782047D01*
X106871326Y-126618166D01*
X106876081Y-126594265D01*
X106905931Y-126444195D01*
X106905932Y-126444193D01*
X106905932Y-125566806D01*
X106905931Y-125566804D01*
X106871328Y-125392841D01*
X106871325Y-125392832D01*
X106803448Y-125228959D01*
X106803441Y-125228946D01*
X106704896Y-125081465D01*
X106704893Y-125081461D01*
X106579470Y-124956038D01*
X106579466Y-124956035D01*
X106431985Y-124857490D01*
X106431972Y-124857483D01*
X106268099Y-124789606D01*
X106268090Y-124789603D01*
X106094126Y-124755000D01*
X106094123Y-124755000D01*
X105916741Y-124755000D01*
X105916738Y-124755000D01*
X105742773Y-124789603D01*
X105742764Y-124789606D01*
X105578891Y-124857483D01*
X105578878Y-124857490D01*
X105431397Y-124956035D01*
X105431393Y-124956038D01*
X105305970Y-125081461D01*
X105305967Y-125081465D01*
X105207422Y-125228946D01*
X105207415Y-125228959D01*
X105139538Y-125392832D01*
X105139535Y-125392841D01*
X105104932Y-125566804D01*
X98265931Y-125566804D01*
X98231328Y-125392841D01*
X98231325Y-125392832D01*
X98163448Y-125228959D01*
X98163441Y-125228946D01*
X98064896Y-125081465D01*
X98064893Y-125081461D01*
X97939470Y-124956038D01*
X97939466Y-124956035D01*
X97791985Y-124857490D01*
X97791972Y-124857483D01*
X97628099Y-124789606D01*
X97628090Y-124789603D01*
X97454126Y-124755000D01*
X97454123Y-124755000D01*
X97276741Y-124755000D01*
X97276738Y-124755000D01*
X97102773Y-124789603D01*
X97102764Y-124789606D01*
X96938891Y-124857483D01*
X96938878Y-124857490D01*
X96791397Y-124956035D01*
X96791393Y-124956038D01*
X96665970Y-125081461D01*
X96665967Y-125081465D01*
X96567422Y-125228946D01*
X96567415Y-125228959D01*
X96499538Y-125392832D01*
X96499535Y-125392841D01*
X96464932Y-125566804D01*
X69556926Y-125566804D01*
X69558270Y-125561789D01*
X69589932Y-125321288D01*
X69589932Y-125078712D01*
X69586254Y-125050778D01*
X69573782Y-124956036D01*
X69558270Y-124838211D01*
X69495486Y-124603900D01*
X69402656Y-124379788D01*
X69281368Y-124169711D01*
X69220450Y-124090321D01*
X69133698Y-123977263D01*
X69133692Y-123977256D01*
X68962175Y-123805739D01*
X68962168Y-123805733D01*
X68769725Y-123658067D01*
X68769724Y-123658066D01*
X68769721Y-123658064D01*
X68559644Y-123536776D01*
X68535502Y-123526776D01*
X68335536Y-123443947D01*
X68101217Y-123381161D01*
X67860721Y-123349500D01*
X67860720Y-123349500D01*
X67618144Y-123349500D01*
X67618143Y-123349500D01*
X67377646Y-123381161D01*
X67143327Y-123443947D01*
X66919226Y-123536773D01*
X66919217Y-123536777D01*
X66709138Y-123658067D01*
X66516695Y-123805733D01*
X66516688Y-123805739D01*
X66345171Y-123977256D01*
X66345165Y-123977263D01*
X66197499Y-124169706D01*
X66076209Y-124379785D01*
X66076205Y-124379794D01*
X65983379Y-124603895D01*
X65920593Y-124838214D01*
X65888932Y-125078711D01*
X64239932Y-125078711D01*
X64239932Y-122974995D01*
X90824931Y-122974995D01*
X90851850Y-123110322D01*
X90851853Y-123110332D01*
X90904653Y-123237804D01*
X90904660Y-123237817D01*
X90981317Y-123352541D01*
X90981320Y-123352545D01*
X91078886Y-123450111D01*
X91078890Y-123450114D01*
X91193614Y-123526771D01*
X91193618Y-123526773D01*
X91193621Y-123526775D01*
X91217758Y-123536773D01*
X91257993Y-123553439D01*
X91312396Y-123597280D01*
X91334461Y-123663574D01*
X91317182Y-123731274D01*
X91266044Y-123778884D01*
X91257993Y-123782561D01*
X91193624Y-123809223D01*
X91193614Y-123809228D01*
X91078890Y-123885885D01*
X91078886Y-123885888D01*
X90981320Y-123983454D01*
X90981317Y-123983458D01*
X90904660Y-124098182D01*
X90904653Y-124098195D01*
X90851853Y-124225667D01*
X90851850Y-124225677D01*
X90824932Y-124361004D01*
X90824932Y-124361007D01*
X90824932Y-124498993D01*
X90824932Y-124498995D01*
X90824931Y-124498995D01*
X90851850Y-124634322D01*
X90851853Y-124634332D01*
X90904653Y-124761804D01*
X90904660Y-124761817D01*
X90981317Y-124876541D01*
X90981320Y-124876545D01*
X91078886Y-124974111D01*
X91078890Y-124974114D01*
X91193614Y-125050771D01*
X91193627Y-125050778D01*
X91267713Y-125081465D01*
X91321104Y-125103580D01*
X91321108Y-125103580D01*
X91321109Y-125103581D01*
X91456436Y-125130500D01*
X91456439Y-125130500D01*
X91594427Y-125130500D01*
X91685473Y-125112389D01*
X91729760Y-125103580D01*
X91857243Y-125050775D01*
X91971974Y-124974114D01*
X92069546Y-124876542D01*
X92146207Y-124761811D01*
X92199012Y-124634328D01*
X92225932Y-124498993D01*
X92225932Y-124361007D01*
X92225932Y-124361004D01*
X92199013Y-124225677D01*
X92199012Y-124225676D01*
X92199012Y-124225672D01*
X92199010Y-124225667D01*
X92146210Y-124098195D01*
X92146203Y-124098182D01*
X92069546Y-123983458D01*
X92069543Y-123983454D01*
X91971977Y-123885888D01*
X91971973Y-123885885D01*
X91857249Y-123809228D01*
X91857236Y-123809221D01*
X91792871Y-123782561D01*
X91738467Y-123738720D01*
X91716402Y-123672426D01*
X91733681Y-123604727D01*
X91743344Y-123595730D01*
X146138932Y-123595730D01*
X146138932Y-125804269D01*
X146141785Y-125834699D01*
X146141785Y-125834701D01*
X146186638Y-125962880D01*
X146186639Y-125962882D01*
X146267282Y-126072150D01*
X146376550Y-126152793D01*
X146419277Y-126167744D01*
X146504731Y-126197646D01*
X146535162Y-126200500D01*
X146535166Y-126200500D01*
X148743702Y-126200500D01*
X148774131Y-126197646D01*
X148774133Y-126197646D01*
X148838222Y-126175219D01*
X148902314Y-126152793D01*
X149011582Y-126072150D01*
X149092225Y-125962882D01*
X149114651Y-125898790D01*
X149137078Y-125834701D01*
X149137078Y-125834699D01*
X149139932Y-125804269D01*
X149139932Y-123595730D01*
X149137078Y-123565300D01*
X149137078Y-123565298D01*
X149095333Y-123446000D01*
X149092225Y-123437118D01*
X149011582Y-123327850D01*
X148902314Y-123247207D01*
X148902312Y-123247206D01*
X148774132Y-123202353D01*
X148743702Y-123199500D01*
X148743698Y-123199500D01*
X146535166Y-123199500D01*
X146535162Y-123199500D01*
X146504732Y-123202353D01*
X146504730Y-123202353D01*
X146376551Y-123247206D01*
X146376549Y-123247207D01*
X146267282Y-123327850D01*
X146186639Y-123437117D01*
X146186638Y-123437119D01*
X146141785Y-123565298D01*
X146141785Y-123565300D01*
X146138932Y-123595730D01*
X91743344Y-123595730D01*
X91784818Y-123557116D01*
X91792871Y-123553439D01*
X91857236Y-123526778D01*
X91857236Y-123526777D01*
X91857243Y-123526775D01*
X91857249Y-123526771D01*
X91912681Y-123489733D01*
X91940292Y-123471282D01*
X91971974Y-123450114D01*
X92069546Y-123352542D01*
X92146207Y-123237811D01*
X92199012Y-123110328D01*
X92225932Y-122974993D01*
X92225932Y-122837007D01*
X92225932Y-122837004D01*
X92199013Y-122701677D01*
X92199012Y-122701676D01*
X92199012Y-122701672D01*
X92199010Y-122701667D01*
X92146210Y-122574195D01*
X92146203Y-122574182D01*
X92069546Y-122459458D01*
X92069543Y-122459454D01*
X91971977Y-122361888D01*
X91971973Y-122361885D01*
X91857249Y-122285228D01*
X91857236Y-122285221D01*
X91729764Y-122232421D01*
X91729754Y-122232418D01*
X91594427Y-122205500D01*
X91594425Y-122205500D01*
X91456439Y-122205500D01*
X91456437Y-122205500D01*
X91321109Y-122232418D01*
X91321099Y-122232421D01*
X91193627Y-122285221D01*
X91193614Y-122285228D01*
X91078890Y-122361885D01*
X91078886Y-122361888D01*
X90981320Y-122459454D01*
X90981317Y-122459458D01*
X90904660Y-122574182D01*
X90904653Y-122574195D01*
X90851853Y-122701667D01*
X90851850Y-122701677D01*
X90824932Y-122837004D01*
X90824932Y-122837007D01*
X90824932Y-122974993D01*
X90824932Y-122974995D01*
X90824931Y-122974995D01*
X64239932Y-122974995D01*
X64239932Y-121756804D01*
X96464932Y-121756804D01*
X96464932Y-122634195D01*
X96499535Y-122808158D01*
X96499538Y-122808167D01*
X96567415Y-122972040D01*
X96567422Y-122972053D01*
X96665967Y-123119534D01*
X96665970Y-123119538D01*
X96791393Y-123244961D01*
X96791397Y-123244964D01*
X96938878Y-123343509D01*
X96938891Y-123343516D01*
X97061795Y-123394423D01*
X97102766Y-123411394D01*
X97102768Y-123411394D01*
X97102773Y-123411396D01*
X97276736Y-123445999D01*
X97276739Y-123446000D01*
X97276741Y-123446000D01*
X97454125Y-123446000D01*
X97454126Y-123445999D01*
X97512114Y-123434464D01*
X97628090Y-123411396D01*
X97628093Y-123411394D01*
X97628098Y-123411394D01*
X97791979Y-123343513D01*
X97939467Y-123244964D01*
X98064896Y-123119535D01*
X98163445Y-122972047D01*
X98231326Y-122808166D01*
X98265932Y-122634191D01*
X98265932Y-121756809D01*
X98265932Y-121756806D01*
X98265931Y-121756804D01*
X105104932Y-121756804D01*
X105104932Y-122634195D01*
X105139535Y-122808158D01*
X105139538Y-122808167D01*
X105207415Y-122972040D01*
X105207422Y-122972053D01*
X105305967Y-123119534D01*
X105305970Y-123119538D01*
X105431393Y-123244961D01*
X105431397Y-123244964D01*
X105578878Y-123343509D01*
X105578891Y-123343516D01*
X105701795Y-123394423D01*
X105742766Y-123411394D01*
X105742768Y-123411394D01*
X105742773Y-123411396D01*
X105916736Y-123445999D01*
X105916739Y-123446000D01*
X105916741Y-123446000D01*
X106094125Y-123446000D01*
X106094126Y-123445999D01*
X106152114Y-123434464D01*
X106268090Y-123411396D01*
X106268093Y-123411394D01*
X106268098Y-123411394D01*
X106431979Y-123343513D01*
X106579467Y-123244964D01*
X106704896Y-123119535D01*
X106803445Y-122972047D01*
X106871326Y-122808166D01*
X106905932Y-122634191D01*
X106905932Y-121756809D01*
X106905932Y-121756806D01*
X106905931Y-121756804D01*
X106871328Y-121582841D01*
X106871325Y-121582832D01*
X106803448Y-121418959D01*
X106803441Y-121418946D01*
X106704896Y-121271465D01*
X106704893Y-121271461D01*
X106579470Y-121146038D01*
X106579466Y-121146035D01*
X106431985Y-121047490D01*
X106431972Y-121047483D01*
X106268099Y-120979606D01*
X106268090Y-120979603D01*
X106094126Y-120945000D01*
X106094123Y-120945000D01*
X105916741Y-120945000D01*
X105916738Y-120945000D01*
X105742773Y-120979603D01*
X105742764Y-120979606D01*
X105578891Y-121047483D01*
X105578878Y-121047490D01*
X105431397Y-121146035D01*
X105431393Y-121146038D01*
X105305970Y-121271461D01*
X105305967Y-121271465D01*
X105207422Y-121418946D01*
X105207415Y-121418959D01*
X105139538Y-121582832D01*
X105139535Y-121582841D01*
X105104932Y-121756804D01*
X98265931Y-121756804D01*
X98231328Y-121582841D01*
X98231325Y-121582832D01*
X98163448Y-121418959D01*
X98163441Y-121418946D01*
X98064896Y-121271465D01*
X98064893Y-121271461D01*
X97939470Y-121146038D01*
X97939466Y-121146035D01*
X97791985Y-121047490D01*
X97791972Y-121047483D01*
X97628099Y-120979606D01*
X97628090Y-120979603D01*
X97454126Y-120945000D01*
X97454123Y-120945000D01*
X97276741Y-120945000D01*
X97276738Y-120945000D01*
X97102773Y-120979603D01*
X97102764Y-120979606D01*
X96938891Y-121047483D01*
X96938878Y-121047490D01*
X96791397Y-121146035D01*
X96791393Y-121146038D01*
X96665970Y-121271461D01*
X96665967Y-121271465D01*
X96567422Y-121418946D01*
X96567415Y-121418959D01*
X96499538Y-121582832D01*
X96499535Y-121582841D01*
X96464932Y-121756804D01*
X64239932Y-121756804D01*
X64239932Y-116217549D01*
X80718932Y-116217549D01*
X80718932Y-116440450D01*
X80718933Y-116440466D01*
X80748026Y-116661452D01*
X80748027Y-116661457D01*
X80748028Y-116661463D01*
X80749108Y-116665493D01*
X80805722Y-116876780D01*
X80805725Y-116876790D01*
X80891025Y-117082722D01*
X80891027Y-117082726D01*
X81002484Y-117275774D01*
X81002489Y-117275780D01*
X81002490Y-117275782D01*
X81138183Y-117452622D01*
X81138189Y-117452629D01*
X81295802Y-117610242D01*
X81295808Y-117610247D01*
X81472658Y-117745948D01*
X81665706Y-117857405D01*
X81871651Y-117942710D01*
X82086969Y-118000404D01*
X82307975Y-118029500D01*
X82307982Y-118029500D01*
X82530882Y-118029500D01*
X82530889Y-118029500D01*
X82751895Y-118000404D01*
X82967213Y-117942710D01*
X83173158Y-117857405D01*
X83366206Y-117745948D01*
X83543056Y-117610247D01*
X83700679Y-117452624D01*
X83836380Y-117275774D01*
X83947837Y-117082726D01*
X84033142Y-116876781D01*
X84090836Y-116661463D01*
X84119932Y-116440457D01*
X84119932Y-116217543D01*
X84110921Y-116149097D01*
X93018932Y-116149097D01*
X93018932Y-116408902D01*
X93059571Y-116665488D01*
X93059571Y-116665493D01*
X93139854Y-116912576D01*
X93257800Y-117144054D01*
X93402447Y-117343144D01*
X93410501Y-117354229D01*
X93594203Y-117537931D01*
X93804381Y-117690634D01*
X93951877Y-117765787D01*
X94035855Y-117808577D01*
X94035857Y-117808577D01*
X94035860Y-117808579D01*
X94282939Y-117888860D01*
X94415138Y-117909797D01*
X94539530Y-117929500D01*
X94539535Y-117929500D01*
X94799334Y-117929500D01*
X94912730Y-117911539D01*
X95055925Y-117888860D01*
X95085698Y-117879186D01*
X108158932Y-117879186D01*
X108158932Y-119110589D01*
X108161833Y-119147455D01*
X108161834Y-119147461D01*
X108207686Y-119305281D01*
X108207687Y-119305284D01*
X108291349Y-119446750D01*
X108291355Y-119446758D01*
X108413083Y-119568486D01*
X108411635Y-119569933D01*
X108446290Y-119617919D01*
X108450080Y-119687686D01*
X108429701Y-119732141D01*
X108332672Y-119865688D01*
X108246886Y-120034051D01*
X108188491Y-120213769D01*
X108158932Y-120400401D01*
X108158932Y-120589374D01*
X108188491Y-120776006D01*
X108246886Y-120955724D01*
X108293640Y-121047483D01*
X108332672Y-121124087D01*
X108443742Y-121276961D01*
X108577359Y-121410578D01*
X108730233Y-121521648D01*
X108809779Y-121562178D01*
X108898595Y-121607433D01*
X108898597Y-121607433D01*
X108898600Y-121607435D01*
X108994929Y-121638734D01*
X109078313Y-121665828D01*
X109264946Y-121695388D01*
X109264951Y-121695388D01*
X109453918Y-121695388D01*
X109640550Y-121665828D01*
X109820264Y-121607435D01*
X109988631Y-121521648D01*
X110141505Y-121410578D01*
X110275122Y-121276961D01*
X110386192Y-121124087D01*
X110471979Y-120955720D01*
X110530372Y-120776006D01*
X110545972Y-120677510D01*
X110559932Y-120589374D01*
X110559932Y-120400401D01*
X110530372Y-120213769D01*
X110471977Y-120034051D01*
X110386191Y-119865688D01*
X110351614Y-119818097D01*
X110289160Y-119732137D01*
X110277578Y-119699676D01*
X110265750Y-119667432D01*
X110265874Y-119666874D01*
X110265682Y-119666335D01*
X110273484Y-119632782D01*
X110280971Y-119599241D01*
X110281400Y-119598739D01*
X110281507Y-119598281D01*
X110294021Y-119581902D01*
X146138932Y-119581902D01*
X146138932Y-119818097D01*
X146175878Y-120051368D01*
X146248865Y-120275996D01*
X146356089Y-120486433D01*
X146494915Y-120677510D01*
X146661922Y-120844517D01*
X146852999Y-120983343D01*
X146952423Y-121034002D01*
X147063435Y-121090566D01*
X147063437Y-121090566D01*
X147063440Y-121090568D01*
X147166601Y-121124087D01*
X147288063Y-121163553D01*
X147521335Y-121200500D01*
X147521340Y-121200500D01*
X147757529Y-121200500D01*
X147990800Y-121163553D01*
X148044705Y-121146038D01*
X148215424Y-121090568D01*
X148425865Y-120983343D01*
X148616942Y-120844517D01*
X148783949Y-120677510D01*
X148922775Y-120486433D01*
X149030000Y-120275992D01*
X149102985Y-120051368D01*
X149105728Y-120034051D01*
X149139932Y-119818097D01*
X149139932Y-119581902D01*
X149102985Y-119348631D01*
X149029998Y-119124003D01*
X148922774Y-118913566D01*
X148783949Y-118722490D01*
X148616942Y-118555483D01*
X148425865Y-118416657D01*
X148215428Y-118309433D01*
X147990800Y-118236446D01*
X147757529Y-118199500D01*
X147757524Y-118199500D01*
X147521340Y-118199500D01*
X147521335Y-118199500D01*
X147288063Y-118236446D01*
X147063435Y-118309433D01*
X146852998Y-118416657D01*
X146743982Y-118495862D01*
X146661922Y-118555483D01*
X146661920Y-118555485D01*
X146661919Y-118555485D01*
X146494917Y-118722487D01*
X146494917Y-118722488D01*
X146494915Y-118722490D01*
X146435294Y-118804550D01*
X146356089Y-118913566D01*
X146248865Y-119124003D01*
X146175878Y-119348631D01*
X146138932Y-119581902D01*
X110294021Y-119581902D01*
X110302274Y-119571101D01*
X110309301Y-119564149D01*
X110311297Y-119562969D01*
X110427513Y-119446753D01*
X110511176Y-119305286D01*
X110557030Y-119147457D01*
X110559932Y-119110582D01*
X110559932Y-117879194D01*
X110557030Y-117842319D01*
X110511176Y-117684490D01*
X110427513Y-117543023D01*
X110427511Y-117543021D01*
X110427508Y-117543017D01*
X110311302Y-117426811D01*
X110311294Y-117426805D01*
X110169828Y-117343143D01*
X110169825Y-117343142D01*
X110012005Y-117297290D01*
X110011999Y-117297289D01*
X109975133Y-117294388D01*
X109975126Y-117294388D01*
X108743738Y-117294388D01*
X108743730Y-117294388D01*
X108706864Y-117297289D01*
X108706858Y-117297290D01*
X108549038Y-117343142D01*
X108549035Y-117343143D01*
X108407569Y-117426805D01*
X108407561Y-117426811D01*
X108291355Y-117543017D01*
X108291349Y-117543025D01*
X108207687Y-117684491D01*
X108207686Y-117684494D01*
X108161834Y-117842314D01*
X108161833Y-117842320D01*
X108158932Y-117879186D01*
X95085698Y-117879186D01*
X95303004Y-117808579D01*
X95534483Y-117690634D01*
X95744661Y-117537931D01*
X95928363Y-117354229D01*
X96081066Y-117144051D01*
X96199011Y-116912572D01*
X96279292Y-116665493D01*
X96279932Y-116661452D01*
X96319932Y-116408902D01*
X96319932Y-116149097D01*
X96293893Y-115984695D01*
X96279292Y-115892507D01*
X96199011Y-115645428D01*
X96199009Y-115645425D01*
X96199009Y-115645423D01*
X96152590Y-115554322D01*
X96081066Y-115413949D01*
X95928363Y-115203771D01*
X95744661Y-115020069D01*
X95742082Y-115018195D01*
X95534486Y-114867368D01*
X95534485Y-114867367D01*
X95534483Y-114867366D01*
X95437778Y-114818092D01*
X95303008Y-114749422D01*
X95055925Y-114669140D01*
X94799334Y-114628500D01*
X94799329Y-114628500D01*
X94539535Y-114628500D01*
X94539530Y-114628500D01*
X94282938Y-114669140D01*
X94035855Y-114749422D01*
X93804377Y-114867368D01*
X93594206Y-115020066D01*
X93594200Y-115020071D01*
X93410503Y-115203768D01*
X93410498Y-115203774D01*
X93257800Y-115413945D01*
X93139854Y-115645423D01*
X93059572Y-115892506D01*
X93018932Y-116149097D01*
X84110921Y-116149097D01*
X84090836Y-115996537D01*
X84033142Y-115781219D01*
X83947837Y-115575274D01*
X83836380Y-115382226D01*
X83700679Y-115205376D01*
X83700674Y-115205370D01*
X83543061Y-115047757D01*
X83543054Y-115047751D01*
X83366214Y-114912058D01*
X83366212Y-114912057D01*
X83366206Y-114912052D01*
X83173158Y-114800595D01*
X83173154Y-114800593D01*
X82967222Y-114715293D01*
X82967215Y-114715291D01*
X82967213Y-114715290D01*
X82751895Y-114657596D01*
X82751889Y-114657595D01*
X82751884Y-114657594D01*
X82530898Y-114628501D01*
X82530895Y-114628500D01*
X82530889Y-114628500D01*
X82307975Y-114628500D01*
X82307969Y-114628500D01*
X82307965Y-114628501D01*
X82086979Y-114657594D01*
X82086972Y-114657595D01*
X82086969Y-114657596D01*
X82016724Y-114676418D01*
X81871651Y-114715290D01*
X81871641Y-114715293D01*
X81665709Y-114800593D01*
X81665705Y-114800595D01*
X81472658Y-114912052D01*
X81472649Y-114912058D01*
X81295809Y-115047751D01*
X81295802Y-115047757D01*
X81138189Y-115205370D01*
X81138183Y-115205377D01*
X81002490Y-115382217D01*
X81002484Y-115382226D01*
X80891027Y-115575273D01*
X80891025Y-115575277D01*
X80805725Y-115781209D01*
X80805722Y-115781219D01*
X80748029Y-115996534D01*
X80748026Y-115996547D01*
X80718933Y-116217533D01*
X80718932Y-116217549D01*
X64239932Y-116217549D01*
X64239932Y-114153297D01*
X98878932Y-114153297D01*
X98878932Y-115984682D01*
X98878933Y-115984707D01*
X98881834Y-116021570D01*
X98927686Y-116179394D01*
X98927687Y-116179397D01*
X98927688Y-116179399D01*
X98929118Y-116181817D01*
X99011348Y-116320861D01*
X99011355Y-116320870D01*
X99127561Y-116437076D01*
X99127570Y-116437083D01*
X99166657Y-116460199D01*
X99269033Y-116520744D01*
X99278798Y-116523581D01*
X99426857Y-116566597D01*
X99426860Y-116566597D01*
X99426862Y-116566598D01*
X99463737Y-116569500D01*
X101295126Y-116569499D01*
X101332002Y-116566598D01*
X101489831Y-116520744D01*
X101631297Y-116437081D01*
X101747513Y-116320865D01*
X101831176Y-116179399D01*
X101877030Y-116021570D01*
X101879932Y-115984695D01*
X101879931Y-115418995D01*
X106998931Y-115418995D01*
X107025850Y-115554322D01*
X107025853Y-115554332D01*
X107078653Y-115681804D01*
X107078660Y-115681817D01*
X107155317Y-115796541D01*
X107155320Y-115796545D01*
X107252886Y-115894111D01*
X107252890Y-115894114D01*
X107367614Y-115970771D01*
X107367621Y-115970775D01*
X107469394Y-116012930D01*
X107523795Y-116056769D01*
X107536501Y-116080038D01*
X107578653Y-116181804D01*
X107578660Y-116181817D01*
X107655317Y-116296541D01*
X107655320Y-116296545D01*
X107752886Y-116394111D01*
X107752890Y-116394114D01*
X107867614Y-116470771D01*
X107867627Y-116470778D01*
X107995099Y-116523578D01*
X107995104Y-116523580D01*
X107995108Y-116523580D01*
X107995109Y-116523581D01*
X108130436Y-116550500D01*
X108130439Y-116550500D01*
X108268427Y-116550500D01*
X108359473Y-116532389D01*
X108403760Y-116523580D01*
X108531243Y-116470775D01*
X108645974Y-116394114D01*
X108743546Y-116296542D01*
X108820207Y-116181811D01*
X108862362Y-116080038D01*
X108906202Y-116025635D01*
X108929471Y-116012930D01*
X108969024Y-115996547D01*
X109000901Y-115983343D01*
X109031236Y-115970778D01*
X109031236Y-115970777D01*
X109031243Y-115970775D01*
X109145974Y-115894114D01*
X109243546Y-115796542D01*
X109320207Y-115681811D01*
X109373012Y-115554328D01*
X109399932Y-115418993D01*
X109399932Y-115281007D01*
X109399932Y-115281004D01*
X109373013Y-115145677D01*
X109373012Y-115145676D01*
X109373012Y-115145672D01*
X109373010Y-115145667D01*
X109320210Y-115018195D01*
X109320203Y-115018182D01*
X109243546Y-114903458D01*
X109243543Y-114903454D01*
X109145977Y-114805888D01*
X109145973Y-114805885D01*
X109031249Y-114729228D01*
X109031236Y-114729221D01*
X108940401Y-114691597D01*
X108903760Y-114676420D01*
X108903754Y-114676418D01*
X108768427Y-114649500D01*
X108768425Y-114649500D01*
X108630439Y-114649500D01*
X108630437Y-114649500D01*
X108495109Y-114676418D01*
X108495099Y-114676421D01*
X108367627Y-114729221D01*
X108367614Y-114729228D01*
X108268323Y-114795573D01*
X108201645Y-114816451D01*
X108134265Y-114797966D01*
X108130541Y-114795573D01*
X108031249Y-114729228D01*
X108031236Y-114729221D01*
X107903764Y-114676421D01*
X107903754Y-114676418D01*
X107768427Y-114649500D01*
X107768425Y-114649500D01*
X107630439Y-114649500D01*
X107630437Y-114649500D01*
X107495109Y-114676418D01*
X107495099Y-114676421D01*
X107367627Y-114729221D01*
X107367614Y-114729228D01*
X107252890Y-114805885D01*
X107252886Y-114805888D01*
X107155320Y-114903454D01*
X107155317Y-114903458D01*
X107078660Y-115018182D01*
X107078653Y-115018195D01*
X107025853Y-115145667D01*
X107025850Y-115145677D01*
X106998932Y-115281004D01*
X106998932Y-115281007D01*
X106998932Y-115418993D01*
X106998932Y-115418995D01*
X106998931Y-115418995D01*
X101879931Y-115418995D01*
X101879931Y-115051368D01*
X101879931Y-114581902D01*
X146138932Y-114581902D01*
X146138932Y-114818097D01*
X146175878Y-115051368D01*
X146248865Y-115275996D01*
X146356089Y-115486433D01*
X146494915Y-115677510D01*
X146661922Y-115844517D01*
X146852999Y-115983343D01*
X146911063Y-116012928D01*
X147063435Y-116090566D01*
X147063437Y-116090566D01*
X147063440Y-116090568D01*
X147183844Y-116129689D01*
X147288063Y-116163553D01*
X147521335Y-116200500D01*
X147521340Y-116200500D01*
X147757529Y-116200500D01*
X147990800Y-116163553D01*
X148215424Y-116090568D01*
X148425865Y-115983343D01*
X148616942Y-115844517D01*
X148783949Y-115677510D01*
X148922775Y-115486433D01*
X149030000Y-115275992D01*
X149102985Y-115051368D01*
X149108241Y-115018182D01*
X149139932Y-114818097D01*
X149139932Y-114581902D01*
X149102985Y-114348631D01*
X149039523Y-114153317D01*
X149030000Y-114124008D01*
X149029998Y-114124005D01*
X149029998Y-114124003D01*
X148922774Y-113913566D01*
X148783949Y-113722490D01*
X148616942Y-113555483D01*
X148425865Y-113416657D01*
X148215428Y-113309433D01*
X147990800Y-113236446D01*
X147757529Y-113199500D01*
X147757524Y-113199500D01*
X147521340Y-113199500D01*
X147521335Y-113199500D01*
X147288063Y-113236446D01*
X147063435Y-113309433D01*
X146852998Y-113416657D01*
X146743982Y-113495862D01*
X146661922Y-113555483D01*
X146661920Y-113555485D01*
X146661919Y-113555485D01*
X146494917Y-113722487D01*
X146494917Y-113722488D01*
X146494915Y-113722490D01*
X146435294Y-113804550D01*
X146356089Y-113913566D01*
X146248865Y-114124003D01*
X146175878Y-114348631D01*
X146138932Y-114581902D01*
X101879931Y-114581902D01*
X101879931Y-114153317D01*
X101879930Y-114153292D01*
X101879642Y-114149638D01*
X101877030Y-114116430D01*
X101831176Y-113958601D01*
X101747513Y-113817135D01*
X101747511Y-113817133D01*
X101747508Y-113817129D01*
X101631302Y-113700923D01*
X101631293Y-113700916D01*
X101489829Y-113617255D01*
X101489826Y-113617254D01*
X101332006Y-113571402D01*
X101332000Y-113571401D01*
X101295127Y-113568500D01*
X99463749Y-113568500D01*
X99463724Y-113568501D01*
X99426861Y-113571402D01*
X99269037Y-113617254D01*
X99269034Y-113617255D01*
X99127570Y-113700916D01*
X99127561Y-113700923D01*
X99011355Y-113817129D01*
X99011348Y-113817138D01*
X98927687Y-113958602D01*
X98927686Y-113958605D01*
X98881834Y-114116425D01*
X98881833Y-114116431D01*
X98878932Y-114153297D01*
X64239932Y-114153297D01*
X64239932Y-110170902D01*
X69378932Y-110170902D01*
X69378932Y-110407097D01*
X69415878Y-110640368D01*
X69488865Y-110864996D01*
X69596089Y-111075433D01*
X69734915Y-111266510D01*
X69901922Y-111433517D01*
X70092999Y-111572343D01*
X70167380Y-111610242D01*
X70303435Y-111679566D01*
X70303437Y-111679566D01*
X70303440Y-111679568D01*
X70423844Y-111718689D01*
X70528063Y-111752553D01*
X70761335Y-111789500D01*
X70761340Y-111789500D01*
X70997529Y-111789500D01*
X71230800Y-111752553D01*
X71251131Y-111745947D01*
X71455424Y-111679568D01*
X71665865Y-111572343D01*
X71856942Y-111433517D01*
X72023949Y-111266510D01*
X72162775Y-111075433D01*
X72270000Y-110864992D01*
X72342985Y-110640368D01*
X72367366Y-110486433D01*
X72379932Y-110407097D01*
X72379932Y-110217547D01*
X94918932Y-110217547D01*
X94918932Y-110440450D01*
X94918933Y-110440466D01*
X94948026Y-110661452D01*
X94948027Y-110661457D01*
X94948028Y-110661463D01*
X95005722Y-110876780D01*
X95005725Y-110876790D01*
X95049861Y-110983343D01*
X95091027Y-111082726D01*
X95202484Y-111275774D01*
X95202489Y-111275780D01*
X95202490Y-111275782D01*
X95338183Y-111452622D01*
X95338189Y-111452629D01*
X95495802Y-111610242D01*
X95495808Y-111610247D01*
X95672658Y-111745948D01*
X95865706Y-111857405D01*
X96071651Y-111942710D01*
X96286969Y-112000404D01*
X96507975Y-112029500D01*
X96507982Y-112029500D01*
X96730882Y-112029500D01*
X96730889Y-112029500D01*
X96951895Y-112000404D01*
X97167213Y-111942710D01*
X97373158Y-111857405D01*
X97566206Y-111745948D01*
X97743056Y-111610247D01*
X97900679Y-111452624D01*
X98036380Y-111275774D01*
X98147837Y-111082726D01*
X98233142Y-110876781D01*
X98290836Y-110661463D01*
X98319932Y-110440457D01*
X98319932Y-110217543D01*
X98290836Y-109996537D01*
X98233142Y-109781219D01*
X98233137Y-109781209D01*
X98233136Y-109781203D01*
X98168223Y-109624488D01*
X98156200Y-109595464D01*
X98150582Y-109581902D01*
X146138932Y-109581902D01*
X146138932Y-109818097D01*
X146175878Y-110051368D01*
X146248865Y-110275996D01*
X146356089Y-110486433D01*
X146494915Y-110677510D01*
X146661922Y-110844517D01*
X146852999Y-110983343D01*
X146952423Y-111034002D01*
X147063435Y-111090566D01*
X147063437Y-111090566D01*
X147063440Y-111090568D01*
X147183844Y-111129689D01*
X147288063Y-111163553D01*
X147521335Y-111200500D01*
X147521340Y-111200500D01*
X147757529Y-111200500D01*
X147990800Y-111163553D01*
X148215424Y-111090568D01*
X148425865Y-110983343D01*
X148616942Y-110844517D01*
X148783949Y-110677510D01*
X148922775Y-110486433D01*
X149030000Y-110275992D01*
X149102985Y-110051368D01*
X149120999Y-109937631D01*
X149139932Y-109818097D01*
X149139932Y-109581902D01*
X149102985Y-109348631D01*
X149036653Y-109144485D01*
X149030000Y-109124008D01*
X149029998Y-109124005D01*
X149029998Y-109124003D01*
X148922774Y-108913566D01*
X148783949Y-108722490D01*
X148616942Y-108555483D01*
X148425865Y-108416657D01*
X148215428Y-108309433D01*
X147990800Y-108236446D01*
X147757529Y-108199500D01*
X147757524Y-108199500D01*
X147521340Y-108199500D01*
X147521335Y-108199500D01*
X147288063Y-108236446D01*
X147063435Y-108309433D01*
X146852998Y-108416657D01*
X146743982Y-108495862D01*
X146661922Y-108555483D01*
X146661920Y-108555485D01*
X146661919Y-108555485D01*
X146494917Y-108722487D01*
X146494917Y-108722488D01*
X146494915Y-108722490D01*
X146446956Y-108788500D01*
X146356089Y-108913566D01*
X146248865Y-109124003D01*
X146175878Y-109348631D01*
X146138932Y-109581902D01*
X98150582Y-109581902D01*
X98147837Y-109575274D01*
X98036380Y-109382226D01*
X97900679Y-109205376D01*
X97900674Y-109205370D01*
X97743061Y-109047757D01*
X97743054Y-109047751D01*
X97566214Y-108912058D01*
X97566212Y-108912057D01*
X97566206Y-108912052D01*
X97373158Y-108800595D01*
X97373154Y-108800593D01*
X97167222Y-108715293D01*
X97167215Y-108715291D01*
X97167213Y-108715290D01*
X96951895Y-108657596D01*
X96951889Y-108657595D01*
X96951884Y-108657594D01*
X96730898Y-108628501D01*
X96730895Y-108628500D01*
X96730889Y-108628500D01*
X96507975Y-108628500D01*
X96507969Y-108628500D01*
X96507965Y-108628501D01*
X96286979Y-108657594D01*
X96286972Y-108657595D01*
X96286969Y-108657596D01*
X96071651Y-108715290D01*
X96071641Y-108715293D01*
X95865709Y-108800593D01*
X95865705Y-108800595D01*
X95672658Y-108912052D01*
X95672649Y-108912058D01*
X95495809Y-109047751D01*
X95495802Y-109047757D01*
X95338189Y-109205370D01*
X95338183Y-109205377D01*
X95202490Y-109382217D01*
X95202484Y-109382226D01*
X95091027Y-109575273D01*
X95091025Y-109575277D01*
X95005725Y-109781209D01*
X95005722Y-109781219D01*
X94963812Y-109937632D01*
X94948029Y-109996534D01*
X94948026Y-109996547D01*
X94918933Y-110217533D01*
X94918932Y-110217547D01*
X72379932Y-110217547D01*
X72379932Y-110170902D01*
X72342985Y-109937631D01*
X72269998Y-109713003D01*
X72199823Y-109575278D01*
X72162775Y-109502567D01*
X72023949Y-109311490D01*
X71856942Y-109144483D01*
X71665865Y-109005657D01*
X71455428Y-108898433D01*
X71230800Y-108825446D01*
X70997529Y-108788500D01*
X70997524Y-108788500D01*
X70761340Y-108788500D01*
X70761335Y-108788500D01*
X70528063Y-108825446D01*
X70303435Y-108898433D01*
X70092998Y-109005657D01*
X69983982Y-109084862D01*
X69901922Y-109144483D01*
X69901920Y-109144485D01*
X69901919Y-109144485D01*
X69734917Y-109311487D01*
X69734917Y-109311488D01*
X69734915Y-109311490D01*
X69707930Y-109348632D01*
X69596089Y-109502566D01*
X69488865Y-109713003D01*
X69415878Y-109937631D01*
X69378932Y-110170902D01*
X64239932Y-110170902D01*
X64239932Y-104184730D01*
X69378932Y-104184730D01*
X69378932Y-106393269D01*
X69381785Y-106423699D01*
X69381785Y-106423701D01*
X69426638Y-106551880D01*
X69426639Y-106551882D01*
X69507282Y-106661150D01*
X69616550Y-106741793D01*
X69659277Y-106756744D01*
X69744731Y-106786646D01*
X69775162Y-106789500D01*
X69775166Y-106789500D01*
X71983702Y-106789500D01*
X72014131Y-106786646D01*
X72014133Y-106786646D01*
X72078222Y-106764219D01*
X72142314Y-106741793D01*
X72251582Y-106661150D01*
X72332225Y-106551882D01*
X72354651Y-106487790D01*
X72377078Y-106423701D01*
X72377078Y-106423699D01*
X72379932Y-106393269D01*
X72379932Y-104184733D01*
X72379025Y-104175064D01*
X72379025Y-104175060D01*
X72378321Y-104167549D01*
X80768932Y-104167549D01*
X80768932Y-104390450D01*
X80768933Y-104390466D01*
X80798026Y-104611452D01*
X80798027Y-104611457D01*
X80798028Y-104611463D01*
X80853394Y-104818092D01*
X80855722Y-104826780D01*
X80855725Y-104826790D01*
X80941025Y-105032722D01*
X80941027Y-105032726D01*
X81052484Y-105225774D01*
X81052489Y-105225780D01*
X81052490Y-105225782D01*
X81188183Y-105402622D01*
X81188189Y-105402629D01*
X81345802Y-105560242D01*
X81345808Y-105560247D01*
X81522658Y-105695948D01*
X81715706Y-105807405D01*
X81921651Y-105892710D01*
X82136969Y-105950404D01*
X82357975Y-105979500D01*
X82357982Y-105979500D01*
X82580882Y-105979500D01*
X82580889Y-105979500D01*
X82801895Y-105950404D01*
X83017213Y-105892710D01*
X83223158Y-105807405D01*
X83416206Y-105695948D01*
X83593056Y-105560247D01*
X83750679Y-105402624D01*
X83886380Y-105225774D01*
X83997837Y-105032726D01*
X84083142Y-104826781D01*
X84140836Y-104611463D01*
X84169932Y-104390457D01*
X84169932Y-104167543D01*
X84169576Y-104164837D01*
X93218932Y-104164837D01*
X93218932Y-104393162D01*
X93254647Y-104618660D01*
X93325202Y-104835803D01*
X93425538Y-105032722D01*
X93428853Y-105039228D01*
X93563053Y-105223937D01*
X93724495Y-105385379D01*
X93909204Y-105519579D01*
X93989010Y-105560242D01*
X94112628Y-105623229D01*
X94112630Y-105623229D01*
X94112633Y-105623231D01*
X94229024Y-105661049D01*
X94329771Y-105693784D01*
X94555270Y-105729500D01*
X94555275Y-105729500D01*
X94783594Y-105729500D01*
X95009092Y-105693784D01*
X95226231Y-105623231D01*
X95429660Y-105519579D01*
X95614369Y-105385379D01*
X95775811Y-105223937D01*
X95910011Y-105039228D01*
X96013663Y-104835799D01*
X96023135Y-104806648D01*
X99078932Y-104806648D01*
X99078932Y-105011351D01*
X99110954Y-105213534D01*
X99174213Y-105408223D01*
X99267147Y-105590613D01*
X99387460Y-105756213D01*
X99532218Y-105900971D01*
X99645596Y-105983343D01*
X99697822Y-106021287D01*
X99814039Y-106080503D01*
X99880208Y-106114218D01*
X99880210Y-106114218D01*
X99880213Y-106114220D01*
X99984569Y-106148127D01*
X100074897Y-106177477D01*
X100175989Y-106193488D01*
X100277080Y-106209500D01*
X100277081Y-106209500D01*
X100481783Y-106209500D01*
X100481784Y-106209500D01*
X100683966Y-106177477D01*
X100878651Y-106114220D01*
X101061042Y-106021287D01*
X101154022Y-105953732D01*
X101226645Y-105900971D01*
X101226647Y-105900968D01*
X101226651Y-105900966D01*
X101371398Y-105756219D01*
X101371400Y-105756215D01*
X101371403Y-105756213D01*
X101424164Y-105683590D01*
X101491719Y-105590610D01*
X101584652Y-105408219D01*
X101647909Y-105213534D01*
X101679932Y-105011352D01*
X101679932Y-104806648D01*
X101649017Y-104611463D01*
X101647909Y-104604465D01*
X101640578Y-104581902D01*
X146138932Y-104581902D01*
X146138932Y-104818097D01*
X146175878Y-105051368D01*
X146248865Y-105275996D01*
X146316237Y-105408219D01*
X146356089Y-105486433D01*
X146494915Y-105677510D01*
X146661922Y-105844517D01*
X146852999Y-105983343D01*
X146952423Y-106034002D01*
X147063435Y-106090566D01*
X147063437Y-106090566D01*
X147063440Y-106090568D01*
X147183844Y-106129689D01*
X147288063Y-106163553D01*
X147521335Y-106200500D01*
X147521340Y-106200500D01*
X147757529Y-106200500D01*
X147990800Y-106163553D01*
X148215424Y-106090568D01*
X148425865Y-105983343D01*
X148616942Y-105844517D01*
X148783949Y-105677510D01*
X148922775Y-105486433D01*
X149030000Y-105275992D01*
X149102985Y-105051368D01*
X149109323Y-105011351D01*
X149139932Y-104818097D01*
X149139932Y-104581902D01*
X149102985Y-104348631D01*
X149063590Y-104227386D01*
X149030000Y-104124008D01*
X149029998Y-104124005D01*
X149029998Y-104124003D01*
X148949889Y-103966781D01*
X148922775Y-103913567D01*
X148783949Y-103722490D01*
X148616942Y-103555483D01*
X148425865Y-103416657D01*
X148419865Y-103413600D01*
X148215428Y-103309433D01*
X147990800Y-103236446D01*
X147757529Y-103199500D01*
X147757524Y-103199500D01*
X147521340Y-103199500D01*
X147521335Y-103199500D01*
X147288063Y-103236446D01*
X147063435Y-103309433D01*
X146852998Y-103416657D01*
X146745059Y-103495080D01*
X146661922Y-103555483D01*
X146661920Y-103555485D01*
X146661919Y-103555485D01*
X146494917Y-103722487D01*
X146494917Y-103722488D01*
X146494915Y-103722490D01*
X146446956Y-103788500D01*
X146356089Y-103913566D01*
X146248865Y-104124003D01*
X146175878Y-104348631D01*
X146138932Y-104581902D01*
X101640578Y-104581902D01*
X101618559Y-104514137D01*
X101584652Y-104409781D01*
X101584650Y-104409778D01*
X101584650Y-104409776D01*
X101524156Y-104291051D01*
X101491719Y-104227390D01*
X101460725Y-104184730D01*
X101371403Y-104061786D01*
X101226645Y-103917028D01*
X101061045Y-103796715D01*
X101061044Y-103796714D01*
X101061042Y-103796713D01*
X101004085Y-103767691D01*
X100878655Y-103703781D01*
X100683966Y-103640522D01*
X100509427Y-103612878D01*
X100481784Y-103608500D01*
X100277080Y-103608500D01*
X100252761Y-103612351D01*
X100074897Y-103640522D01*
X99880208Y-103703781D01*
X99697818Y-103796715D01*
X99532218Y-103917028D01*
X99387460Y-104061786D01*
X99267147Y-104227386D01*
X99174213Y-104409776D01*
X99110954Y-104604465D01*
X99078932Y-104806648D01*
X96023135Y-104806648D01*
X96084216Y-104618660D01*
X96106970Y-104474998D01*
X96119932Y-104393162D01*
X96119932Y-104164837D01*
X96084216Y-103939339D01*
X96037874Y-103796715D01*
X96013663Y-103722201D01*
X96013661Y-103722198D01*
X96013661Y-103722196D01*
X95955730Y-103608500D01*
X95910011Y-103518772D01*
X95775811Y-103334063D01*
X95614369Y-103172621D01*
X95429660Y-103038421D01*
X95394696Y-103020606D01*
X95226235Y-102934770D01*
X95009092Y-102864215D01*
X94783594Y-102828500D01*
X94783589Y-102828500D01*
X94555275Y-102828500D01*
X94555270Y-102828500D01*
X94329771Y-102864215D01*
X94112628Y-102934770D01*
X93909203Y-103038421D01*
X93724493Y-103172622D01*
X93563054Y-103334061D01*
X93428853Y-103518771D01*
X93325202Y-103722196D01*
X93254647Y-103939339D01*
X93218932Y-104164837D01*
X84169576Y-104164837D01*
X84164923Y-104129499D01*
X84151313Y-104026117D01*
X84140836Y-103946537D01*
X84083142Y-103731219D01*
X84071776Y-103703780D01*
X84037421Y-103620839D01*
X83997837Y-103525274D01*
X83886380Y-103332226D01*
X83763912Y-103172622D01*
X83750680Y-103155377D01*
X83750674Y-103155370D01*
X83593061Y-102997757D01*
X83593054Y-102997751D01*
X83416214Y-102862058D01*
X83416212Y-102862057D01*
X83416206Y-102862052D01*
X83223158Y-102750595D01*
X83223154Y-102750593D01*
X83068238Y-102686425D01*
X83017222Y-102665293D01*
X83017215Y-102665291D01*
X83017213Y-102665290D01*
X82801895Y-102607596D01*
X82801889Y-102607595D01*
X82801884Y-102607594D01*
X82580898Y-102578501D01*
X82580895Y-102578500D01*
X82580889Y-102578500D01*
X82357975Y-102578500D01*
X82357969Y-102578500D01*
X82357965Y-102578501D01*
X82136979Y-102607594D01*
X82136972Y-102607595D01*
X82136969Y-102607596D01*
X82092162Y-102619602D01*
X81921651Y-102665290D01*
X81921641Y-102665293D01*
X81715709Y-102750593D01*
X81715705Y-102750595D01*
X81522658Y-102862052D01*
X81522649Y-102862058D01*
X81345809Y-102997751D01*
X81345802Y-102997757D01*
X81188189Y-103155370D01*
X81188183Y-103155377D01*
X81052490Y-103332217D01*
X81052484Y-103332226D01*
X80941027Y-103525273D01*
X80941025Y-103525277D01*
X80855725Y-103731209D01*
X80855722Y-103731219D01*
X80799957Y-103939340D01*
X80798029Y-103946534D01*
X80798026Y-103946547D01*
X80768933Y-104167533D01*
X80768932Y-104167549D01*
X72378321Y-104167549D01*
X72377078Y-104154300D01*
X72377078Y-104154298D01*
X72343438Y-104058163D01*
X72332225Y-104026118D01*
X72251582Y-103916850D01*
X72142314Y-103836207D01*
X72142312Y-103836206D01*
X72014132Y-103791353D01*
X71983702Y-103788500D01*
X71983698Y-103788500D01*
X69775166Y-103788500D01*
X69775162Y-103788500D01*
X69744732Y-103791353D01*
X69744730Y-103791353D01*
X69616551Y-103836206D01*
X69616549Y-103836207D01*
X69507282Y-103916850D01*
X69426639Y-104026117D01*
X69426638Y-104026119D01*
X69381785Y-104154298D01*
X69381785Y-104154300D01*
X69378932Y-104184730D01*
X64239932Y-104184730D01*
X64239932Y-102575013D01*
X107764432Y-102575013D01*
X107764432Y-102925000D01*
X108005432Y-102925000D01*
X108072471Y-102944685D01*
X108118226Y-102997489D01*
X108129432Y-103049000D01*
X108129432Y-103301000D01*
X108109747Y-103368039D01*
X108056943Y-103413794D01*
X108005432Y-103425000D01*
X107764433Y-103425000D01*
X107764433Y-103774986D01*
X107774926Y-103877697D01*
X107830073Y-104044119D01*
X107830075Y-104044124D01*
X107922116Y-104193345D01*
X108046086Y-104317315D01*
X108195307Y-104409356D01*
X108195312Y-104409358D01*
X108361734Y-104464505D01*
X108361741Y-104464506D01*
X108464451Y-104474999D01*
X108814431Y-104474999D01*
X108818173Y-104471256D01*
X108834117Y-104416961D01*
X108886921Y-104371206D01*
X108938432Y-104360000D01*
X109190432Y-104360000D01*
X109257471Y-104379685D01*
X109303226Y-104432489D01*
X109311929Y-104472496D01*
X109314432Y-104474999D01*
X109664404Y-104474999D01*
X109664418Y-104474998D01*
X109767129Y-104464505D01*
X109778680Y-104460678D01*
X110001716Y-104369263D01*
X110024366Y-104366913D01*
X110048743Y-104360000D01*
X110179432Y-104360000D01*
X110179432Y-104359999D01*
X110178864Y-104348632D01*
X110175544Y-104282255D01*
X110191855Y-104214320D01*
X110203108Y-104199669D01*
X110202271Y-104199007D01*
X110206746Y-104193346D01*
X110298788Y-104044124D01*
X110298790Y-104044119D01*
X110353937Y-103877697D01*
X110353938Y-103877690D01*
X110364431Y-103774986D01*
X110364432Y-103774973D01*
X110364432Y-103425000D01*
X110250637Y-103425000D01*
X110244954Y-103423331D01*
X110239142Y-103424466D01*
X110211813Y-103413600D01*
X110183598Y-103405315D01*
X110179719Y-103400839D01*
X110174216Y-103398651D01*
X110157098Y-103374733D01*
X110137843Y-103352511D01*
X110136110Y-103345406D01*
X110133553Y-103341833D01*
X110126792Y-103307193D01*
X110123945Y-103250259D01*
X110123945Y-103250258D01*
X110123940Y-103250153D01*
X120678932Y-103250153D01*
X120678932Y-103407846D01*
X120709693Y-103562489D01*
X120709696Y-103562501D01*
X120770034Y-103708172D01*
X120770041Y-103708185D01*
X120857642Y-103839288D01*
X120857645Y-103839292D01*
X120969139Y-103950786D01*
X120969143Y-103950789D01*
X121100246Y-104038390D01*
X121100259Y-104038397D01*
X121245930Y-104098735D01*
X121245935Y-104098737D01*
X121372955Y-104124003D01*
X121400585Y-104129499D01*
X121400588Y-104129500D01*
X121400590Y-104129500D01*
X121558276Y-104129500D01*
X121558277Y-104129499D01*
X121712929Y-104098737D01*
X121825598Y-104052067D01*
X121858604Y-104038397D01*
X121858604Y-104038396D01*
X121858611Y-104038394D01*
X121989721Y-103950789D01*
X122101221Y-103839289D01*
X122188826Y-103708179D01*
X122249169Y-103562497D01*
X122276013Y-103427543D01*
X125358931Y-103427543D01*
X125397379Y-103620829D01*
X125397382Y-103620839D01*
X125472796Y-103802907D01*
X125472803Y-103802920D01*
X125582292Y-103966781D01*
X125582295Y-103966785D01*
X125721646Y-104106136D01*
X125721650Y-104106139D01*
X125885511Y-104215628D01*
X125885524Y-104215635D01*
X126046371Y-104282259D01*
X126067597Y-104291051D01*
X126067601Y-104291051D01*
X126067602Y-104291052D01*
X126260888Y-104329500D01*
X126260891Y-104329500D01*
X126857975Y-104329500D01*
X126988014Y-104303632D01*
X127051267Y-104291051D01*
X127192087Y-104232721D01*
X127233339Y-104215635D01*
X127233339Y-104215634D01*
X127233346Y-104215632D01*
X127397214Y-104106139D01*
X127536571Y-103966782D01*
X127646064Y-103802914D01*
X127721483Y-103620835D01*
X127740491Y-103525277D01*
X127759932Y-103427543D01*
X127759932Y-103230456D01*
X127721484Y-103037170D01*
X127721483Y-103037169D01*
X127721483Y-103037165D01*
X127685304Y-102949821D01*
X127646067Y-102855092D01*
X127646060Y-102855079D01*
X127536571Y-102691218D01*
X127536568Y-102691214D01*
X127397217Y-102551863D01*
X127397213Y-102551860D01*
X127233352Y-102442371D01*
X127233339Y-102442364D01*
X127051271Y-102366950D01*
X127051261Y-102366947D01*
X126857975Y-102328500D01*
X126857973Y-102328500D01*
X126260891Y-102328500D01*
X126260889Y-102328500D01*
X126067602Y-102366947D01*
X126067592Y-102366950D01*
X125885524Y-102442364D01*
X125885511Y-102442371D01*
X125721650Y-102551860D01*
X125721646Y-102551863D01*
X125582295Y-102691214D01*
X125582292Y-102691218D01*
X125472803Y-102855079D01*
X125472796Y-102855092D01*
X125397382Y-103037160D01*
X125397379Y-103037170D01*
X125358932Y-103230456D01*
X125358932Y-103230459D01*
X125358932Y-103427541D01*
X125358932Y-103427543D01*
X125358931Y-103427543D01*
X122276013Y-103427543D01*
X122279932Y-103407842D01*
X122279932Y-103250158D01*
X122279615Y-103248564D01*
X122279615Y-103248561D01*
X122279614Y-103248558D01*
X122261079Y-103155377D01*
X122249169Y-103095503D01*
X122204331Y-102987253D01*
X122188829Y-102949827D01*
X122188822Y-102949814D01*
X122101221Y-102818711D01*
X122101218Y-102818707D01*
X121989724Y-102707213D01*
X121989720Y-102707210D01*
X121858617Y-102619609D01*
X121858604Y-102619602D01*
X121712933Y-102559264D01*
X121712921Y-102559261D01*
X121558277Y-102528500D01*
X121558274Y-102528500D01*
X121400590Y-102528500D01*
X121400587Y-102528500D01*
X121245942Y-102559261D01*
X121245930Y-102559264D01*
X121100259Y-102619602D01*
X121100246Y-102619609D01*
X120969143Y-102707210D01*
X120969139Y-102707213D01*
X120857645Y-102818707D01*
X120857642Y-102818711D01*
X120770041Y-102949814D01*
X120770034Y-102949827D01*
X120709696Y-103095498D01*
X120709693Y-103095510D01*
X120678932Y-103250153D01*
X110123940Y-103250153D01*
X110114192Y-103055192D01*
X110130504Y-102987253D01*
X110180957Y-102938919D01*
X110238037Y-102925000D01*
X110364431Y-102925000D01*
X110364431Y-102575028D01*
X110364430Y-102575013D01*
X110353937Y-102472302D01*
X110298790Y-102305880D01*
X110298788Y-102305875D01*
X110206747Y-102156654D01*
X110082776Y-102032683D01*
X110077109Y-102028202D01*
X110078919Y-102025911D01*
X110041068Y-101983829D01*
X110029847Y-101914866D01*
X110052571Y-101857354D01*
X110091192Y-101804199D01*
X110176979Y-101635832D01*
X110235372Y-101456118D01*
X110264932Y-101269486D01*
X110264932Y-101080513D01*
X110235372Y-100893881D01*
X110186147Y-100742385D01*
X110176977Y-100714163D01*
X110174934Y-100710153D01*
X123218932Y-100710153D01*
X123218932Y-100867846D01*
X123249693Y-101022489D01*
X123249696Y-101022501D01*
X123310034Y-101168172D01*
X123310041Y-101168185D01*
X123397642Y-101299288D01*
X123397645Y-101299292D01*
X123509139Y-101410786D01*
X123509143Y-101410789D01*
X123640246Y-101498390D01*
X123640259Y-101498397D01*
X123785930Y-101558735D01*
X123785935Y-101558737D01*
X123940585Y-101589499D01*
X123940588Y-101589500D01*
X123940590Y-101589500D01*
X124098276Y-101589500D01*
X124098277Y-101589499D01*
X124252929Y-101558737D01*
X124398611Y-101498394D01*
X124529721Y-101410789D01*
X124641221Y-101299289D01*
X124728826Y-101168179D01*
X124789169Y-101022497D01*
X124819932Y-100867842D01*
X124819932Y-100710158D01*
X124819932Y-100710155D01*
X124819931Y-100710153D01*
X124789169Y-100555503D01*
X124766386Y-100500500D01*
X124728829Y-100409827D01*
X124728822Y-100409814D01*
X124641221Y-100278711D01*
X124641218Y-100278707D01*
X124529724Y-100167213D01*
X124529720Y-100167210D01*
X124398617Y-100079609D01*
X124398604Y-100079602D01*
X124252933Y-100019264D01*
X124252921Y-100019261D01*
X124098277Y-99988500D01*
X124098274Y-99988500D01*
X123940590Y-99988500D01*
X123940587Y-99988500D01*
X123785942Y-100019261D01*
X123785930Y-100019264D01*
X123640259Y-100079602D01*
X123640246Y-100079609D01*
X123509143Y-100167210D01*
X123509139Y-100167213D01*
X123397645Y-100278707D01*
X123397642Y-100278711D01*
X123310041Y-100409814D01*
X123310034Y-100409827D01*
X123249696Y-100555498D01*
X123249693Y-100555510D01*
X123218932Y-100710153D01*
X110174934Y-100710153D01*
X110096135Y-100555503D01*
X110091192Y-100545801D01*
X109980122Y-100392927D01*
X109846505Y-100259310D01*
X109693631Y-100148240D01*
X109525268Y-100062454D01*
X109345550Y-100004059D01*
X109158918Y-99974500D01*
X109158913Y-99974500D01*
X108969951Y-99974500D01*
X108969946Y-99974500D01*
X108783313Y-100004059D01*
X108603595Y-100062454D01*
X108435232Y-100148240D01*
X108348011Y-100211610D01*
X108282359Y-100259310D01*
X108282357Y-100259312D01*
X108282356Y-100259312D01*
X108148744Y-100392924D01*
X108148744Y-100392925D01*
X108148742Y-100392927D01*
X108104572Y-100453722D01*
X108037672Y-100545800D01*
X107951886Y-100714163D01*
X107893491Y-100893881D01*
X107863932Y-101080513D01*
X107863932Y-101269486D01*
X107893491Y-101456118D01*
X107951886Y-101635836D01*
X108037672Y-101804200D01*
X108058437Y-101832779D01*
X108076290Y-101857352D01*
X108099771Y-101923157D01*
X108083946Y-101991212D01*
X108050231Y-102026276D01*
X108051754Y-102028202D01*
X108046091Y-102032679D01*
X107922114Y-102156657D01*
X107830075Y-102305875D01*
X107830073Y-102305880D01*
X107774926Y-102472302D01*
X107774925Y-102472309D01*
X107764432Y-102575013D01*
X64239932Y-102575013D01*
X64239932Y-98688549D01*
X69138932Y-98688549D01*
X69138932Y-98911450D01*
X69138933Y-98911466D01*
X69168026Y-99132452D01*
X69168027Y-99132457D01*
X69168028Y-99132463D01*
X69225722Y-99347780D01*
X69225725Y-99347790D01*
X69288980Y-99500500D01*
X69311027Y-99553726D01*
X69422484Y-99746774D01*
X69422489Y-99746780D01*
X69422490Y-99746782D01*
X69558183Y-99923622D01*
X69558189Y-99923629D01*
X69715802Y-100081242D01*
X69715808Y-100081247D01*
X69892658Y-100216948D01*
X70085706Y-100328405D01*
X70215572Y-100382197D01*
X70282276Y-100409827D01*
X70291651Y-100413710D01*
X70506969Y-100471404D01*
X70727975Y-100500500D01*
X70727982Y-100500500D01*
X70950882Y-100500500D01*
X70950889Y-100500500D01*
X71171895Y-100471404D01*
X71387213Y-100413710D01*
X71593158Y-100328405D01*
X71786206Y-100216948D01*
X71963056Y-100081247D01*
X72120679Y-99923624D01*
X72256380Y-99746774D01*
X72347732Y-99588549D01*
X145938932Y-99588549D01*
X145938932Y-99811450D01*
X145938933Y-99811466D01*
X145968026Y-100032452D01*
X145968027Y-100032457D01*
X145968028Y-100032463D01*
X146025722Y-100247780D01*
X146025725Y-100247790D01*
X146111025Y-100453722D01*
X146111027Y-100453726D01*
X146222484Y-100646774D01*
X146222489Y-100646780D01*
X146222490Y-100646782D01*
X146358183Y-100823622D01*
X146358189Y-100823629D01*
X146515802Y-100981242D01*
X146515809Y-100981248D01*
X146641726Y-101077867D01*
X146692658Y-101116948D01*
X146885706Y-101228405D01*
X146984885Y-101269486D01*
X147056835Y-101299289D01*
X147091651Y-101313710D01*
X147306969Y-101371404D01*
X147527975Y-101400500D01*
X147527982Y-101400500D01*
X147750882Y-101400500D01*
X147750889Y-101400500D01*
X147971895Y-101371404D01*
X148187213Y-101313710D01*
X148393158Y-101228405D01*
X148586206Y-101116948D01*
X148763056Y-100981247D01*
X148920679Y-100823624D01*
X149056380Y-100646774D01*
X149167837Y-100453726D01*
X149253142Y-100247781D01*
X149310836Y-100032463D01*
X149339932Y-99811457D01*
X149339932Y-99588543D01*
X149310836Y-99367537D01*
X149253142Y-99152219D01*
X149167837Y-98946274D01*
X149056380Y-98753226D01*
X148935485Y-98595672D01*
X148920680Y-98576377D01*
X148920674Y-98576370D01*
X148763061Y-98418757D01*
X148763054Y-98418751D01*
X148586214Y-98283058D01*
X148586212Y-98283057D01*
X148586206Y-98283052D01*
X148393158Y-98171595D01*
X148393154Y-98171593D01*
X148187222Y-98086293D01*
X148187215Y-98086291D01*
X148187213Y-98086290D01*
X147971895Y-98028596D01*
X147971889Y-98028595D01*
X147971884Y-98028594D01*
X147750898Y-97999501D01*
X147750895Y-97999500D01*
X147750889Y-97999500D01*
X147527975Y-97999500D01*
X147527969Y-97999500D01*
X147527965Y-97999501D01*
X147306979Y-98028594D01*
X147306972Y-98028595D01*
X147306969Y-98028596D01*
X147091651Y-98086290D01*
X147091641Y-98086293D01*
X146885709Y-98171593D01*
X146885705Y-98171595D01*
X146692658Y-98283052D01*
X146692649Y-98283058D01*
X146515809Y-98418751D01*
X146515802Y-98418757D01*
X146358189Y-98576370D01*
X146358183Y-98576377D01*
X146222490Y-98753217D01*
X146222484Y-98753226D01*
X146111027Y-98946273D01*
X146111025Y-98946277D01*
X146025725Y-99152209D01*
X146025722Y-99152219D01*
X145968029Y-99367534D01*
X145968026Y-99367547D01*
X145938933Y-99588533D01*
X145938932Y-99588549D01*
X72347732Y-99588549D01*
X72367837Y-99553726D01*
X72453142Y-99347781D01*
X72510836Y-99132463D01*
X72539932Y-98911457D01*
X72539932Y-98868995D01*
X82838931Y-98868995D01*
X82865850Y-99004322D01*
X82865853Y-99004332D01*
X82918653Y-99131804D01*
X82918660Y-99131817D01*
X82995317Y-99246541D01*
X82995320Y-99246545D01*
X83092886Y-99344111D01*
X83092890Y-99344114D01*
X83207614Y-99420771D01*
X83207627Y-99420778D01*
X83326273Y-99469922D01*
X83335104Y-99473580D01*
X83335108Y-99473580D01*
X83335109Y-99473581D01*
X83470436Y-99500500D01*
X83470439Y-99500500D01*
X83608427Y-99500500D01*
X83699473Y-99482389D01*
X83743760Y-99473580D01*
X83871243Y-99420775D01*
X83985974Y-99344114D01*
X84083546Y-99246542D01*
X84160207Y-99131811D01*
X84213012Y-99004328D01*
X84231484Y-98911466D01*
X84239932Y-98868995D01*
X84239932Y-98731004D01*
X84213013Y-98595677D01*
X84213012Y-98595676D01*
X84213012Y-98595672D01*
X84205020Y-98576377D01*
X84160210Y-98468195D01*
X84160203Y-98468182D01*
X84083546Y-98353458D01*
X84083543Y-98353454D01*
X83985977Y-98255888D01*
X83985973Y-98255885D01*
X83871249Y-98179228D01*
X83871236Y-98179221D01*
X83743764Y-98126421D01*
X83743754Y-98126418D01*
X83608427Y-98099500D01*
X83608425Y-98099500D01*
X83470439Y-98099500D01*
X83470437Y-98099500D01*
X83335109Y-98126418D01*
X83335099Y-98126421D01*
X83207627Y-98179221D01*
X83207614Y-98179228D01*
X83092890Y-98255885D01*
X83092886Y-98255888D01*
X82995320Y-98353454D01*
X82995317Y-98353458D01*
X82918660Y-98468182D01*
X82918653Y-98468195D01*
X82865853Y-98595667D01*
X82865850Y-98595677D01*
X82838932Y-98731004D01*
X82838932Y-98731007D01*
X82838932Y-98868993D01*
X82838932Y-98868995D01*
X82838931Y-98868995D01*
X72539932Y-98868995D01*
X72539932Y-98688543D01*
X72510836Y-98467537D01*
X72453142Y-98252219D01*
X72367837Y-98046274D01*
X72256380Y-97853226D01*
X72120679Y-97676376D01*
X72120674Y-97676370D01*
X71963061Y-97518757D01*
X71963054Y-97518751D01*
X71786214Y-97383058D01*
X71786212Y-97383057D01*
X71786206Y-97383052D01*
X71593158Y-97271595D01*
X71593154Y-97271593D01*
X71387222Y-97186293D01*
X71387215Y-97186291D01*
X71387213Y-97186290D01*
X71171895Y-97128596D01*
X71171889Y-97128595D01*
X71171884Y-97128594D01*
X70950898Y-97099501D01*
X70950895Y-97099500D01*
X70950889Y-97099500D01*
X70727975Y-97099500D01*
X70727969Y-97099500D01*
X70727965Y-97099501D01*
X70506979Y-97128594D01*
X70506972Y-97128595D01*
X70506969Y-97128596D01*
X70291651Y-97186290D01*
X70291641Y-97186293D01*
X70085709Y-97271593D01*
X70085705Y-97271595D01*
X69892658Y-97383052D01*
X69892649Y-97383058D01*
X69715809Y-97518751D01*
X69715802Y-97518757D01*
X69558189Y-97676370D01*
X69558183Y-97676377D01*
X69422490Y-97853217D01*
X69422484Y-97853226D01*
X69311027Y-98046273D01*
X69311025Y-98046277D01*
X69225725Y-98252209D01*
X69225722Y-98252219D01*
X69181099Y-98418757D01*
X69168029Y-98467534D01*
X69168026Y-98467547D01*
X69138933Y-98688533D01*
X69138932Y-98688549D01*
X64239932Y-98688549D01*
X64239932Y-92695730D01*
X69338932Y-92695730D01*
X69338932Y-94904269D01*
X69341785Y-94934699D01*
X69341785Y-94934701D01*
X69382801Y-95051914D01*
X69386639Y-95062882D01*
X69467282Y-95172150D01*
X69576550Y-95252793D01*
X69619277Y-95267744D01*
X69704731Y-95297646D01*
X69735162Y-95300500D01*
X69735166Y-95300500D01*
X71943702Y-95300500D01*
X71974131Y-95297646D01*
X71974133Y-95297646D01*
X72038222Y-95275219D01*
X72102314Y-95252793D01*
X72211582Y-95172150D01*
X72292225Y-95062882D01*
X72314651Y-94998790D01*
X72337078Y-94934701D01*
X72337078Y-94934699D01*
X72339932Y-94904269D01*
X72339932Y-94268995D01*
X78638931Y-94268995D01*
X78665850Y-94404322D01*
X78665853Y-94404332D01*
X78718653Y-94531804D01*
X78718660Y-94531817D01*
X78795317Y-94646541D01*
X78795320Y-94646545D01*
X78892886Y-94744111D01*
X78892890Y-94744114D01*
X79007614Y-94820771D01*
X79007627Y-94820778D01*
X79135099Y-94873578D01*
X79135104Y-94873580D01*
X79135108Y-94873580D01*
X79135109Y-94873581D01*
X79270436Y-94900500D01*
X79270439Y-94900500D01*
X79408427Y-94900500D01*
X79499473Y-94882389D01*
X79543760Y-94873580D01*
X79671243Y-94820775D01*
X79785974Y-94744114D01*
X79785977Y-94744111D01*
X79851751Y-94678338D01*
X79913074Y-94644853D01*
X79982766Y-94649837D01*
X80027113Y-94678338D01*
X80092886Y-94744111D01*
X80092890Y-94744114D01*
X80207614Y-94820771D01*
X80207627Y-94820778D01*
X80335099Y-94873578D01*
X80335104Y-94873580D01*
X80335108Y-94873580D01*
X80335109Y-94873581D01*
X80470436Y-94900500D01*
X80470439Y-94900500D01*
X80608427Y-94900500D01*
X80699473Y-94882389D01*
X80743760Y-94873580D01*
X80871243Y-94820775D01*
X80985974Y-94744114D01*
X81083546Y-94646542D01*
X81126662Y-94582014D01*
X145839432Y-94582014D01*
X145839432Y-94817985D01*
X145870231Y-95051914D01*
X145931302Y-95279837D01*
X146021592Y-95497819D01*
X146021597Y-95497828D01*
X146139576Y-95702171D01*
X146139577Y-95702172D01*
X146202153Y-95783723D01*
X147038390Y-94947487D01*
X147063410Y-95007890D01*
X147134544Y-95114351D01*
X147225081Y-95204888D01*
X147331542Y-95276022D01*
X147391943Y-95301041D01*
X146555707Y-96137277D01*
X146637259Y-96199854D01*
X146637260Y-96199855D01*
X146841603Y-96317834D01*
X146841612Y-96317839D01*
X147059595Y-96408129D01*
X147059593Y-96408129D01*
X147287517Y-96469200D01*
X147521446Y-96499999D01*
X147521461Y-96500000D01*
X147757403Y-96500000D01*
X147757417Y-96499999D01*
X147991346Y-96469200D01*
X148219269Y-96408129D01*
X148437251Y-96317839D01*
X148437260Y-96317834D01*
X148641613Y-96199850D01*
X148723155Y-96137279D01*
X148723155Y-96137276D01*
X147886919Y-95301041D01*
X147947322Y-95276022D01*
X148053783Y-95204888D01*
X148144320Y-95114351D01*
X148215454Y-95007890D01*
X148240473Y-94947488D01*
X149076708Y-95783723D01*
X149076711Y-95783723D01*
X149139282Y-95702181D01*
X149257266Y-95497828D01*
X149257271Y-95497819D01*
X149347561Y-95279837D01*
X149408632Y-95051914D01*
X149439431Y-94817985D01*
X149439432Y-94817971D01*
X149439432Y-94582028D01*
X149439431Y-94582014D01*
X149408632Y-94348085D01*
X149347561Y-94120162D01*
X149257271Y-93902180D01*
X149257266Y-93902171D01*
X149139287Y-93697828D01*
X149139286Y-93697827D01*
X149076709Y-93616275D01*
X148240473Y-94452511D01*
X148215454Y-94392110D01*
X148144320Y-94285649D01*
X148053783Y-94195112D01*
X147947322Y-94123978D01*
X147886920Y-94098958D01*
X148723155Y-93262721D01*
X148641604Y-93200145D01*
X148641603Y-93200144D01*
X148437260Y-93082165D01*
X148437251Y-93082160D01*
X148219268Y-92991870D01*
X148219270Y-92991870D01*
X147991346Y-92930799D01*
X147757417Y-92900000D01*
X147521446Y-92900000D01*
X147287517Y-92930799D01*
X147059594Y-92991870D01*
X146841612Y-93082160D01*
X146841603Y-93082165D01*
X146637260Y-93200144D01*
X146637250Y-93200150D01*
X146555707Y-93262720D01*
X146555707Y-93262721D01*
X147391944Y-94098958D01*
X147331542Y-94123978D01*
X147225081Y-94195112D01*
X147134544Y-94285649D01*
X147063410Y-94392110D01*
X147038390Y-94452512D01*
X146202153Y-93616275D01*
X146202152Y-93616275D01*
X146139582Y-93697818D01*
X146139576Y-93697828D01*
X146021597Y-93902171D01*
X146021592Y-93902180D01*
X145931302Y-94120162D01*
X145870231Y-94348085D01*
X145839432Y-94582014D01*
X81126662Y-94582014D01*
X81160207Y-94531811D01*
X81213012Y-94404328D01*
X81239932Y-94268993D01*
X81239932Y-94131007D01*
X81239932Y-94131004D01*
X81213013Y-93995677D01*
X81213012Y-93995676D01*
X81213012Y-93995672D01*
X81213010Y-93995667D01*
X81160210Y-93868195D01*
X81160203Y-93868182D01*
X81083546Y-93753458D01*
X81083543Y-93753454D01*
X80985977Y-93655888D01*
X80985973Y-93655885D01*
X80871249Y-93579228D01*
X80871236Y-93579221D01*
X80743764Y-93526421D01*
X80743754Y-93526418D01*
X80608427Y-93499500D01*
X80608425Y-93499500D01*
X80470439Y-93499500D01*
X80470437Y-93499500D01*
X80335109Y-93526418D01*
X80335099Y-93526421D01*
X80207627Y-93579221D01*
X80207614Y-93579228D01*
X80092890Y-93655885D01*
X80092886Y-93655888D01*
X80027113Y-93721662D01*
X79965790Y-93755147D01*
X79896098Y-93750163D01*
X79851751Y-93721662D01*
X79785977Y-93655888D01*
X79785973Y-93655885D01*
X79671249Y-93579228D01*
X79671236Y-93579221D01*
X79543764Y-93526421D01*
X79543754Y-93526418D01*
X79408427Y-93499500D01*
X79408425Y-93499500D01*
X79270439Y-93499500D01*
X79270437Y-93499500D01*
X79135109Y-93526418D01*
X79135099Y-93526421D01*
X79007627Y-93579221D01*
X79007614Y-93579228D01*
X78892890Y-93655885D01*
X78892886Y-93655888D01*
X78795320Y-93753454D01*
X78795317Y-93753458D01*
X78718660Y-93868182D01*
X78718653Y-93868195D01*
X78665853Y-93995667D01*
X78665850Y-93995677D01*
X78638932Y-94131004D01*
X78638932Y-94131007D01*
X78638932Y-94268993D01*
X78638932Y-94268995D01*
X78638931Y-94268995D01*
X72339932Y-94268995D01*
X72339932Y-92695730D01*
X72337078Y-92665300D01*
X72337078Y-92665298D01*
X72292225Y-92537119D01*
X72292224Y-92537117D01*
X72228298Y-92450500D01*
X72211582Y-92427850D01*
X72102314Y-92347207D01*
X72102312Y-92347206D01*
X71974132Y-92302353D01*
X71943702Y-92299500D01*
X71943698Y-92299500D01*
X69735166Y-92299500D01*
X69735162Y-92299500D01*
X69704732Y-92302353D01*
X69704730Y-92302353D01*
X69576551Y-92347206D01*
X69576549Y-92347207D01*
X69467282Y-92427850D01*
X69386639Y-92537117D01*
X69386638Y-92537119D01*
X69341785Y-92665298D01*
X69341785Y-92665300D01*
X69338932Y-92695730D01*
X64239932Y-92695730D01*
X64239932Y-91101577D01*
X109623932Y-91101577D01*
X109623932Y-91298422D01*
X109654722Y-91492826D01*
X109715549Y-91680029D01*
X109804908Y-91855405D01*
X109920604Y-92014646D01*
X110059786Y-92153828D01*
X110219027Y-92269524D01*
X110277859Y-92299500D01*
X110394402Y-92358882D01*
X110394404Y-92358882D01*
X110394407Y-92358884D01*
X110494749Y-92391487D01*
X110581605Y-92419709D01*
X110776010Y-92450500D01*
X110776015Y-92450500D01*
X110972854Y-92450500D01*
X111167258Y-92419709D01*
X111354457Y-92358884D01*
X111529837Y-92269524D01*
X111689078Y-92153828D01*
X111828260Y-92014646D01*
X111943956Y-91855405D01*
X112033316Y-91680025D01*
X112094141Y-91492826D01*
X112117459Y-91345604D01*
X112147388Y-91282469D01*
X112206700Y-91245538D01*
X112276562Y-91246536D01*
X112334795Y-91285146D01*
X112362909Y-91349110D01*
X112363932Y-91365002D01*
X112363932Y-92069752D01*
X112375563Y-92128229D01*
X112375564Y-92128230D01*
X112419879Y-92194552D01*
X112486201Y-92238867D01*
X112486202Y-92238868D01*
X112544679Y-92250499D01*
X112544682Y-92250500D01*
X112544684Y-92250500D01*
X114284182Y-92250500D01*
X114284183Y-92250499D01*
X114299000Y-92247552D01*
X114342661Y-92238868D01*
X114342661Y-92238867D01*
X114342663Y-92238867D01*
X114408984Y-92194552D01*
X114453299Y-92128231D01*
X114453299Y-92128229D01*
X114453300Y-92128229D01*
X114464931Y-92069752D01*
X114464932Y-92069750D01*
X114464932Y-90330249D01*
X114464931Y-90330247D01*
X114453300Y-90271770D01*
X114453299Y-90271769D01*
X114408984Y-90205447D01*
X114342662Y-90161132D01*
X114342661Y-90161131D01*
X114284184Y-90149500D01*
X114284180Y-90149500D01*
X112544684Y-90149500D01*
X112544679Y-90149500D01*
X112486202Y-90161131D01*
X112486201Y-90161132D01*
X112419879Y-90205447D01*
X112375564Y-90271769D01*
X112375563Y-90271770D01*
X112363932Y-90330247D01*
X112363932Y-91034997D01*
X112344247Y-91102036D01*
X112291443Y-91147791D01*
X112222285Y-91157735D01*
X112158729Y-91128710D01*
X112120955Y-91069932D01*
X112117459Y-91054395D01*
X112094141Y-90907173D01*
X112033314Y-90719970D01*
X111943955Y-90544594D01*
X111828260Y-90385354D01*
X111689078Y-90246172D01*
X111529837Y-90130476D01*
X111354461Y-90041117D01*
X111167258Y-89980290D01*
X110972854Y-89949500D01*
X110972849Y-89949500D01*
X110776015Y-89949500D01*
X110776010Y-89949500D01*
X110581605Y-89980290D01*
X110394402Y-90041117D01*
X110219026Y-90130476D01*
X110176831Y-90161133D01*
X110059786Y-90246172D01*
X110059784Y-90246174D01*
X110059783Y-90246174D01*
X109920606Y-90385351D01*
X109920606Y-90385352D01*
X109920604Y-90385354D01*
X109888531Y-90429499D01*
X109804908Y-90544594D01*
X109715549Y-90719970D01*
X109654722Y-90907173D01*
X109623932Y-91101577D01*
X64239932Y-91101577D01*
X64239932Y-87282014D01*
X69039432Y-87282014D01*
X69039432Y-87517985D01*
X69070231Y-87751914D01*
X69131302Y-87979837D01*
X69221592Y-88197819D01*
X69221597Y-88197828D01*
X69339576Y-88402171D01*
X69339577Y-88402172D01*
X69402153Y-88483723D01*
X70238390Y-87647487D01*
X70263410Y-87707890D01*
X70334544Y-87814351D01*
X70425081Y-87904888D01*
X70531542Y-87976022D01*
X70591943Y-88001041D01*
X69755707Y-88837277D01*
X69837259Y-88899854D01*
X69837260Y-88899855D01*
X70041603Y-89017834D01*
X70041612Y-89017839D01*
X70259595Y-89108129D01*
X70259593Y-89108129D01*
X70487517Y-89169200D01*
X70721446Y-89199999D01*
X70721461Y-89200000D01*
X70957403Y-89200000D01*
X70957417Y-89199999D01*
X71191346Y-89169200D01*
X71419269Y-89108129D01*
X71637251Y-89017839D01*
X71637260Y-89017834D01*
X71841613Y-88899850D01*
X71923155Y-88837279D01*
X71923155Y-88837276D01*
X71683874Y-88597995D01*
X114118931Y-88597995D01*
X114145850Y-88733322D01*
X114145853Y-88733332D01*
X114198653Y-88860804D01*
X114198660Y-88860817D01*
X114275317Y-88975541D01*
X114275320Y-88975545D01*
X114372886Y-89073111D01*
X114372890Y-89073114D01*
X114487614Y-89149771D01*
X114487627Y-89149778D01*
X114608873Y-89199999D01*
X114615104Y-89202580D01*
X114615108Y-89202580D01*
X114615109Y-89202581D01*
X114750436Y-89229500D01*
X114750439Y-89229500D01*
X114888427Y-89229500D01*
X114979473Y-89211389D01*
X115023760Y-89202580D01*
X115151243Y-89149775D01*
X115265974Y-89073114D01*
X115363546Y-88975542D01*
X115440207Y-88860811D01*
X115449956Y-88837276D01*
X115452172Y-88831924D01*
X115493012Y-88733328D01*
X115519932Y-88597993D01*
X115519932Y-88563108D01*
X115918932Y-88563108D01*
X115918932Y-88694891D01*
X115953040Y-88822187D01*
X115985986Y-88879250D01*
X116018932Y-88936314D01*
X116112118Y-89029500D01*
X116226246Y-89095392D01*
X116353540Y-89129500D01*
X116353542Y-89129500D01*
X116485322Y-89129500D01*
X116485324Y-89129500D01*
X116612618Y-89095392D01*
X116726746Y-89029500D01*
X116734638Y-89021608D01*
X121238932Y-89021608D01*
X121238932Y-89153392D01*
X121252111Y-89202578D01*
X121273040Y-89280687D01*
X121305986Y-89337750D01*
X121338932Y-89394814D01*
X121432118Y-89488000D01*
X121546246Y-89553892D01*
X121673540Y-89588000D01*
X121673542Y-89588000D01*
X121805322Y-89588000D01*
X121805324Y-89588000D01*
X121932618Y-89553892D01*
X122046746Y-89488000D01*
X122139932Y-89394814D01*
X122205824Y-89280686D01*
X122239932Y-89153392D01*
X122239932Y-89021608D01*
X122205824Y-88894314D01*
X122139932Y-88780186D01*
X122046746Y-88687000D01*
X121989682Y-88654054D01*
X121932619Y-88621108D01*
X121846358Y-88597995D01*
X123318931Y-88597995D01*
X123345850Y-88733322D01*
X123345853Y-88733332D01*
X123398653Y-88860804D01*
X123398660Y-88860817D01*
X123475317Y-88975541D01*
X123475320Y-88975545D01*
X123572886Y-89073111D01*
X123572890Y-89073114D01*
X123687614Y-89149771D01*
X123687627Y-89149778D01*
X123808873Y-89199999D01*
X123815104Y-89202580D01*
X123815108Y-89202580D01*
X123815109Y-89202581D01*
X123950436Y-89229500D01*
X123950439Y-89229500D01*
X124088427Y-89229500D01*
X124179473Y-89211389D01*
X124223760Y-89202580D01*
X124351243Y-89149775D01*
X124465974Y-89073114D01*
X124563546Y-88975542D01*
X124640207Y-88860811D01*
X124649956Y-88837276D01*
X124652172Y-88831924D01*
X124693012Y-88733328D01*
X124719932Y-88597993D01*
X124719932Y-88460007D01*
X124719932Y-88460004D01*
X124693013Y-88324677D01*
X124693012Y-88324676D01*
X124693012Y-88324672D01*
X124691774Y-88321683D01*
X124640210Y-88197195D01*
X124640203Y-88197182D01*
X124563546Y-88082458D01*
X124563543Y-88082454D01*
X124465977Y-87984888D01*
X124465973Y-87984885D01*
X124351249Y-87908228D01*
X124351236Y-87908221D01*
X124223764Y-87855421D01*
X124223754Y-87855418D01*
X124088427Y-87828500D01*
X124088425Y-87828500D01*
X123950439Y-87828500D01*
X123950437Y-87828500D01*
X123815109Y-87855418D01*
X123815099Y-87855421D01*
X123687627Y-87908221D01*
X123687614Y-87908228D01*
X123572890Y-87984885D01*
X123572886Y-87984888D01*
X123475320Y-88082454D01*
X123475317Y-88082458D01*
X123398660Y-88197182D01*
X123398653Y-88197195D01*
X123345853Y-88324667D01*
X123345850Y-88324677D01*
X123318932Y-88460004D01*
X123318932Y-88460007D01*
X123318932Y-88597993D01*
X123318932Y-88597995D01*
X123318931Y-88597995D01*
X121846358Y-88597995D01*
X121805324Y-88587000D01*
X121673540Y-88587000D01*
X121546244Y-88621108D01*
X121432118Y-88687000D01*
X121432115Y-88687002D01*
X121338934Y-88780183D01*
X121338932Y-88780186D01*
X121273040Y-88894312D01*
X121251275Y-88975541D01*
X121238932Y-89021608D01*
X116734638Y-89021608D01*
X116819932Y-88936314D01*
X116885824Y-88822186D01*
X116919932Y-88694892D01*
X116919932Y-88563108D01*
X116885824Y-88435814D01*
X116819932Y-88321686D01*
X116726746Y-88228500D01*
X116669682Y-88195554D01*
X116612619Y-88162608D01*
X116548971Y-88145554D01*
X116485324Y-88128500D01*
X116353540Y-88128500D01*
X116226244Y-88162608D01*
X116112118Y-88228500D01*
X116112115Y-88228502D01*
X116018934Y-88321683D01*
X116018932Y-88321686D01*
X115953040Y-88435812D01*
X115918932Y-88563108D01*
X115519932Y-88563108D01*
X115519932Y-88460007D01*
X115519932Y-88460004D01*
X115493013Y-88324677D01*
X115493012Y-88324676D01*
X115493012Y-88324672D01*
X115491774Y-88321683D01*
X115440210Y-88197195D01*
X115440203Y-88197182D01*
X115363546Y-88082458D01*
X115363543Y-88082454D01*
X115265977Y-87984888D01*
X115265973Y-87984885D01*
X115151249Y-87908228D01*
X115151236Y-87908221D01*
X115023764Y-87855421D01*
X115023754Y-87855418D01*
X114888427Y-87828500D01*
X114888425Y-87828500D01*
X114750439Y-87828500D01*
X114750437Y-87828500D01*
X114615109Y-87855418D01*
X114615099Y-87855421D01*
X114487627Y-87908221D01*
X114487614Y-87908228D01*
X114372890Y-87984885D01*
X114372886Y-87984888D01*
X114275320Y-88082454D01*
X114275317Y-88082458D01*
X114198660Y-88197182D01*
X114198653Y-88197195D01*
X114145853Y-88324667D01*
X114145850Y-88324677D01*
X114118932Y-88460004D01*
X114118932Y-88460007D01*
X114118932Y-88597993D01*
X114118932Y-88597995D01*
X114118931Y-88597995D01*
X71683874Y-88597995D01*
X71086919Y-88001041D01*
X71147322Y-87976022D01*
X71253783Y-87904888D01*
X71344320Y-87814351D01*
X71415454Y-87707890D01*
X71440473Y-87647487D01*
X72276708Y-88483723D01*
X72276711Y-88483723D01*
X72339282Y-88402181D01*
X72345210Y-88391914D01*
X72457266Y-88197828D01*
X72457271Y-88197819D01*
X72547561Y-87979837D01*
X72608632Y-87751914D01*
X72639431Y-87517985D01*
X72639432Y-87517971D01*
X72639432Y-87282028D01*
X72639431Y-87282014D01*
X72608632Y-87048085D01*
X72547561Y-86820162D01*
X72457271Y-86602180D01*
X72457266Y-86602171D01*
X72339383Y-86397995D01*
X110018931Y-86397995D01*
X110045850Y-86533322D01*
X110045853Y-86533332D01*
X110098653Y-86660804D01*
X110098660Y-86660817D01*
X110165005Y-86760109D01*
X110185883Y-86826787D01*
X110167398Y-86894167D01*
X110165005Y-86897891D01*
X110098660Y-86997182D01*
X110098653Y-86997195D01*
X110045853Y-87124667D01*
X110045850Y-87124677D01*
X110018932Y-87260004D01*
X110018932Y-87260007D01*
X110018932Y-87397993D01*
X110018932Y-87397995D01*
X110018931Y-87397995D01*
X110045850Y-87533322D01*
X110045853Y-87533332D01*
X110098653Y-87660804D01*
X110098660Y-87660817D01*
X110175317Y-87775541D01*
X110175320Y-87775545D01*
X110272886Y-87873111D01*
X110272890Y-87873114D01*
X110387614Y-87949771D01*
X110387627Y-87949778D01*
X110515099Y-88002578D01*
X110515104Y-88002580D01*
X110515108Y-88002580D01*
X110515109Y-88002581D01*
X110650436Y-88029500D01*
X110650439Y-88029500D01*
X110788427Y-88029500D01*
X110879473Y-88011389D01*
X110923760Y-88002580D01*
X111051243Y-87949775D01*
X111165974Y-87873114D01*
X111263546Y-87775542D01*
X111340207Y-87660811D01*
X111393012Y-87533328D01*
X111415832Y-87418606D01*
X111419932Y-87397995D01*
X111419932Y-87260004D01*
X111393013Y-87124677D01*
X111393012Y-87124676D01*
X111393012Y-87124672D01*
X111393010Y-87124667D01*
X111340210Y-86997195D01*
X111340208Y-86997191D01*
X111340207Y-86997189D01*
X111273857Y-86897890D01*
X111252980Y-86831214D01*
X111271464Y-86763834D01*
X111273858Y-86760109D01*
X111280613Y-86750000D01*
X111340207Y-86660811D01*
X111393012Y-86533328D01*
X111419932Y-86397993D01*
X111419932Y-86260007D01*
X111419932Y-86260004D01*
X111393013Y-86124677D01*
X111393012Y-86124676D01*
X111393012Y-86124672D01*
X111393010Y-86124667D01*
X111340210Y-85997195D01*
X111340203Y-85997182D01*
X111263546Y-85882458D01*
X111263543Y-85882454D01*
X111165977Y-85784888D01*
X111165973Y-85784885D01*
X111109986Y-85747475D01*
X128368932Y-85747475D01*
X128368932Y-87510517D01*
X128372544Y-87533322D01*
X128383786Y-87604304D01*
X128441382Y-87717342D01*
X128441384Y-87717344D01*
X128441386Y-87717347D01*
X128531084Y-87807045D01*
X128531086Y-87807046D01*
X128531090Y-87807050D01*
X128644126Y-87864645D01*
X128644130Y-87864647D01*
X128737907Y-87879499D01*
X128737913Y-87879500D01*
X130500950Y-87879499D01*
X130594736Y-87864646D01*
X130707774Y-87807050D01*
X130797482Y-87717342D01*
X130850495Y-87613298D01*
X145918932Y-87613298D01*
X145918932Y-89844701D01*
X145921833Y-89881567D01*
X145921834Y-89881573D01*
X145967686Y-90039393D01*
X145967687Y-90039396D01*
X146051349Y-90180862D01*
X146051355Y-90180870D01*
X146167561Y-90297076D01*
X146167565Y-90297079D01*
X146167567Y-90297081D01*
X146309034Y-90380744D01*
X146324895Y-90385352D01*
X146466858Y-90426597D01*
X146466861Y-90426597D01*
X146466863Y-90426598D01*
X146503738Y-90429500D01*
X146503746Y-90429500D01*
X148735118Y-90429500D01*
X148735126Y-90429500D01*
X148772001Y-90426598D01*
X148772003Y-90426597D01*
X148772005Y-90426597D01*
X148813623Y-90414505D01*
X148929830Y-90380744D01*
X149071297Y-90297081D01*
X149187513Y-90180865D01*
X149271176Y-90039398D01*
X149317030Y-89881569D01*
X149319932Y-89844694D01*
X149319932Y-87613306D01*
X149317030Y-87576431D01*
X149304508Y-87533332D01*
X149271177Y-87418606D01*
X149271176Y-87418603D01*
X149271176Y-87418602D01*
X149187513Y-87277135D01*
X149187511Y-87277133D01*
X149187508Y-87277129D01*
X149071302Y-87160923D01*
X149071294Y-87160917D01*
X148929828Y-87077255D01*
X148929825Y-87077254D01*
X148772005Y-87031402D01*
X148771999Y-87031401D01*
X148735133Y-87028500D01*
X148735126Y-87028500D01*
X146503738Y-87028500D01*
X146503730Y-87028500D01*
X146466864Y-87031401D01*
X146466858Y-87031402D01*
X146309038Y-87077254D01*
X146309035Y-87077255D01*
X146167569Y-87160917D01*
X146167561Y-87160923D01*
X146051355Y-87277129D01*
X146051349Y-87277137D01*
X145967687Y-87418603D01*
X145967686Y-87418606D01*
X145921834Y-87576426D01*
X145921833Y-87576432D01*
X145918932Y-87613298D01*
X130850495Y-87613298D01*
X130855078Y-87604304D01*
X130855078Y-87604302D01*
X130855079Y-87604301D01*
X130855079Y-87604300D01*
X130857111Y-87591473D01*
X130867233Y-87527556D01*
X130869932Y-87510519D01*
X130869931Y-85747482D01*
X130855078Y-85653696D01*
X130797482Y-85540658D01*
X130797478Y-85540654D01*
X130797477Y-85540652D01*
X130707779Y-85450954D01*
X130707776Y-85450952D01*
X130707774Y-85450950D01*
X130630949Y-85411805D01*
X130594733Y-85393352D01*
X130500956Y-85378500D01*
X129780354Y-85378500D01*
X129713315Y-85358815D01*
X129667560Y-85306011D01*
X129657616Y-85236853D01*
X129686641Y-85173297D01*
X129745419Y-85135523D01*
X129756163Y-85132883D01*
X129925852Y-85099130D01*
X130117030Y-85019941D01*
X130289087Y-84904977D01*
X130435409Y-84758655D01*
X130550373Y-84586598D01*
X130629562Y-84395420D01*
X130669932Y-84192465D01*
X130669932Y-83985535D01*
X130629562Y-83782580D01*
X130605574Y-83724667D01*
X130576107Y-83653528D01*
X130576091Y-83653490D01*
X130558450Y-83610902D01*
X146118932Y-83610902D01*
X146118932Y-83847097D01*
X146155878Y-84080368D01*
X146228865Y-84304996D01*
X146320996Y-84485812D01*
X146336089Y-84515433D01*
X146474915Y-84706510D01*
X146641922Y-84873517D01*
X146832999Y-85012343D01*
X146932423Y-85063002D01*
X147043435Y-85119566D01*
X147043437Y-85119566D01*
X147043440Y-85119568D01*
X147122915Y-85145391D01*
X147268063Y-85192553D01*
X147501335Y-85229500D01*
X147501340Y-85229500D01*
X147737529Y-85229500D01*
X147970800Y-85192553D01*
X148195424Y-85119568D01*
X148405865Y-85012343D01*
X148596942Y-84873517D01*
X148763949Y-84706510D01*
X148902775Y-84515433D01*
X149010000Y-84304992D01*
X149082985Y-84080368D01*
X149119932Y-83847097D01*
X149119932Y-83610902D01*
X149082985Y-83377631D01*
X149011641Y-83158059D01*
X149010000Y-83153008D01*
X149009998Y-83153005D01*
X149009998Y-83153003D01*
X148919806Y-82975992D01*
X148902775Y-82942567D01*
X148763949Y-82751490D01*
X148596942Y-82584483D01*
X148405865Y-82445657D01*
X148195428Y-82338433D01*
X147970800Y-82265446D01*
X147737529Y-82228500D01*
X147737524Y-82228500D01*
X147501340Y-82228500D01*
X147501335Y-82228500D01*
X147268063Y-82265446D01*
X147043435Y-82338433D01*
X146832998Y-82445657D01*
X146785811Y-82479941D01*
X146641922Y-82584483D01*
X146641920Y-82584485D01*
X146641919Y-82584485D01*
X146474917Y-82751487D01*
X146474917Y-82751488D01*
X146474915Y-82751490D01*
X146415460Y-82833322D01*
X146336089Y-82942566D01*
X146228865Y-83153003D01*
X146155878Y-83377631D01*
X146118932Y-83610902D01*
X130558450Y-83610902D01*
X130550373Y-83591402D01*
X130435407Y-83419342D01*
X130289089Y-83273024D01*
X130186103Y-83204212D01*
X130117030Y-83158059D01*
X129925852Y-83078870D01*
X129925844Y-83078868D01*
X129722901Y-83038500D01*
X129722897Y-83038500D01*
X129515967Y-83038500D01*
X129515962Y-83038500D01*
X129313019Y-83078868D01*
X129313011Y-83078870D01*
X129121835Y-83158058D01*
X128949774Y-83273024D01*
X128803456Y-83419342D01*
X128688490Y-83591403D01*
X128609302Y-83782579D01*
X128609300Y-83782587D01*
X128568932Y-83985530D01*
X128568932Y-84192469D01*
X128609300Y-84395412D01*
X128609302Y-84395420D01*
X128677476Y-84560007D01*
X128688491Y-84586598D01*
X128706206Y-84613110D01*
X128803456Y-84758657D01*
X128949774Y-84904975D01*
X128949777Y-84904977D01*
X129121834Y-85019941D01*
X129313012Y-85099130D01*
X129482701Y-85132883D01*
X129544612Y-85165267D01*
X129579186Y-85225983D01*
X129575447Y-85295752D01*
X129534581Y-85352425D01*
X129469563Y-85378006D01*
X129458510Y-85378500D01*
X128737914Y-85378500D01*
X128656951Y-85391323D01*
X128644128Y-85393354D01*
X128531090Y-85450950D01*
X128531089Y-85450951D01*
X128531084Y-85450954D01*
X128441386Y-85540652D01*
X128441383Y-85540657D01*
X128383784Y-85653698D01*
X128368932Y-85747475D01*
X111109986Y-85747475D01*
X111051249Y-85708228D01*
X111051236Y-85708221D01*
X110923764Y-85655421D01*
X110923754Y-85655418D01*
X110788427Y-85628500D01*
X110788425Y-85628500D01*
X110650439Y-85628500D01*
X110650437Y-85628500D01*
X110515109Y-85655418D01*
X110515099Y-85655421D01*
X110387627Y-85708221D01*
X110387614Y-85708228D01*
X110272890Y-85784885D01*
X110272886Y-85784888D01*
X110175320Y-85882454D01*
X110175317Y-85882458D01*
X110098660Y-85997182D01*
X110098653Y-85997195D01*
X110045853Y-86124667D01*
X110045850Y-86124677D01*
X110018932Y-86260004D01*
X110018932Y-86260007D01*
X110018932Y-86397993D01*
X110018932Y-86397995D01*
X110018931Y-86397995D01*
X72339383Y-86397995D01*
X72339287Y-86397828D01*
X72339286Y-86397827D01*
X72286782Y-86329402D01*
X72276709Y-86316275D01*
X71440473Y-87152511D01*
X71415454Y-87092110D01*
X71344320Y-86985649D01*
X71253783Y-86895112D01*
X71147322Y-86823978D01*
X71086920Y-86798958D01*
X71923155Y-85962721D01*
X71841604Y-85900145D01*
X71841603Y-85900144D01*
X71637260Y-85782165D01*
X71637251Y-85782160D01*
X71419268Y-85691870D01*
X71419270Y-85691870D01*
X71191346Y-85630799D01*
X70957417Y-85600000D01*
X70721446Y-85600000D01*
X70487517Y-85630799D01*
X70259594Y-85691870D01*
X70041612Y-85782160D01*
X70041603Y-85782165D01*
X69837260Y-85900144D01*
X69837250Y-85900150D01*
X69755707Y-85962720D01*
X69755707Y-85962721D01*
X70591944Y-86798958D01*
X70531542Y-86823978D01*
X70425081Y-86895112D01*
X70334544Y-86985649D01*
X70263410Y-87092110D01*
X70238390Y-87152511D01*
X69402153Y-86316275D01*
X69402152Y-86316275D01*
X69339582Y-86397818D01*
X69339576Y-86397828D01*
X69221597Y-86602171D01*
X69221592Y-86602180D01*
X69131302Y-86820162D01*
X69070231Y-87048085D01*
X69039432Y-87282014D01*
X64239932Y-87282014D01*
X64239932Y-84613108D01*
X110268932Y-84613108D01*
X110268932Y-84744891D01*
X110303040Y-84872187D01*
X110303808Y-84873517D01*
X110368932Y-84986314D01*
X110462118Y-85079500D01*
X110576246Y-85145392D01*
X110703540Y-85179500D01*
X110703542Y-85179500D01*
X110835322Y-85179500D01*
X110835324Y-85179500D01*
X110962618Y-85145392D01*
X111076746Y-85079500D01*
X111169932Y-84986314D01*
X111235824Y-84872186D01*
X111269932Y-84744892D01*
X111269932Y-84613108D01*
X111235824Y-84485814D01*
X111169932Y-84371686D01*
X111076746Y-84278500D01*
X110995423Y-84231548D01*
X110962619Y-84212608D01*
X110898971Y-84195554D01*
X110835324Y-84178500D01*
X110703540Y-84178500D01*
X110576244Y-84212608D01*
X110462118Y-84278500D01*
X110462115Y-84278502D01*
X110368934Y-84371683D01*
X110368932Y-84371686D01*
X110303040Y-84485812D01*
X110268932Y-84613108D01*
X64239932Y-84613108D01*
X64239932Y-82281902D01*
X69338932Y-82281902D01*
X69338932Y-82518097D01*
X69375878Y-82751368D01*
X69448865Y-82975996D01*
X69539058Y-83153008D01*
X69556089Y-83186433D01*
X69694915Y-83377510D01*
X69861922Y-83544517D01*
X70052999Y-83683343D01*
X70134102Y-83724667D01*
X70263435Y-83790566D01*
X70263437Y-83790566D01*
X70263440Y-83790568D01*
X70383844Y-83829689D01*
X70488063Y-83863553D01*
X70721335Y-83900500D01*
X70721340Y-83900500D01*
X70957529Y-83900500D01*
X71190800Y-83863553D01*
X71241446Y-83847097D01*
X71415424Y-83790568D01*
X71625865Y-83683343D01*
X71816942Y-83544517D01*
X71983949Y-83377510D01*
X72122775Y-83186433D01*
X72230000Y-82975992D01*
X72302985Y-82751368D01*
X72339932Y-82518097D01*
X72339932Y-82281902D01*
X72302985Y-82048631D01*
X72229998Y-81824003D01*
X72173434Y-81712991D01*
X72122775Y-81613567D01*
X71983949Y-81422490D01*
X71816942Y-81255483D01*
X71625865Y-81116657D01*
X71577281Y-81091902D01*
X71415428Y-81009433D01*
X71190800Y-80936446D01*
X70957529Y-80899500D01*
X70957524Y-80899500D01*
X70721340Y-80899500D01*
X70721335Y-80899500D01*
X70488063Y-80936446D01*
X70263435Y-81009433D01*
X70052998Y-81116657D01*
X69971952Y-81175541D01*
X69861922Y-81255483D01*
X69861920Y-81255485D01*
X69861919Y-81255485D01*
X69694917Y-81422487D01*
X69694917Y-81422488D01*
X69694915Y-81422490D01*
X69651346Y-81482458D01*
X69556089Y-81613566D01*
X69448865Y-81824003D01*
X69375878Y-82048631D01*
X69338932Y-82281902D01*
X64239932Y-82281902D01*
X64239932Y-80335126D01*
X99623432Y-80335126D01*
X99623432Y-80685113D01*
X100607746Y-80685113D01*
X100603352Y-80689507D01*
X100550691Y-80780719D01*
X100523432Y-80882452D01*
X100523432Y-80987774D01*
X100550691Y-81089507D01*
X100603352Y-81180719D01*
X100607746Y-81185113D01*
X99623433Y-81185113D01*
X99623433Y-81535099D01*
X99633926Y-81637810D01*
X99689073Y-81804232D01*
X99689075Y-81804237D01*
X99781116Y-81953458D01*
X99905086Y-82077428D01*
X100054307Y-82169469D01*
X100054312Y-82169471D01*
X100220734Y-82224618D01*
X100220741Y-82224619D01*
X100323451Y-82235112D01*
X100673431Y-82235112D01*
X100673432Y-82235111D01*
X100673432Y-81250799D01*
X100677826Y-81255193D01*
X100769038Y-81307854D01*
X100870771Y-81335113D01*
X100976093Y-81335113D01*
X101077826Y-81307854D01*
X101169038Y-81255193D01*
X101173432Y-81250799D01*
X101173432Y-82235112D01*
X101523404Y-82235112D01*
X101523418Y-82235111D01*
X101626129Y-82224618D01*
X101792551Y-82169471D01*
X101792556Y-82169469D01*
X101941777Y-82077428D01*
X102065747Y-81953458D01*
X102157788Y-81804237D01*
X102157790Y-81804232D01*
X102212937Y-81637810D01*
X102212938Y-81637803D01*
X102223431Y-81535099D01*
X102223432Y-81535086D01*
X102223432Y-81185113D01*
X101239118Y-81185113D01*
X101243512Y-81180719D01*
X101296173Y-81089507D01*
X101323432Y-80987774D01*
X101323432Y-80882452D01*
X101296173Y-80780719D01*
X101243512Y-80689507D01*
X101239118Y-80685113D01*
X102223431Y-80685113D01*
X102223431Y-80335141D01*
X102223430Y-80335126D01*
X102212937Y-80232415D01*
X102157790Y-80065993D01*
X102157788Y-80065988D01*
X102065747Y-79916767D01*
X101941776Y-79792796D01*
X101936109Y-79788315D01*
X101937919Y-79786024D01*
X101900068Y-79743942D01*
X101888847Y-79674979D01*
X101911571Y-79617467D01*
X101950192Y-79564312D01*
X102035979Y-79395945D01*
X102094372Y-79216231D01*
X102101654Y-79170254D01*
X102123932Y-79029599D01*
X102123932Y-78840626D01*
X102094372Y-78653994D01*
X102047260Y-78509000D01*
X102035979Y-78474281D01*
X102035977Y-78474278D01*
X102035977Y-78474276D01*
X101986734Y-78377632D01*
X101950192Y-78305914D01*
X101839122Y-78153040D01*
X101705505Y-78019423D01*
X101552631Y-77908353D01*
X101530732Y-77897195D01*
X101384268Y-77822567D01*
X101204550Y-77764172D01*
X101017918Y-77734613D01*
X101017913Y-77734613D01*
X100828951Y-77734613D01*
X100828946Y-77734613D01*
X100642313Y-77764172D01*
X100462595Y-77822567D01*
X100294232Y-77908353D01*
X100207011Y-77971723D01*
X100141359Y-78019423D01*
X100141357Y-78019425D01*
X100141356Y-78019425D01*
X100007744Y-78153037D01*
X100007744Y-78153038D01*
X100007742Y-78153040D01*
X99960042Y-78218692D01*
X99896672Y-78305913D01*
X99810886Y-78474276D01*
X99752491Y-78653994D01*
X99722932Y-78840626D01*
X99722932Y-79029599D01*
X99752491Y-79216231D01*
X99810886Y-79395949D01*
X99896672Y-79564313D01*
X99904830Y-79575541D01*
X99935290Y-79617465D01*
X99958771Y-79683270D01*
X99942946Y-79751325D01*
X99909231Y-79786389D01*
X99910754Y-79788315D01*
X99905091Y-79792792D01*
X99781114Y-79916770D01*
X99689075Y-80065988D01*
X99689073Y-80065993D01*
X99633926Y-80232415D01*
X99633925Y-80232422D01*
X99623432Y-80335126D01*
X64239932Y-80335126D01*
X64239932Y-76284298D01*
X69138932Y-76284298D01*
X69138932Y-78515701D01*
X69141833Y-78552567D01*
X69141834Y-78552573D01*
X69187686Y-78710393D01*
X69187687Y-78710396D01*
X69271349Y-78851862D01*
X69271355Y-78851870D01*
X69387561Y-78968076D01*
X69387565Y-78968079D01*
X69387567Y-78968081D01*
X69529034Y-79051744D01*
X69557465Y-79060004D01*
X69686858Y-79097597D01*
X69686861Y-79097597D01*
X69686863Y-79097598D01*
X69723738Y-79100500D01*
X69723746Y-79100500D01*
X71955118Y-79100500D01*
X71955126Y-79100500D01*
X71992001Y-79097598D01*
X71992003Y-79097597D01*
X71992005Y-79097597D01*
X72051306Y-79080368D01*
X72149830Y-79051744D01*
X72291297Y-78968081D01*
X72407513Y-78851865D01*
X72491176Y-78710398D01*
X72534634Y-78560817D01*
X72537029Y-78552573D01*
X72537030Y-78552567D01*
X72538544Y-78533328D01*
X72539932Y-78515694D01*
X72539932Y-76284306D01*
X72537030Y-76247431D01*
X72491176Y-76089602D01*
X72407513Y-75948135D01*
X72407511Y-75948133D01*
X72407508Y-75948129D01*
X72291302Y-75831923D01*
X72291294Y-75831917D01*
X72149828Y-75748255D01*
X72149825Y-75748254D01*
X71992005Y-75702402D01*
X71991999Y-75702401D01*
X71955133Y-75699500D01*
X71955126Y-75699500D01*
X69723738Y-75699500D01*
X69723730Y-75699500D01*
X69686864Y-75702401D01*
X69686858Y-75702402D01*
X69529038Y-75748254D01*
X69529035Y-75748255D01*
X69387569Y-75831917D01*
X69387561Y-75831923D01*
X69271355Y-75948129D01*
X69271349Y-75948137D01*
X69187687Y-76089603D01*
X69187686Y-76089606D01*
X69141834Y-76247426D01*
X69141833Y-76247432D01*
X69138932Y-76284298D01*
X64239932Y-76284298D01*
X64239932Y-70988549D01*
X69138932Y-70988549D01*
X69138932Y-71211450D01*
X69138933Y-71211466D01*
X69168026Y-71432452D01*
X69168027Y-71432457D01*
X69168028Y-71432463D01*
X69168029Y-71432465D01*
X69225722Y-71647780D01*
X69225725Y-71647790D01*
X69311025Y-71853722D01*
X69311027Y-71853726D01*
X69422484Y-72046774D01*
X69422489Y-72046780D01*
X69422490Y-72046782D01*
X69558183Y-72223622D01*
X69558189Y-72223629D01*
X69715802Y-72381242D01*
X69715808Y-72381247D01*
X69892658Y-72516948D01*
X70085706Y-72628405D01*
X70291651Y-72713710D01*
X70506969Y-72771404D01*
X70727975Y-72800500D01*
X70727982Y-72800500D01*
X70950882Y-72800500D01*
X70950889Y-72800500D01*
X71171895Y-72771404D01*
X71387213Y-72713710D01*
X71593158Y-72628405D01*
X71786206Y-72516948D01*
X71963056Y-72381247D01*
X72120679Y-72223624D01*
X72256380Y-72046774D01*
X72367837Y-71853726D01*
X72453142Y-71647781D01*
X72510836Y-71432463D01*
X72539932Y-71211457D01*
X72539932Y-70988543D01*
X72510836Y-70767537D01*
X72453142Y-70552219D01*
X72367837Y-70346274D01*
X72256380Y-70153226D01*
X72138806Y-70000000D01*
X72120680Y-69976377D01*
X72120674Y-69976370D01*
X71963061Y-69818757D01*
X71963054Y-69818751D01*
X71792265Y-69687701D01*
X71786214Y-69683058D01*
X71786212Y-69683057D01*
X71786206Y-69683052D01*
X71593158Y-69571595D01*
X71593154Y-69571593D01*
X71387222Y-69486293D01*
X71387215Y-69486291D01*
X71387213Y-69486290D01*
X71171895Y-69428596D01*
X71171889Y-69428595D01*
X71171884Y-69428594D01*
X70950898Y-69399501D01*
X70950895Y-69399500D01*
X70950889Y-69399500D01*
X70727975Y-69399500D01*
X70727969Y-69399500D01*
X70727965Y-69399501D01*
X70506979Y-69428594D01*
X70506972Y-69428595D01*
X70506969Y-69428596D01*
X70302653Y-69483342D01*
X70291651Y-69486290D01*
X70291641Y-69486293D01*
X70085709Y-69571593D01*
X70085705Y-69571595D01*
X69892658Y-69683052D01*
X69892649Y-69683058D01*
X69715809Y-69818751D01*
X69715802Y-69818757D01*
X69558189Y-69976370D01*
X69558183Y-69976377D01*
X69422490Y-70153217D01*
X69422484Y-70153226D01*
X69311027Y-70346273D01*
X69311025Y-70346277D01*
X69225725Y-70552209D01*
X69225722Y-70552219D01*
X69168029Y-70767534D01*
X69168026Y-70767547D01*
X69138933Y-70988533D01*
X69138932Y-70988549D01*
X64239932Y-70988549D01*
X64239932Y-68082014D01*
X79939432Y-68082014D01*
X79939432Y-68317985D01*
X79970231Y-68551914D01*
X80031302Y-68779837D01*
X80121592Y-68997819D01*
X80121597Y-68997828D01*
X80239576Y-69202171D01*
X80239577Y-69202172D01*
X80302153Y-69283723D01*
X81138390Y-68447487D01*
X81163410Y-68507890D01*
X81234544Y-68614351D01*
X81325081Y-68704888D01*
X81431542Y-68776022D01*
X81491943Y-68801041D01*
X80655707Y-69637277D01*
X80737259Y-69699854D01*
X80737260Y-69699855D01*
X80941603Y-69817834D01*
X80941612Y-69817839D01*
X81159595Y-69908129D01*
X81159593Y-69908129D01*
X81387517Y-69969200D01*
X81621446Y-69999999D01*
X81621461Y-70000000D01*
X81857403Y-70000000D01*
X81857417Y-69999999D01*
X82091346Y-69969200D01*
X82319269Y-69908129D01*
X82537251Y-69817839D01*
X82537260Y-69817834D01*
X82741613Y-69699850D01*
X82823155Y-69637279D01*
X82823155Y-69637276D01*
X81986919Y-68801041D01*
X82047322Y-68776022D01*
X82153783Y-68704888D01*
X82244320Y-68614351D01*
X82315454Y-68507890D01*
X82340473Y-68447488D01*
X83176708Y-69283723D01*
X83176711Y-69283723D01*
X83239282Y-69202181D01*
X83357266Y-68997828D01*
X83357271Y-68997819D01*
X83447561Y-68779837D01*
X83508632Y-68551914D01*
X83539431Y-68317985D01*
X83539432Y-68317971D01*
X83539432Y-68082026D01*
X83539431Y-68082016D01*
X83539416Y-68081902D01*
X85238932Y-68081902D01*
X85238932Y-68318097D01*
X85275878Y-68551368D01*
X85348865Y-68775994D01*
X85386573Y-68850000D01*
X85456089Y-68986433D01*
X85594915Y-69177510D01*
X85761922Y-69344517D01*
X85952999Y-69483343D01*
X86052423Y-69534002D01*
X86163435Y-69590566D01*
X86163437Y-69590566D01*
X86163440Y-69590568D01*
X86283844Y-69629689D01*
X86388063Y-69663553D01*
X86621335Y-69700500D01*
X86621340Y-69700500D01*
X86857529Y-69700500D01*
X87090800Y-69663553D01*
X87126781Y-69651862D01*
X87315424Y-69590568D01*
X87525865Y-69483343D01*
X87716942Y-69344517D01*
X87883949Y-69177510D01*
X88022775Y-68986433D01*
X88130000Y-68775992D01*
X88202985Y-68551368D01*
X88228607Y-68389598D01*
X88239932Y-68318097D01*
X88239932Y-68081902D01*
X88202985Y-67848631D01*
X88129998Y-67624003D01*
X88073434Y-67512991D01*
X88022775Y-67413567D01*
X87883949Y-67222490D01*
X87745757Y-67084298D01*
X90038932Y-67084298D01*
X90038932Y-69315701D01*
X90041833Y-69352567D01*
X90041834Y-69352573D01*
X90087686Y-69510393D01*
X90087687Y-69510396D01*
X90171349Y-69651862D01*
X90171355Y-69651870D01*
X90287561Y-69768076D01*
X90287565Y-69768079D01*
X90287567Y-69768081D01*
X90429034Y-69851744D01*
X90470656Y-69863836D01*
X90586858Y-69897597D01*
X90586861Y-69897597D01*
X90586863Y-69897598D01*
X90623738Y-69900500D01*
X90623746Y-69900500D01*
X92855118Y-69900500D01*
X92855126Y-69900500D01*
X92892001Y-69897598D01*
X92892003Y-69897597D01*
X92892005Y-69897597D01*
X92933623Y-69885505D01*
X93049830Y-69851744D01*
X93191297Y-69768081D01*
X93307513Y-69651865D01*
X93391176Y-69510398D01*
X93437030Y-69352569D01*
X93439932Y-69315694D01*
X93439932Y-67084306D01*
X93437030Y-67047431D01*
X93391176Y-66889602D01*
X93307513Y-66748135D01*
X93307511Y-66748133D01*
X93307508Y-66748129D01*
X93191302Y-66631923D01*
X93191294Y-66631917D01*
X93049828Y-66548255D01*
X93049825Y-66548254D01*
X92892005Y-66502402D01*
X92891999Y-66502401D01*
X92855133Y-66499500D01*
X92855126Y-66499500D01*
X90623738Y-66499500D01*
X90623730Y-66499500D01*
X90586864Y-66502401D01*
X90586858Y-66502402D01*
X90429038Y-66548254D01*
X90429035Y-66548255D01*
X90287569Y-66631917D01*
X90287561Y-66631923D01*
X90171355Y-66748129D01*
X90171349Y-66748137D01*
X90087687Y-66889603D01*
X90087686Y-66889606D01*
X90041834Y-67047426D01*
X90041833Y-67047432D01*
X90038932Y-67084298D01*
X87745757Y-67084298D01*
X87716942Y-67055483D01*
X87525865Y-66916657D01*
X87315428Y-66809433D01*
X87090800Y-66736446D01*
X86857529Y-66699500D01*
X86857524Y-66699500D01*
X86621340Y-66699500D01*
X86621335Y-66699500D01*
X86388063Y-66736446D01*
X86163435Y-66809433D01*
X85952998Y-66916657D01*
X85843982Y-66995862D01*
X85761922Y-67055483D01*
X85761920Y-67055485D01*
X85761919Y-67055485D01*
X85594917Y-67222487D01*
X85594917Y-67222488D01*
X85594915Y-67222490D01*
X85535294Y-67304550D01*
X85456089Y-67413566D01*
X85348865Y-67624003D01*
X85275878Y-67848631D01*
X85238932Y-68081902D01*
X83539416Y-68081902D01*
X83508632Y-67848085D01*
X83447561Y-67620162D01*
X83357271Y-67402180D01*
X83357266Y-67402171D01*
X83239287Y-67197828D01*
X83239286Y-67197827D01*
X83176709Y-67116275D01*
X82340473Y-67952511D01*
X82315454Y-67892110D01*
X82244320Y-67785649D01*
X82153783Y-67695112D01*
X82047322Y-67623978D01*
X81986920Y-67598958D01*
X82823155Y-66762721D01*
X82741604Y-66700145D01*
X82741603Y-66700144D01*
X82537260Y-66582165D01*
X82537251Y-66582160D01*
X82319268Y-66491870D01*
X82319270Y-66491870D01*
X82091346Y-66430799D01*
X81857417Y-66400000D01*
X81621446Y-66400000D01*
X81387517Y-66430799D01*
X81159594Y-66491870D01*
X80941612Y-66582160D01*
X80941603Y-66582165D01*
X80737260Y-66700144D01*
X80737250Y-66700150D01*
X80655707Y-66762720D01*
X80655707Y-66762721D01*
X81491944Y-67598958D01*
X81431542Y-67623978D01*
X81325081Y-67695112D01*
X81234544Y-67785649D01*
X81163410Y-67892110D01*
X81138390Y-67952511D01*
X80302153Y-67116275D01*
X80302152Y-67116275D01*
X80239582Y-67197818D01*
X80239576Y-67197828D01*
X80121597Y-67402171D01*
X80121592Y-67402180D01*
X80031302Y-67620162D01*
X79970231Y-67848085D01*
X79939432Y-68082014D01*
X64239932Y-68082014D01*
X64239932Y-64995730D01*
X69338932Y-64995730D01*
X69338932Y-67204269D01*
X69341785Y-67234699D01*
X69341785Y-67234701D01*
X69386638Y-67362880D01*
X69386639Y-67362882D01*
X69467282Y-67472150D01*
X69576550Y-67552793D01*
X69619277Y-67567744D01*
X69704731Y-67597646D01*
X69735162Y-67600500D01*
X69735166Y-67600500D01*
X71943702Y-67600500D01*
X71974131Y-67597646D01*
X71974133Y-67597646D01*
X72038910Y-67574979D01*
X72102314Y-67552793D01*
X72211582Y-67472150D01*
X72292225Y-67362882D01*
X72314651Y-67298790D01*
X72337078Y-67234701D01*
X72337078Y-67234699D01*
X72339932Y-67204269D01*
X72339932Y-64995730D01*
X72337078Y-64965300D01*
X72337078Y-64965298D01*
X72292225Y-64837119D01*
X72292224Y-64837117D01*
X72269063Y-64805735D01*
X72211582Y-64727850D01*
X72102314Y-64647207D01*
X72102312Y-64647206D01*
X71974132Y-64602353D01*
X71943702Y-64599500D01*
X71943698Y-64599500D01*
X69735166Y-64599500D01*
X69735162Y-64599500D01*
X69704732Y-64602353D01*
X69704730Y-64602353D01*
X69576551Y-64647206D01*
X69576549Y-64647207D01*
X69467282Y-64727850D01*
X69386639Y-64837117D01*
X69386638Y-64837119D01*
X69341785Y-64965298D01*
X69341785Y-64965300D01*
X69338932Y-64995730D01*
X64239932Y-64995730D01*
X64239932Y-63424500D01*
X64259617Y-63357461D01*
X64312421Y-63311706D01*
X64363932Y-63300500D01*
X96306627Y-63300500D01*
X96373666Y-63320185D01*
G37*
%TD.AperFunction*%
%TD*%
M02*
