%TF.GenerationSoftware,KiCad,Pcbnew,10.0.5-10.0.5~ubuntu24.04.1*%
%TF.CreationDate,2026-08-25T13:52:18+02:00*%
%TF.ProjectId,pcb,7063622e-6b69-4636-9164-5f7063625858,rev?*%
%TF.SameCoordinates,Original*%
%TF.FileFunction,Legend,Top*%
%TF.FilePolarity,Positive*%
%FSLAX46Y46*%
G04 Gerber Fmt 4.6, Leading zero omitted, Abs format (unit mm)*
G04 Created by KiCad (PCBNEW 10.0.5-10.0.5~ubuntu24.04.1) date 2026-08-25 13:52:18*
%MOMM*%
%LPD*%
G01*
G04 APERTURE LIST*
%ADD10C,0.100000*%
%ADD11C,0.250000*%
%ADD12C,0.150000*%
%ADD13C,0.120000*%
%ADD14C,0.060000*%
G04 APERTURE END LIST*
D10*
X106376649Y-91048609D02*
X106519506Y-91096228D01*
X106519506Y-91096228D02*
X106567125Y-91143847D01*
X106567125Y-91143847D02*
X106614744Y-91239085D01*
X106614744Y-91239085D02*
X106614744Y-91381942D01*
X106614744Y-91381942D02*
X106567125Y-91477180D01*
X106567125Y-91477180D02*
X106519506Y-91524800D01*
X106519506Y-91524800D02*
X106424268Y-91572419D01*
X106424268Y-91572419D02*
X106043316Y-91572419D01*
X106043316Y-91572419D02*
X106043316Y-90572419D01*
X106043316Y-90572419D02*
X106376649Y-90572419D01*
X106376649Y-90572419D02*
X106471887Y-90620038D01*
X106471887Y-90620038D02*
X106519506Y-90667657D01*
X106519506Y-90667657D02*
X106567125Y-90762895D01*
X106567125Y-90762895D02*
X106567125Y-90858133D01*
X106567125Y-90858133D02*
X106519506Y-90953371D01*
X106519506Y-90953371D02*
X106471887Y-91000990D01*
X106471887Y-91000990D02*
X106376649Y-91048609D01*
X106376649Y-91048609D02*
X106043316Y-91048609D01*
X107186173Y-91572419D02*
X107090935Y-91524800D01*
X107090935Y-91524800D02*
X107043316Y-91477180D01*
X107043316Y-91477180D02*
X106995697Y-91381942D01*
X106995697Y-91381942D02*
X106995697Y-91096228D01*
X106995697Y-91096228D02*
X107043316Y-91000990D01*
X107043316Y-91000990D02*
X107090935Y-90953371D01*
X107090935Y-90953371D02*
X107186173Y-90905752D01*
X107186173Y-90905752D02*
X107329030Y-90905752D01*
X107329030Y-90905752D02*
X107424268Y-90953371D01*
X107424268Y-90953371D02*
X107471887Y-91000990D01*
X107471887Y-91000990D02*
X107519506Y-91096228D01*
X107519506Y-91096228D02*
X107519506Y-91381942D01*
X107519506Y-91381942D02*
X107471887Y-91477180D01*
X107471887Y-91477180D02*
X107424268Y-91524800D01*
X107424268Y-91524800D02*
X107329030Y-91572419D01*
X107329030Y-91572419D02*
X107186173Y-91572419D01*
X108090935Y-91572419D02*
X107995697Y-91524800D01*
X107995697Y-91524800D02*
X107948078Y-91477180D01*
X107948078Y-91477180D02*
X107900459Y-91381942D01*
X107900459Y-91381942D02*
X107900459Y-91096228D01*
X107900459Y-91096228D02*
X107948078Y-91000990D01*
X107948078Y-91000990D02*
X107995697Y-90953371D01*
X107995697Y-90953371D02*
X108090935Y-90905752D01*
X108090935Y-90905752D02*
X108233792Y-90905752D01*
X108233792Y-90905752D02*
X108329030Y-90953371D01*
X108329030Y-90953371D02*
X108376649Y-91000990D01*
X108376649Y-91000990D02*
X108424268Y-91096228D01*
X108424268Y-91096228D02*
X108424268Y-91381942D01*
X108424268Y-91381942D02*
X108376649Y-91477180D01*
X108376649Y-91477180D02*
X108329030Y-91524800D01*
X108329030Y-91524800D02*
X108233792Y-91572419D01*
X108233792Y-91572419D02*
X108090935Y-91572419D01*
X108709983Y-90905752D02*
X109090935Y-90905752D01*
X108852840Y-90572419D02*
X108852840Y-91429561D01*
X108852840Y-91429561D02*
X108900459Y-91524800D01*
X108900459Y-91524800D02*
X108995697Y-91572419D01*
X108995697Y-91572419D02*
X109090935Y-91572419D01*
X132247125Y-86120038D02*
X132151887Y-86072419D01*
X132151887Y-86072419D02*
X132009030Y-86072419D01*
X132009030Y-86072419D02*
X131866173Y-86120038D01*
X131866173Y-86120038D02*
X131770935Y-86215276D01*
X131770935Y-86215276D02*
X131723316Y-86310514D01*
X131723316Y-86310514D02*
X131675697Y-86500990D01*
X131675697Y-86500990D02*
X131675697Y-86643847D01*
X131675697Y-86643847D02*
X131723316Y-86834323D01*
X131723316Y-86834323D02*
X131770935Y-86929561D01*
X131770935Y-86929561D02*
X131866173Y-87024800D01*
X131866173Y-87024800D02*
X132009030Y-87072419D01*
X132009030Y-87072419D02*
X132104268Y-87072419D01*
X132104268Y-87072419D02*
X132247125Y-87024800D01*
X132247125Y-87024800D02*
X132294744Y-86977180D01*
X132294744Y-86977180D02*
X132294744Y-86643847D01*
X132294744Y-86643847D02*
X132104268Y-86643847D01*
X132723316Y-87072419D02*
X132723316Y-86072419D01*
X132723316Y-86072419D02*
X133294744Y-87072419D01*
X133294744Y-87072419D02*
X133294744Y-86072419D01*
X133770935Y-87072419D02*
X133770935Y-86072419D01*
X133770935Y-86072419D02*
X134009030Y-86072419D01*
X134009030Y-86072419D02*
X134151887Y-86120038D01*
X134151887Y-86120038D02*
X134247125Y-86215276D01*
X134247125Y-86215276D02*
X134294744Y-86310514D01*
X134294744Y-86310514D02*
X134342363Y-86500990D01*
X134342363Y-86500990D02*
X134342363Y-86643847D01*
X134342363Y-86643847D02*
X134294744Y-86834323D01*
X134294744Y-86834323D02*
X134247125Y-86929561D01*
X134247125Y-86929561D02*
X134151887Y-87024800D01*
X134151887Y-87024800D02*
X134009030Y-87072419D01*
X134009030Y-87072419D02*
X133770935Y-87072419D01*
X131698078Y-78572419D02*
X132317125Y-78572419D01*
X132317125Y-78572419D02*
X131983792Y-78953371D01*
X131983792Y-78953371D02*
X132126649Y-78953371D01*
X132126649Y-78953371D02*
X132221887Y-79000990D01*
X132221887Y-79000990D02*
X132269506Y-79048609D01*
X132269506Y-79048609D02*
X132317125Y-79143847D01*
X132317125Y-79143847D02*
X132317125Y-79381942D01*
X132317125Y-79381942D02*
X132269506Y-79477180D01*
X132269506Y-79477180D02*
X132221887Y-79524800D01*
X132221887Y-79524800D02*
X132126649Y-79572419D01*
X132126649Y-79572419D02*
X131840935Y-79572419D01*
X131840935Y-79572419D02*
X131745697Y-79524800D01*
X131745697Y-79524800D02*
X131698078Y-79477180D01*
X132745697Y-79477180D02*
X132793316Y-79524800D01*
X132793316Y-79524800D02*
X132745697Y-79572419D01*
X132745697Y-79572419D02*
X132698078Y-79524800D01*
X132698078Y-79524800D02*
X132745697Y-79477180D01*
X132745697Y-79477180D02*
X132745697Y-79572419D01*
X133126649Y-78572419D02*
X133745696Y-78572419D01*
X133745696Y-78572419D02*
X133412363Y-78953371D01*
X133412363Y-78953371D02*
X133555220Y-78953371D01*
X133555220Y-78953371D02*
X133650458Y-79000990D01*
X133650458Y-79000990D02*
X133698077Y-79048609D01*
X133698077Y-79048609D02*
X133745696Y-79143847D01*
X133745696Y-79143847D02*
X133745696Y-79381942D01*
X133745696Y-79381942D02*
X133698077Y-79477180D01*
X133698077Y-79477180D02*
X133650458Y-79524800D01*
X133650458Y-79524800D02*
X133555220Y-79572419D01*
X133555220Y-79572419D02*
X133269506Y-79572419D01*
X133269506Y-79572419D02*
X133174268Y-79524800D01*
X133174268Y-79524800D02*
X133126649Y-79477180D01*
X134031411Y-78572419D02*
X134364744Y-79572419D01*
X134364744Y-79572419D02*
X134698077Y-78572419D01*
X131650459Y-81405752D02*
X132031411Y-81405752D01*
X131793316Y-81072419D02*
X131793316Y-81929561D01*
X131793316Y-81929561D02*
X131840935Y-82024800D01*
X131840935Y-82024800D02*
X131936173Y-82072419D01*
X131936173Y-82072419D02*
X132031411Y-82072419D01*
X132269507Y-82072419D02*
X132793316Y-81405752D01*
X132269507Y-81405752D02*
X132793316Y-82072419D01*
X131793316Y-84572419D02*
X131793316Y-83905752D01*
X131793316Y-84096228D02*
X131840935Y-84000990D01*
X131840935Y-84000990D02*
X131888554Y-83953371D01*
X131888554Y-83953371D02*
X131983792Y-83905752D01*
X131983792Y-83905752D02*
X132079030Y-83905752D01*
X132317126Y-84572419D02*
X132840935Y-83905752D01*
X132317126Y-83905752D02*
X132840935Y-84572419D01*
X80650459Y-75322419D02*
X80983792Y-76322419D01*
X80983792Y-76322419D02*
X81317125Y-75322419D01*
X82079030Y-76322419D02*
X82079030Y-75322419D01*
X82079030Y-76274800D02*
X81983792Y-76322419D01*
X81983792Y-76322419D02*
X81793316Y-76322419D01*
X81793316Y-76322419D02*
X81698078Y-76274800D01*
X81698078Y-76274800D02*
X81650459Y-76227180D01*
X81650459Y-76227180D02*
X81602840Y-76131942D01*
X81602840Y-76131942D02*
X81602840Y-75846228D01*
X81602840Y-75846228D02*
X81650459Y-75750990D01*
X81650459Y-75750990D02*
X81698078Y-75703371D01*
X81698078Y-75703371D02*
X81793316Y-75655752D01*
X81793316Y-75655752D02*
X81983792Y-75655752D01*
X81983792Y-75655752D02*
X82079030Y-75703371D01*
X82983792Y-76322419D02*
X82983792Y-75322419D01*
X82983792Y-76274800D02*
X82888554Y-76322419D01*
X82888554Y-76322419D02*
X82698078Y-76322419D01*
X82698078Y-76322419D02*
X82602840Y-76274800D01*
X82602840Y-76274800D02*
X82555221Y-76227180D01*
X82555221Y-76227180D02*
X82507602Y-76131942D01*
X82507602Y-76131942D02*
X82507602Y-75846228D01*
X82507602Y-75846228D02*
X82555221Y-75750990D01*
X82555221Y-75750990D02*
X82602840Y-75703371D01*
X82602840Y-75703371D02*
X82698078Y-75655752D01*
X82698078Y-75655752D02*
X82888554Y-75655752D01*
X82888554Y-75655752D02*
X82983792Y-75703371D01*
X85793316Y-76322419D02*
X85793316Y-75322419D01*
X85793316Y-75322419D02*
X86031411Y-75322419D01*
X86031411Y-75322419D02*
X86174268Y-75370038D01*
X86174268Y-75370038D02*
X86269506Y-75465276D01*
X86269506Y-75465276D02*
X86317125Y-75560514D01*
X86317125Y-75560514D02*
X86364744Y-75750990D01*
X86364744Y-75750990D02*
X86364744Y-75893847D01*
X86364744Y-75893847D02*
X86317125Y-76084323D01*
X86317125Y-76084323D02*
X86269506Y-76179561D01*
X86269506Y-76179561D02*
X86174268Y-76274800D01*
X86174268Y-76274800D02*
X86031411Y-76322419D01*
X86031411Y-76322419D02*
X85793316Y-76322419D01*
X87221887Y-76322419D02*
X87221887Y-75798609D01*
X87221887Y-75798609D02*
X87174268Y-75703371D01*
X87174268Y-75703371D02*
X87079030Y-75655752D01*
X87079030Y-75655752D02*
X86888554Y-75655752D01*
X86888554Y-75655752D02*
X86793316Y-75703371D01*
X87221887Y-76274800D02*
X87126649Y-76322419D01*
X87126649Y-76322419D02*
X86888554Y-76322419D01*
X86888554Y-76322419D02*
X86793316Y-76274800D01*
X86793316Y-76274800D02*
X86745697Y-76179561D01*
X86745697Y-76179561D02*
X86745697Y-76084323D01*
X86745697Y-76084323D02*
X86793316Y-75989085D01*
X86793316Y-75989085D02*
X86888554Y-75941466D01*
X86888554Y-75941466D02*
X87126649Y-75941466D01*
X87126649Y-75941466D02*
X87221887Y-75893847D01*
X87555221Y-75655752D02*
X87936173Y-75655752D01*
X87698078Y-75322419D02*
X87698078Y-76179561D01*
X87698078Y-76179561D02*
X87745697Y-76274800D01*
X87745697Y-76274800D02*
X87840935Y-76322419D01*
X87840935Y-76322419D02*
X87936173Y-76322419D01*
X88698078Y-76322419D02*
X88698078Y-75798609D01*
X88698078Y-75798609D02*
X88650459Y-75703371D01*
X88650459Y-75703371D02*
X88555221Y-75655752D01*
X88555221Y-75655752D02*
X88364745Y-75655752D01*
X88364745Y-75655752D02*
X88269507Y-75703371D01*
X88698078Y-76274800D02*
X88602840Y-76322419D01*
X88602840Y-76322419D02*
X88364745Y-76322419D01*
X88364745Y-76322419D02*
X88269507Y-76274800D01*
X88269507Y-76274800D02*
X88221888Y-76179561D01*
X88221888Y-76179561D02*
X88221888Y-76084323D01*
X88221888Y-76084323D02*
X88269507Y-75989085D01*
X88269507Y-75989085D02*
X88364745Y-75941466D01*
X88364745Y-75941466D02*
X88602840Y-75941466D01*
X88602840Y-75941466D02*
X88698078Y-75893847D01*
X91567125Y-75370038D02*
X91471887Y-75322419D01*
X91471887Y-75322419D02*
X91329030Y-75322419D01*
X91329030Y-75322419D02*
X91186173Y-75370038D01*
X91186173Y-75370038D02*
X91090935Y-75465276D01*
X91090935Y-75465276D02*
X91043316Y-75560514D01*
X91043316Y-75560514D02*
X90995697Y-75750990D01*
X90995697Y-75750990D02*
X90995697Y-75893847D01*
X90995697Y-75893847D02*
X91043316Y-76084323D01*
X91043316Y-76084323D02*
X91090935Y-76179561D01*
X91090935Y-76179561D02*
X91186173Y-76274800D01*
X91186173Y-76274800D02*
X91329030Y-76322419D01*
X91329030Y-76322419D02*
X91424268Y-76322419D01*
X91424268Y-76322419D02*
X91567125Y-76274800D01*
X91567125Y-76274800D02*
X91614744Y-76227180D01*
X91614744Y-76227180D02*
X91614744Y-75893847D01*
X91614744Y-75893847D02*
X91424268Y-75893847D01*
X92043316Y-76322419D02*
X92043316Y-75322419D01*
X92043316Y-75322419D02*
X92614744Y-76322419D01*
X92614744Y-76322419D02*
X92614744Y-75322419D01*
X93090935Y-76322419D02*
X93090935Y-75322419D01*
X93090935Y-75322419D02*
X93329030Y-75322419D01*
X93329030Y-75322419D02*
X93471887Y-75370038D01*
X93471887Y-75370038D02*
X93567125Y-75465276D01*
X93567125Y-75465276D02*
X93614744Y-75560514D01*
X93614744Y-75560514D02*
X93662363Y-75750990D01*
X93662363Y-75750990D02*
X93662363Y-75893847D01*
X93662363Y-75893847D02*
X93614744Y-76084323D01*
X93614744Y-76084323D02*
X93567125Y-76179561D01*
X93567125Y-76179561D02*
X93471887Y-76274800D01*
X93471887Y-76274800D02*
X93329030Y-76322419D01*
X93329030Y-76322419D02*
X93090935Y-76322419D01*
X84543316Y-78322419D02*
X84543316Y-77322419D01*
X84971887Y-78322419D02*
X84971887Y-77798609D01*
X84971887Y-77798609D02*
X84924268Y-77703371D01*
X84924268Y-77703371D02*
X84829030Y-77655752D01*
X84829030Y-77655752D02*
X84686173Y-77655752D01*
X84686173Y-77655752D02*
X84590935Y-77703371D01*
X84590935Y-77703371D02*
X84543316Y-77750990D01*
X85876649Y-77655752D02*
X85876649Y-78322419D01*
X85448078Y-77655752D02*
X85448078Y-78179561D01*
X85448078Y-78179561D02*
X85495697Y-78274800D01*
X85495697Y-78274800D02*
X85590935Y-78322419D01*
X85590935Y-78322419D02*
X85733792Y-78322419D01*
X85733792Y-78322419D02*
X85829030Y-78274800D01*
X85829030Y-78274800D02*
X85876649Y-78227180D01*
X86352840Y-78322419D02*
X86352840Y-77655752D01*
X86352840Y-77750990D02*
X86400459Y-77703371D01*
X86400459Y-77703371D02*
X86495697Y-77655752D01*
X86495697Y-77655752D02*
X86638554Y-77655752D01*
X86638554Y-77655752D02*
X86733792Y-77703371D01*
X86733792Y-77703371D02*
X86781411Y-77798609D01*
X86781411Y-77798609D02*
X86781411Y-78322419D01*
X86781411Y-77798609D02*
X86829030Y-77703371D01*
X86829030Y-77703371D02*
X86924268Y-77655752D01*
X86924268Y-77655752D02*
X87067125Y-77655752D01*
X87067125Y-77655752D02*
X87162364Y-77703371D01*
X87162364Y-77703371D02*
X87209983Y-77798609D01*
X87209983Y-77798609D02*
X87209983Y-78322419D01*
X87686173Y-78322419D02*
X87686173Y-77655752D01*
X87686173Y-77322419D02*
X87638554Y-77370038D01*
X87638554Y-77370038D02*
X87686173Y-77417657D01*
X87686173Y-77417657D02*
X87733792Y-77370038D01*
X87733792Y-77370038D02*
X87686173Y-77322419D01*
X87686173Y-77322419D02*
X87686173Y-77417657D01*
X88590934Y-78322419D02*
X88590934Y-77322419D01*
X88590934Y-78274800D02*
X88495696Y-78322419D01*
X88495696Y-78322419D02*
X88305220Y-78322419D01*
X88305220Y-78322419D02*
X88209982Y-78274800D01*
X88209982Y-78274800D02*
X88162363Y-78227180D01*
X88162363Y-78227180D02*
X88114744Y-78131942D01*
X88114744Y-78131942D02*
X88114744Y-77846228D01*
X88114744Y-77846228D02*
X88162363Y-77750990D01*
X88162363Y-77750990D02*
X88209982Y-77703371D01*
X88209982Y-77703371D02*
X88305220Y-77655752D01*
X88305220Y-77655752D02*
X88495696Y-77655752D01*
X88495696Y-77655752D02*
X88590934Y-77703371D01*
X89067125Y-78322419D02*
X89067125Y-77655752D01*
X89067125Y-77322419D02*
X89019506Y-77370038D01*
X89019506Y-77370038D02*
X89067125Y-77417657D01*
X89067125Y-77417657D02*
X89114744Y-77370038D01*
X89114744Y-77370038D02*
X89067125Y-77322419D01*
X89067125Y-77322419D02*
X89067125Y-77417657D01*
X89400458Y-77655752D02*
X89781410Y-77655752D01*
X89543315Y-77322419D02*
X89543315Y-78179561D01*
X89543315Y-78179561D02*
X89590934Y-78274800D01*
X89590934Y-78274800D02*
X89686172Y-78322419D01*
X89686172Y-78322419D02*
X89781410Y-78322419D01*
X90019506Y-77655752D02*
X90257601Y-78322419D01*
X90495696Y-77655752D02*
X90257601Y-78322419D01*
X90257601Y-78322419D02*
X90162363Y-78560514D01*
X90162363Y-78560514D02*
X90114744Y-78608133D01*
X90114744Y-78608133D02*
X90019506Y-78655752D01*
X76909470Y-105872306D02*
X76861851Y-105967544D01*
X76861851Y-105967544D02*
X76861851Y-106110401D01*
X76861851Y-106110401D02*
X76909470Y-106253258D01*
X76909470Y-106253258D02*
X77004708Y-106348496D01*
X77004708Y-106348496D02*
X77099946Y-106396115D01*
X77099946Y-106396115D02*
X77290422Y-106443734D01*
X77290422Y-106443734D02*
X77433279Y-106443734D01*
X77433279Y-106443734D02*
X77623755Y-106396115D01*
X77623755Y-106396115D02*
X77718993Y-106348496D01*
X77718993Y-106348496D02*
X77814232Y-106253258D01*
X77814232Y-106253258D02*
X77861851Y-106110401D01*
X77861851Y-106110401D02*
X77861851Y-106015163D01*
X77861851Y-106015163D02*
X77814232Y-105872306D01*
X77814232Y-105872306D02*
X77766612Y-105824687D01*
X77766612Y-105824687D02*
X77433279Y-105824687D01*
X77433279Y-105824687D02*
X77433279Y-106015163D01*
X77861851Y-105396115D02*
X76861851Y-105396115D01*
X76861851Y-105396115D02*
X77861851Y-104824687D01*
X77861851Y-104824687D02*
X76861851Y-104824687D01*
X77861851Y-104348496D02*
X76861851Y-104348496D01*
X76861851Y-104348496D02*
X76861851Y-104110401D01*
X76861851Y-104110401D02*
X76909470Y-103967544D01*
X76909470Y-103967544D02*
X77004708Y-103872306D01*
X77004708Y-103872306D02*
X77099946Y-103824687D01*
X77099946Y-103824687D02*
X77290422Y-103777068D01*
X77290422Y-103777068D02*
X77433279Y-103777068D01*
X77433279Y-103777068D02*
X77623755Y-103824687D01*
X77623755Y-103824687D02*
X77718993Y-103872306D01*
X77718993Y-103872306D02*
X77814232Y-103967544D01*
X77814232Y-103967544D02*
X77861851Y-104110401D01*
X77861851Y-104110401D02*
X77861851Y-104348496D01*
X77611851Y-113396115D02*
X76611851Y-113396115D01*
X76611851Y-113396115D02*
X76611851Y-113015163D01*
X76611851Y-113015163D02*
X76659470Y-112919925D01*
X76659470Y-112919925D02*
X76707089Y-112872306D01*
X76707089Y-112872306D02*
X76802327Y-112824687D01*
X76802327Y-112824687D02*
X76945184Y-112824687D01*
X76945184Y-112824687D02*
X77040422Y-112872306D01*
X77040422Y-112872306D02*
X77088041Y-112919925D01*
X77088041Y-112919925D02*
X77135660Y-113015163D01*
X77135660Y-113015163D02*
X77135660Y-113396115D01*
X76945184Y-111967544D02*
X77611851Y-111967544D01*
X76945184Y-112396115D02*
X77468993Y-112396115D01*
X77468993Y-112396115D02*
X77564232Y-112348496D01*
X77564232Y-112348496D02*
X77611851Y-112253258D01*
X77611851Y-112253258D02*
X77611851Y-112110401D01*
X77611851Y-112110401D02*
X77564232Y-112015163D01*
X77564232Y-112015163D02*
X77516612Y-111967544D01*
X77611851Y-111491353D02*
X76945184Y-111491353D01*
X77040422Y-111491353D02*
X76992803Y-111443734D01*
X76992803Y-111443734D02*
X76945184Y-111348496D01*
X76945184Y-111348496D02*
X76945184Y-111205639D01*
X76945184Y-111205639D02*
X76992803Y-111110401D01*
X76992803Y-111110401D02*
X77088041Y-111062782D01*
X77088041Y-111062782D02*
X77611851Y-111062782D01*
X77088041Y-111062782D02*
X76992803Y-111015163D01*
X76992803Y-111015163D02*
X76945184Y-110919925D01*
X76945184Y-110919925D02*
X76945184Y-110777068D01*
X76945184Y-110777068D02*
X76992803Y-110681829D01*
X76992803Y-110681829D02*
X77088041Y-110634210D01*
X77088041Y-110634210D02*
X77611851Y-110634210D01*
X76945184Y-110158020D02*
X77945184Y-110158020D01*
X76992803Y-110158020D02*
X76945184Y-110062782D01*
X76945184Y-110062782D02*
X76945184Y-109872306D01*
X76945184Y-109872306D02*
X76992803Y-109777068D01*
X76992803Y-109777068D02*
X77040422Y-109729449D01*
X77040422Y-109729449D02*
X77135660Y-109681830D01*
X77135660Y-109681830D02*
X77421374Y-109681830D01*
X77421374Y-109681830D02*
X77516612Y-109729449D01*
X77516612Y-109729449D02*
X77564232Y-109777068D01*
X77564232Y-109777068D02*
X77611851Y-109872306D01*
X77611851Y-109872306D02*
X77611851Y-110062782D01*
X77611851Y-110062782D02*
X77564232Y-110158020D01*
X141611851Y-125146115D02*
X140945184Y-125146115D01*
X141135660Y-125146115D02*
X141040422Y-125098496D01*
X141040422Y-125098496D02*
X140992803Y-125050877D01*
X140992803Y-125050877D02*
X140945184Y-124955639D01*
X140945184Y-124955639D02*
X140945184Y-124860401D01*
X141564232Y-124574686D02*
X141611851Y-124479448D01*
X141611851Y-124479448D02*
X141611851Y-124288972D01*
X141611851Y-124288972D02*
X141564232Y-124193734D01*
X141564232Y-124193734D02*
X141468993Y-124146115D01*
X141468993Y-124146115D02*
X141421374Y-124146115D01*
X141421374Y-124146115D02*
X141326136Y-124193734D01*
X141326136Y-124193734D02*
X141278517Y-124288972D01*
X141278517Y-124288972D02*
X141278517Y-124431829D01*
X141278517Y-124431829D02*
X141230898Y-124527067D01*
X141230898Y-124527067D02*
X141135660Y-124574686D01*
X141135660Y-124574686D02*
X141088041Y-124574686D01*
X141088041Y-124574686D02*
X140992803Y-124527067D01*
X140992803Y-124527067D02*
X140945184Y-124431829D01*
X140945184Y-124431829D02*
X140945184Y-124288972D01*
X140945184Y-124288972D02*
X140992803Y-124193734D01*
X140945184Y-123860400D02*
X140945184Y-123479448D01*
X140611851Y-123717543D02*
X141468993Y-123717543D01*
X141468993Y-123717543D02*
X141564232Y-123669924D01*
X141564232Y-123669924D02*
X141611851Y-123574686D01*
X141611851Y-123574686D02*
X141611851Y-123479448D01*
X141564232Y-119217544D02*
X141611851Y-119312782D01*
X141611851Y-119312782D02*
X141611851Y-119503258D01*
X141611851Y-119503258D02*
X141564232Y-119598496D01*
X141564232Y-119598496D02*
X141516612Y-119646115D01*
X141516612Y-119646115D02*
X141421374Y-119693734D01*
X141421374Y-119693734D02*
X141135660Y-119693734D01*
X141135660Y-119693734D02*
X141040422Y-119646115D01*
X141040422Y-119646115D02*
X140992803Y-119598496D01*
X140992803Y-119598496D02*
X140945184Y-119503258D01*
X140945184Y-119503258D02*
X140945184Y-119312782D01*
X140945184Y-119312782D02*
X140992803Y-119217544D01*
X141564232Y-118836591D02*
X141611851Y-118741353D01*
X141611851Y-118741353D02*
X141611851Y-118550877D01*
X141611851Y-118550877D02*
X141564232Y-118455639D01*
X141564232Y-118455639D02*
X141468993Y-118408020D01*
X141468993Y-118408020D02*
X141421374Y-118408020D01*
X141421374Y-118408020D02*
X141326136Y-118455639D01*
X141326136Y-118455639D02*
X141278517Y-118550877D01*
X141278517Y-118550877D02*
X141278517Y-118693734D01*
X141278517Y-118693734D02*
X141230898Y-118788972D01*
X141230898Y-118788972D02*
X141135660Y-118836591D01*
X141135660Y-118836591D02*
X141088041Y-118836591D01*
X141088041Y-118836591D02*
X140992803Y-118788972D01*
X140992803Y-118788972D02*
X140945184Y-118693734D01*
X140945184Y-118693734D02*
X140945184Y-118550877D01*
X140945184Y-118550877D02*
X140992803Y-118455639D01*
X141611851Y-113967544D02*
X140611851Y-113967544D01*
X141564232Y-113967544D02*
X141611851Y-114062782D01*
X141611851Y-114062782D02*
X141611851Y-114253258D01*
X141611851Y-114253258D02*
X141564232Y-114348496D01*
X141564232Y-114348496D02*
X141516612Y-114396115D01*
X141516612Y-114396115D02*
X141421374Y-114443734D01*
X141421374Y-114443734D02*
X141135660Y-114443734D01*
X141135660Y-114443734D02*
X141040422Y-114396115D01*
X141040422Y-114396115D02*
X140992803Y-114348496D01*
X140992803Y-114348496D02*
X140945184Y-114253258D01*
X140945184Y-114253258D02*
X140945184Y-114062782D01*
X140945184Y-114062782D02*
X140992803Y-113967544D01*
X141564232Y-113062782D02*
X141611851Y-113158020D01*
X141611851Y-113158020D02*
X141611851Y-113348496D01*
X141611851Y-113348496D02*
X141564232Y-113443734D01*
X141564232Y-113443734D02*
X141516612Y-113491353D01*
X141516612Y-113491353D02*
X141421374Y-113538972D01*
X141421374Y-113538972D02*
X141135660Y-113538972D01*
X141135660Y-113538972D02*
X141040422Y-113491353D01*
X141040422Y-113491353D02*
X140992803Y-113443734D01*
X140992803Y-113443734D02*
X140945184Y-113348496D01*
X140945184Y-113348496D02*
X140945184Y-113158020D01*
X140945184Y-113158020D02*
X140992803Y-113062782D01*
X141564232Y-110443734D02*
X141611851Y-110348496D01*
X141611851Y-110348496D02*
X141611851Y-110158020D01*
X141611851Y-110158020D02*
X141564232Y-110062782D01*
X141564232Y-110062782D02*
X141468993Y-110015163D01*
X141468993Y-110015163D02*
X141421374Y-110015163D01*
X141421374Y-110015163D02*
X141326136Y-110062782D01*
X141326136Y-110062782D02*
X141278517Y-110158020D01*
X141278517Y-110158020D02*
X141278517Y-110300877D01*
X141278517Y-110300877D02*
X141230898Y-110396115D01*
X141230898Y-110396115D02*
X141135660Y-110443734D01*
X141135660Y-110443734D02*
X141088041Y-110443734D01*
X141088041Y-110443734D02*
X140992803Y-110396115D01*
X140992803Y-110396115D02*
X140945184Y-110300877D01*
X140945184Y-110300877D02*
X140945184Y-110158020D01*
X140945184Y-110158020D02*
X140992803Y-110062782D01*
X141611851Y-109158020D02*
X140611851Y-109158020D01*
X141564232Y-109158020D02*
X141611851Y-109253258D01*
X141611851Y-109253258D02*
X141611851Y-109443734D01*
X141611851Y-109443734D02*
X141564232Y-109538972D01*
X141564232Y-109538972D02*
X141516612Y-109586591D01*
X141516612Y-109586591D02*
X141421374Y-109634210D01*
X141421374Y-109634210D02*
X141135660Y-109634210D01*
X141135660Y-109634210D02*
X141040422Y-109586591D01*
X141040422Y-109586591D02*
X140992803Y-109538972D01*
X140992803Y-109538972D02*
X140945184Y-109443734D01*
X140945184Y-109443734D02*
X140945184Y-109253258D01*
X140945184Y-109253258D02*
X140992803Y-109158020D01*
X141611851Y-108253258D02*
X141088041Y-108253258D01*
X141088041Y-108253258D02*
X140992803Y-108300877D01*
X140992803Y-108300877D02*
X140945184Y-108396115D01*
X140945184Y-108396115D02*
X140945184Y-108586591D01*
X140945184Y-108586591D02*
X140992803Y-108681829D01*
X141564232Y-108253258D02*
X141611851Y-108348496D01*
X141611851Y-108348496D02*
X141611851Y-108586591D01*
X141611851Y-108586591D02*
X141564232Y-108681829D01*
X141564232Y-108681829D02*
X141468993Y-108729448D01*
X141468993Y-108729448D02*
X141373755Y-108729448D01*
X141373755Y-108729448D02*
X141278517Y-108681829D01*
X141278517Y-108681829D02*
X141230898Y-108586591D01*
X141230898Y-108586591D02*
X141230898Y-108348496D01*
X141230898Y-108348496D02*
X141183279Y-108253258D01*
X141564232Y-104943734D02*
X141611851Y-104848496D01*
X141611851Y-104848496D02*
X141611851Y-104658020D01*
X141611851Y-104658020D02*
X141564232Y-104562782D01*
X141564232Y-104562782D02*
X141468993Y-104515163D01*
X141468993Y-104515163D02*
X141421374Y-104515163D01*
X141421374Y-104515163D02*
X141326136Y-104562782D01*
X141326136Y-104562782D02*
X141278517Y-104658020D01*
X141278517Y-104658020D02*
X141278517Y-104800877D01*
X141278517Y-104800877D02*
X141230898Y-104896115D01*
X141230898Y-104896115D02*
X141135660Y-104943734D01*
X141135660Y-104943734D02*
X141088041Y-104943734D01*
X141088041Y-104943734D02*
X140992803Y-104896115D01*
X140992803Y-104896115D02*
X140945184Y-104800877D01*
X140945184Y-104800877D02*
X140945184Y-104658020D01*
X140945184Y-104658020D02*
X140992803Y-104562782D01*
X141564232Y-103658020D02*
X141611851Y-103753258D01*
X141611851Y-103753258D02*
X141611851Y-103943734D01*
X141611851Y-103943734D02*
X141564232Y-104038972D01*
X141564232Y-104038972D02*
X141516612Y-104086591D01*
X141516612Y-104086591D02*
X141421374Y-104134210D01*
X141421374Y-104134210D02*
X141135660Y-104134210D01*
X141135660Y-104134210D02*
X141040422Y-104086591D01*
X141040422Y-104086591D02*
X140992803Y-104038972D01*
X140992803Y-104038972D02*
X140945184Y-103943734D01*
X140945184Y-103943734D02*
X140945184Y-103753258D01*
X140945184Y-103753258D02*
X140992803Y-103658020D01*
X141611851Y-103086591D02*
X141564232Y-103181829D01*
X141564232Y-103181829D02*
X141468993Y-103229448D01*
X141468993Y-103229448D02*
X140611851Y-103229448D01*
X140361851Y-95788972D02*
X141361851Y-95455639D01*
X141361851Y-95455639D02*
X140361851Y-95122306D01*
X141361851Y-94360401D02*
X140361851Y-94360401D01*
X141314232Y-94360401D02*
X141361851Y-94455639D01*
X141361851Y-94455639D02*
X141361851Y-94646115D01*
X141361851Y-94646115D02*
X141314232Y-94741353D01*
X141314232Y-94741353D02*
X141266612Y-94788972D01*
X141266612Y-94788972D02*
X141171374Y-94836591D01*
X141171374Y-94836591D02*
X140885660Y-94836591D01*
X140885660Y-94836591D02*
X140790422Y-94788972D01*
X140790422Y-94788972D02*
X140742803Y-94741353D01*
X140742803Y-94741353D02*
X140695184Y-94646115D01*
X140695184Y-94646115D02*
X140695184Y-94455639D01*
X140695184Y-94455639D02*
X140742803Y-94360401D01*
X141361851Y-93455639D02*
X140361851Y-93455639D01*
X141314232Y-93455639D02*
X141361851Y-93550877D01*
X141361851Y-93550877D02*
X141361851Y-93741353D01*
X141361851Y-93741353D02*
X141314232Y-93836591D01*
X141314232Y-93836591D02*
X141266612Y-93884210D01*
X141266612Y-93884210D02*
X141171374Y-93931829D01*
X141171374Y-93931829D02*
X140885660Y-93931829D01*
X140885660Y-93931829D02*
X140790422Y-93884210D01*
X140790422Y-93884210D02*
X140742803Y-93836591D01*
X140742803Y-93836591D02*
X140695184Y-93741353D01*
X140695184Y-93741353D02*
X140695184Y-93550877D01*
X140695184Y-93550877D02*
X140742803Y-93455639D01*
X140409470Y-100372306D02*
X140361851Y-100467544D01*
X140361851Y-100467544D02*
X140361851Y-100610401D01*
X140361851Y-100610401D02*
X140409470Y-100753258D01*
X140409470Y-100753258D02*
X140504708Y-100848496D01*
X140504708Y-100848496D02*
X140599946Y-100896115D01*
X140599946Y-100896115D02*
X140790422Y-100943734D01*
X140790422Y-100943734D02*
X140933279Y-100943734D01*
X140933279Y-100943734D02*
X141123755Y-100896115D01*
X141123755Y-100896115D02*
X141218993Y-100848496D01*
X141218993Y-100848496D02*
X141314232Y-100753258D01*
X141314232Y-100753258D02*
X141361851Y-100610401D01*
X141361851Y-100610401D02*
X141361851Y-100515163D01*
X141361851Y-100515163D02*
X141314232Y-100372306D01*
X141314232Y-100372306D02*
X141266612Y-100324687D01*
X141266612Y-100324687D02*
X140933279Y-100324687D01*
X140933279Y-100324687D02*
X140933279Y-100515163D01*
X141361851Y-99896115D02*
X140361851Y-99896115D01*
X140361851Y-99896115D02*
X141361851Y-99324687D01*
X141361851Y-99324687D02*
X140361851Y-99324687D01*
X141361851Y-98848496D02*
X140361851Y-98848496D01*
X140361851Y-98848496D02*
X140361851Y-98610401D01*
X140361851Y-98610401D02*
X140409470Y-98467544D01*
X140409470Y-98467544D02*
X140504708Y-98372306D01*
X140504708Y-98372306D02*
X140599946Y-98324687D01*
X140599946Y-98324687D02*
X140790422Y-98277068D01*
X140790422Y-98277068D02*
X140933279Y-98277068D01*
X140933279Y-98277068D02*
X141123755Y-98324687D01*
X141123755Y-98324687D02*
X141218993Y-98372306D01*
X141218993Y-98372306D02*
X141314232Y-98467544D01*
X141314232Y-98467544D02*
X141361851Y-98610401D01*
X141361851Y-98610401D02*
X141361851Y-98848496D01*
X140909470Y-89872306D02*
X140861851Y-89967544D01*
X140861851Y-89967544D02*
X140861851Y-90110401D01*
X140861851Y-90110401D02*
X140909470Y-90253258D01*
X140909470Y-90253258D02*
X141004708Y-90348496D01*
X141004708Y-90348496D02*
X141099946Y-90396115D01*
X141099946Y-90396115D02*
X141290422Y-90443734D01*
X141290422Y-90443734D02*
X141433279Y-90443734D01*
X141433279Y-90443734D02*
X141623755Y-90396115D01*
X141623755Y-90396115D02*
X141718993Y-90348496D01*
X141718993Y-90348496D02*
X141814232Y-90253258D01*
X141814232Y-90253258D02*
X141861851Y-90110401D01*
X141861851Y-90110401D02*
X141861851Y-90015163D01*
X141861851Y-90015163D02*
X141814232Y-89872306D01*
X141814232Y-89872306D02*
X141766612Y-89824687D01*
X141766612Y-89824687D02*
X141433279Y-89824687D01*
X141433279Y-89824687D02*
X141433279Y-90015163D01*
X141861851Y-89396115D02*
X140861851Y-89396115D01*
X140861851Y-89396115D02*
X141861851Y-88824687D01*
X141861851Y-88824687D02*
X140861851Y-88824687D01*
X141861851Y-88348496D02*
X140861851Y-88348496D01*
X140861851Y-88348496D02*
X140861851Y-88110401D01*
X140861851Y-88110401D02*
X140909470Y-87967544D01*
X140909470Y-87967544D02*
X141004708Y-87872306D01*
X141004708Y-87872306D02*
X141099946Y-87824687D01*
X141099946Y-87824687D02*
X141290422Y-87777068D01*
X141290422Y-87777068D02*
X141433279Y-87777068D01*
X141433279Y-87777068D02*
X141623755Y-87824687D01*
X141623755Y-87824687D02*
X141718993Y-87872306D01*
X141718993Y-87872306D02*
X141814232Y-87967544D01*
X141814232Y-87967544D02*
X141861851Y-88110401D01*
X141861851Y-88110401D02*
X141861851Y-88348496D01*
X139886192Y-83438094D02*
X139886192Y-82961904D01*
X140171907Y-83533332D02*
X139171907Y-83199999D01*
X139171907Y-83199999D02*
X140171907Y-82866666D01*
X141781851Y-84652380D02*
X140781851Y-84652380D01*
X140781851Y-84652380D02*
X140781851Y-84414285D01*
X140781851Y-84414285D02*
X140829470Y-84271428D01*
X140829470Y-84271428D02*
X140924708Y-84176190D01*
X140924708Y-84176190D02*
X141019946Y-84128571D01*
X141019946Y-84128571D02*
X141210422Y-84080952D01*
X141210422Y-84080952D02*
X141353279Y-84080952D01*
X141353279Y-84080952D02*
X141543755Y-84128571D01*
X141543755Y-84128571D02*
X141638993Y-84176190D01*
X141638993Y-84176190D02*
X141734232Y-84271428D01*
X141734232Y-84271428D02*
X141781851Y-84414285D01*
X141781851Y-84414285D02*
X141781851Y-84652380D01*
X141781851Y-83223809D02*
X141258041Y-83223809D01*
X141258041Y-83223809D02*
X141162803Y-83271428D01*
X141162803Y-83271428D02*
X141115184Y-83366666D01*
X141115184Y-83366666D02*
X141115184Y-83557142D01*
X141115184Y-83557142D02*
X141162803Y-83652380D01*
X141734232Y-83223809D02*
X141781851Y-83319047D01*
X141781851Y-83319047D02*
X141781851Y-83557142D01*
X141781851Y-83557142D02*
X141734232Y-83652380D01*
X141734232Y-83652380D02*
X141638993Y-83699999D01*
X141638993Y-83699999D02*
X141543755Y-83699999D01*
X141543755Y-83699999D02*
X141448517Y-83652380D01*
X141448517Y-83652380D02*
X141400898Y-83557142D01*
X141400898Y-83557142D02*
X141400898Y-83319047D01*
X141400898Y-83319047D02*
X141353279Y-83223809D01*
X141115184Y-82890475D02*
X141115184Y-82509523D01*
X140781851Y-82747618D02*
X141638993Y-82747618D01*
X141638993Y-82747618D02*
X141734232Y-82699999D01*
X141734232Y-82699999D02*
X141781851Y-82604761D01*
X141781851Y-82604761D02*
X141781851Y-82509523D01*
X141781851Y-81747618D02*
X141258041Y-81747618D01*
X141258041Y-81747618D02*
X141162803Y-81795237D01*
X141162803Y-81795237D02*
X141115184Y-81890475D01*
X141115184Y-81890475D02*
X141115184Y-82080951D01*
X141115184Y-82080951D02*
X141162803Y-82176189D01*
X141734232Y-81747618D02*
X141781851Y-81842856D01*
X141781851Y-81842856D02*
X141781851Y-82080951D01*
X141781851Y-82080951D02*
X141734232Y-82176189D01*
X141734232Y-82176189D02*
X141638993Y-82223808D01*
X141638993Y-82223808D02*
X141543755Y-82223808D01*
X141543755Y-82223808D02*
X141448517Y-82176189D01*
X141448517Y-82176189D02*
X141400898Y-82080951D01*
X141400898Y-82080951D02*
X141400898Y-81842856D01*
X141400898Y-81842856D02*
X141353279Y-81747618D01*
X140171907Y-78390476D02*
X140171907Y-78866666D01*
X140171907Y-78866666D02*
X139171907Y-78866666D01*
X141781851Y-80152380D02*
X140781851Y-80152380D01*
X140781851Y-80152380D02*
X140781851Y-79914285D01*
X140781851Y-79914285D02*
X140829470Y-79771428D01*
X140829470Y-79771428D02*
X140924708Y-79676190D01*
X140924708Y-79676190D02*
X141019946Y-79628571D01*
X141019946Y-79628571D02*
X141210422Y-79580952D01*
X141210422Y-79580952D02*
X141353279Y-79580952D01*
X141353279Y-79580952D02*
X141543755Y-79628571D01*
X141543755Y-79628571D02*
X141638993Y-79676190D01*
X141638993Y-79676190D02*
X141734232Y-79771428D01*
X141734232Y-79771428D02*
X141781851Y-79914285D01*
X141781851Y-79914285D02*
X141781851Y-80152380D01*
X141781851Y-78723809D02*
X141258041Y-78723809D01*
X141258041Y-78723809D02*
X141162803Y-78771428D01*
X141162803Y-78771428D02*
X141115184Y-78866666D01*
X141115184Y-78866666D02*
X141115184Y-79057142D01*
X141115184Y-79057142D02*
X141162803Y-79152380D01*
X141734232Y-78723809D02*
X141781851Y-78819047D01*
X141781851Y-78819047D02*
X141781851Y-79057142D01*
X141781851Y-79057142D02*
X141734232Y-79152380D01*
X141734232Y-79152380D02*
X141638993Y-79199999D01*
X141638993Y-79199999D02*
X141543755Y-79199999D01*
X141543755Y-79199999D02*
X141448517Y-79152380D01*
X141448517Y-79152380D02*
X141400898Y-79057142D01*
X141400898Y-79057142D02*
X141400898Y-78819047D01*
X141400898Y-78819047D02*
X141353279Y-78723809D01*
X141115184Y-78390475D02*
X141115184Y-78009523D01*
X140781851Y-78247618D02*
X141638993Y-78247618D01*
X141638993Y-78247618D02*
X141734232Y-78199999D01*
X141734232Y-78199999D02*
X141781851Y-78104761D01*
X141781851Y-78104761D02*
X141781851Y-78009523D01*
X141781851Y-77247618D02*
X141258041Y-77247618D01*
X141258041Y-77247618D02*
X141162803Y-77295237D01*
X141162803Y-77295237D02*
X141115184Y-77390475D01*
X141115184Y-77390475D02*
X141115184Y-77580951D01*
X141115184Y-77580951D02*
X141162803Y-77676189D01*
X141734232Y-77247618D02*
X141781851Y-77342856D01*
X141781851Y-77342856D02*
X141781851Y-77580951D01*
X141781851Y-77580951D02*
X141734232Y-77676189D01*
X141734232Y-77676189D02*
X141638993Y-77723808D01*
X141638993Y-77723808D02*
X141543755Y-77723808D01*
X141543755Y-77723808D02*
X141448517Y-77676189D01*
X141448517Y-77676189D02*
X141400898Y-77580951D01*
X141400898Y-77580951D02*
X141400898Y-77342856D01*
X141400898Y-77342856D02*
X141353279Y-77247618D01*
X140611851Y-74788972D02*
X141611851Y-74455639D01*
X141611851Y-74455639D02*
X140611851Y-74122306D01*
X141611851Y-73360401D02*
X140611851Y-73360401D01*
X141564232Y-73360401D02*
X141611851Y-73455639D01*
X141611851Y-73455639D02*
X141611851Y-73646115D01*
X141611851Y-73646115D02*
X141564232Y-73741353D01*
X141564232Y-73741353D02*
X141516612Y-73788972D01*
X141516612Y-73788972D02*
X141421374Y-73836591D01*
X141421374Y-73836591D02*
X141135660Y-73836591D01*
X141135660Y-73836591D02*
X141040422Y-73788972D01*
X141040422Y-73788972D02*
X140992803Y-73741353D01*
X140992803Y-73741353D02*
X140945184Y-73646115D01*
X140945184Y-73646115D02*
X140945184Y-73455639D01*
X140945184Y-73455639D02*
X140992803Y-73360401D01*
X141611851Y-72455639D02*
X140611851Y-72455639D01*
X141564232Y-72455639D02*
X141611851Y-72550877D01*
X141611851Y-72550877D02*
X141611851Y-72741353D01*
X141611851Y-72741353D02*
X141564232Y-72836591D01*
X141564232Y-72836591D02*
X141516612Y-72884210D01*
X141516612Y-72884210D02*
X141421374Y-72931829D01*
X141421374Y-72931829D02*
X141135660Y-72931829D01*
X141135660Y-72931829D02*
X141040422Y-72884210D01*
X141040422Y-72884210D02*
X140992803Y-72836591D01*
X140992803Y-72836591D02*
X140945184Y-72741353D01*
X140945184Y-72741353D02*
X140945184Y-72550877D01*
X140945184Y-72550877D02*
X140992803Y-72455639D01*
X76611851Y-88788972D02*
X77611851Y-88455639D01*
X77611851Y-88455639D02*
X76611851Y-88122306D01*
X77611851Y-87360401D02*
X76611851Y-87360401D01*
X77564232Y-87360401D02*
X77611851Y-87455639D01*
X77611851Y-87455639D02*
X77611851Y-87646115D01*
X77611851Y-87646115D02*
X77564232Y-87741353D01*
X77564232Y-87741353D02*
X77516612Y-87788972D01*
X77516612Y-87788972D02*
X77421374Y-87836591D01*
X77421374Y-87836591D02*
X77135660Y-87836591D01*
X77135660Y-87836591D02*
X77040422Y-87788972D01*
X77040422Y-87788972D02*
X76992803Y-87741353D01*
X76992803Y-87741353D02*
X76945184Y-87646115D01*
X76945184Y-87646115D02*
X76945184Y-87455639D01*
X76945184Y-87455639D02*
X76992803Y-87360401D01*
X77611851Y-86455639D02*
X76611851Y-86455639D01*
X77564232Y-86455639D02*
X77611851Y-86550877D01*
X77611851Y-86550877D02*
X77611851Y-86741353D01*
X77611851Y-86741353D02*
X77564232Y-86836591D01*
X77564232Y-86836591D02*
X77516612Y-86884210D01*
X77516612Y-86884210D02*
X77421374Y-86931829D01*
X77421374Y-86931829D02*
X77135660Y-86931829D01*
X77135660Y-86931829D02*
X77040422Y-86884210D01*
X77040422Y-86884210D02*
X76992803Y-86836591D01*
X76992803Y-86836591D02*
X76945184Y-86741353D01*
X76945184Y-86741353D02*
X76945184Y-86550877D01*
X76945184Y-86550877D02*
X76992803Y-86455639D01*
X77611851Y-83646115D02*
X76611851Y-83646115D01*
X76611851Y-83646115D02*
X76611851Y-83408020D01*
X76611851Y-83408020D02*
X76659470Y-83265163D01*
X76659470Y-83265163D02*
X76754708Y-83169925D01*
X76754708Y-83169925D02*
X76849946Y-83122306D01*
X76849946Y-83122306D02*
X77040422Y-83074687D01*
X77040422Y-83074687D02*
X77183279Y-83074687D01*
X77183279Y-83074687D02*
X77373755Y-83122306D01*
X77373755Y-83122306D02*
X77468993Y-83169925D01*
X77468993Y-83169925D02*
X77564232Y-83265163D01*
X77564232Y-83265163D02*
X77611851Y-83408020D01*
X77611851Y-83408020D02*
X77611851Y-83646115D01*
X77611851Y-82217544D02*
X77088041Y-82217544D01*
X77088041Y-82217544D02*
X76992803Y-82265163D01*
X76992803Y-82265163D02*
X76945184Y-82360401D01*
X76945184Y-82360401D02*
X76945184Y-82550877D01*
X76945184Y-82550877D02*
X76992803Y-82646115D01*
X77564232Y-82217544D02*
X77611851Y-82312782D01*
X77611851Y-82312782D02*
X77611851Y-82550877D01*
X77611851Y-82550877D02*
X77564232Y-82646115D01*
X77564232Y-82646115D02*
X77468993Y-82693734D01*
X77468993Y-82693734D02*
X77373755Y-82693734D01*
X77373755Y-82693734D02*
X77278517Y-82646115D01*
X77278517Y-82646115D02*
X77230898Y-82550877D01*
X77230898Y-82550877D02*
X77230898Y-82312782D01*
X77230898Y-82312782D02*
X77183279Y-82217544D01*
X76945184Y-81884210D02*
X76945184Y-81503258D01*
X76611851Y-81741353D02*
X77468993Y-81741353D01*
X77468993Y-81741353D02*
X77564232Y-81693734D01*
X77564232Y-81693734D02*
X77611851Y-81598496D01*
X77611851Y-81598496D02*
X77611851Y-81503258D01*
X77611851Y-80741353D02*
X77088041Y-80741353D01*
X77088041Y-80741353D02*
X76992803Y-80788972D01*
X76992803Y-80788972D02*
X76945184Y-80884210D01*
X76945184Y-80884210D02*
X76945184Y-81074686D01*
X76945184Y-81074686D02*
X76992803Y-81169924D01*
X77564232Y-80741353D02*
X77611851Y-80836591D01*
X77611851Y-80836591D02*
X77611851Y-81074686D01*
X77611851Y-81074686D02*
X77564232Y-81169924D01*
X77564232Y-81169924D02*
X77468993Y-81217543D01*
X77468993Y-81217543D02*
X77373755Y-81217543D01*
X77373755Y-81217543D02*
X77278517Y-81169924D01*
X77278517Y-81169924D02*
X77230898Y-81074686D01*
X77230898Y-81074686D02*
X77230898Y-80836591D01*
X77230898Y-80836591D02*
X77183279Y-80741353D01*
X77611851Y-94169925D02*
X77611851Y-94646115D01*
X77611851Y-94646115D02*
X76611851Y-94646115D01*
X77088041Y-93836591D02*
X77088041Y-93503258D01*
X77611851Y-93360401D02*
X77611851Y-93836591D01*
X77611851Y-93836591D02*
X76611851Y-93836591D01*
X76611851Y-93836591D02*
X76611851Y-93360401D01*
X77611851Y-92931829D02*
X76611851Y-92931829D01*
X76611851Y-92931829D02*
X76611851Y-92693734D01*
X76611851Y-92693734D02*
X76659470Y-92550877D01*
X76659470Y-92550877D02*
X76754708Y-92455639D01*
X76754708Y-92455639D02*
X76849946Y-92408020D01*
X76849946Y-92408020D02*
X77040422Y-92360401D01*
X77040422Y-92360401D02*
X77183279Y-92360401D01*
X77183279Y-92360401D02*
X77373755Y-92408020D01*
X77373755Y-92408020D02*
X77468993Y-92455639D01*
X77468993Y-92455639D02*
X77564232Y-92550877D01*
X77564232Y-92550877D02*
X77611851Y-92693734D01*
X77611851Y-92693734D02*
X77611851Y-92931829D01*
X76659470Y-99872306D02*
X76611851Y-99967544D01*
X76611851Y-99967544D02*
X76611851Y-100110401D01*
X76611851Y-100110401D02*
X76659470Y-100253258D01*
X76659470Y-100253258D02*
X76754708Y-100348496D01*
X76754708Y-100348496D02*
X76849946Y-100396115D01*
X76849946Y-100396115D02*
X77040422Y-100443734D01*
X77040422Y-100443734D02*
X77183279Y-100443734D01*
X77183279Y-100443734D02*
X77373755Y-100396115D01*
X77373755Y-100396115D02*
X77468993Y-100348496D01*
X77468993Y-100348496D02*
X77564232Y-100253258D01*
X77564232Y-100253258D02*
X77611851Y-100110401D01*
X77611851Y-100110401D02*
X77611851Y-100015163D01*
X77611851Y-100015163D02*
X77564232Y-99872306D01*
X77564232Y-99872306D02*
X77516612Y-99824687D01*
X77516612Y-99824687D02*
X77183279Y-99824687D01*
X77183279Y-99824687D02*
X77183279Y-100015163D01*
X77611851Y-99396115D02*
X76611851Y-99396115D01*
X76611851Y-99396115D02*
X77611851Y-98824687D01*
X77611851Y-98824687D02*
X76611851Y-98824687D01*
X77611851Y-98348496D02*
X76611851Y-98348496D01*
X76611851Y-98348496D02*
X76611851Y-98110401D01*
X76611851Y-98110401D02*
X76659470Y-97967544D01*
X76659470Y-97967544D02*
X76754708Y-97872306D01*
X76754708Y-97872306D02*
X76849946Y-97824687D01*
X76849946Y-97824687D02*
X77040422Y-97777068D01*
X77040422Y-97777068D02*
X77183279Y-97777068D01*
X77183279Y-97777068D02*
X77373755Y-97824687D01*
X77373755Y-97824687D02*
X77468993Y-97872306D01*
X77468993Y-97872306D02*
X77564232Y-97967544D01*
X77564232Y-97967544D02*
X77611851Y-98110401D01*
X77611851Y-98110401D02*
X77611851Y-98348496D01*
X76909470Y-77872306D02*
X76861851Y-77967544D01*
X76861851Y-77967544D02*
X76861851Y-78110401D01*
X76861851Y-78110401D02*
X76909470Y-78253258D01*
X76909470Y-78253258D02*
X77004708Y-78348496D01*
X77004708Y-78348496D02*
X77099946Y-78396115D01*
X77099946Y-78396115D02*
X77290422Y-78443734D01*
X77290422Y-78443734D02*
X77433279Y-78443734D01*
X77433279Y-78443734D02*
X77623755Y-78396115D01*
X77623755Y-78396115D02*
X77718993Y-78348496D01*
X77718993Y-78348496D02*
X77814232Y-78253258D01*
X77814232Y-78253258D02*
X77861851Y-78110401D01*
X77861851Y-78110401D02*
X77861851Y-78015163D01*
X77861851Y-78015163D02*
X77814232Y-77872306D01*
X77814232Y-77872306D02*
X77766612Y-77824687D01*
X77766612Y-77824687D02*
X77433279Y-77824687D01*
X77433279Y-77824687D02*
X77433279Y-78015163D01*
X77861851Y-77396115D02*
X76861851Y-77396115D01*
X76861851Y-77396115D02*
X77861851Y-76824687D01*
X77861851Y-76824687D02*
X76861851Y-76824687D01*
X77861851Y-76348496D02*
X76861851Y-76348496D01*
X76861851Y-76348496D02*
X76861851Y-76110401D01*
X76861851Y-76110401D02*
X76909470Y-75967544D01*
X76909470Y-75967544D02*
X77004708Y-75872306D01*
X77004708Y-75872306D02*
X77099946Y-75824687D01*
X77099946Y-75824687D02*
X77290422Y-75777068D01*
X77290422Y-75777068D02*
X77433279Y-75777068D01*
X77433279Y-75777068D02*
X77623755Y-75824687D01*
X77623755Y-75824687D02*
X77718993Y-75872306D01*
X77718993Y-75872306D02*
X77814232Y-75967544D01*
X77814232Y-75967544D02*
X77861851Y-76110401D01*
X77861851Y-76110401D02*
X77861851Y-76348496D01*
X77611851Y-67396115D02*
X76611851Y-67396115D01*
X76611851Y-67396115D02*
X76611851Y-67158020D01*
X76611851Y-67158020D02*
X76659470Y-67015163D01*
X76659470Y-67015163D02*
X76754708Y-66919925D01*
X76754708Y-66919925D02*
X76849946Y-66872306D01*
X76849946Y-66872306D02*
X77040422Y-66824687D01*
X77040422Y-66824687D02*
X77183279Y-66824687D01*
X77183279Y-66824687D02*
X77373755Y-66872306D01*
X77373755Y-66872306D02*
X77468993Y-66919925D01*
X77468993Y-66919925D02*
X77564232Y-67015163D01*
X77564232Y-67015163D02*
X77611851Y-67158020D01*
X77611851Y-67158020D02*
X77611851Y-67396115D01*
X77611851Y-65967544D02*
X77088041Y-65967544D01*
X77088041Y-65967544D02*
X76992803Y-66015163D01*
X76992803Y-66015163D02*
X76945184Y-66110401D01*
X76945184Y-66110401D02*
X76945184Y-66300877D01*
X76945184Y-66300877D02*
X76992803Y-66396115D01*
X77564232Y-65967544D02*
X77611851Y-66062782D01*
X77611851Y-66062782D02*
X77611851Y-66300877D01*
X77611851Y-66300877D02*
X77564232Y-66396115D01*
X77564232Y-66396115D02*
X77468993Y-66443734D01*
X77468993Y-66443734D02*
X77373755Y-66443734D01*
X77373755Y-66443734D02*
X77278517Y-66396115D01*
X77278517Y-66396115D02*
X77230898Y-66300877D01*
X77230898Y-66300877D02*
X77230898Y-66062782D01*
X77230898Y-66062782D02*
X77183279Y-65967544D01*
X76945184Y-65634210D02*
X76945184Y-65253258D01*
X76611851Y-65491353D02*
X77468993Y-65491353D01*
X77468993Y-65491353D02*
X77564232Y-65443734D01*
X77564232Y-65443734D02*
X77611851Y-65348496D01*
X77611851Y-65348496D02*
X77611851Y-65253258D01*
X77611851Y-64491353D02*
X77088041Y-64491353D01*
X77088041Y-64491353D02*
X76992803Y-64538972D01*
X76992803Y-64538972D02*
X76945184Y-64634210D01*
X76945184Y-64634210D02*
X76945184Y-64824686D01*
X76945184Y-64824686D02*
X76992803Y-64919924D01*
X77564232Y-64491353D02*
X77611851Y-64586591D01*
X77611851Y-64586591D02*
X77611851Y-64824686D01*
X77611851Y-64824686D02*
X77564232Y-64919924D01*
X77564232Y-64919924D02*
X77468993Y-64967543D01*
X77468993Y-64967543D02*
X77373755Y-64967543D01*
X77373755Y-64967543D02*
X77278517Y-64919924D01*
X77278517Y-64919924D02*
X77230898Y-64824686D01*
X77230898Y-64824686D02*
X77230898Y-64586591D01*
X77230898Y-64586591D02*
X77183279Y-64491353D01*
X76659470Y-72122306D02*
X76611851Y-72217544D01*
X76611851Y-72217544D02*
X76611851Y-72360401D01*
X76611851Y-72360401D02*
X76659470Y-72503258D01*
X76659470Y-72503258D02*
X76754708Y-72598496D01*
X76754708Y-72598496D02*
X76849946Y-72646115D01*
X76849946Y-72646115D02*
X77040422Y-72693734D01*
X77040422Y-72693734D02*
X77183279Y-72693734D01*
X77183279Y-72693734D02*
X77373755Y-72646115D01*
X77373755Y-72646115D02*
X77468993Y-72598496D01*
X77468993Y-72598496D02*
X77564232Y-72503258D01*
X77564232Y-72503258D02*
X77611851Y-72360401D01*
X77611851Y-72360401D02*
X77611851Y-72265163D01*
X77611851Y-72265163D02*
X77564232Y-72122306D01*
X77564232Y-72122306D02*
X77516612Y-72074687D01*
X77516612Y-72074687D02*
X77183279Y-72074687D01*
X77183279Y-72074687D02*
X77183279Y-72265163D01*
X77611851Y-71646115D02*
X76611851Y-71646115D01*
X76611851Y-71646115D02*
X77611851Y-71074687D01*
X77611851Y-71074687D02*
X76611851Y-71074687D01*
X77611851Y-70598496D02*
X76611851Y-70598496D01*
X76611851Y-70598496D02*
X76611851Y-70360401D01*
X76611851Y-70360401D02*
X76659470Y-70217544D01*
X76659470Y-70217544D02*
X76754708Y-70122306D01*
X76754708Y-70122306D02*
X76849946Y-70074687D01*
X76849946Y-70074687D02*
X77040422Y-70027068D01*
X77040422Y-70027068D02*
X77183279Y-70027068D01*
X77183279Y-70027068D02*
X77373755Y-70074687D01*
X77373755Y-70074687D02*
X77468993Y-70122306D01*
X77468993Y-70122306D02*
X77564232Y-70217544D01*
X77564232Y-70217544D02*
X77611851Y-70360401D01*
X77611851Y-70360401D02*
X77611851Y-70598496D01*
X64545184Y-72291353D02*
X65211851Y-72100877D01*
X65211851Y-72100877D02*
X64735660Y-71910401D01*
X64735660Y-71910401D02*
X65211851Y-71719925D01*
X65211851Y-71719925D02*
X64545184Y-71529449D01*
X65211851Y-70719925D02*
X64688041Y-70719925D01*
X64688041Y-70719925D02*
X64592803Y-70767544D01*
X64592803Y-70767544D02*
X64545184Y-70862782D01*
X64545184Y-70862782D02*
X64545184Y-71053258D01*
X64545184Y-71053258D02*
X64592803Y-71148496D01*
X65164232Y-70719925D02*
X65211851Y-70815163D01*
X65211851Y-70815163D02*
X65211851Y-71053258D01*
X65211851Y-71053258D02*
X65164232Y-71148496D01*
X65164232Y-71148496D02*
X65068993Y-71196115D01*
X65068993Y-71196115D02*
X64973755Y-71196115D01*
X64973755Y-71196115D02*
X64878517Y-71148496D01*
X64878517Y-71148496D02*
X64830898Y-71053258D01*
X64830898Y-71053258D02*
X64830898Y-70815163D01*
X64830898Y-70815163D02*
X64783279Y-70719925D01*
X64545184Y-70386591D02*
X64545184Y-70005639D01*
X64211851Y-70243734D02*
X65068993Y-70243734D01*
X65068993Y-70243734D02*
X65164232Y-70196115D01*
X65164232Y-70196115D02*
X65211851Y-70100877D01*
X65211851Y-70100877D02*
X65211851Y-70005639D01*
X65164232Y-69291353D02*
X65211851Y-69386591D01*
X65211851Y-69386591D02*
X65211851Y-69577067D01*
X65211851Y-69577067D02*
X65164232Y-69672305D01*
X65164232Y-69672305D02*
X65068993Y-69719924D01*
X65068993Y-69719924D02*
X64688041Y-69719924D01*
X64688041Y-69719924D02*
X64592803Y-69672305D01*
X64592803Y-69672305D02*
X64545184Y-69577067D01*
X64545184Y-69577067D02*
X64545184Y-69386591D01*
X64545184Y-69386591D02*
X64592803Y-69291353D01*
X64592803Y-69291353D02*
X64688041Y-69243734D01*
X64688041Y-69243734D02*
X64783279Y-69243734D01*
X64783279Y-69243734D02*
X64878517Y-69719924D01*
X65211851Y-68815162D02*
X64545184Y-68815162D01*
X64735660Y-68815162D02*
X64640422Y-68767543D01*
X64640422Y-68767543D02*
X64592803Y-68719924D01*
X64592803Y-68719924D02*
X64545184Y-68624686D01*
X64545184Y-68624686D02*
X64545184Y-68529448D01*
X65211851Y-67291352D02*
X65164232Y-67386590D01*
X65164232Y-67386590D02*
X65068993Y-67434209D01*
X65068993Y-67434209D02*
X64211851Y-67434209D01*
X65164232Y-66529447D02*
X65211851Y-66624685D01*
X65211851Y-66624685D02*
X65211851Y-66815161D01*
X65211851Y-66815161D02*
X65164232Y-66910399D01*
X65164232Y-66910399D02*
X65068993Y-66958018D01*
X65068993Y-66958018D02*
X64688041Y-66958018D01*
X64688041Y-66958018D02*
X64592803Y-66910399D01*
X64592803Y-66910399D02*
X64545184Y-66815161D01*
X64545184Y-66815161D02*
X64545184Y-66624685D01*
X64545184Y-66624685D02*
X64592803Y-66529447D01*
X64592803Y-66529447D02*
X64688041Y-66481828D01*
X64688041Y-66481828D02*
X64783279Y-66481828D01*
X64783279Y-66481828D02*
X64878517Y-66958018D01*
X64545184Y-66148494D02*
X65211851Y-65910399D01*
X65211851Y-65910399D02*
X64545184Y-65672304D01*
X65164232Y-64910399D02*
X65211851Y-65005637D01*
X65211851Y-65005637D02*
X65211851Y-65196113D01*
X65211851Y-65196113D02*
X65164232Y-65291351D01*
X65164232Y-65291351D02*
X65068993Y-65338970D01*
X65068993Y-65338970D02*
X64688041Y-65338970D01*
X64688041Y-65338970D02*
X64592803Y-65291351D01*
X64592803Y-65291351D02*
X64545184Y-65196113D01*
X64545184Y-65196113D02*
X64545184Y-65005637D01*
X64545184Y-65005637D02*
X64592803Y-64910399D01*
X64592803Y-64910399D02*
X64688041Y-64862780D01*
X64688041Y-64862780D02*
X64783279Y-64862780D01*
X64783279Y-64862780D02*
X64878517Y-65338970D01*
X65211851Y-64291351D02*
X65164232Y-64386589D01*
X65164232Y-64386589D02*
X65068993Y-64434208D01*
X65068993Y-64434208D02*
X64211851Y-64434208D01*
X65511851Y-96719925D02*
X65511851Y-97196115D01*
X65511851Y-97196115D02*
X64511851Y-97196115D01*
X64988041Y-96386591D02*
X64988041Y-96053258D01*
X65511851Y-95910401D02*
X65511851Y-96386591D01*
X65511851Y-96386591D02*
X64511851Y-96386591D01*
X64511851Y-96386591D02*
X64511851Y-95910401D01*
X65511851Y-95481829D02*
X64511851Y-95481829D01*
X64511851Y-95481829D02*
X64511851Y-95243734D01*
X64511851Y-95243734D02*
X64559470Y-95100877D01*
X64559470Y-95100877D02*
X64654708Y-95005639D01*
X64654708Y-95005639D02*
X64749946Y-94958020D01*
X64749946Y-94958020D02*
X64940422Y-94910401D01*
X64940422Y-94910401D02*
X65083279Y-94910401D01*
X65083279Y-94910401D02*
X65273755Y-94958020D01*
X65273755Y-94958020D02*
X65368993Y-95005639D01*
X65368993Y-95005639D02*
X65464232Y-95100877D01*
X65464232Y-95100877D02*
X65511851Y-95243734D01*
X65511851Y-95243734D02*
X65511851Y-95481829D01*
X65564232Y-88943734D02*
X65611851Y-88800877D01*
X65611851Y-88800877D02*
X65611851Y-88562782D01*
X65611851Y-88562782D02*
X65564232Y-88467544D01*
X65564232Y-88467544D02*
X65516612Y-88419925D01*
X65516612Y-88419925D02*
X65421374Y-88372306D01*
X65421374Y-88372306D02*
X65326136Y-88372306D01*
X65326136Y-88372306D02*
X65230898Y-88419925D01*
X65230898Y-88419925D02*
X65183279Y-88467544D01*
X65183279Y-88467544D02*
X65135660Y-88562782D01*
X65135660Y-88562782D02*
X65088041Y-88753258D01*
X65088041Y-88753258D02*
X65040422Y-88848496D01*
X65040422Y-88848496D02*
X64992803Y-88896115D01*
X64992803Y-88896115D02*
X64897565Y-88943734D01*
X64897565Y-88943734D02*
X64802327Y-88943734D01*
X64802327Y-88943734D02*
X64707089Y-88896115D01*
X64707089Y-88896115D02*
X64659470Y-88848496D01*
X64659470Y-88848496D02*
X64611851Y-88753258D01*
X64611851Y-88753258D02*
X64611851Y-88515163D01*
X64611851Y-88515163D02*
X64659470Y-88372306D01*
X65611851Y-87800877D02*
X65564232Y-87896115D01*
X65564232Y-87896115D02*
X65516612Y-87943734D01*
X65516612Y-87943734D02*
X65421374Y-87991353D01*
X65421374Y-87991353D02*
X65135660Y-87991353D01*
X65135660Y-87991353D02*
X65040422Y-87943734D01*
X65040422Y-87943734D02*
X64992803Y-87896115D01*
X64992803Y-87896115D02*
X64945184Y-87800877D01*
X64945184Y-87800877D02*
X64945184Y-87658020D01*
X64945184Y-87658020D02*
X64992803Y-87562782D01*
X64992803Y-87562782D02*
X65040422Y-87515163D01*
X65040422Y-87515163D02*
X65135660Y-87467544D01*
X65135660Y-87467544D02*
X65421374Y-87467544D01*
X65421374Y-87467544D02*
X65516612Y-87515163D01*
X65516612Y-87515163D02*
X65564232Y-87562782D01*
X65564232Y-87562782D02*
X65611851Y-87658020D01*
X65611851Y-87658020D02*
X65611851Y-87800877D01*
X65611851Y-87038972D02*
X64945184Y-87038972D01*
X64611851Y-87038972D02*
X64659470Y-87086591D01*
X64659470Y-87086591D02*
X64707089Y-87038972D01*
X64707089Y-87038972D02*
X64659470Y-86991353D01*
X64659470Y-86991353D02*
X64611851Y-87038972D01*
X64611851Y-87038972D02*
X64707089Y-87038972D01*
X65611851Y-86419925D02*
X65564232Y-86515163D01*
X65564232Y-86515163D02*
X65468993Y-86562782D01*
X65468993Y-86562782D02*
X64611851Y-86562782D01*
X64945184Y-85419924D02*
X64945184Y-85038972D01*
X64611851Y-85277067D02*
X65468993Y-85277067D01*
X65468993Y-85277067D02*
X65564232Y-85229448D01*
X65564232Y-85229448D02*
X65611851Y-85134210D01*
X65611851Y-85134210D02*
X65611851Y-85038972D01*
X65564232Y-84324686D02*
X65611851Y-84419924D01*
X65611851Y-84419924D02*
X65611851Y-84610400D01*
X65611851Y-84610400D02*
X65564232Y-84705638D01*
X65564232Y-84705638D02*
X65468993Y-84753257D01*
X65468993Y-84753257D02*
X65088041Y-84753257D01*
X65088041Y-84753257D02*
X64992803Y-84705638D01*
X64992803Y-84705638D02*
X64945184Y-84610400D01*
X64945184Y-84610400D02*
X64945184Y-84419924D01*
X64945184Y-84419924D02*
X64992803Y-84324686D01*
X64992803Y-84324686D02*
X65088041Y-84277067D01*
X65088041Y-84277067D02*
X65183279Y-84277067D01*
X65183279Y-84277067D02*
X65278517Y-84753257D01*
X65611851Y-83848495D02*
X64945184Y-83848495D01*
X65040422Y-83848495D02*
X64992803Y-83800876D01*
X64992803Y-83800876D02*
X64945184Y-83705638D01*
X64945184Y-83705638D02*
X64945184Y-83562781D01*
X64945184Y-83562781D02*
X64992803Y-83467543D01*
X64992803Y-83467543D02*
X65088041Y-83419924D01*
X65088041Y-83419924D02*
X65611851Y-83419924D01*
X65088041Y-83419924D02*
X64992803Y-83372305D01*
X64992803Y-83372305D02*
X64945184Y-83277067D01*
X64945184Y-83277067D02*
X64945184Y-83134210D01*
X64945184Y-83134210D02*
X64992803Y-83038971D01*
X64992803Y-83038971D02*
X65088041Y-82991352D01*
X65088041Y-82991352D02*
X65611851Y-82991352D01*
X64945184Y-82515162D02*
X65945184Y-82515162D01*
X64992803Y-82515162D02*
X64945184Y-82419924D01*
X64945184Y-82419924D02*
X64945184Y-82229448D01*
X64945184Y-82229448D02*
X64992803Y-82134210D01*
X64992803Y-82134210D02*
X65040422Y-82086591D01*
X65040422Y-82086591D02*
X65135660Y-82038972D01*
X65135660Y-82038972D02*
X65421374Y-82038972D01*
X65421374Y-82038972D02*
X65516612Y-82086591D01*
X65516612Y-82086591D02*
X65564232Y-82134210D01*
X65564232Y-82134210D02*
X65611851Y-82229448D01*
X65611851Y-82229448D02*
X65611851Y-82419924D01*
X65611851Y-82419924D02*
X65564232Y-82515162D01*
X65611851Y-81181829D02*
X65088041Y-81181829D01*
X65088041Y-81181829D02*
X64992803Y-81229448D01*
X64992803Y-81229448D02*
X64945184Y-81324686D01*
X64945184Y-81324686D02*
X64945184Y-81515162D01*
X64945184Y-81515162D02*
X64992803Y-81610400D01*
X65564232Y-81181829D02*
X65611851Y-81277067D01*
X65611851Y-81277067D02*
X65611851Y-81515162D01*
X65611851Y-81515162D02*
X65564232Y-81610400D01*
X65564232Y-81610400D02*
X65468993Y-81658019D01*
X65468993Y-81658019D02*
X65373755Y-81658019D01*
X65373755Y-81658019D02*
X65278517Y-81610400D01*
X65278517Y-81610400D02*
X65230898Y-81515162D01*
X65230898Y-81515162D02*
X65230898Y-81277067D01*
X65230898Y-81277067D02*
X65183279Y-81181829D01*
X64945184Y-80848495D02*
X64945184Y-80467543D01*
X64611851Y-80705638D02*
X65468993Y-80705638D01*
X65468993Y-80705638D02*
X65564232Y-80658019D01*
X65564232Y-80658019D02*
X65611851Y-80562781D01*
X65611851Y-80562781D02*
X65611851Y-80467543D01*
X64945184Y-79705638D02*
X65611851Y-79705638D01*
X64945184Y-80134209D02*
X65468993Y-80134209D01*
X65468993Y-80134209D02*
X65564232Y-80086590D01*
X65564232Y-80086590D02*
X65611851Y-79991352D01*
X65611851Y-79991352D02*
X65611851Y-79848495D01*
X65611851Y-79848495D02*
X65564232Y-79753257D01*
X65564232Y-79753257D02*
X65516612Y-79705638D01*
X65611851Y-79229447D02*
X64945184Y-79229447D01*
X65135660Y-79229447D02*
X65040422Y-79181828D01*
X65040422Y-79181828D02*
X64992803Y-79134209D01*
X64992803Y-79134209D02*
X64945184Y-79038971D01*
X64945184Y-79038971D02*
X64945184Y-78943733D01*
X65564232Y-78229447D02*
X65611851Y-78324685D01*
X65611851Y-78324685D02*
X65611851Y-78515161D01*
X65611851Y-78515161D02*
X65564232Y-78610399D01*
X65564232Y-78610399D02*
X65468993Y-78658018D01*
X65468993Y-78658018D02*
X65088041Y-78658018D01*
X65088041Y-78658018D02*
X64992803Y-78610399D01*
X64992803Y-78610399D02*
X64945184Y-78515161D01*
X64945184Y-78515161D02*
X64945184Y-78324685D01*
X64945184Y-78324685D02*
X64992803Y-78229447D01*
X64992803Y-78229447D02*
X65088041Y-78181828D01*
X65088041Y-78181828D02*
X65183279Y-78181828D01*
X65183279Y-78181828D02*
X65278517Y-78658018D01*
X64945184Y-109896115D02*
X65945184Y-109896115D01*
X64992803Y-109896115D02*
X64945184Y-109800877D01*
X64945184Y-109800877D02*
X64945184Y-109610401D01*
X64945184Y-109610401D02*
X64992803Y-109515163D01*
X64992803Y-109515163D02*
X65040422Y-109467544D01*
X65040422Y-109467544D02*
X65135660Y-109419925D01*
X65135660Y-109419925D02*
X65421374Y-109419925D01*
X65421374Y-109419925D02*
X65516612Y-109467544D01*
X65516612Y-109467544D02*
X65564232Y-109515163D01*
X65564232Y-109515163D02*
X65611851Y-109610401D01*
X65611851Y-109610401D02*
X65611851Y-109800877D01*
X65611851Y-109800877D02*
X65564232Y-109896115D01*
X64945184Y-108562782D02*
X65611851Y-108562782D01*
X64945184Y-108991353D02*
X65468993Y-108991353D01*
X65468993Y-108991353D02*
X65564232Y-108943734D01*
X65564232Y-108943734D02*
X65611851Y-108848496D01*
X65611851Y-108848496D02*
X65611851Y-108705639D01*
X65611851Y-108705639D02*
X65564232Y-108610401D01*
X65564232Y-108610401D02*
X65516612Y-108562782D01*
X65611851Y-108086591D02*
X64945184Y-108086591D01*
X65040422Y-108086591D02*
X64992803Y-108038972D01*
X64992803Y-108038972D02*
X64945184Y-107943734D01*
X64945184Y-107943734D02*
X64945184Y-107800877D01*
X64945184Y-107800877D02*
X64992803Y-107705639D01*
X64992803Y-107705639D02*
X65088041Y-107658020D01*
X65088041Y-107658020D02*
X65611851Y-107658020D01*
X65088041Y-107658020D02*
X64992803Y-107610401D01*
X64992803Y-107610401D02*
X64945184Y-107515163D01*
X64945184Y-107515163D02*
X64945184Y-107372306D01*
X64945184Y-107372306D02*
X64992803Y-107277067D01*
X64992803Y-107277067D02*
X65088041Y-107229448D01*
X65088041Y-107229448D02*
X65611851Y-107229448D01*
X64945184Y-106753258D02*
X65945184Y-106753258D01*
X64992803Y-106753258D02*
X64945184Y-106658020D01*
X64945184Y-106658020D02*
X64945184Y-106467544D01*
X64945184Y-106467544D02*
X64992803Y-106372306D01*
X64992803Y-106372306D02*
X65040422Y-106324687D01*
X65040422Y-106324687D02*
X65135660Y-106277068D01*
X65135660Y-106277068D02*
X65421374Y-106277068D01*
X65421374Y-106277068D02*
X65516612Y-106324687D01*
X65516612Y-106324687D02*
X65564232Y-106372306D01*
X65564232Y-106372306D02*
X65611851Y-106467544D01*
X65611851Y-106467544D02*
X65611851Y-106658020D01*
X65611851Y-106658020D02*
X65564232Y-106753258D01*
D11*
X86298595Y-95342238D02*
X86298595Y-93342238D01*
X86298595Y-93342238D02*
X86774785Y-93342238D01*
X86774785Y-93342238D02*
X87060500Y-93437476D01*
X87060500Y-93437476D02*
X87250976Y-93627952D01*
X87250976Y-93627952D02*
X87346214Y-93818428D01*
X87346214Y-93818428D02*
X87441452Y-94199380D01*
X87441452Y-94199380D02*
X87441452Y-94485095D01*
X87441452Y-94485095D02*
X87346214Y-94866047D01*
X87346214Y-94866047D02*
X87250976Y-95056523D01*
X87250976Y-95056523D02*
X87060500Y-95247000D01*
X87060500Y-95247000D02*
X86774785Y-95342238D01*
X86774785Y-95342238D02*
X86298595Y-95342238D01*
X89060500Y-95247000D02*
X88870024Y-95342238D01*
X88870024Y-95342238D02*
X88489071Y-95342238D01*
X88489071Y-95342238D02*
X88298595Y-95247000D01*
X88298595Y-95247000D02*
X88203357Y-95056523D01*
X88203357Y-95056523D02*
X88203357Y-94294619D01*
X88203357Y-94294619D02*
X88298595Y-94104142D01*
X88298595Y-94104142D02*
X88489071Y-94008904D01*
X88489071Y-94008904D02*
X88870024Y-94008904D01*
X88870024Y-94008904D02*
X89060500Y-94104142D01*
X89060500Y-94104142D02*
X89155738Y-94294619D01*
X89155738Y-94294619D02*
X89155738Y-94485095D01*
X89155738Y-94485095D02*
X88203357Y-94675571D01*
X89917643Y-95247000D02*
X90108119Y-95342238D01*
X90108119Y-95342238D02*
X90489071Y-95342238D01*
X90489071Y-95342238D02*
X90679548Y-95247000D01*
X90679548Y-95247000D02*
X90774786Y-95056523D01*
X90774786Y-95056523D02*
X90774786Y-94961285D01*
X90774786Y-94961285D02*
X90679548Y-94770809D01*
X90679548Y-94770809D02*
X90489071Y-94675571D01*
X90489071Y-94675571D02*
X90203357Y-94675571D01*
X90203357Y-94675571D02*
X90012881Y-94580333D01*
X90012881Y-94580333D02*
X89917643Y-94389857D01*
X89917643Y-94389857D02*
X89917643Y-94294619D01*
X89917643Y-94294619D02*
X90012881Y-94104142D01*
X90012881Y-94104142D02*
X90203357Y-94008904D01*
X90203357Y-94008904D02*
X90489071Y-94008904D01*
X90489071Y-94008904D02*
X90679548Y-94104142D01*
X91631929Y-95342238D02*
X91631929Y-94008904D01*
X91631929Y-93342238D02*
X91536691Y-93437476D01*
X91536691Y-93437476D02*
X91631929Y-93532714D01*
X91631929Y-93532714D02*
X91727167Y-93437476D01*
X91727167Y-93437476D02*
X91631929Y-93342238D01*
X91631929Y-93342238D02*
X91631929Y-93532714D01*
X93441453Y-94008904D02*
X93441453Y-95627952D01*
X93441453Y-95627952D02*
X93346215Y-95818428D01*
X93346215Y-95818428D02*
X93250977Y-95913666D01*
X93250977Y-95913666D02*
X93060500Y-96008904D01*
X93060500Y-96008904D02*
X92774786Y-96008904D01*
X92774786Y-96008904D02*
X92584310Y-95913666D01*
X93441453Y-95247000D02*
X93250977Y-95342238D01*
X93250977Y-95342238D02*
X92870024Y-95342238D01*
X92870024Y-95342238D02*
X92679548Y-95247000D01*
X92679548Y-95247000D02*
X92584310Y-95151761D01*
X92584310Y-95151761D02*
X92489072Y-94961285D01*
X92489072Y-94961285D02*
X92489072Y-94389857D01*
X92489072Y-94389857D02*
X92584310Y-94199380D01*
X92584310Y-94199380D02*
X92679548Y-94104142D01*
X92679548Y-94104142D02*
X92870024Y-94008904D01*
X92870024Y-94008904D02*
X93250977Y-94008904D01*
X93250977Y-94008904D02*
X93441453Y-94104142D01*
X94393834Y-94008904D02*
X94393834Y-95342238D01*
X94393834Y-94199380D02*
X94489072Y-94104142D01*
X94489072Y-94104142D02*
X94679548Y-94008904D01*
X94679548Y-94008904D02*
X94965263Y-94008904D01*
X94965263Y-94008904D02*
X95155739Y-94104142D01*
X95155739Y-94104142D02*
X95250977Y-94294619D01*
X95250977Y-94294619D02*
X95250977Y-95342238D01*
X96965263Y-95247000D02*
X96774787Y-95342238D01*
X96774787Y-95342238D02*
X96393834Y-95342238D01*
X96393834Y-95342238D02*
X96203358Y-95247000D01*
X96203358Y-95247000D02*
X96108120Y-95056523D01*
X96108120Y-95056523D02*
X96108120Y-94294619D01*
X96108120Y-94294619D02*
X96203358Y-94104142D01*
X96203358Y-94104142D02*
X96393834Y-94008904D01*
X96393834Y-94008904D02*
X96774787Y-94008904D01*
X96774787Y-94008904D02*
X96965263Y-94104142D01*
X96965263Y-94104142D02*
X97060501Y-94294619D01*
X97060501Y-94294619D02*
X97060501Y-94485095D01*
X97060501Y-94485095D02*
X96108120Y-94675571D01*
X98774787Y-95342238D02*
X98774787Y-93342238D01*
X98774787Y-95247000D02*
X98584311Y-95342238D01*
X98584311Y-95342238D02*
X98203358Y-95342238D01*
X98203358Y-95342238D02*
X98012882Y-95247000D01*
X98012882Y-95247000D02*
X97917644Y-95151761D01*
X97917644Y-95151761D02*
X97822406Y-94961285D01*
X97822406Y-94961285D02*
X97822406Y-94389857D01*
X97822406Y-94389857D02*
X97917644Y-94199380D01*
X97917644Y-94199380D02*
X98012882Y-94104142D01*
X98012882Y-94104142D02*
X98203358Y-94008904D01*
X98203358Y-94008904D02*
X98584311Y-94008904D01*
X98584311Y-94008904D02*
X98774787Y-94104142D01*
X101250978Y-95342238D02*
X101250978Y-94008904D01*
X101250978Y-93342238D02*
X101155740Y-93437476D01*
X101155740Y-93437476D02*
X101250978Y-93532714D01*
X101250978Y-93532714D02*
X101346216Y-93437476D01*
X101346216Y-93437476D02*
X101250978Y-93342238D01*
X101250978Y-93342238D02*
X101250978Y-93532714D01*
X102203359Y-94008904D02*
X102203359Y-95342238D01*
X102203359Y-94199380D02*
X102298597Y-94104142D01*
X102298597Y-94104142D02*
X102489073Y-94008904D01*
X102489073Y-94008904D02*
X102774788Y-94008904D01*
X102774788Y-94008904D02*
X102965264Y-94104142D01*
X102965264Y-94104142D02*
X103060502Y-94294619D01*
X103060502Y-94294619D02*
X103060502Y-95342238D01*
X106203360Y-94294619D02*
X106489074Y-94389857D01*
X106489074Y-94389857D02*
X106584312Y-94485095D01*
X106584312Y-94485095D02*
X106679550Y-94675571D01*
X106679550Y-94675571D02*
X106679550Y-94961285D01*
X106679550Y-94961285D02*
X106584312Y-95151761D01*
X106584312Y-95151761D02*
X106489074Y-95247000D01*
X106489074Y-95247000D02*
X106298598Y-95342238D01*
X106298598Y-95342238D02*
X105536693Y-95342238D01*
X105536693Y-95342238D02*
X105536693Y-93342238D01*
X105536693Y-93342238D02*
X106203360Y-93342238D01*
X106203360Y-93342238D02*
X106393836Y-93437476D01*
X106393836Y-93437476D02*
X106489074Y-93532714D01*
X106489074Y-93532714D02*
X106584312Y-93723190D01*
X106584312Y-93723190D02*
X106584312Y-93913666D01*
X106584312Y-93913666D02*
X106489074Y-94104142D01*
X106489074Y-94104142D02*
X106393836Y-94199380D01*
X106393836Y-94199380D02*
X106203360Y-94294619D01*
X106203360Y-94294619D02*
X105536693Y-94294619D01*
X108393836Y-94008904D02*
X108393836Y-95342238D01*
X107536693Y-94008904D02*
X107536693Y-95056523D01*
X107536693Y-95056523D02*
X107631931Y-95247000D01*
X107631931Y-95247000D02*
X107822407Y-95342238D01*
X107822407Y-95342238D02*
X108108122Y-95342238D01*
X108108122Y-95342238D02*
X108298598Y-95247000D01*
X108298598Y-95247000D02*
X108393836Y-95151761D01*
X110203360Y-95342238D02*
X110203360Y-93342238D01*
X110203360Y-95247000D02*
X110012884Y-95342238D01*
X110012884Y-95342238D02*
X109631931Y-95342238D01*
X109631931Y-95342238D02*
X109441455Y-95247000D01*
X109441455Y-95247000D02*
X109346217Y-95151761D01*
X109346217Y-95151761D02*
X109250979Y-94961285D01*
X109250979Y-94961285D02*
X109250979Y-94389857D01*
X109250979Y-94389857D02*
X109346217Y-94199380D01*
X109346217Y-94199380D02*
X109441455Y-94104142D01*
X109441455Y-94104142D02*
X109631931Y-94008904D01*
X109631931Y-94008904D02*
X110012884Y-94008904D01*
X110012884Y-94008904D02*
X110203360Y-94104142D01*
X112012884Y-95342238D02*
X112012884Y-94294619D01*
X112012884Y-94294619D02*
X111917646Y-94104142D01*
X111917646Y-94104142D02*
X111727170Y-94008904D01*
X111727170Y-94008904D02*
X111346217Y-94008904D01*
X111346217Y-94008904D02*
X111155741Y-94104142D01*
X112012884Y-95247000D02*
X111822408Y-95342238D01*
X111822408Y-95342238D02*
X111346217Y-95342238D01*
X111346217Y-95342238D02*
X111155741Y-95247000D01*
X111155741Y-95247000D02*
X111060503Y-95056523D01*
X111060503Y-95056523D02*
X111060503Y-94866047D01*
X111060503Y-94866047D02*
X111155741Y-94675571D01*
X111155741Y-94675571D02*
X111346217Y-94580333D01*
X111346217Y-94580333D02*
X111822408Y-94580333D01*
X111822408Y-94580333D02*
X112012884Y-94485095D01*
X112965265Y-94008904D02*
X112965265Y-96008904D01*
X112965265Y-94104142D02*
X113155741Y-94008904D01*
X113155741Y-94008904D02*
X113536694Y-94008904D01*
X113536694Y-94008904D02*
X113727170Y-94104142D01*
X113727170Y-94104142D02*
X113822408Y-94199380D01*
X113822408Y-94199380D02*
X113917646Y-94389857D01*
X113917646Y-94389857D02*
X113917646Y-94961285D01*
X113917646Y-94961285D02*
X113822408Y-95151761D01*
X113822408Y-95151761D02*
X113727170Y-95247000D01*
X113727170Y-95247000D02*
X113536694Y-95342238D01*
X113536694Y-95342238D02*
X113155741Y-95342238D01*
X113155741Y-95342238D02*
X112965265Y-95247000D01*
X115536694Y-95247000D02*
X115346218Y-95342238D01*
X115346218Y-95342238D02*
X114965265Y-95342238D01*
X114965265Y-95342238D02*
X114774789Y-95247000D01*
X114774789Y-95247000D02*
X114679551Y-95056523D01*
X114679551Y-95056523D02*
X114679551Y-94294619D01*
X114679551Y-94294619D02*
X114774789Y-94104142D01*
X114774789Y-94104142D02*
X114965265Y-94008904D01*
X114965265Y-94008904D02*
X115346218Y-94008904D01*
X115346218Y-94008904D02*
X115536694Y-94104142D01*
X115536694Y-94104142D02*
X115631932Y-94294619D01*
X115631932Y-94294619D02*
X115631932Y-94485095D01*
X115631932Y-94485095D02*
X114679551Y-94675571D01*
X116393837Y-95247000D02*
X116584313Y-95342238D01*
X116584313Y-95342238D02*
X116965265Y-95342238D01*
X116965265Y-95342238D02*
X117155742Y-95247000D01*
X117155742Y-95247000D02*
X117250980Y-95056523D01*
X117250980Y-95056523D02*
X117250980Y-94961285D01*
X117250980Y-94961285D02*
X117155742Y-94770809D01*
X117155742Y-94770809D02*
X116965265Y-94675571D01*
X116965265Y-94675571D02*
X116679551Y-94675571D01*
X116679551Y-94675571D02*
X116489075Y-94580333D01*
X116489075Y-94580333D02*
X116393837Y-94389857D01*
X116393837Y-94389857D02*
X116393837Y-94294619D01*
X116393837Y-94294619D02*
X116489075Y-94104142D01*
X116489075Y-94104142D02*
X116679551Y-94008904D01*
X116679551Y-94008904D02*
X116965265Y-94008904D01*
X116965265Y-94008904D02*
X117155742Y-94104142D01*
X117822409Y-94008904D02*
X118584313Y-94008904D01*
X118108123Y-93342238D02*
X118108123Y-95056523D01*
X118108123Y-95056523D02*
X118203361Y-95247000D01*
X118203361Y-95247000D02*
X118393837Y-95342238D01*
X118393837Y-95342238D02*
X118584313Y-95342238D01*
D12*
X105574251Y-110190904D02*
X106383774Y-110190904D01*
X106383774Y-110190904D02*
X106479012Y-110143285D01*
X106479012Y-110143285D02*
X106526632Y-110095666D01*
X106526632Y-110095666D02*
X106574251Y-110000428D01*
X106574251Y-110000428D02*
X106574251Y-109809952D01*
X106574251Y-109809952D02*
X106526632Y-109714714D01*
X106526632Y-109714714D02*
X106479012Y-109667095D01*
X106479012Y-109667095D02*
X106383774Y-109619476D01*
X106383774Y-109619476D02*
X105574251Y-109619476D01*
X105669489Y-109190904D02*
X105621870Y-109143285D01*
X105621870Y-109143285D02*
X105574251Y-109048047D01*
X105574251Y-109048047D02*
X105574251Y-108809952D01*
X105574251Y-108809952D02*
X105621870Y-108714714D01*
X105621870Y-108714714D02*
X105669489Y-108667095D01*
X105669489Y-108667095D02*
X105764727Y-108619476D01*
X105764727Y-108619476D02*
X105859965Y-108619476D01*
X105859965Y-108619476D02*
X106002822Y-108667095D01*
X106002822Y-108667095D02*
X106574251Y-109238523D01*
X106574251Y-109238523D02*
X106574251Y-108619476D01*
X109082765Y-123299580D02*
X109035146Y-123347200D01*
X109035146Y-123347200D02*
X108892289Y-123394819D01*
X108892289Y-123394819D02*
X108797051Y-123394819D01*
X108797051Y-123394819D02*
X108654194Y-123347200D01*
X108654194Y-123347200D02*
X108558956Y-123251961D01*
X108558956Y-123251961D02*
X108511337Y-123156723D01*
X108511337Y-123156723D02*
X108463718Y-122966247D01*
X108463718Y-122966247D02*
X108463718Y-122823390D01*
X108463718Y-122823390D02*
X108511337Y-122632914D01*
X108511337Y-122632914D02*
X108558956Y-122537676D01*
X108558956Y-122537676D02*
X108654194Y-122442438D01*
X108654194Y-122442438D02*
X108797051Y-122394819D01*
X108797051Y-122394819D02*
X108892289Y-122394819D01*
X108892289Y-122394819D02*
X109035146Y-122442438D01*
X109035146Y-122442438D02*
X109082765Y-122490057D01*
X109416099Y-122394819D02*
X110035146Y-122394819D01*
X110035146Y-122394819D02*
X109701813Y-122775771D01*
X109701813Y-122775771D02*
X109844670Y-122775771D01*
X109844670Y-122775771D02*
X109939908Y-122823390D01*
X109939908Y-122823390D02*
X109987527Y-122871009D01*
X109987527Y-122871009D02*
X110035146Y-122966247D01*
X110035146Y-122966247D02*
X110035146Y-123204342D01*
X110035146Y-123204342D02*
X109987527Y-123299580D01*
X109987527Y-123299580D02*
X109939908Y-123347200D01*
X109939908Y-123347200D02*
X109844670Y-123394819D01*
X109844670Y-123394819D02*
X109558956Y-123394819D01*
X109558956Y-123394819D02*
X109463718Y-123347200D01*
X109463718Y-123347200D02*
X109416099Y-123299580D01*
X73944251Y-82733333D02*
X74658536Y-82733333D01*
X74658536Y-82733333D02*
X74801393Y-82780952D01*
X74801393Y-82780952D02*
X74896632Y-82876190D01*
X74896632Y-82876190D02*
X74944251Y-83019047D01*
X74944251Y-83019047D02*
X74944251Y-83114285D01*
X74277584Y-81828571D02*
X74944251Y-81828571D01*
X73896632Y-82066666D02*
X74610917Y-82304761D01*
X74610917Y-82304761D02*
X74610917Y-81685714D01*
X105674012Y-102341666D02*
X105721632Y-102389285D01*
X105721632Y-102389285D02*
X105769251Y-102532142D01*
X105769251Y-102532142D02*
X105769251Y-102627380D01*
X105769251Y-102627380D02*
X105721632Y-102770237D01*
X105721632Y-102770237D02*
X105626393Y-102865475D01*
X105626393Y-102865475D02*
X105531155Y-102913094D01*
X105531155Y-102913094D02*
X105340679Y-102960713D01*
X105340679Y-102960713D02*
X105197822Y-102960713D01*
X105197822Y-102960713D02*
X105007346Y-102913094D01*
X105007346Y-102913094D02*
X104912108Y-102865475D01*
X104912108Y-102865475D02*
X104816870Y-102770237D01*
X104816870Y-102770237D02*
X104769251Y-102627380D01*
X104769251Y-102627380D02*
X104769251Y-102532142D01*
X104769251Y-102532142D02*
X104816870Y-102389285D01*
X104816870Y-102389285D02*
X104864489Y-102341666D01*
X104769251Y-101436904D02*
X104769251Y-101913094D01*
X104769251Y-101913094D02*
X105245441Y-101960713D01*
X105245441Y-101960713D02*
X105197822Y-101913094D01*
X105197822Y-101913094D02*
X105150203Y-101817856D01*
X105150203Y-101817856D02*
X105150203Y-101579761D01*
X105150203Y-101579761D02*
X105197822Y-101484523D01*
X105197822Y-101484523D02*
X105245441Y-101436904D01*
X105245441Y-101436904D02*
X105340679Y-101389285D01*
X105340679Y-101389285D02*
X105578774Y-101389285D01*
X105578774Y-101389285D02*
X105674012Y-101436904D01*
X105674012Y-101436904D02*
X105721632Y-101484523D01*
X105721632Y-101484523D02*
X105769251Y-101579761D01*
X105769251Y-101579761D02*
X105769251Y-101817856D01*
X105769251Y-101817856D02*
X105721632Y-101913094D01*
X105721632Y-101913094D02*
X105674012Y-101960713D01*
X117257527Y-85530819D02*
X117257527Y-86340342D01*
X117257527Y-86340342D02*
X117305146Y-86435580D01*
X117305146Y-86435580D02*
X117352765Y-86483200D01*
X117352765Y-86483200D02*
X117448003Y-86530819D01*
X117448003Y-86530819D02*
X117638479Y-86530819D01*
X117638479Y-86530819D02*
X117733717Y-86483200D01*
X117733717Y-86483200D02*
X117781336Y-86435580D01*
X117781336Y-86435580D02*
X117828955Y-86340342D01*
X117828955Y-86340342D02*
X117828955Y-85530819D01*
X118828955Y-86530819D02*
X118257527Y-86530819D01*
X118543241Y-86530819D02*
X118543241Y-85530819D01*
X118543241Y-85530819D02*
X118448003Y-85673676D01*
X118448003Y-85673676D02*
X118352765Y-85768914D01*
X118352765Y-85768914D02*
X118257527Y-85816533D01*
X70466751Y-68933333D02*
X71181036Y-68933333D01*
X71181036Y-68933333D02*
X71323893Y-68980952D01*
X71323893Y-68980952D02*
X71419132Y-69076190D01*
X71419132Y-69076190D02*
X71466751Y-69219047D01*
X71466751Y-69219047D02*
X71466751Y-69314285D01*
X70466751Y-68552380D02*
X70466751Y-67933333D01*
X70466751Y-67933333D02*
X70847703Y-68266666D01*
X70847703Y-68266666D02*
X70847703Y-68123809D01*
X70847703Y-68123809D02*
X70895322Y-68028571D01*
X70895322Y-68028571D02*
X70942941Y-67980952D01*
X70942941Y-67980952D02*
X71038179Y-67933333D01*
X71038179Y-67933333D02*
X71276274Y-67933333D01*
X71276274Y-67933333D02*
X71371512Y-67980952D01*
X71371512Y-67980952D02*
X71419132Y-68028571D01*
X71419132Y-68028571D02*
X71466751Y-68123809D01*
X71466751Y-68123809D02*
X71466751Y-68409523D01*
X71466751Y-68409523D02*
X71419132Y-68504761D01*
X71419132Y-68504761D02*
X71371512Y-68552380D01*
X79606989Y-99224238D02*
X79559370Y-99319476D01*
X79559370Y-99319476D02*
X79464132Y-99414714D01*
X79464132Y-99414714D02*
X79321274Y-99557571D01*
X79321274Y-99557571D02*
X79273655Y-99652809D01*
X79273655Y-99652809D02*
X79273655Y-99748047D01*
X79511751Y-99700428D02*
X79464132Y-99795666D01*
X79464132Y-99795666D02*
X79368893Y-99890904D01*
X79368893Y-99890904D02*
X79178417Y-99938523D01*
X79178417Y-99938523D02*
X78845084Y-99938523D01*
X78845084Y-99938523D02*
X78654608Y-99890904D01*
X78654608Y-99890904D02*
X78559370Y-99795666D01*
X78559370Y-99795666D02*
X78511751Y-99700428D01*
X78511751Y-99700428D02*
X78511751Y-99509952D01*
X78511751Y-99509952D02*
X78559370Y-99414714D01*
X78559370Y-99414714D02*
X78654608Y-99319476D01*
X78654608Y-99319476D02*
X78845084Y-99271857D01*
X78845084Y-99271857D02*
X79178417Y-99271857D01*
X79178417Y-99271857D02*
X79368893Y-99319476D01*
X79368893Y-99319476D02*
X79464132Y-99414714D01*
X79464132Y-99414714D02*
X79511751Y-99509952D01*
X79511751Y-99509952D02*
X79511751Y-99700428D01*
X79511751Y-98319476D02*
X79511751Y-98890904D01*
X79511751Y-98605190D02*
X78511751Y-98605190D01*
X78511751Y-98605190D02*
X78654608Y-98700428D01*
X78654608Y-98700428D02*
X78749846Y-98795666D01*
X78749846Y-98795666D02*
X78797465Y-98890904D01*
X86406098Y-71404819D02*
X86406098Y-72119104D01*
X86406098Y-72119104D02*
X86358479Y-72261961D01*
X86358479Y-72261961D02*
X86263241Y-72357200D01*
X86263241Y-72357200D02*
X86120384Y-72404819D01*
X86120384Y-72404819D02*
X86025146Y-72404819D01*
X87358479Y-71404819D02*
X86882289Y-71404819D01*
X86882289Y-71404819D02*
X86834670Y-71881009D01*
X86834670Y-71881009D02*
X86882289Y-71833390D01*
X86882289Y-71833390D02*
X86977527Y-71785771D01*
X86977527Y-71785771D02*
X87215622Y-71785771D01*
X87215622Y-71785771D02*
X87310860Y-71833390D01*
X87310860Y-71833390D02*
X87358479Y-71881009D01*
X87358479Y-71881009D02*
X87406098Y-71976247D01*
X87406098Y-71976247D02*
X87406098Y-72214342D01*
X87406098Y-72214342D02*
X87358479Y-72309580D01*
X87358479Y-72309580D02*
X87310860Y-72357200D01*
X87310860Y-72357200D02*
X87215622Y-72404819D01*
X87215622Y-72404819D02*
X86977527Y-72404819D01*
X86977527Y-72404819D02*
X86882289Y-72357200D01*
X86882289Y-72357200D02*
X86834670Y-72309580D01*
X108572765Y-98559580D02*
X108525146Y-98607200D01*
X108525146Y-98607200D02*
X108382289Y-98654819D01*
X108382289Y-98654819D02*
X108287051Y-98654819D01*
X108287051Y-98654819D02*
X108144194Y-98607200D01*
X108144194Y-98607200D02*
X108048956Y-98511961D01*
X108048956Y-98511961D02*
X108001337Y-98416723D01*
X108001337Y-98416723D02*
X107953718Y-98226247D01*
X107953718Y-98226247D02*
X107953718Y-98083390D01*
X107953718Y-98083390D02*
X108001337Y-97892914D01*
X108001337Y-97892914D02*
X108048956Y-97797676D01*
X108048956Y-97797676D02*
X108144194Y-97702438D01*
X108144194Y-97702438D02*
X108287051Y-97654819D01*
X108287051Y-97654819D02*
X108382289Y-97654819D01*
X108382289Y-97654819D02*
X108525146Y-97702438D01*
X108525146Y-97702438D02*
X108572765Y-97750057D01*
X108953718Y-97750057D02*
X109001337Y-97702438D01*
X109001337Y-97702438D02*
X109096575Y-97654819D01*
X109096575Y-97654819D02*
X109334670Y-97654819D01*
X109334670Y-97654819D02*
X109429908Y-97702438D01*
X109429908Y-97702438D02*
X109477527Y-97750057D01*
X109477527Y-97750057D02*
X109525146Y-97845295D01*
X109525146Y-97845295D02*
X109525146Y-97940533D01*
X109525146Y-97940533D02*
X109477527Y-98083390D01*
X109477527Y-98083390D02*
X108906099Y-98654819D01*
X108906099Y-98654819D02*
X109525146Y-98654819D01*
X99947337Y-117205319D02*
X99947337Y-118014842D01*
X99947337Y-118014842D02*
X99994956Y-118110080D01*
X99994956Y-118110080D02*
X100042575Y-118157700D01*
X100042575Y-118157700D02*
X100137813Y-118205319D01*
X100137813Y-118205319D02*
X100328289Y-118205319D01*
X100328289Y-118205319D02*
X100423527Y-118157700D01*
X100423527Y-118157700D02*
X100471146Y-118110080D01*
X100471146Y-118110080D02*
X100518765Y-118014842D01*
X100518765Y-118014842D02*
X100518765Y-117205319D01*
X100947337Y-118157700D02*
X101090194Y-118205319D01*
X101090194Y-118205319D02*
X101328289Y-118205319D01*
X101328289Y-118205319D02*
X101423527Y-118157700D01*
X101423527Y-118157700D02*
X101471146Y-118110080D01*
X101471146Y-118110080D02*
X101518765Y-118014842D01*
X101518765Y-118014842D02*
X101518765Y-117919604D01*
X101518765Y-117919604D02*
X101471146Y-117824366D01*
X101471146Y-117824366D02*
X101423527Y-117776747D01*
X101423527Y-117776747D02*
X101328289Y-117729128D01*
X101328289Y-117729128D02*
X101137813Y-117681509D01*
X101137813Y-117681509D02*
X101042575Y-117633890D01*
X101042575Y-117633890D02*
X100994956Y-117586271D01*
X100994956Y-117586271D02*
X100947337Y-117491033D01*
X100947337Y-117491033D02*
X100947337Y-117395795D01*
X100947337Y-117395795D02*
X100994956Y-117300557D01*
X100994956Y-117300557D02*
X101042575Y-117252938D01*
X101042575Y-117252938D02*
X101137813Y-117205319D01*
X101137813Y-117205319D02*
X101375908Y-117205319D01*
X101375908Y-117205319D02*
X101518765Y-117252938D01*
X102280670Y-117681509D02*
X102423527Y-117729128D01*
X102423527Y-117729128D02*
X102471146Y-117776747D01*
X102471146Y-117776747D02*
X102518765Y-117871985D01*
X102518765Y-117871985D02*
X102518765Y-118014842D01*
X102518765Y-118014842D02*
X102471146Y-118110080D01*
X102471146Y-118110080D02*
X102423527Y-118157700D01*
X102423527Y-118157700D02*
X102328289Y-118205319D01*
X102328289Y-118205319D02*
X101947337Y-118205319D01*
X101947337Y-118205319D02*
X101947337Y-117205319D01*
X101947337Y-117205319D02*
X102280670Y-117205319D01*
X102280670Y-117205319D02*
X102375908Y-117252938D01*
X102375908Y-117252938D02*
X102423527Y-117300557D01*
X102423527Y-117300557D02*
X102471146Y-117395795D01*
X102471146Y-117395795D02*
X102471146Y-117491033D01*
X102471146Y-117491033D02*
X102423527Y-117586271D01*
X102423527Y-117586271D02*
X102375908Y-117633890D01*
X102375908Y-117633890D02*
X102280670Y-117681509D01*
X102280670Y-117681509D02*
X101947337Y-117681509D01*
X103471146Y-118205319D02*
X102899718Y-118205319D01*
X103185432Y-118205319D02*
X103185432Y-117205319D01*
X103185432Y-117205319D02*
X103090194Y-117348176D01*
X103090194Y-117348176D02*
X102994956Y-117443414D01*
X102994956Y-117443414D02*
X102899718Y-117491033D01*
X123924193Y-109689057D02*
X123828955Y-109641438D01*
X123828955Y-109641438D02*
X123733717Y-109546200D01*
X123733717Y-109546200D02*
X123590860Y-109403342D01*
X123590860Y-109403342D02*
X123495622Y-109355723D01*
X123495622Y-109355723D02*
X123400384Y-109355723D01*
X123448003Y-109593819D02*
X123352765Y-109546200D01*
X123352765Y-109546200D02*
X123257527Y-109450961D01*
X123257527Y-109450961D02*
X123209908Y-109260485D01*
X123209908Y-109260485D02*
X123209908Y-108927152D01*
X123209908Y-108927152D02*
X123257527Y-108736676D01*
X123257527Y-108736676D02*
X123352765Y-108641438D01*
X123352765Y-108641438D02*
X123448003Y-108593819D01*
X123448003Y-108593819D02*
X123638479Y-108593819D01*
X123638479Y-108593819D02*
X123733717Y-108641438D01*
X123733717Y-108641438D02*
X123828955Y-108736676D01*
X123828955Y-108736676D02*
X123876574Y-108927152D01*
X123876574Y-108927152D02*
X123876574Y-109260485D01*
X123876574Y-109260485D02*
X123828955Y-109450961D01*
X123828955Y-109450961D02*
X123733717Y-109546200D01*
X123733717Y-109546200D02*
X123638479Y-109593819D01*
X123638479Y-109593819D02*
X123448003Y-109593819D01*
X124257527Y-108689057D02*
X124305146Y-108641438D01*
X124305146Y-108641438D02*
X124400384Y-108593819D01*
X124400384Y-108593819D02*
X124638479Y-108593819D01*
X124638479Y-108593819D02*
X124733717Y-108641438D01*
X124733717Y-108641438D02*
X124781336Y-108689057D01*
X124781336Y-108689057D02*
X124828955Y-108784295D01*
X124828955Y-108784295D02*
X124828955Y-108879533D01*
X124828955Y-108879533D02*
X124781336Y-109022390D01*
X124781336Y-109022390D02*
X124209908Y-109593819D01*
X124209908Y-109593819D02*
X124828955Y-109593819D01*
X85674251Y-97695666D02*
X85198060Y-98028999D01*
X85674251Y-98267094D02*
X84674251Y-98267094D01*
X84674251Y-98267094D02*
X84674251Y-97886142D01*
X84674251Y-97886142D02*
X84721870Y-97790904D01*
X84721870Y-97790904D02*
X84769489Y-97743285D01*
X84769489Y-97743285D02*
X84864727Y-97695666D01*
X84864727Y-97695666D02*
X85007584Y-97695666D01*
X85007584Y-97695666D02*
X85102822Y-97743285D01*
X85102822Y-97743285D02*
X85150441Y-97790904D01*
X85150441Y-97790904D02*
X85198060Y-97886142D01*
X85198060Y-97886142D02*
X85198060Y-98267094D01*
X84769489Y-97314713D02*
X84721870Y-97267094D01*
X84721870Y-97267094D02*
X84674251Y-97171856D01*
X84674251Y-97171856D02*
X84674251Y-96933761D01*
X84674251Y-96933761D02*
X84721870Y-96838523D01*
X84721870Y-96838523D02*
X84769489Y-96790904D01*
X84769489Y-96790904D02*
X84864727Y-96743285D01*
X84864727Y-96743285D02*
X84959965Y-96743285D01*
X84959965Y-96743285D02*
X85102822Y-96790904D01*
X85102822Y-96790904D02*
X85674251Y-97362332D01*
X85674251Y-97362332D02*
X85674251Y-96743285D01*
X121822765Y-93654819D02*
X121489432Y-93178628D01*
X121251337Y-93654819D02*
X121251337Y-92654819D01*
X121251337Y-92654819D02*
X121632289Y-92654819D01*
X121632289Y-92654819D02*
X121727527Y-92702438D01*
X121727527Y-92702438D02*
X121775146Y-92750057D01*
X121775146Y-92750057D02*
X121822765Y-92845295D01*
X121822765Y-92845295D02*
X121822765Y-92988152D01*
X121822765Y-92988152D02*
X121775146Y-93083390D01*
X121775146Y-93083390D02*
X121727527Y-93131009D01*
X121727527Y-93131009D02*
X121632289Y-93178628D01*
X121632289Y-93178628D02*
X121251337Y-93178628D01*
X122679908Y-92654819D02*
X122489432Y-92654819D01*
X122489432Y-92654819D02*
X122394194Y-92702438D01*
X122394194Y-92702438D02*
X122346575Y-92750057D01*
X122346575Y-92750057D02*
X122251337Y-92892914D01*
X122251337Y-92892914D02*
X122203718Y-93083390D01*
X122203718Y-93083390D02*
X122203718Y-93464342D01*
X122203718Y-93464342D02*
X122251337Y-93559580D01*
X122251337Y-93559580D02*
X122298956Y-93607200D01*
X122298956Y-93607200D02*
X122394194Y-93654819D01*
X122394194Y-93654819D02*
X122584670Y-93654819D01*
X122584670Y-93654819D02*
X122679908Y-93607200D01*
X122679908Y-93607200D02*
X122727527Y-93559580D01*
X122727527Y-93559580D02*
X122775146Y-93464342D01*
X122775146Y-93464342D02*
X122775146Y-93226247D01*
X122775146Y-93226247D02*
X122727527Y-93131009D01*
X122727527Y-93131009D02*
X122679908Y-93083390D01*
X122679908Y-93083390D02*
X122584670Y-93035771D01*
X122584670Y-93035771D02*
X122394194Y-93035771D01*
X122394194Y-93035771D02*
X122298956Y-93083390D01*
X122298956Y-93083390D02*
X122251337Y-93131009D01*
X122251337Y-93131009D02*
X122203718Y-93226247D01*
X106572765Y-80309580D02*
X106525146Y-80357200D01*
X106525146Y-80357200D02*
X106382289Y-80404819D01*
X106382289Y-80404819D02*
X106287051Y-80404819D01*
X106287051Y-80404819D02*
X106144194Y-80357200D01*
X106144194Y-80357200D02*
X106048956Y-80261961D01*
X106048956Y-80261961D02*
X106001337Y-80166723D01*
X106001337Y-80166723D02*
X105953718Y-79976247D01*
X105953718Y-79976247D02*
X105953718Y-79833390D01*
X105953718Y-79833390D02*
X106001337Y-79642914D01*
X106001337Y-79642914D02*
X106048956Y-79547676D01*
X106048956Y-79547676D02*
X106144194Y-79452438D01*
X106144194Y-79452438D02*
X106287051Y-79404819D01*
X106287051Y-79404819D02*
X106382289Y-79404819D01*
X106382289Y-79404819D02*
X106525146Y-79452438D01*
X106525146Y-79452438D02*
X106572765Y-79500057D01*
X107429908Y-79404819D02*
X107239432Y-79404819D01*
X107239432Y-79404819D02*
X107144194Y-79452438D01*
X107144194Y-79452438D02*
X107096575Y-79500057D01*
X107096575Y-79500057D02*
X107001337Y-79642914D01*
X107001337Y-79642914D02*
X106953718Y-79833390D01*
X106953718Y-79833390D02*
X106953718Y-80214342D01*
X106953718Y-80214342D02*
X107001337Y-80309580D01*
X107001337Y-80309580D02*
X107048956Y-80357200D01*
X107048956Y-80357200D02*
X107144194Y-80404819D01*
X107144194Y-80404819D02*
X107334670Y-80404819D01*
X107334670Y-80404819D02*
X107429908Y-80357200D01*
X107429908Y-80357200D02*
X107477527Y-80309580D01*
X107477527Y-80309580D02*
X107525146Y-80214342D01*
X107525146Y-80214342D02*
X107525146Y-79976247D01*
X107525146Y-79976247D02*
X107477527Y-79881009D01*
X107477527Y-79881009D02*
X107429908Y-79833390D01*
X107429908Y-79833390D02*
X107334670Y-79785771D01*
X107334670Y-79785771D02*
X107144194Y-79785771D01*
X107144194Y-79785771D02*
X107048956Y-79833390D01*
X107048956Y-79833390D02*
X107001337Y-79881009D01*
X107001337Y-79881009D02*
X106953718Y-79976247D01*
X114238765Y-122483580D02*
X114191146Y-122531200D01*
X114191146Y-122531200D02*
X114048289Y-122578819D01*
X114048289Y-122578819D02*
X113953051Y-122578819D01*
X113953051Y-122578819D02*
X113810194Y-122531200D01*
X113810194Y-122531200D02*
X113714956Y-122435961D01*
X113714956Y-122435961D02*
X113667337Y-122340723D01*
X113667337Y-122340723D02*
X113619718Y-122150247D01*
X113619718Y-122150247D02*
X113619718Y-122007390D01*
X113619718Y-122007390D02*
X113667337Y-121816914D01*
X113667337Y-121816914D02*
X113714956Y-121721676D01*
X113714956Y-121721676D02*
X113810194Y-121626438D01*
X113810194Y-121626438D02*
X113953051Y-121578819D01*
X113953051Y-121578819D02*
X114048289Y-121578819D01*
X114048289Y-121578819D02*
X114191146Y-121626438D01*
X114191146Y-121626438D02*
X114238765Y-121674057D01*
X115095908Y-121912152D02*
X115095908Y-122578819D01*
X114857813Y-121531200D02*
X114619718Y-122245485D01*
X114619718Y-122245485D02*
X115238765Y-122245485D01*
X143694251Y-109783333D02*
X144408536Y-109783333D01*
X144408536Y-109783333D02*
X144551393Y-109830952D01*
X144551393Y-109830952D02*
X144646632Y-109926190D01*
X144646632Y-109926190D02*
X144694251Y-110069047D01*
X144694251Y-110069047D02*
X144694251Y-110164285D01*
X143694251Y-108878571D02*
X143694251Y-109069047D01*
X143694251Y-109069047D02*
X143741870Y-109164285D01*
X143741870Y-109164285D02*
X143789489Y-109211904D01*
X143789489Y-109211904D02*
X143932346Y-109307142D01*
X143932346Y-109307142D02*
X144122822Y-109354761D01*
X144122822Y-109354761D02*
X144503774Y-109354761D01*
X144503774Y-109354761D02*
X144599012Y-109307142D01*
X144599012Y-109307142D02*
X144646632Y-109259523D01*
X144646632Y-109259523D02*
X144694251Y-109164285D01*
X144694251Y-109164285D02*
X144694251Y-108973809D01*
X144694251Y-108973809D02*
X144646632Y-108878571D01*
X144646632Y-108878571D02*
X144599012Y-108830952D01*
X144599012Y-108830952D02*
X144503774Y-108783333D01*
X144503774Y-108783333D02*
X144265679Y-108783333D01*
X144265679Y-108783333D02*
X144170441Y-108830952D01*
X144170441Y-108830952D02*
X144122822Y-108878571D01*
X144122822Y-108878571D02*
X144075203Y-108973809D01*
X144075203Y-108973809D02*
X144075203Y-109164285D01*
X144075203Y-109164285D02*
X144122822Y-109259523D01*
X144122822Y-109259523D02*
X144170441Y-109307142D01*
X144170441Y-109307142D02*
X144265679Y-109354761D01*
X87781337Y-101583819D02*
X87781337Y-100583819D01*
X88352765Y-101583819D02*
X87924194Y-101012390D01*
X88352765Y-100583819D02*
X87781337Y-101155247D01*
X89305146Y-101583819D02*
X88733718Y-101583819D01*
X89019432Y-101583819D02*
X89019432Y-100583819D01*
X89019432Y-100583819D02*
X88924194Y-100726676D01*
X88924194Y-100726676D02*
X88828956Y-100821914D01*
X88828956Y-100821914D02*
X88733718Y-100869533D01*
X129286098Y-88853819D02*
X129286098Y-89568104D01*
X129286098Y-89568104D02*
X129238479Y-89710961D01*
X129238479Y-89710961D02*
X129143241Y-89806200D01*
X129143241Y-89806200D02*
X129000384Y-89853819D01*
X129000384Y-89853819D02*
X128905146Y-89853819D01*
X129905146Y-89282390D02*
X129809908Y-89234771D01*
X129809908Y-89234771D02*
X129762289Y-89187152D01*
X129762289Y-89187152D02*
X129714670Y-89091914D01*
X129714670Y-89091914D02*
X129714670Y-89044295D01*
X129714670Y-89044295D02*
X129762289Y-88949057D01*
X129762289Y-88949057D02*
X129809908Y-88901438D01*
X129809908Y-88901438D02*
X129905146Y-88853819D01*
X129905146Y-88853819D02*
X130095622Y-88853819D01*
X130095622Y-88853819D02*
X130190860Y-88901438D01*
X130190860Y-88901438D02*
X130238479Y-88949057D01*
X130238479Y-88949057D02*
X130286098Y-89044295D01*
X130286098Y-89044295D02*
X130286098Y-89091914D01*
X130286098Y-89091914D02*
X130238479Y-89187152D01*
X130238479Y-89187152D02*
X130190860Y-89234771D01*
X130190860Y-89234771D02*
X130095622Y-89282390D01*
X130095622Y-89282390D02*
X129905146Y-89282390D01*
X129905146Y-89282390D02*
X129809908Y-89330009D01*
X129809908Y-89330009D02*
X129762289Y-89377628D01*
X129762289Y-89377628D02*
X129714670Y-89472866D01*
X129714670Y-89472866D02*
X129714670Y-89663342D01*
X129714670Y-89663342D02*
X129762289Y-89758580D01*
X129762289Y-89758580D02*
X129809908Y-89806200D01*
X129809908Y-89806200D02*
X129905146Y-89853819D01*
X129905146Y-89853819D02*
X130095622Y-89853819D01*
X130095622Y-89853819D02*
X130190860Y-89806200D01*
X130190860Y-89806200D02*
X130238479Y-89758580D01*
X130238479Y-89758580D02*
X130286098Y-89663342D01*
X130286098Y-89663342D02*
X130286098Y-89472866D01*
X130286098Y-89472866D02*
X130238479Y-89377628D01*
X130238479Y-89377628D02*
X130190860Y-89330009D01*
X130190860Y-89330009D02*
X130095622Y-89282390D01*
X143444251Y-81562333D02*
X144158536Y-81562333D01*
X144158536Y-81562333D02*
X144301393Y-81609952D01*
X144301393Y-81609952D02*
X144396632Y-81705190D01*
X144396632Y-81705190D02*
X144444251Y-81848047D01*
X144444251Y-81848047D02*
X144444251Y-81943285D01*
X143539489Y-81133761D02*
X143491870Y-81086142D01*
X143491870Y-81086142D02*
X143444251Y-80990904D01*
X143444251Y-80990904D02*
X143444251Y-80752809D01*
X143444251Y-80752809D02*
X143491870Y-80657571D01*
X143491870Y-80657571D02*
X143539489Y-80609952D01*
X143539489Y-80609952D02*
X143634727Y-80562333D01*
X143634727Y-80562333D02*
X143729965Y-80562333D01*
X143729965Y-80562333D02*
X143872822Y-80609952D01*
X143872822Y-80609952D02*
X144444251Y-81181380D01*
X144444251Y-81181380D02*
X144444251Y-80562333D01*
X102001337Y-110404819D02*
X102001337Y-109404819D01*
X102001337Y-109404819D02*
X102239432Y-109404819D01*
X102239432Y-109404819D02*
X102382289Y-109452438D01*
X102382289Y-109452438D02*
X102477527Y-109547676D01*
X102477527Y-109547676D02*
X102525146Y-109642914D01*
X102525146Y-109642914D02*
X102572765Y-109833390D01*
X102572765Y-109833390D02*
X102572765Y-109976247D01*
X102572765Y-109976247D02*
X102525146Y-110166723D01*
X102525146Y-110166723D02*
X102477527Y-110261961D01*
X102477527Y-110261961D02*
X102382289Y-110357200D01*
X102382289Y-110357200D02*
X102239432Y-110404819D01*
X102239432Y-110404819D02*
X102001337Y-110404819D01*
X103525146Y-110404819D02*
X102953718Y-110404819D01*
X103239432Y-110404819D02*
X103239432Y-109404819D01*
X103239432Y-109404819D02*
X103144194Y-109547676D01*
X103144194Y-109547676D02*
X103048956Y-109642914D01*
X103048956Y-109642914D02*
X102953718Y-109690533D01*
X102227527Y-115523819D02*
X102227527Y-114523819D01*
X102798955Y-115523819D02*
X102370384Y-114952390D01*
X102798955Y-114523819D02*
X102227527Y-115095247D01*
X93572765Y-121654819D02*
X93239432Y-121178628D01*
X93001337Y-121654819D02*
X93001337Y-120654819D01*
X93001337Y-120654819D02*
X93382289Y-120654819D01*
X93382289Y-120654819D02*
X93477527Y-120702438D01*
X93477527Y-120702438D02*
X93525146Y-120750057D01*
X93525146Y-120750057D02*
X93572765Y-120845295D01*
X93572765Y-120845295D02*
X93572765Y-120988152D01*
X93572765Y-120988152D02*
X93525146Y-121083390D01*
X93525146Y-121083390D02*
X93477527Y-121131009D01*
X93477527Y-121131009D02*
X93382289Y-121178628D01*
X93382289Y-121178628D02*
X93001337Y-121178628D01*
X94048956Y-121654819D02*
X94239432Y-121654819D01*
X94239432Y-121654819D02*
X94334670Y-121607200D01*
X94334670Y-121607200D02*
X94382289Y-121559580D01*
X94382289Y-121559580D02*
X94477527Y-121416723D01*
X94477527Y-121416723D02*
X94525146Y-121226247D01*
X94525146Y-121226247D02*
X94525146Y-120845295D01*
X94525146Y-120845295D02*
X94477527Y-120750057D01*
X94477527Y-120750057D02*
X94429908Y-120702438D01*
X94429908Y-120702438D02*
X94334670Y-120654819D01*
X94334670Y-120654819D02*
X94144194Y-120654819D01*
X94144194Y-120654819D02*
X94048956Y-120702438D01*
X94048956Y-120702438D02*
X94001337Y-120750057D01*
X94001337Y-120750057D02*
X93953718Y-120845295D01*
X93953718Y-120845295D02*
X93953718Y-121083390D01*
X93953718Y-121083390D02*
X94001337Y-121178628D01*
X94001337Y-121178628D02*
X94048956Y-121226247D01*
X94048956Y-121226247D02*
X94144194Y-121273866D01*
X94144194Y-121273866D02*
X94334670Y-121273866D01*
X94334670Y-121273866D02*
X94429908Y-121226247D01*
X94429908Y-121226247D02*
X94477527Y-121178628D01*
X94477527Y-121178628D02*
X94525146Y-121083390D01*
X111429908Y-88404819D02*
X111429908Y-89119104D01*
X111429908Y-89119104D02*
X111382289Y-89261961D01*
X111382289Y-89261961D02*
X111287051Y-89357200D01*
X111287051Y-89357200D02*
X111144194Y-89404819D01*
X111144194Y-89404819D02*
X111048956Y-89404819D01*
X112429908Y-89404819D02*
X111858480Y-89404819D01*
X112144194Y-89404819D02*
X112144194Y-88404819D01*
X112144194Y-88404819D02*
X112048956Y-88547676D01*
X112048956Y-88547676D02*
X111953718Y-88642914D01*
X111953718Y-88642914D02*
X111858480Y-88690533D01*
X113382289Y-89404819D02*
X112810861Y-89404819D01*
X113096575Y-89404819D02*
X113096575Y-88404819D01*
X113096575Y-88404819D02*
X113001337Y-88547676D01*
X113001337Y-88547676D02*
X112906099Y-88642914D01*
X112906099Y-88642914D02*
X112810861Y-88690533D01*
X125904251Y-96695666D02*
X125428060Y-97028999D01*
X125904251Y-97267094D02*
X124904251Y-97267094D01*
X124904251Y-97267094D02*
X124904251Y-96886142D01*
X124904251Y-96886142D02*
X124951870Y-96790904D01*
X124951870Y-96790904D02*
X124999489Y-96743285D01*
X124999489Y-96743285D02*
X125094727Y-96695666D01*
X125094727Y-96695666D02*
X125237584Y-96695666D01*
X125237584Y-96695666D02*
X125332822Y-96743285D01*
X125332822Y-96743285D02*
X125380441Y-96790904D01*
X125380441Y-96790904D02*
X125428060Y-96886142D01*
X125428060Y-96886142D02*
X125428060Y-97267094D01*
X124904251Y-96362332D02*
X124904251Y-95743285D01*
X124904251Y-95743285D02*
X125285203Y-96076618D01*
X125285203Y-96076618D02*
X125285203Y-95933761D01*
X125285203Y-95933761D02*
X125332822Y-95838523D01*
X125332822Y-95838523D02*
X125380441Y-95790904D01*
X125380441Y-95790904D02*
X125475679Y-95743285D01*
X125475679Y-95743285D02*
X125713774Y-95743285D01*
X125713774Y-95743285D02*
X125809012Y-95790904D01*
X125809012Y-95790904D02*
X125856632Y-95838523D01*
X125856632Y-95838523D02*
X125904251Y-95933761D01*
X125904251Y-95933761D02*
X125904251Y-96219475D01*
X125904251Y-96219475D02*
X125856632Y-96314713D01*
X125856632Y-96314713D02*
X125809012Y-96362332D01*
X74194251Y-108033333D02*
X74908536Y-108033333D01*
X74908536Y-108033333D02*
X75051393Y-108080952D01*
X75051393Y-108080952D02*
X75146632Y-108176190D01*
X75146632Y-108176190D02*
X75194251Y-108319047D01*
X75194251Y-108319047D02*
X75194251Y-108414285D01*
X75194251Y-107509523D02*
X75194251Y-107319047D01*
X75194251Y-107319047D02*
X75146632Y-107223809D01*
X75146632Y-107223809D02*
X75099012Y-107176190D01*
X75099012Y-107176190D02*
X74956155Y-107080952D01*
X74956155Y-107080952D02*
X74765679Y-107033333D01*
X74765679Y-107033333D02*
X74384727Y-107033333D01*
X74384727Y-107033333D02*
X74289489Y-107080952D01*
X74289489Y-107080952D02*
X74241870Y-107128571D01*
X74241870Y-107128571D02*
X74194251Y-107223809D01*
X74194251Y-107223809D02*
X74194251Y-107414285D01*
X74194251Y-107414285D02*
X74241870Y-107509523D01*
X74241870Y-107509523D02*
X74289489Y-107557142D01*
X74289489Y-107557142D02*
X74384727Y-107604761D01*
X74384727Y-107604761D02*
X74622822Y-107604761D01*
X74622822Y-107604761D02*
X74718060Y-107557142D01*
X74718060Y-107557142D02*
X74765679Y-107509523D01*
X74765679Y-107509523D02*
X74813298Y-107414285D01*
X74813298Y-107414285D02*
X74813298Y-107223809D01*
X74813298Y-107223809D02*
X74765679Y-107128571D01*
X74765679Y-107128571D02*
X74718060Y-107080952D01*
X74718060Y-107080952D02*
X74622822Y-107033333D01*
X93622765Y-126654819D02*
X93289432Y-126178628D01*
X93051337Y-126654819D02*
X93051337Y-125654819D01*
X93051337Y-125654819D02*
X93432289Y-125654819D01*
X93432289Y-125654819D02*
X93527527Y-125702438D01*
X93527527Y-125702438D02*
X93575146Y-125750057D01*
X93575146Y-125750057D02*
X93622765Y-125845295D01*
X93622765Y-125845295D02*
X93622765Y-125988152D01*
X93622765Y-125988152D02*
X93575146Y-126083390D01*
X93575146Y-126083390D02*
X93527527Y-126131009D01*
X93527527Y-126131009D02*
X93432289Y-126178628D01*
X93432289Y-126178628D02*
X93051337Y-126178628D01*
X94194194Y-126083390D02*
X94098956Y-126035771D01*
X94098956Y-126035771D02*
X94051337Y-125988152D01*
X94051337Y-125988152D02*
X94003718Y-125892914D01*
X94003718Y-125892914D02*
X94003718Y-125845295D01*
X94003718Y-125845295D02*
X94051337Y-125750057D01*
X94051337Y-125750057D02*
X94098956Y-125702438D01*
X94098956Y-125702438D02*
X94194194Y-125654819D01*
X94194194Y-125654819D02*
X94384670Y-125654819D01*
X94384670Y-125654819D02*
X94479908Y-125702438D01*
X94479908Y-125702438D02*
X94527527Y-125750057D01*
X94527527Y-125750057D02*
X94575146Y-125845295D01*
X94575146Y-125845295D02*
X94575146Y-125892914D01*
X94575146Y-125892914D02*
X94527527Y-125988152D01*
X94527527Y-125988152D02*
X94479908Y-126035771D01*
X94479908Y-126035771D02*
X94384670Y-126083390D01*
X94384670Y-126083390D02*
X94194194Y-126083390D01*
X94194194Y-126083390D02*
X94098956Y-126131009D01*
X94098956Y-126131009D02*
X94051337Y-126178628D01*
X94051337Y-126178628D02*
X94003718Y-126273866D01*
X94003718Y-126273866D02*
X94003718Y-126464342D01*
X94003718Y-126464342D02*
X94051337Y-126559580D01*
X94051337Y-126559580D02*
X94098956Y-126607200D01*
X94098956Y-126607200D02*
X94194194Y-126654819D01*
X94194194Y-126654819D02*
X94384670Y-126654819D01*
X94384670Y-126654819D02*
X94479908Y-126607200D01*
X94479908Y-126607200D02*
X94527527Y-126559580D01*
X94527527Y-126559580D02*
X94575146Y-126464342D01*
X94575146Y-126464342D02*
X94575146Y-126273866D01*
X94575146Y-126273866D02*
X94527527Y-126178628D01*
X94527527Y-126178628D02*
X94479908Y-126131009D01*
X94479908Y-126131009D02*
X94384670Y-126083390D01*
X74194251Y-96783333D02*
X74908536Y-96783333D01*
X74908536Y-96783333D02*
X75051393Y-96830952D01*
X75051393Y-96830952D02*
X75146632Y-96926190D01*
X75146632Y-96926190D02*
X75194251Y-97069047D01*
X75194251Y-97069047D02*
X75194251Y-97164285D01*
X74194251Y-96402380D02*
X74194251Y-95735714D01*
X74194251Y-95735714D02*
X75194251Y-96164285D01*
X97533012Y-80101779D02*
X97580632Y-80149398D01*
X97580632Y-80149398D02*
X97628251Y-80292255D01*
X97628251Y-80292255D02*
X97628251Y-80387493D01*
X97628251Y-80387493D02*
X97580632Y-80530350D01*
X97580632Y-80530350D02*
X97485393Y-80625588D01*
X97485393Y-80625588D02*
X97390155Y-80673207D01*
X97390155Y-80673207D02*
X97199679Y-80720826D01*
X97199679Y-80720826D02*
X97056822Y-80720826D01*
X97056822Y-80720826D02*
X96866346Y-80673207D01*
X96866346Y-80673207D02*
X96771108Y-80625588D01*
X96771108Y-80625588D02*
X96675870Y-80530350D01*
X96675870Y-80530350D02*
X96628251Y-80387493D01*
X96628251Y-80387493D02*
X96628251Y-80292255D01*
X96628251Y-80292255D02*
X96675870Y-80149398D01*
X96675870Y-80149398D02*
X96723489Y-80101779D01*
X97628251Y-79149398D02*
X97628251Y-79720826D01*
X97628251Y-79435112D02*
X96628251Y-79435112D01*
X96628251Y-79435112D02*
X96771108Y-79530350D01*
X96771108Y-79530350D02*
X96866346Y-79625588D01*
X96866346Y-79625588D02*
X96913965Y-79720826D01*
X80874251Y-92795666D02*
X80398060Y-93128999D01*
X80874251Y-93367094D02*
X79874251Y-93367094D01*
X79874251Y-93367094D02*
X79874251Y-92986142D01*
X79874251Y-92986142D02*
X79921870Y-92890904D01*
X79921870Y-92890904D02*
X79969489Y-92843285D01*
X79969489Y-92843285D02*
X80064727Y-92795666D01*
X80064727Y-92795666D02*
X80207584Y-92795666D01*
X80207584Y-92795666D02*
X80302822Y-92843285D01*
X80302822Y-92843285D02*
X80350441Y-92890904D01*
X80350441Y-92890904D02*
X80398060Y-92986142D01*
X80398060Y-92986142D02*
X80398060Y-93367094D01*
X80874251Y-91843285D02*
X80874251Y-92414713D01*
X80874251Y-92128999D02*
X79874251Y-92128999D01*
X79874251Y-92128999D02*
X80017108Y-92224237D01*
X80017108Y-92224237D02*
X80112346Y-92319475D01*
X80112346Y-92319475D02*
X80159965Y-92414713D01*
X119822765Y-93654819D02*
X119489432Y-93178628D01*
X119251337Y-93654819D02*
X119251337Y-92654819D01*
X119251337Y-92654819D02*
X119632289Y-92654819D01*
X119632289Y-92654819D02*
X119727527Y-92702438D01*
X119727527Y-92702438D02*
X119775146Y-92750057D01*
X119775146Y-92750057D02*
X119822765Y-92845295D01*
X119822765Y-92845295D02*
X119822765Y-92988152D01*
X119822765Y-92988152D02*
X119775146Y-93083390D01*
X119775146Y-93083390D02*
X119727527Y-93131009D01*
X119727527Y-93131009D02*
X119632289Y-93178628D01*
X119632289Y-93178628D02*
X119251337Y-93178628D01*
X120156099Y-92654819D02*
X120822765Y-92654819D01*
X120822765Y-92654819D02*
X120394194Y-93654819D01*
%TO.C,U2*%
D13*
X107209432Y-107519000D02*
X108469432Y-107519000D01*
X107209432Y-111279000D02*
X107209432Y-107519000D01*
X114029432Y-107519000D02*
X112769432Y-107519000D01*
X114029432Y-111279000D02*
X114029432Y-107519000D01*
X107309432Y-112559000D02*
X106979432Y-112799000D01*
X106979432Y-112319000D01*
X107309432Y-112559000D01*
G36*
X107309432Y-112559000D02*
G01*
X106979432Y-112799000D01*
X106979432Y-112319000D01*
X107309432Y-112559000D01*
G37*
%TO.C,C3*%
X108319432Y-119494888D02*
X106779432Y-119494888D01*
X108319432Y-119534888D02*
X106779432Y-119534888D01*
X108319432Y-119574888D02*
X106780432Y-119574888D01*
X108319432Y-119614888D02*
X106782432Y-119614888D01*
X108319432Y-119654888D02*
X106784432Y-119654888D01*
X108319432Y-119694888D02*
X106787432Y-119694888D01*
X108319432Y-119734888D02*
X106790432Y-119734888D01*
X108319432Y-119774888D02*
X106794432Y-119774888D01*
X108319432Y-119814888D02*
X106799432Y-119814888D01*
X108319432Y-119854888D02*
X106804432Y-119854888D01*
X108319432Y-119894888D02*
X106810432Y-119894888D01*
X108319432Y-119934888D02*
X106816432Y-119934888D01*
X108319432Y-119974888D02*
X106823432Y-119974888D01*
X108319432Y-120014888D02*
X106831432Y-120014888D01*
X108319432Y-120054888D02*
X106840432Y-120054888D01*
X108319432Y-120094888D02*
X106849432Y-120094888D01*
X108319432Y-120134888D02*
X106858432Y-120134888D01*
X108319432Y-120174888D02*
X106869432Y-120174888D01*
X108319432Y-120214888D02*
X106880432Y-120214888D01*
X108319432Y-120254888D02*
X106892432Y-120254888D01*
X108319432Y-120294888D02*
X106904432Y-120294888D01*
X108319432Y-120334888D02*
X106917432Y-120334888D01*
X108319432Y-120374888D02*
X106931432Y-120374888D01*
X108319432Y-120414888D02*
X106946432Y-120414888D01*
X108319432Y-120454888D02*
X106961432Y-120454888D01*
X108319432Y-120494888D02*
X106977432Y-120494888D01*
X108319432Y-120534888D02*
X106994432Y-120534888D01*
X108319432Y-120574888D02*
X107012432Y-120574888D01*
X108319432Y-120614888D02*
X107030432Y-120614888D01*
X108319432Y-120654888D02*
X107050432Y-120654888D01*
X108319432Y-120694888D02*
X107070432Y-120694888D01*
X108319432Y-120734888D02*
X107091432Y-120734888D01*
X108319432Y-120774888D02*
X107113432Y-120774888D01*
X108319432Y-120814888D02*
X107136432Y-120814888D01*
X108319432Y-120854888D02*
X107160432Y-120854888D01*
X108319432Y-120894888D02*
X107184432Y-120894888D01*
X108319432Y-120934888D02*
X107210432Y-120934888D01*
X108319432Y-120974888D02*
X107237432Y-120974888D01*
X108319432Y-121014888D02*
X107265432Y-121014888D01*
X108319432Y-121054888D02*
X107294432Y-121054888D01*
X108319432Y-121094888D02*
X107324432Y-121094888D01*
X108319432Y-121134888D02*
X107356432Y-121134888D01*
X108319432Y-121174888D02*
X107389432Y-121174888D01*
X108319432Y-121214888D02*
X107423432Y-121214888D01*
X108319432Y-121254888D02*
X107458432Y-121254888D01*
X108319432Y-121294888D02*
X107495432Y-121294888D01*
X108319432Y-121334888D02*
X107534432Y-121334888D01*
X108319432Y-121374888D02*
X107574432Y-121374888D01*
X108319432Y-121414888D02*
X107616432Y-121414888D01*
X108319432Y-121454888D02*
X107660432Y-121454888D01*
X108319432Y-121494888D02*
X107707432Y-121494888D01*
X109642432Y-122094888D02*
X109076432Y-122094888D01*
X109876432Y-122054888D02*
X108842432Y-122054888D01*
X110036432Y-122014888D02*
X108682432Y-122014888D01*
X110164432Y-121974888D02*
X108554432Y-121974888D01*
X110273432Y-121934888D02*
X108445432Y-121934888D01*
X110370432Y-121894888D02*
X108348432Y-121894888D01*
X110457432Y-121854888D02*
X108261432Y-121854888D01*
X110536432Y-121814888D02*
X108182432Y-121814888D01*
X110610432Y-121774888D02*
X108108432Y-121774888D01*
X110678432Y-121734888D02*
X108040432Y-121734888D01*
X110742432Y-121694888D02*
X107976432Y-121694888D01*
X110802432Y-121654888D02*
X107916432Y-121654888D01*
X110834432Y-116690113D02*
X110834432Y-117190113D01*
X110858432Y-121614888D02*
X107860432Y-121614888D01*
X110912432Y-121574888D02*
X107806432Y-121574888D01*
X110963432Y-121534888D02*
X107755432Y-121534888D01*
X111011432Y-121494888D02*
X110399432Y-121494888D01*
X111058432Y-121454888D02*
X110399432Y-121454888D01*
X111084432Y-116940113D02*
X110584432Y-116940113D01*
X111102432Y-121414888D02*
X110399432Y-121414888D01*
X111144432Y-121374888D02*
X110399432Y-121374888D01*
X111184432Y-121334888D02*
X110399432Y-121334888D01*
X111223432Y-121294888D02*
X110399432Y-121294888D01*
X111260432Y-121254888D02*
X110399432Y-121254888D01*
X111295432Y-121214888D02*
X110399432Y-121214888D01*
X111329432Y-121174888D02*
X110399432Y-121174888D01*
X111362432Y-121134888D02*
X110399432Y-121134888D01*
X111394432Y-121094888D02*
X110399432Y-121094888D01*
X111424432Y-121054888D02*
X110399432Y-121054888D01*
X111453432Y-121014888D02*
X110399432Y-121014888D01*
X111481432Y-120974888D02*
X110399432Y-120974888D01*
X111508432Y-120934888D02*
X110399432Y-120934888D01*
X111534432Y-120894888D02*
X110399432Y-120894888D01*
X111558432Y-120854888D02*
X110399432Y-120854888D01*
X111582432Y-120814888D02*
X110399432Y-120814888D01*
X111605432Y-120774888D02*
X110399432Y-120774888D01*
X111627432Y-120734888D02*
X110399432Y-120734888D01*
X111648432Y-120694888D02*
X110399432Y-120694888D01*
X111668432Y-120654888D02*
X110399432Y-120654888D01*
X111688432Y-120614888D02*
X110399432Y-120614888D01*
X111706432Y-120574888D02*
X110399432Y-120574888D01*
X111724432Y-120534888D02*
X110399432Y-120534888D01*
X111741432Y-120494888D02*
X110399432Y-120494888D01*
X111757432Y-120454888D02*
X110399432Y-120454888D01*
X111772432Y-120414888D02*
X110399432Y-120414888D01*
X111787432Y-120374888D02*
X110399432Y-120374888D01*
X111801432Y-120334888D02*
X110399432Y-120334888D01*
X111814432Y-120294888D02*
X110399432Y-120294888D01*
X111826432Y-120254888D02*
X110399432Y-120254888D01*
X111838432Y-120214888D02*
X110399432Y-120214888D01*
X111849432Y-120174888D02*
X110399432Y-120174888D01*
X111860432Y-120134888D02*
X110399432Y-120134888D01*
X111869432Y-120094888D02*
X110399432Y-120094888D01*
X111878432Y-120054888D02*
X110399432Y-120054888D01*
X111887432Y-120014888D02*
X110399432Y-120014888D01*
X111895432Y-119974888D02*
X110399432Y-119974888D01*
X111902432Y-119934888D02*
X110399432Y-119934888D01*
X111908432Y-119894888D02*
X110399432Y-119894888D01*
X111914432Y-119854888D02*
X110399432Y-119854888D01*
X111919432Y-119814888D02*
X110399432Y-119814888D01*
X111924432Y-119774888D02*
X110399432Y-119774888D01*
X111928432Y-119734888D02*
X110399432Y-119734888D01*
X111931432Y-119694888D02*
X110399432Y-119694888D01*
X111934432Y-119654888D02*
X110399432Y-119654888D01*
X111936432Y-119614888D02*
X110399432Y-119614888D01*
X111938432Y-119574888D02*
X110399432Y-119574888D01*
X111939432Y-119494888D02*
X110399432Y-119494888D01*
X111939432Y-119534888D02*
X110399432Y-119534888D01*
X111979432Y-119494888D02*
G75*
G02*
X106739432Y-119494888I-2620000J0D01*
G01*
X106739432Y-119494888D02*
G75*
G02*
X111979432Y-119494888I2620000J0D01*
G01*
%TO.C,J4*%
X66119432Y-74780000D02*
X76159432Y-74780000D01*
X66119432Y-77100000D02*
X66119432Y-74780000D01*
X66119432Y-90020000D02*
X66119432Y-77700000D01*
X66739432Y-74780000D02*
X66739432Y-90020000D01*
X68239432Y-74780000D02*
X68239432Y-90020000D01*
X73139432Y-74780000D02*
X73139432Y-90020000D01*
X76159432Y-74780000D02*
X76159432Y-90020000D01*
X76159432Y-90020000D02*
X66119432Y-90020000D01*
X66119432Y-77400000D02*
X65509432Y-77840000D01*
X65509432Y-76960000D01*
X66119432Y-77400000D01*
G36*
X66119432Y-77400000D02*
G01*
X65509432Y-77840000D01*
X65509432Y-76960000D01*
X66119432Y-77400000D01*
G37*
%TO.C,C5*%
X106484432Y-102135000D02*
X108024432Y-102135000D01*
X106484432Y-102175000D02*
X108024432Y-102175000D01*
X106485432Y-102095000D02*
X108024432Y-102095000D01*
X106487432Y-102055000D02*
X108024432Y-102055000D01*
X106489432Y-102015000D02*
X108024432Y-102015000D01*
X106492432Y-101975000D02*
X108024432Y-101975000D01*
X106495432Y-101935000D02*
X108024432Y-101935000D01*
X106499432Y-101895000D02*
X108024432Y-101895000D01*
X106504432Y-101855000D02*
X108024432Y-101855000D01*
X106509432Y-101815000D02*
X108024432Y-101815000D01*
X106515432Y-101775000D02*
X108024432Y-101775000D01*
X106521432Y-101735000D02*
X108024432Y-101735000D01*
X106528432Y-101695000D02*
X108024432Y-101695000D01*
X106536432Y-101655000D02*
X108024432Y-101655000D01*
X106545432Y-101615000D02*
X108024432Y-101615000D01*
X106554432Y-101575000D02*
X108024432Y-101575000D01*
X106563432Y-101535000D02*
X108024432Y-101535000D01*
X106574432Y-101495000D02*
X108024432Y-101495000D01*
X106585432Y-101455000D02*
X108024432Y-101455000D01*
X106597432Y-101415000D02*
X108024432Y-101415000D01*
X106609432Y-101375000D02*
X108024432Y-101375000D01*
X106622432Y-101335000D02*
X108024432Y-101335000D01*
X106636432Y-101295000D02*
X108024432Y-101295000D01*
X106651432Y-101255000D02*
X108024432Y-101255000D01*
X106666432Y-101215000D02*
X108024432Y-101215000D01*
X106682432Y-101175000D02*
X108024432Y-101175000D01*
X106699432Y-101135000D02*
X108024432Y-101135000D01*
X106717432Y-101095000D02*
X108024432Y-101095000D01*
X106735432Y-101055000D02*
X108024432Y-101055000D01*
X106755432Y-101015000D02*
X108024432Y-101015000D01*
X106775432Y-100975000D02*
X108024432Y-100975000D01*
X106796432Y-100935000D02*
X108024432Y-100935000D01*
X106818432Y-100895000D02*
X108024432Y-100895000D01*
X106841432Y-100855000D02*
X108024432Y-100855000D01*
X106865432Y-100815000D02*
X108024432Y-100815000D01*
X106889432Y-100775000D02*
X108024432Y-100775000D01*
X106915432Y-100735000D02*
X108024432Y-100735000D01*
X106942432Y-100695000D02*
X108024432Y-100695000D01*
X106970432Y-100655000D02*
X108024432Y-100655000D01*
X106999432Y-100615000D02*
X108024432Y-100615000D01*
X107029432Y-100575000D02*
X108024432Y-100575000D01*
X107061432Y-100535000D02*
X108024432Y-100535000D01*
X107094432Y-100495000D02*
X108024432Y-100495000D01*
X107128432Y-100455000D02*
X108024432Y-100455000D01*
X107163432Y-100415000D02*
X108024432Y-100415000D01*
X107200432Y-100375000D02*
X108024432Y-100375000D01*
X107239432Y-100335000D02*
X108024432Y-100335000D01*
X107279432Y-100295000D02*
X108024432Y-100295000D01*
X107321432Y-100255000D02*
X108024432Y-100255000D01*
X107339432Y-104729775D02*
X107839432Y-104729775D01*
X107365432Y-100215000D02*
X108024432Y-100215000D01*
X107412432Y-100175000D02*
X108024432Y-100175000D01*
X107460432Y-100135000D02*
X110668432Y-100135000D01*
X107511432Y-100095000D02*
X110617432Y-100095000D01*
X107565432Y-100055000D02*
X110563432Y-100055000D01*
X107589432Y-104979775D02*
X107589432Y-104479775D01*
X107621432Y-100015000D02*
X110507432Y-100015000D01*
X107681432Y-99975000D02*
X110447432Y-99975000D01*
X107745432Y-99935000D02*
X110383432Y-99935000D01*
X107813432Y-99895000D02*
X110315432Y-99895000D01*
X107887432Y-99855000D02*
X110241432Y-99855000D01*
X107966432Y-99815000D02*
X110162432Y-99815000D01*
X108053432Y-99775000D02*
X110075432Y-99775000D01*
X108150432Y-99735000D02*
X109978432Y-99735000D01*
X108259432Y-99695000D02*
X109869432Y-99695000D01*
X108387432Y-99655000D02*
X109741432Y-99655000D01*
X108547432Y-99615000D02*
X109581432Y-99615000D01*
X108781432Y-99575000D02*
X109347432Y-99575000D01*
X110104432Y-100175000D02*
X110716432Y-100175000D01*
X110104432Y-100215000D02*
X110763432Y-100215000D01*
X110104432Y-100255000D02*
X110807432Y-100255000D01*
X110104432Y-100295000D02*
X110849432Y-100295000D01*
X110104432Y-100335000D02*
X110889432Y-100335000D01*
X110104432Y-100375000D02*
X110928432Y-100375000D01*
X110104432Y-100415000D02*
X110965432Y-100415000D01*
X110104432Y-100455000D02*
X111000432Y-100455000D01*
X110104432Y-100495000D02*
X111034432Y-100495000D01*
X110104432Y-100535000D02*
X111067432Y-100535000D01*
X110104432Y-100575000D02*
X111099432Y-100575000D01*
X110104432Y-100615000D02*
X111129432Y-100615000D01*
X110104432Y-100655000D02*
X111158432Y-100655000D01*
X110104432Y-100695000D02*
X111186432Y-100695000D01*
X110104432Y-100735000D02*
X111213432Y-100735000D01*
X110104432Y-100775000D02*
X111239432Y-100775000D01*
X110104432Y-100815000D02*
X111263432Y-100815000D01*
X110104432Y-100855000D02*
X111287432Y-100855000D01*
X110104432Y-100895000D02*
X111310432Y-100895000D01*
X110104432Y-100935000D02*
X111332432Y-100935000D01*
X110104432Y-100975000D02*
X111353432Y-100975000D01*
X110104432Y-101015000D02*
X111373432Y-101015000D01*
X110104432Y-101055000D02*
X111393432Y-101055000D01*
X110104432Y-101095000D02*
X111411432Y-101095000D01*
X110104432Y-101135000D02*
X111429432Y-101135000D01*
X110104432Y-101175000D02*
X111446432Y-101175000D01*
X110104432Y-101215000D02*
X111462432Y-101215000D01*
X110104432Y-101255000D02*
X111477432Y-101255000D01*
X110104432Y-101295000D02*
X111492432Y-101295000D01*
X110104432Y-101335000D02*
X111506432Y-101335000D01*
X110104432Y-101375000D02*
X111519432Y-101375000D01*
X110104432Y-101415000D02*
X111531432Y-101415000D01*
X110104432Y-101455000D02*
X111543432Y-101455000D01*
X110104432Y-101495000D02*
X111554432Y-101495000D01*
X110104432Y-101535000D02*
X111565432Y-101535000D01*
X110104432Y-101575000D02*
X111574432Y-101575000D01*
X110104432Y-101615000D02*
X111583432Y-101615000D01*
X110104432Y-101655000D02*
X111592432Y-101655000D01*
X110104432Y-101695000D02*
X111600432Y-101695000D01*
X110104432Y-101735000D02*
X111607432Y-101735000D01*
X110104432Y-101775000D02*
X111613432Y-101775000D01*
X110104432Y-101815000D02*
X111619432Y-101815000D01*
X110104432Y-101855000D02*
X111624432Y-101855000D01*
X110104432Y-101895000D02*
X111629432Y-101895000D01*
X110104432Y-101935000D02*
X111633432Y-101935000D01*
X110104432Y-101975000D02*
X111636432Y-101975000D01*
X110104432Y-102015000D02*
X111639432Y-102015000D01*
X110104432Y-102055000D02*
X111641432Y-102055000D01*
X110104432Y-102095000D02*
X111643432Y-102095000D01*
X110104432Y-102135000D02*
X111644432Y-102135000D01*
X110104432Y-102175000D02*
X111644432Y-102175000D01*
X111684432Y-102175000D02*
G75*
G02*
X106444432Y-102175000I-2620000J0D01*
G01*
X106444432Y-102175000D02*
G75*
G02*
X111684432Y-102175000I2620000J0D01*
G01*
%TO.C,U1*%
X111269432Y-71129000D02*
X124769432Y-71129000D01*
X111269432Y-88029000D02*
X111269432Y-71129000D01*
X124769432Y-71129000D02*
X124769432Y-88029000D01*
X124769432Y-88029000D02*
X111269432Y-88029000D01*
X110919432Y-78279000D02*
X110583432Y-78519000D01*
X110583432Y-78039000D01*
X110919432Y-78279000D01*
G36*
X110919432Y-78279000D02*
G01*
X110583432Y-78519000D01*
X110583432Y-78039000D01*
X110919432Y-78279000D01*
G37*
%TO.C,J3*%
X66119432Y-63480000D02*
X76159432Y-63480000D01*
X66119432Y-65800000D02*
X66119432Y-63480000D01*
X66119432Y-73720000D02*
X66119432Y-66400000D01*
X66739432Y-63480000D02*
X66739432Y-73720000D01*
X68239432Y-63480000D02*
X68239432Y-73720000D01*
X73139432Y-63480000D02*
X73139432Y-73720000D01*
X76159432Y-63480000D02*
X76159432Y-73720000D01*
X76159432Y-73720000D02*
X66119432Y-73720000D01*
X66119432Y-66100000D02*
X65509432Y-66540000D01*
X65509432Y-65660000D01*
X66119432Y-66100000D01*
G36*
X66119432Y-66100000D02*
G01*
X65509432Y-66540000D01*
X65509432Y-65660000D01*
X66119432Y-66100000D01*
G37*
%TO.C,Q1*%
X78296932Y-94869000D02*
X79816932Y-94869000D01*
X78296932Y-95869000D02*
X78296932Y-94869000D01*
X78296932Y-97989000D02*
X78296932Y-96989000D01*
X79816932Y-94869000D02*
X79816932Y-94919000D01*
X79816932Y-96039000D02*
X79816932Y-96819000D01*
X79816932Y-97939000D02*
X79816932Y-97989000D01*
X79816932Y-97989000D02*
X78296932Y-97989000D01*
X80356932Y-96809000D02*
X80116932Y-96479000D01*
X80596932Y-96479000D01*
X80356932Y-96809000D01*
G36*
X80356932Y-96809000D02*
G01*
X80116932Y-96479000D01*
X80596932Y-96479000D01*
X80356932Y-96809000D01*
G37*
%TO.C,J5*%
X79119432Y-63480000D02*
X91439432Y-63480000D01*
X79119432Y-73520000D02*
X79119432Y-63480000D01*
X92039432Y-63480000D02*
X94359432Y-63480000D01*
X94359432Y-63480000D02*
X94359432Y-73520000D01*
X94359432Y-64100000D02*
X79119432Y-64100000D01*
X94359432Y-65600000D02*
X79119432Y-65600000D01*
X94359432Y-70500000D02*
X79119432Y-70500000D01*
X94359432Y-73520000D02*
X79119432Y-73520000D01*
X91739432Y-63480000D02*
X91299432Y-62870000D01*
X92179432Y-62870000D01*
X91739432Y-63480000D01*
G36*
X91739432Y-63480000D02*
G01*
X91299432Y-62870000D01*
X92179432Y-62870000D01*
X91739432Y-63480000D01*
G37*
%TO.C,C2*%
X112126932Y-102747224D02*
X112126932Y-102237776D01*
X113171932Y-102747224D02*
X113171932Y-102237776D01*
%TO.C,USB1*%
D11*
X97185432Y-123395500D02*
X97185432Y-123355500D01*
X97185432Y-123395500D02*
X97185432Y-124845500D01*
X97185432Y-127175500D02*
X97185432Y-128605500D01*
X97185432Y-127205500D02*
X97185432Y-127175500D01*
X97185432Y-128605500D02*
X106185432Y-128605500D01*
X98145432Y-121795500D02*
X98355432Y-121795500D01*
X98355432Y-121795500D02*
X98355432Y-121795500D01*
X105015432Y-121795500D02*
X105225432Y-121795500D01*
X105015432Y-121795500D02*
X105225432Y-121795500D01*
X106185432Y-124795500D02*
X106185432Y-123345500D01*
X106185432Y-128605500D02*
X106185432Y-127205500D01*
D14*
X97245432Y-121445500D02*
G75*
G02*
X97185432Y-121445500I-30000J0D01*
G01*
X97185432Y-121445500D02*
G75*
G02*
X97245432Y-121445500I30000J0D01*
G01*
%TO.C,Q2*%
D13*
X127017276Y-107090520D02*
X127830450Y-107903693D01*
X127830450Y-107903693D02*
X128594125Y-107140018D01*
X128594125Y-107140018D02*
X127780952Y-106326844D01*
X127017276Y-107090520D02*
G75*
G02*
X127780952Y-106326844I-2997844J3761520D01*
G01*
%TO.C,R2*%
X82464708Y-96906500D02*
X82974156Y-96906500D01*
X82464708Y-97951500D02*
X82974156Y-97951500D01*
%TO.C,R6*%
X119616932Y-90254724D02*
X119616932Y-89745276D01*
X120661932Y-90254724D02*
X120661932Y-89745276D01*
%TO.C,C6*%
X104606932Y-80284724D02*
X104606932Y-79775276D01*
X105651932Y-80284724D02*
X105651932Y-79775276D01*
%TO.C,C4*%
X113862932Y-119349276D02*
X113862932Y-119858724D01*
X114907932Y-119349276D02*
X114907932Y-119858724D01*
%TO.C,J6*%
X142319432Y-92080000D02*
X152359432Y-92080000D01*
X142319432Y-127320000D02*
X142319432Y-92080000D01*
X145339432Y-127320000D02*
X145339432Y-92080000D01*
X150239432Y-127320000D02*
X150239432Y-92080000D01*
X151739432Y-127320000D02*
X151739432Y-92080000D01*
X152359432Y-92080000D02*
X152359432Y-124400000D01*
X152359432Y-125000000D02*
X152359432Y-127320000D01*
X152359432Y-127320000D02*
X142319432Y-127320000D01*
X152359432Y-124700000D02*
X152969432Y-124260000D01*
X152969432Y-125140000D01*
X152359432Y-124700000D01*
G36*
X152969432Y-125140000D02*
G01*
X152359432Y-124700000D01*
X152969432Y-124260000D01*
X152969432Y-125140000D01*
G37*
%TO.C,K1*%
X78219432Y-102529000D02*
X98019432Y-102529000D01*
X78219432Y-118129000D02*
X78219432Y-102529000D01*
X82469432Y-106129000D02*
X82469432Y-108579000D01*
X82469432Y-114529000D02*
X82469432Y-112029000D01*
X85669432Y-110279000D02*
X81069432Y-112779000D01*
X87169432Y-106679000D02*
X93969432Y-106679000D01*
X87169432Y-110279000D02*
X85669432Y-110279000D01*
X87169432Y-110279000D02*
X87169432Y-106679000D01*
X88569432Y-108479000D02*
X92569432Y-108479000D01*
X88569432Y-108479000D02*
X92569432Y-112079000D01*
X88569432Y-112079000D02*
X88569432Y-108479000D01*
X90569432Y-108479000D02*
X90569432Y-104279000D01*
X90569432Y-116279000D02*
X90569432Y-112079000D01*
X90569432Y-116279000D02*
X93069432Y-116279000D01*
X92569432Y-108479000D02*
X92569432Y-112079000D01*
X92569432Y-112079000D02*
X88569432Y-112079000D01*
X93069432Y-104279000D02*
X90569432Y-104279000D01*
X93969432Y-110279000D02*
X93969432Y-106679000D01*
X93969432Y-110279000D02*
X94769432Y-110279000D01*
X98019432Y-109129000D02*
X98019432Y-102529000D01*
X98019432Y-118129000D02*
X78219432Y-118129000D01*
X98019432Y-118129000D02*
X98019432Y-111529000D01*
%TO.C,J8*%
X128289432Y-85359000D02*
X128289432Y-77679000D01*
X128289432Y-87959000D02*
X128289432Y-86629000D01*
X129619432Y-87959000D02*
X128289432Y-87959000D01*
X130949432Y-77679000D02*
X128289432Y-77679000D01*
X130949432Y-85359000D02*
X128289432Y-85359000D01*
X130949432Y-85359000D02*
X130949432Y-77679000D01*
%TO.C,J2*%
X142299432Y-71109000D02*
X152339432Y-71109000D01*
X142299432Y-91349000D02*
X142299432Y-71109000D01*
X145319432Y-91349000D02*
X145319432Y-71109000D01*
X150219432Y-91349000D02*
X150219432Y-71109000D01*
X151719432Y-91349000D02*
X151719432Y-71109000D01*
X152339432Y-71109000D02*
X152339432Y-88429000D01*
X152339432Y-89029000D02*
X152339432Y-91349000D01*
X152339432Y-91349000D02*
X142299432Y-91349000D01*
X152339432Y-88729000D02*
X152949432Y-88289000D01*
X152949432Y-89169000D01*
X152339432Y-88729000D01*
G36*
X152949432Y-89169000D02*
G01*
X152339432Y-88729000D01*
X152949432Y-88289000D01*
X152949432Y-89169000D01*
G37*
%TO.C,D1*%
X98909432Y-111689000D02*
X101849432Y-111689000D01*
X98909432Y-111809000D02*
X101849432Y-111809000D01*
X98909432Y-111929000D02*
X101849432Y-111929000D01*
X100379432Y-106249000D02*
X100379432Y-107269000D01*
X100379432Y-113729000D02*
X100379432Y-112709000D01*
X98909432Y-107269000D02*
X101849432Y-107269000D01*
X101849432Y-112709000D01*
X98909432Y-112709000D01*
X98909432Y-107269000D01*
%TO.C,R9*%
X94066156Y-122383500D02*
X93556708Y-122383500D01*
X94066156Y-123428500D02*
X93556708Y-123428500D01*
%TO.C,J11*%
X109494432Y-89820000D02*
X109494432Y-92580000D01*
X112144432Y-89820000D02*
X109494432Y-89820000D01*
X112144432Y-89820000D02*
X112144432Y-92580000D01*
X112144432Y-92580000D02*
X109494432Y-92580000D01*
X113414432Y-89820000D02*
X114794432Y-89820000D01*
X114794432Y-89820000D02*
X114794432Y-91200000D01*
%TO.C,R3*%
X123496932Y-96274276D02*
X123496932Y-96783724D01*
X124541932Y-96274276D02*
X124541932Y-96783724D01*
%TO.C,J9*%
X66159432Y-102669000D02*
X76199432Y-102669000D01*
X66159432Y-104989000D02*
X66159432Y-102669000D01*
X66159432Y-112909000D02*
X66159432Y-105589000D01*
X66779432Y-102669000D02*
X66779432Y-112909000D01*
X68279432Y-102669000D02*
X68279432Y-112909000D01*
X73179432Y-102669000D02*
X73179432Y-112909000D01*
X76199432Y-102669000D02*
X76199432Y-112909000D01*
X76199432Y-112909000D02*
X66159432Y-112909000D01*
X66159432Y-105289000D02*
X65549432Y-105729000D01*
X65549432Y-104849000D01*
X66159432Y-105289000D01*
G36*
X66159432Y-105289000D02*
G01*
X65549432Y-105729000D01*
X65549432Y-104849000D01*
X66159432Y-105289000D01*
G37*
%TO.C,R8*%
X94066156Y-123907500D02*
X93556708Y-123907500D01*
X94066156Y-124952500D02*
X93556708Y-124952500D01*
%TO.C,J7*%
X66119432Y-91180000D02*
X76159432Y-91180000D01*
X66119432Y-93500000D02*
X66119432Y-91180000D01*
X66119432Y-101420000D02*
X66119432Y-94100000D01*
X66739432Y-91180000D02*
X66739432Y-101420000D01*
X68239432Y-91180000D02*
X68239432Y-101420000D01*
X73139432Y-91180000D02*
X73139432Y-101420000D01*
X76159432Y-91180000D02*
X76159432Y-101420000D01*
X76159432Y-101420000D02*
X66119432Y-101420000D01*
X66119432Y-93800000D02*
X65509432Y-94240000D01*
X65509432Y-93360000D01*
X66119432Y-93800000D01*
G36*
X66119432Y-93800000D02*
G01*
X65509432Y-94240000D01*
X65509432Y-93360000D01*
X66119432Y-93800000D01*
G37*
%TO.C,C1*%
X98343432Y-79895113D02*
X99883432Y-79895113D01*
X98343432Y-79935113D02*
X99883432Y-79935113D01*
X98344432Y-79855113D02*
X99883432Y-79855113D01*
X98346432Y-79815113D02*
X99883432Y-79815113D01*
X98348432Y-79775113D02*
X99883432Y-79775113D01*
X98351432Y-79735113D02*
X99883432Y-79735113D01*
X98354432Y-79695113D02*
X99883432Y-79695113D01*
X98358432Y-79655113D02*
X99883432Y-79655113D01*
X98363432Y-79615113D02*
X99883432Y-79615113D01*
X98368432Y-79575113D02*
X99883432Y-79575113D01*
X98374432Y-79535113D02*
X99883432Y-79535113D01*
X98380432Y-79495113D02*
X99883432Y-79495113D01*
X98387432Y-79455113D02*
X99883432Y-79455113D01*
X98395432Y-79415113D02*
X99883432Y-79415113D01*
X98404432Y-79375113D02*
X99883432Y-79375113D01*
X98413432Y-79335113D02*
X99883432Y-79335113D01*
X98422432Y-79295113D02*
X99883432Y-79295113D01*
X98433432Y-79255113D02*
X99883432Y-79255113D01*
X98444432Y-79215113D02*
X99883432Y-79215113D01*
X98456432Y-79175113D02*
X99883432Y-79175113D01*
X98468432Y-79135113D02*
X99883432Y-79135113D01*
X98481432Y-79095113D02*
X99883432Y-79095113D01*
X98495432Y-79055113D02*
X99883432Y-79055113D01*
X98510432Y-79015113D02*
X99883432Y-79015113D01*
X98525432Y-78975113D02*
X99883432Y-78975113D01*
X98541432Y-78935113D02*
X99883432Y-78935113D01*
X98558432Y-78895113D02*
X99883432Y-78895113D01*
X98576432Y-78855113D02*
X99883432Y-78855113D01*
X98594432Y-78815113D02*
X99883432Y-78815113D01*
X98614432Y-78775113D02*
X99883432Y-78775113D01*
X98634432Y-78735113D02*
X99883432Y-78735113D01*
X98655432Y-78695113D02*
X99883432Y-78695113D01*
X98677432Y-78655113D02*
X99883432Y-78655113D01*
X98700432Y-78615113D02*
X99883432Y-78615113D01*
X98724432Y-78575113D02*
X99883432Y-78575113D01*
X98748432Y-78535113D02*
X99883432Y-78535113D01*
X98774432Y-78495113D02*
X99883432Y-78495113D01*
X98801432Y-78455113D02*
X99883432Y-78455113D01*
X98829432Y-78415113D02*
X99883432Y-78415113D01*
X98858432Y-78375113D02*
X99883432Y-78375113D01*
X98888432Y-78335113D02*
X99883432Y-78335113D01*
X98920432Y-78295113D02*
X99883432Y-78295113D01*
X98953432Y-78255113D02*
X99883432Y-78255113D01*
X98987432Y-78215113D02*
X99883432Y-78215113D01*
X99022432Y-78175113D02*
X99883432Y-78175113D01*
X99059432Y-78135113D02*
X99883432Y-78135113D01*
X99098432Y-78095113D02*
X99883432Y-78095113D01*
X99138432Y-78055113D02*
X99883432Y-78055113D01*
X99180432Y-78015113D02*
X99883432Y-78015113D01*
X99198432Y-82489888D02*
X99698432Y-82489888D01*
X99224432Y-77975113D02*
X99883432Y-77975113D01*
X99271432Y-77935113D02*
X99883432Y-77935113D01*
X99319432Y-77895113D02*
X102527432Y-77895113D01*
X99370432Y-77855113D02*
X102476432Y-77855113D01*
X99424432Y-77815113D02*
X102422432Y-77815113D01*
X99448432Y-82739888D02*
X99448432Y-82239888D01*
X99480432Y-77775113D02*
X102366432Y-77775113D01*
X99540432Y-77735113D02*
X102306432Y-77735113D01*
X99604432Y-77695113D02*
X102242432Y-77695113D01*
X99672432Y-77655113D02*
X102174432Y-77655113D01*
X99746432Y-77615113D02*
X102100432Y-77615113D01*
X99825432Y-77575113D02*
X102021432Y-77575113D01*
X99912432Y-77535113D02*
X101934432Y-77535113D01*
X100009432Y-77495113D02*
X101837432Y-77495113D01*
X100118432Y-77455113D02*
X101728432Y-77455113D01*
X100246432Y-77415113D02*
X101600432Y-77415113D01*
X100406432Y-77375113D02*
X101440432Y-77375113D01*
X100640432Y-77335113D02*
X101206432Y-77335113D01*
X101963432Y-77935113D02*
X102575432Y-77935113D01*
X101963432Y-77975113D02*
X102622432Y-77975113D01*
X101963432Y-78015113D02*
X102666432Y-78015113D01*
X101963432Y-78055113D02*
X102708432Y-78055113D01*
X101963432Y-78095113D02*
X102748432Y-78095113D01*
X101963432Y-78135113D02*
X102787432Y-78135113D01*
X101963432Y-78175113D02*
X102824432Y-78175113D01*
X101963432Y-78215113D02*
X102859432Y-78215113D01*
X101963432Y-78255113D02*
X102893432Y-78255113D01*
X101963432Y-78295113D02*
X102926432Y-78295113D01*
X101963432Y-78335113D02*
X102958432Y-78335113D01*
X101963432Y-78375113D02*
X102988432Y-78375113D01*
X101963432Y-78415113D02*
X103017432Y-78415113D01*
X101963432Y-78455113D02*
X103045432Y-78455113D01*
X101963432Y-78495113D02*
X103072432Y-78495113D01*
X101963432Y-78535113D02*
X103098432Y-78535113D01*
X101963432Y-78575113D02*
X103122432Y-78575113D01*
X101963432Y-78615113D02*
X103146432Y-78615113D01*
X101963432Y-78655113D02*
X103169432Y-78655113D01*
X101963432Y-78695113D02*
X103191432Y-78695113D01*
X101963432Y-78735113D02*
X103212432Y-78735113D01*
X101963432Y-78775113D02*
X103232432Y-78775113D01*
X101963432Y-78815113D02*
X103252432Y-78815113D01*
X101963432Y-78855113D02*
X103270432Y-78855113D01*
X101963432Y-78895113D02*
X103288432Y-78895113D01*
X101963432Y-78935113D02*
X103305432Y-78935113D01*
X101963432Y-78975113D02*
X103321432Y-78975113D01*
X101963432Y-79015113D02*
X103336432Y-79015113D01*
X101963432Y-79055113D02*
X103351432Y-79055113D01*
X101963432Y-79095113D02*
X103365432Y-79095113D01*
X101963432Y-79135113D02*
X103378432Y-79135113D01*
X101963432Y-79175113D02*
X103390432Y-79175113D01*
X101963432Y-79215113D02*
X103402432Y-79215113D01*
X101963432Y-79255113D02*
X103413432Y-79255113D01*
X101963432Y-79295113D02*
X103424432Y-79295113D01*
X101963432Y-79335113D02*
X103433432Y-79335113D01*
X101963432Y-79375113D02*
X103442432Y-79375113D01*
X101963432Y-79415113D02*
X103451432Y-79415113D01*
X101963432Y-79455113D02*
X103459432Y-79455113D01*
X101963432Y-79495113D02*
X103466432Y-79495113D01*
X101963432Y-79535113D02*
X103472432Y-79535113D01*
X101963432Y-79575113D02*
X103478432Y-79575113D01*
X101963432Y-79615113D02*
X103483432Y-79615113D01*
X101963432Y-79655113D02*
X103488432Y-79655113D01*
X101963432Y-79695113D02*
X103492432Y-79695113D01*
X101963432Y-79735113D02*
X103495432Y-79735113D01*
X101963432Y-79775113D02*
X103498432Y-79775113D01*
X101963432Y-79815113D02*
X103500432Y-79815113D01*
X101963432Y-79855113D02*
X103502432Y-79855113D01*
X101963432Y-79895113D02*
X103503432Y-79895113D01*
X101963432Y-79935113D02*
X103503432Y-79935113D01*
X103543432Y-79935113D02*
G75*
G02*
X98303432Y-79935113I-2620000J0D01*
G01*
X98303432Y-79935113D02*
G75*
G02*
X103543432Y-79935113I2620000J0D01*
G01*
%TO.C,R1*%
X81296932Y-93783724D02*
X81296932Y-93274276D01*
X82341932Y-93783724D02*
X82341932Y-93274276D01*
%TO.C,R7*%
X121216932Y-90254724D02*
X121216932Y-89745276D01*
X122261932Y-90254724D02*
X122261932Y-89745276D01*
%TD*%
M02*
