%TF.GenerationSoftware,KiCad,Pcbnew,10.0.5-10.0.5~ubuntu24.04.1*%
%TF.CreationDate,2026-08-25T13:52:24+02:00*%
%TF.ProjectId,pcb,7063622e-6b69-4636-9164-5f7063625858,rev?*%
%TF.SameCoordinates,Original*%
%TF.FileFunction,Soldermask,Top*%
%TF.FilePolarity,Negative*%
%FSLAX46Y46*%
G04 Gerber Fmt 4.6, Leading zero omitted, Abs format (unit mm)*
G04 Created by KiCad (PCBNEW 10.0.5-10.0.5~ubuntu24.04.1) date 2026-08-25 13:52:24*
%MOMM*%
%LPD*%
G01*
G04 APERTURE LIST*
G04 Aperture macros list*
%AMRoundRect*
0 Rectangle with rounded corners*
0 $1 Rounding radius*
0 $2 $3 $4 $5 $6 $7 $8 $9 X,Y pos of 4 corners*
0 Add a 4 corners polygon primitive as box body*
4,1,4,$2,$3,$4,$5,$6,$7,$8,$9,$2,$3,0*
0 Add four circle primitives for the rounded corners*
1,1,$1+$1,$2,$3*
1,1,$1+$1,$4,$5*
1,1,$1+$1,$6,$7*
1,1,$1+$1,$8,$9*
0 Add four rect primitives between the rounded corners*
20,1,$1+$1,$2,$3,$4,$5,0*
20,1,$1+$1,$4,$5,$6,$7,0*
20,1,$1+$1,$6,$7,$8,$9,0*
20,1,$1+$1,$8,$9,$2,$3,0*%
%AMOutline5P*
0 Free polygon, 5 corners , with rotation*
0 The origin of the aperture is its center*
0 number of corners: always 5*
0 $1 to $10 corner X, Y*
0 $11 Rotation angle, in degrees counterclockwise*
0 create outline with 5 corners*
4,1,5,$1,$2,$3,$4,$5,$6,$7,$8,$9,$10,$1,$2,$11*%
%AMOutline6P*
0 Free polygon, 6 corners , with rotation*
0 The origin of the aperture is its center*
0 number of corners: always 6*
0 $1 to $12 corner X, Y*
0 $13 Rotation angle, in degrees counterclockwise*
0 create outline with 6 corners*
4,1,6,$1,$2,$3,$4,$5,$6,$7,$8,$9,$10,$11,$12,$1,$2,$13*%
%AMOutline7P*
0 Free polygon, 7 corners , with rotation*
0 The origin of the aperture is its center*
0 number of corners: always 7*
0 $1 to $14 corner X, Y*
0 $15 Rotation angle, in degrees counterclockwise*
0 create outline with 7 corners*
4,1,7,$1,$2,$3,$4,$5,$6,$7,$8,$9,$10,$11,$12,$13,$14,$1,$2,$15*%
%AMOutline8P*
0 Free polygon, 8 corners , with rotation*
0 The origin of the aperture is its center*
0 number of corners: always 8*
0 $1 to $16 corner X, Y*
0 $17 Rotation angle, in degrees counterclockwise*
0 create outline with 8 corners*
4,1,8,$1,$2,$3,$4,$5,$6,$7,$8,$9,$10,$11,$12,$13,$14,$15,$16,$1,$2,$17*%
G04 Aperture macros list end*
%ADD10RoundRect,0.375000X0.375000X-0.625000X0.375000X0.625000X-0.375000X0.625000X-0.375000X-0.625000X0*%
%ADD11RoundRect,0.500000X1.400000X-0.500000X1.400000X0.500000X-1.400000X0.500000X-1.400000X-0.500000X0*%
%ADD12RoundRect,0.250000X-0.550000X0.550000X-0.550000X-0.550000X0.550000X-0.550000X0.550000X0.550000X0*%
%ADD13C,1.600000*%
%ADD14RoundRect,0.250000X-1.050000X1.050000X-1.050000X-1.050000X1.050000X-1.050000X1.050000X1.050000X0*%
%ADD15C,2.600000*%
%ADD16RoundRect,0.250000X0.550000X-0.550000X0.550000X0.550000X-0.550000X0.550000X-0.550000X-0.550000X0*%
%ADD17R,0.800000X0.400000*%
%ADD18R,0.400000X0.800000*%
%ADD19Outline5P,-0.725000X0.130500X-0.130500X0.725000X0.725000X0.725000X0.725000X-0.725000X-0.725000X-0.725000X0.000000*%
%ADD20R,1.450000X1.450000*%
%ADD21R,0.700000X0.700000*%
%ADD22RoundRect,0.150000X0.587500X0.150000X-0.587500X0.150000X-0.587500X-0.150000X0.587500X-0.150000X0*%
%ADD23C,3.200000*%
%ADD24RoundRect,0.250000X1.050000X1.050000X-1.050000X1.050000X-1.050000X-1.050000X1.050000X-1.050000X0*%
%ADD25RoundRect,0.237500X0.237500X-0.250000X0.237500X0.250000X-0.237500X0.250000X-0.237500X-0.250000X0*%
%ADD26O,1.000000X1.700000*%
%ADD27R,0.700000X1.200000*%
%ADD28R,0.800000X1.200000*%
%ADD29O,1.600000X1.200000*%
%ADD30C,1.200000*%
%ADD31RoundRect,0.237500X-0.250000X-0.237500X0.250000X-0.237500X0.250000X0.237500X-0.250000X0.237500X0*%
%ADD32RoundRect,0.237500X-0.237500X0.250000X-0.237500X-0.250000X0.237500X-0.250000X0.237500X0.250000X0*%
%ADD33RoundRect,0.250000X1.050000X-1.050000X1.050000X1.050000X-1.050000X1.050000X-1.050000X-1.050000X0*%
%ADD34C,3.000000*%
%ADD35C,2.500000*%
%ADD36R,1.700000X1.700000*%
%ADD37C,1.700000*%
%ADD38RoundRect,0.249999X0.850001X-0.850001X0.850001X0.850001X-0.850001X0.850001X-0.850001X-0.850001X0*%
%ADD39C,2.200000*%
%ADD40RoundRect,0.237500X0.250000X0.237500X-0.250000X0.237500X-0.250000X-0.237500X0.250000X-0.237500X0*%
G04 APERTURE END LIST*
D10*
%TO.C,U2*%
X108319432Y-112579000D03*
X110619432Y-112579000D03*
D11*
X110619432Y-106279000D03*
D10*
X112919432Y-112579000D03*
%TD*%
D12*
%TO.C,C3*%
X109359432Y-118494888D03*
D13*
X109359432Y-120494888D03*
%TD*%
D14*
%TO.C,J4*%
X70839432Y-77400000D03*
D15*
X70839432Y-82400000D03*
X70839432Y-87400000D03*
%TD*%
D16*
%TO.C,C5*%
X109064432Y-103175000D03*
D13*
X109064432Y-101175000D03*
%TD*%
D17*
%TO.C,U1*%
X112119432Y-78279000D03*
X112119432Y-79079000D03*
X112119432Y-79879000D03*
X112119432Y-80679000D03*
X112119432Y-81479000D03*
X112119432Y-82279000D03*
X112119432Y-83079000D03*
X112119432Y-83879000D03*
X112119432Y-84679000D03*
X112119432Y-85479000D03*
X112119432Y-86279000D03*
D18*
X113219432Y-87179000D03*
X114019432Y-87179000D03*
X114819432Y-87179000D03*
X115619432Y-87179000D03*
X116419432Y-87179000D03*
X117219432Y-87179000D03*
X118019432Y-87179000D03*
X118819432Y-87179000D03*
X119619432Y-87179000D03*
X120419432Y-87179000D03*
X121219432Y-87179000D03*
X122019432Y-87179000D03*
X122819432Y-87179000D03*
D17*
X123919432Y-86279000D03*
X123919432Y-85479000D03*
X123919432Y-84679000D03*
X123919432Y-83879000D03*
X123919432Y-83079000D03*
X123919432Y-82279000D03*
X123919432Y-81479000D03*
X123919432Y-80679000D03*
X123919432Y-79879000D03*
X123919432Y-79079000D03*
X123919432Y-78279000D03*
D18*
X122819432Y-77379000D03*
X122019432Y-77379000D03*
X121219432Y-77379000D03*
X120419432Y-77379000D03*
X119619432Y-77379000D03*
X118819432Y-77379000D03*
X118019432Y-77379000D03*
X117219432Y-77379000D03*
X116419432Y-77379000D03*
X115619432Y-77379000D03*
X114819432Y-77379000D03*
X114019432Y-77379000D03*
X113219432Y-77379000D03*
D19*
X116044432Y-80304000D03*
D20*
X116044432Y-82279000D03*
X116044432Y-84254000D03*
X118019432Y-80304000D03*
X118019432Y-82279000D03*
X118019432Y-84254000D03*
X119994432Y-80304000D03*
X119994432Y-82279000D03*
X119994432Y-84254000D03*
D21*
X123969432Y-77329000D03*
X123969432Y-87229000D03*
X112069432Y-87229000D03*
X112069432Y-77329000D03*
%TD*%
D14*
%TO.C,J3*%
X70839432Y-66100000D03*
D15*
X70839432Y-71100000D03*
%TD*%
D22*
%TO.C,Q1*%
X79994432Y-97379000D03*
X79994432Y-95479000D03*
X78119432Y-96429000D03*
%TD*%
D23*
%TO.C,REF\u002A\u002A*%
X67739432Y-125200000D03*
%TD*%
D24*
%TO.C,J5*%
X91739432Y-68200000D03*
D15*
X86739432Y-68200000D03*
X81739432Y-68200000D03*
%TD*%
D25*
%TO.C,C2*%
X112649432Y-103405000D03*
X112649432Y-101580000D03*
%TD*%
D26*
%TO.C,USB1*%
X97365432Y-122195500D03*
X97365432Y-126005500D03*
X106005432Y-122195500D03*
X106005432Y-126005500D03*
D27*
X101185432Y-121745500D03*
X103205432Y-121745500D03*
D28*
X104435432Y-121745500D03*
D27*
X102185432Y-121745500D03*
X100165432Y-121745500D03*
D28*
X98935432Y-121745500D03*
%TD*%
D29*
%TO.C,Q2*%
X126559432Y-103329000D03*
D30*
X124019432Y-100789000D03*
X121479432Y-103329000D03*
%TD*%
D31*
%TO.C,R2*%
X81806932Y-97429000D03*
X83631932Y-97429000D03*
%TD*%
D25*
%TO.C,R6*%
X120139432Y-90912500D03*
X120139432Y-89087500D03*
%TD*%
%TO.C,C6*%
X105129432Y-80942500D03*
X105129432Y-79117500D03*
%TD*%
D32*
%TO.C,C4*%
X114385432Y-118691500D03*
X114385432Y-120516500D03*
%TD*%
D33*
%TO.C,J6*%
X147639432Y-124700000D03*
D15*
X147639432Y-119700000D03*
X147639432Y-114700000D03*
X147639432Y-109700000D03*
X147639432Y-104700000D03*
X147639432Y-99700000D03*
X147639432Y-94700000D03*
%TD*%
D23*
%TO.C,REF\u002A\u002A*%
X149239432Y-66200000D03*
%TD*%
D34*
%TO.C,K1*%
X96619432Y-110329000D03*
D35*
X94669432Y-104279000D03*
D34*
X82469432Y-104279000D03*
X82419432Y-116329000D03*
D35*
X94669432Y-116279000D03*
%TD*%
D36*
%TO.C,J8*%
X129619432Y-86629000D03*
D37*
X129619432Y-84089000D03*
X129619432Y-81549000D03*
X129619432Y-79009000D03*
%TD*%
D33*
%TO.C,J2*%
X147619432Y-88729000D03*
D15*
X147619432Y-83729000D03*
X147619432Y-78729000D03*
X147619432Y-73729000D03*
%TD*%
D38*
%TO.C,D1*%
X100379432Y-115069000D03*
D39*
X100379432Y-104909000D03*
%TD*%
D40*
%TO.C,R9*%
X94723932Y-122906000D03*
X92898932Y-122906000D03*
%TD*%
D36*
%TO.C,J11*%
X113414432Y-91200000D03*
D37*
X110874432Y-91200000D03*
%TD*%
D32*
%TO.C,R3*%
X124019432Y-95616500D03*
X124019432Y-97441500D03*
%TD*%
D14*
%TO.C,J9*%
X70879432Y-105289000D03*
D15*
X70879432Y-110289000D03*
%TD*%
D40*
%TO.C,R8*%
X94723932Y-124430000D03*
X92898932Y-124430000D03*
%TD*%
D14*
%TO.C,J7*%
X70839432Y-93800000D03*
D15*
X70839432Y-98800000D03*
%TD*%
D16*
%TO.C,C1*%
X100923432Y-80935113D03*
D13*
X100923432Y-78935113D03*
%TD*%
D25*
%TO.C,R1*%
X81819432Y-94441500D03*
X81819432Y-92616500D03*
%TD*%
%TO.C,R7*%
X121739432Y-90912500D03*
X121739432Y-89087500D03*
%TD*%
M02*
