%TF.GenerationSoftware,KiCad,Pcbnew,10.0.5-10.0.5~ubuntu24.04.1*%
%TF.CreationDate,2026-08-25T13:52:27+02:00*%
%TF.ProjectId,pcb,7063622e-6b69-4636-9164-5f7063625858,rev?*%
%TF.SameCoordinates,Original*%
%TF.FileFunction,Soldermask,Bot*%
%TF.FilePolarity,Negative*%
%FSLAX46Y46*%
G04 Gerber Fmt 4.6, Leading zero omitted, Abs format (unit mm)*
G04 Created by KiCad (PCBNEW 10.0.5-10.0.5~ubuntu24.04.1) date 2026-08-25 13:52:27*
%MOMM*%
%LPD*%
G01*
G04 APERTURE LIST*
G04 Aperture macros list*
%AMRoundRect*
0 Rectangle with rounded corners*
0 $1 Rounding radius*
0 $2 $3 $4 $5 $6 $7 $8 $9 X,Y pos of 4 corners*
0 Add a 4 corners polygon primitive as box body*
4,1,4,$2,$3,$4,$5,$6,$7,$8,$9,$2,$3,0*
0 Add four circle primitives for the rounded corners*
1,1,$1+$1,$2,$3*
1,1,$1+$1,$4,$5*
1,1,$1+$1,$6,$7*
1,1,$1+$1,$8,$9*
0 Add four rect primitives between the rounded corners*
20,1,$1+$1,$2,$3,$4,$5,0*
20,1,$1+$1,$4,$5,$6,$7,0*
20,1,$1+$1,$6,$7,$8,$9,0*
20,1,$1+$1,$8,$9,$2,$3,0*%
G04 Aperture macros list end*
%ADD10RoundRect,0.250000X-0.550000X0.550000X-0.550000X-0.550000X0.550000X-0.550000X0.550000X0.550000X0*%
%ADD11C,1.600000*%
%ADD12RoundRect,0.250000X-1.050000X1.050000X-1.050000X-1.050000X1.050000X-1.050000X1.050000X1.050000X0*%
%ADD13C,2.600000*%
%ADD14RoundRect,0.250000X0.550000X-0.550000X0.550000X0.550000X-0.550000X0.550000X-0.550000X-0.550000X0*%
%ADD15C,3.200000*%
%ADD16RoundRect,0.250000X1.050000X1.050000X-1.050000X1.050000X-1.050000X-1.050000X1.050000X-1.050000X0*%
%ADD17O,1.000000X1.700000*%
%ADD18O,1.600000X1.200000*%
%ADD19C,1.200000*%
%ADD20RoundRect,0.250000X1.050000X-1.050000X1.050000X1.050000X-1.050000X1.050000X-1.050000X-1.050000X0*%
%ADD21C,3.000000*%
%ADD22C,2.500000*%
%ADD23R,1.700000X1.700000*%
%ADD24C,1.700000*%
%ADD25RoundRect,0.249999X0.850001X-0.850001X0.850001X0.850001X-0.850001X0.850001X-0.850001X-0.850001X0*%
%ADD26C,2.200000*%
G04 APERTURE END LIST*
D10*
%TO.C,C3*%
X109359432Y-118494888D03*
D11*
X109359432Y-120494888D03*
%TD*%
D12*
%TO.C,J4*%
X70839432Y-77400000D03*
D13*
X70839432Y-82400000D03*
X70839432Y-87400000D03*
%TD*%
D14*
%TO.C,C5*%
X109064432Y-103175000D03*
D11*
X109064432Y-101175000D03*
%TD*%
D12*
%TO.C,J3*%
X70839432Y-66100000D03*
D13*
X70839432Y-71100000D03*
%TD*%
D15*
%TO.C,REF\u002A\u002A*%
X67739432Y-125200000D03*
%TD*%
D16*
%TO.C,J5*%
X91739432Y-68200000D03*
D13*
X86739432Y-68200000D03*
X81739432Y-68200000D03*
%TD*%
D17*
%TO.C,USB1*%
X97365432Y-122195500D03*
X97365432Y-126005500D03*
X106005432Y-122195500D03*
X106005432Y-126005500D03*
%TD*%
D18*
%TO.C,Q2*%
X126559432Y-103329000D03*
D19*
X124019432Y-100789000D03*
X121479432Y-103329000D03*
%TD*%
D20*
%TO.C,J6*%
X147639432Y-124700000D03*
D13*
X147639432Y-119700000D03*
X147639432Y-114700000D03*
X147639432Y-109700000D03*
X147639432Y-104700000D03*
X147639432Y-99700000D03*
X147639432Y-94700000D03*
%TD*%
D15*
%TO.C,REF\u002A\u002A*%
X149239432Y-66200000D03*
%TD*%
D21*
%TO.C,K1*%
X96619432Y-110329000D03*
D22*
X94669432Y-104279000D03*
D21*
X82469432Y-104279000D03*
X82419432Y-116329000D03*
D22*
X94669432Y-116279000D03*
%TD*%
D23*
%TO.C,J8*%
X129619432Y-86629000D03*
D24*
X129619432Y-84089000D03*
X129619432Y-81549000D03*
X129619432Y-79009000D03*
%TD*%
D20*
%TO.C,J2*%
X147619432Y-88729000D03*
D13*
X147619432Y-83729000D03*
X147619432Y-78729000D03*
X147619432Y-73729000D03*
%TD*%
D25*
%TO.C,D1*%
X100379432Y-115069000D03*
D26*
X100379432Y-104909000D03*
%TD*%
D23*
%TO.C,J11*%
X113414432Y-91200000D03*
D24*
X110874432Y-91200000D03*
%TD*%
D12*
%TO.C,J9*%
X70879432Y-105289000D03*
D13*
X70879432Y-110289000D03*
%TD*%
D12*
%TO.C,J7*%
X70839432Y-93800000D03*
D13*
X70839432Y-98800000D03*
%TD*%
D14*
%TO.C,C1*%
X100923432Y-80935113D03*
D11*
X100923432Y-78935113D03*
%TD*%
M02*
