%TF.GenerationSoftware,KiCad,Pcbnew,10.0.5-10.0.5~ubuntu24.04.1*%
%TF.CreationDate,2026-08-27T09:55:52+02:00*%
%TF.ProjectId,air_and_light_sensor,6169725f-616e-4645-9f6c-696768745f73,rev?*%
%TF.SameCoordinates,Original*%
%TF.FileFunction,Copper,L1,Top*%
%TF.FilePolarity,Positive*%
%FSLAX46Y46*%
G04 Gerber Fmt 4.6, Leading zero omitted, Abs format (unit mm)*
G04 Created by KiCad (PCBNEW 10.0.5-10.0.5~ubuntu24.04.1) date 2026-08-27 09:55:52*
%MOMM*%
%LPD*%
G01*
G04 APERTURE LIST*
G04 Aperture macros list*
%AMRoundRect*
0 Rectangle with rounded corners*
0 $1 Rounding radius*
0 $2 $3 $4 $5 $6 $7 $8 $9 X,Y pos of 4 corners*
0 Add a 4 corners polygon primitive as box body*
4,1,4,$2,$3,$4,$5,$6,$7,$8,$9,$2,$3,0*
0 Add four circle primitives for the rounded corners*
1,1,$1+$1,$2,$3*
1,1,$1+$1,$4,$5*
1,1,$1+$1,$6,$7*
1,1,$1+$1,$8,$9*
0 Add four rect primitives between the rounded corners*
20,1,$1+$1,$2,$3,$4,$5,0*
20,1,$1+$1,$4,$5,$6,$7,0*
20,1,$1+$1,$6,$7,$8,$9,0*
20,1,$1+$1,$8,$9,$2,$3,0*%
G04 Aperture macros list end*
%TA.AperFunction,SMDPad,CuDef*%
%ADD10RoundRect,0.237500X-0.250000X-0.237500X0.250000X-0.237500X0.250000X0.237500X-0.250000X0.237500X0*%
%TD*%
%TA.AperFunction,SMDPad,CuDef*%
%ADD11RoundRect,0.237500X-0.237500X0.250000X-0.237500X-0.250000X0.237500X-0.250000X0.237500X0.250000X0*%
%TD*%
%TA.AperFunction,ComponentPad*%
%ADD12RoundRect,0.250000X1.050000X-1.050000X1.050000X1.050000X-1.050000X1.050000X-1.050000X-1.050000X0*%
%TD*%
%TA.AperFunction,ComponentPad*%
%ADD13C,2.600000*%
%TD*%
%TA.AperFunction,ComponentPad*%
%ADD14R,1.500000X1.500000*%
%TD*%
%TA.AperFunction,ComponentPad*%
%ADD15C,1.500000*%
%TD*%
%TA.AperFunction,ComponentPad*%
%ADD16C,1.600000*%
%TD*%
%TA.AperFunction,ViaPad*%
%ADD17C,0.600000*%
%TD*%
%TA.AperFunction,Conductor*%
%ADD18C,0.500000*%
%TD*%
G04 APERTURE END LIST*
D10*
%TO.P,R1,1*%
%TO.N,Net-(J10-Pin_2)*%
X91012500Y-73505000D03*
%TO.P,R1,2*%
%TO.N,GND*%
X92837500Y-73505000D03*
%TD*%
D11*
%TO.P,R5,1*%
%TO.N,Net-(J10-Pin_3)*%
X90375000Y-69475000D03*
%TO.P,R5,2*%
%TO.N,GND*%
X90375000Y-71300000D03*
%TD*%
D12*
%TO.P,J10,1,Pin_1_1*%
%TO.N,GND*%
X81672500Y-76300000D03*
D13*
%TO.P,J10,2,Pin_2_2*%
%TO.N,Net-(J10-Pin_2)*%
X81672500Y-71300000D03*
%TO.P,J10,3,Pin_3_3*%
%TO.N,Net-(J10-Pin_3)*%
X81672500Y-66300000D03*
%TO.P,J10,4,Pin_4_4*%
%TO.N,VDD*%
X81672500Y-61300000D03*
%TD*%
D14*
%TO.P,U3,1,VDD_1*%
%TO.N,VDD*%
X95417500Y-65715000D03*
D15*
%TO.P,U3,2,SDA_2*%
%TO.N,Net-(J10-Pin_2)*%
X95417500Y-68255000D03*
%TO.P,U3,3,GND_3*%
%TO.N,GND*%
X95417500Y-70795000D03*
%TO.P,U3,4,GND_4*%
X95417500Y-73335000D03*
%TD*%
D16*
%TO.P,R4,1*%
%TO.N,VDD*%
X90350000Y-64755000D03*
%TO.P,R4,2*%
%TO.N,Net-(J10-Pin_3)*%
X90350000Y-67295000D03*
%TD*%
D17*
%TO.N,GND*%
X90375000Y-71300000D03*
%TD*%
%TO.N,GND*%
D18*
X92837500Y-73505000D02*
X95247500Y-73505000D01*
X95247500Y-73505000D02*
X95417500Y-73335000D01*
%TO.N,Net-(J10-Pin_2)*%
X91012500Y-73505000D02*
X91012500Y-72660000D01*
X91012500Y-72660000D02*
X91072500Y-72600000D01*
%TO.N,Net-(J10-Pin_3)*%
X90350000Y-67295000D02*
X90350000Y-69450000D01*
X90350000Y-69450000D02*
X90375000Y-69475000D01*
X89355000Y-66300000D02*
X90350000Y-67295000D01*
X81672500Y-66300000D02*
X89355000Y-66300000D01*
%TO.N,VDD*%
X82997500Y-62625000D02*
X92327500Y-62625000D01*
X85127500Y-64755000D02*
X90350000Y-64755000D01*
X92327500Y-62625000D02*
X95417500Y-65715000D01*
X81672500Y-61300000D02*
X82997500Y-62625000D01*
X81672500Y-61300000D02*
X85127500Y-64755000D01*
%TO.N,Net-(J10-Pin_2)*%
X91072500Y-72600000D02*
X95417500Y-68255000D01*
X81672500Y-71300000D02*
X82972500Y-72600000D01*
X82972500Y-72600000D02*
X91072500Y-72600000D01*
%TD*%
M02*
