%TF.GenerationSoftware,KiCad,Pcbnew,10.0.5-10.0.5~ubuntu24.04.1*%
%TF.CreationDate,2026-08-27T09:56:01+02:00*%
%TF.ProjectId,air_and_light_sensor,6169725f-616e-4645-9f6c-696768745f73,rev?*%
%TF.SameCoordinates,Original*%
%TF.FileFunction,Legend,Top*%
%TF.FilePolarity,Positive*%
%FSLAX46Y46*%
G04 Gerber Fmt 4.6, Leading zero omitted, Abs format (unit mm)*
G04 Created by KiCad (PCBNEW 10.0.5-10.0.5~ubuntu24.04.1) date 2026-08-27 09:56:01*
%MOMM*%
%LPD*%
G01*
G04 APERTURE LIST*
%ADD10C,0.100000*%
%ADD11C,0.150000*%
%ADD12C,0.120000*%
G04 APERTURE END LIST*
D10*
X86872419Y-62838972D02*
X87872419Y-62505639D01*
X87872419Y-62505639D02*
X86872419Y-62172306D01*
X87872419Y-61838972D02*
X86872419Y-61838972D01*
X86872419Y-61838972D02*
X86872419Y-61600877D01*
X86872419Y-61600877D02*
X86920038Y-61458020D01*
X86920038Y-61458020D02*
X87015276Y-61362782D01*
X87015276Y-61362782D02*
X87110514Y-61315163D01*
X87110514Y-61315163D02*
X87300990Y-61267544D01*
X87300990Y-61267544D02*
X87443847Y-61267544D01*
X87443847Y-61267544D02*
X87634323Y-61315163D01*
X87634323Y-61315163D02*
X87729561Y-61362782D01*
X87729561Y-61362782D02*
X87824800Y-61458020D01*
X87824800Y-61458020D02*
X87872419Y-61600877D01*
X87872419Y-61600877D02*
X87872419Y-61838972D01*
X87872419Y-60838972D02*
X86872419Y-60838972D01*
X86872419Y-60838972D02*
X86872419Y-60600877D01*
X86872419Y-60600877D02*
X86920038Y-60458020D01*
X86920038Y-60458020D02*
X87015276Y-60362782D01*
X87015276Y-60362782D02*
X87110514Y-60315163D01*
X87110514Y-60315163D02*
X87300990Y-60267544D01*
X87300990Y-60267544D02*
X87443847Y-60267544D01*
X87443847Y-60267544D02*
X87634323Y-60315163D01*
X87634323Y-60315163D02*
X87729561Y-60362782D01*
X87729561Y-60362782D02*
X87824800Y-60458020D01*
X87824800Y-60458020D02*
X87872419Y-60600877D01*
X87872419Y-60600877D02*
X87872419Y-60838972D01*
X87420038Y-77172306D02*
X87372419Y-77267544D01*
X87372419Y-77267544D02*
X87372419Y-77410401D01*
X87372419Y-77410401D02*
X87420038Y-77553258D01*
X87420038Y-77553258D02*
X87515276Y-77648496D01*
X87515276Y-77648496D02*
X87610514Y-77696115D01*
X87610514Y-77696115D02*
X87800990Y-77743734D01*
X87800990Y-77743734D02*
X87943847Y-77743734D01*
X87943847Y-77743734D02*
X88134323Y-77696115D01*
X88134323Y-77696115D02*
X88229561Y-77648496D01*
X88229561Y-77648496D02*
X88324800Y-77553258D01*
X88324800Y-77553258D02*
X88372419Y-77410401D01*
X88372419Y-77410401D02*
X88372419Y-77315163D01*
X88372419Y-77315163D02*
X88324800Y-77172306D01*
X88324800Y-77172306D02*
X88277180Y-77124687D01*
X88277180Y-77124687D02*
X87943847Y-77124687D01*
X87943847Y-77124687D02*
X87943847Y-77315163D01*
X88372419Y-76696115D02*
X87372419Y-76696115D01*
X87372419Y-76696115D02*
X88372419Y-76124687D01*
X88372419Y-76124687D02*
X87372419Y-76124687D01*
X88372419Y-75648496D02*
X87372419Y-75648496D01*
X87372419Y-75648496D02*
X87372419Y-75410401D01*
X87372419Y-75410401D02*
X87420038Y-75267544D01*
X87420038Y-75267544D02*
X87515276Y-75172306D01*
X87515276Y-75172306D02*
X87610514Y-75124687D01*
X87610514Y-75124687D02*
X87800990Y-75077068D01*
X87800990Y-75077068D02*
X87943847Y-75077068D01*
X87943847Y-75077068D02*
X88134323Y-75124687D01*
X88134323Y-75124687D02*
X88229561Y-75172306D01*
X88229561Y-75172306D02*
X88324800Y-75267544D01*
X88324800Y-75267544D02*
X88372419Y-75410401D01*
X88372419Y-75410401D02*
X88372419Y-75648496D01*
X87872419Y-73696115D02*
X86872419Y-73696115D01*
X86872419Y-73696115D02*
X86872419Y-73458020D01*
X86872419Y-73458020D02*
X86920038Y-73315163D01*
X86920038Y-73315163D02*
X87015276Y-73219925D01*
X87015276Y-73219925D02*
X87110514Y-73172306D01*
X87110514Y-73172306D02*
X87300990Y-73124687D01*
X87300990Y-73124687D02*
X87443847Y-73124687D01*
X87443847Y-73124687D02*
X87634323Y-73172306D01*
X87634323Y-73172306D02*
X87729561Y-73219925D01*
X87729561Y-73219925D02*
X87824800Y-73315163D01*
X87824800Y-73315163D02*
X87872419Y-73458020D01*
X87872419Y-73458020D02*
X87872419Y-73696115D01*
X87872419Y-72267544D02*
X87348609Y-72267544D01*
X87348609Y-72267544D02*
X87253371Y-72315163D01*
X87253371Y-72315163D02*
X87205752Y-72410401D01*
X87205752Y-72410401D02*
X87205752Y-72600877D01*
X87205752Y-72600877D02*
X87253371Y-72696115D01*
X87824800Y-72267544D02*
X87872419Y-72362782D01*
X87872419Y-72362782D02*
X87872419Y-72600877D01*
X87872419Y-72600877D02*
X87824800Y-72696115D01*
X87824800Y-72696115D02*
X87729561Y-72743734D01*
X87729561Y-72743734D02*
X87634323Y-72743734D01*
X87634323Y-72743734D02*
X87539085Y-72696115D01*
X87539085Y-72696115D02*
X87491466Y-72600877D01*
X87491466Y-72600877D02*
X87491466Y-72362782D01*
X87491466Y-72362782D02*
X87443847Y-72267544D01*
X87205752Y-71934210D02*
X87205752Y-71553258D01*
X86872419Y-71791353D02*
X87729561Y-71791353D01*
X87729561Y-71791353D02*
X87824800Y-71743734D01*
X87824800Y-71743734D02*
X87872419Y-71648496D01*
X87872419Y-71648496D02*
X87872419Y-71553258D01*
X87872419Y-70791353D02*
X87348609Y-70791353D01*
X87348609Y-70791353D02*
X87253371Y-70838972D01*
X87253371Y-70838972D02*
X87205752Y-70934210D01*
X87205752Y-70934210D02*
X87205752Y-71124686D01*
X87205752Y-71124686D02*
X87253371Y-71219924D01*
X87824800Y-70791353D02*
X87872419Y-70886591D01*
X87872419Y-70886591D02*
X87872419Y-71124686D01*
X87872419Y-71124686D02*
X87824800Y-71219924D01*
X87824800Y-71219924D02*
X87729561Y-71267543D01*
X87729561Y-71267543D02*
X87634323Y-71267543D01*
X87634323Y-71267543D02*
X87539085Y-71219924D01*
X87539085Y-71219924D02*
X87491466Y-71124686D01*
X87491466Y-71124686D02*
X87491466Y-70886591D01*
X87491466Y-70886591D02*
X87443847Y-70791353D01*
X87777180Y-70315162D02*
X87824800Y-70267543D01*
X87824800Y-70267543D02*
X87872419Y-70315162D01*
X87872419Y-70315162D02*
X87824800Y-70362781D01*
X87824800Y-70362781D02*
X87777180Y-70315162D01*
X87777180Y-70315162D02*
X87872419Y-70315162D01*
X87586704Y-69886591D02*
X87586704Y-69410401D01*
X87872419Y-69981829D02*
X86872419Y-69648496D01*
X86872419Y-69648496D02*
X87872419Y-69315163D01*
X87872419Y-68441115D02*
X86872419Y-68441115D01*
X86872419Y-68441115D02*
X86872419Y-68203020D01*
X86872419Y-68203020D02*
X86920038Y-68060163D01*
X86920038Y-68060163D02*
X87015276Y-67964925D01*
X87015276Y-67964925D02*
X87110514Y-67917306D01*
X87110514Y-67917306D02*
X87300990Y-67869687D01*
X87300990Y-67869687D02*
X87443847Y-67869687D01*
X87443847Y-67869687D02*
X87634323Y-67917306D01*
X87634323Y-67917306D02*
X87729561Y-67964925D01*
X87729561Y-67964925D02*
X87824800Y-68060163D01*
X87824800Y-68060163D02*
X87872419Y-68203020D01*
X87872419Y-68203020D02*
X87872419Y-68441115D01*
X87872419Y-67012544D02*
X87348609Y-67012544D01*
X87348609Y-67012544D02*
X87253371Y-67060163D01*
X87253371Y-67060163D02*
X87205752Y-67155401D01*
X87205752Y-67155401D02*
X87205752Y-67345877D01*
X87205752Y-67345877D02*
X87253371Y-67441115D01*
X87824800Y-67012544D02*
X87872419Y-67107782D01*
X87872419Y-67107782D02*
X87872419Y-67345877D01*
X87872419Y-67345877D02*
X87824800Y-67441115D01*
X87824800Y-67441115D02*
X87729561Y-67488734D01*
X87729561Y-67488734D02*
X87634323Y-67488734D01*
X87634323Y-67488734D02*
X87539085Y-67441115D01*
X87539085Y-67441115D02*
X87491466Y-67345877D01*
X87491466Y-67345877D02*
X87491466Y-67107782D01*
X87491466Y-67107782D02*
X87443847Y-67012544D01*
X87205752Y-66679210D02*
X87205752Y-66298258D01*
X86872419Y-66536353D02*
X87729561Y-66536353D01*
X87729561Y-66536353D02*
X87824800Y-66488734D01*
X87824800Y-66488734D02*
X87872419Y-66393496D01*
X87872419Y-66393496D02*
X87872419Y-66298258D01*
X87872419Y-65536353D02*
X87348609Y-65536353D01*
X87348609Y-65536353D02*
X87253371Y-65583972D01*
X87253371Y-65583972D02*
X87205752Y-65679210D01*
X87205752Y-65679210D02*
X87205752Y-65869686D01*
X87205752Y-65869686D02*
X87253371Y-65964924D01*
X87824800Y-65536353D02*
X87872419Y-65631591D01*
X87872419Y-65631591D02*
X87872419Y-65869686D01*
X87872419Y-65869686D02*
X87824800Y-65964924D01*
X87824800Y-65964924D02*
X87729561Y-66012543D01*
X87729561Y-66012543D02*
X87634323Y-66012543D01*
X87634323Y-66012543D02*
X87539085Y-65964924D01*
X87539085Y-65964924D02*
X87491466Y-65869686D01*
X87491466Y-65869686D02*
X87491466Y-65631591D01*
X87491466Y-65631591D02*
X87443847Y-65536353D01*
X87777180Y-65060162D02*
X87824800Y-65012543D01*
X87824800Y-65012543D02*
X87872419Y-65060162D01*
X87872419Y-65060162D02*
X87824800Y-65107781D01*
X87824800Y-65107781D02*
X87777180Y-65060162D01*
X87777180Y-65060162D02*
X87872419Y-65060162D01*
X87872419Y-64107782D02*
X87872419Y-64583972D01*
X87872419Y-64583972D02*
X86872419Y-64583972D01*
D11*
X91758333Y-72529819D02*
X91425000Y-72053628D01*
X91186905Y-72529819D02*
X91186905Y-71529819D01*
X91186905Y-71529819D02*
X91567857Y-71529819D01*
X91567857Y-71529819D02*
X91663095Y-71577438D01*
X91663095Y-71577438D02*
X91710714Y-71625057D01*
X91710714Y-71625057D02*
X91758333Y-71720295D01*
X91758333Y-71720295D02*
X91758333Y-71863152D01*
X91758333Y-71863152D02*
X91710714Y-71958390D01*
X91710714Y-71958390D02*
X91663095Y-72006009D01*
X91663095Y-72006009D02*
X91567857Y-72053628D01*
X91567857Y-72053628D02*
X91186905Y-72053628D01*
X92710714Y-72529819D02*
X92139286Y-72529819D01*
X92425000Y-72529819D02*
X92425000Y-71529819D01*
X92425000Y-71529819D02*
X92329762Y-71672676D01*
X92329762Y-71672676D02*
X92234524Y-71767914D01*
X92234524Y-71767914D02*
X92139286Y-71815533D01*
X92259819Y-70554166D02*
X91783628Y-70887499D01*
X92259819Y-71125594D02*
X91259819Y-71125594D01*
X91259819Y-71125594D02*
X91259819Y-70744642D01*
X91259819Y-70744642D02*
X91307438Y-70649404D01*
X91307438Y-70649404D02*
X91355057Y-70601785D01*
X91355057Y-70601785D02*
X91450295Y-70554166D01*
X91450295Y-70554166D02*
X91593152Y-70554166D01*
X91593152Y-70554166D02*
X91688390Y-70601785D01*
X91688390Y-70601785D02*
X91736009Y-70649404D01*
X91736009Y-70649404D02*
X91783628Y-70744642D01*
X91783628Y-70744642D02*
X91783628Y-71125594D01*
X91259819Y-69649404D02*
X91259819Y-70125594D01*
X91259819Y-70125594D02*
X91736009Y-70173213D01*
X91736009Y-70173213D02*
X91688390Y-70125594D01*
X91688390Y-70125594D02*
X91640771Y-70030356D01*
X91640771Y-70030356D02*
X91640771Y-69792261D01*
X91640771Y-69792261D02*
X91688390Y-69697023D01*
X91688390Y-69697023D02*
X91736009Y-69649404D01*
X91736009Y-69649404D02*
X91831247Y-69601785D01*
X91831247Y-69601785D02*
X92069342Y-69601785D01*
X92069342Y-69601785D02*
X92164580Y-69649404D01*
X92164580Y-69649404D02*
X92212200Y-69697023D01*
X92212200Y-69697023D02*
X92259819Y-69792261D01*
X92259819Y-69792261D02*
X92259819Y-70030356D01*
X92259819Y-70030356D02*
X92212200Y-70125594D01*
X92212200Y-70125594D02*
X92164580Y-70173213D01*
X74807319Y-69609523D02*
X75521604Y-69609523D01*
X75521604Y-69609523D02*
X75664461Y-69657142D01*
X75664461Y-69657142D02*
X75759700Y-69752380D01*
X75759700Y-69752380D02*
X75807319Y-69895237D01*
X75807319Y-69895237D02*
X75807319Y-69990475D01*
X75807319Y-68609523D02*
X75807319Y-69180951D01*
X75807319Y-68895237D02*
X74807319Y-68895237D01*
X74807319Y-68895237D02*
X74950176Y-68990475D01*
X74950176Y-68990475D02*
X75045414Y-69085713D01*
X75045414Y-69085713D02*
X75093033Y-69180951D01*
X74807319Y-67990475D02*
X74807319Y-67895237D01*
X74807319Y-67895237D02*
X74854938Y-67799999D01*
X74854938Y-67799999D02*
X74902557Y-67752380D01*
X74902557Y-67752380D02*
X74997795Y-67704761D01*
X74997795Y-67704761D02*
X75188271Y-67657142D01*
X75188271Y-67657142D02*
X75426366Y-67657142D01*
X75426366Y-67657142D02*
X75616842Y-67704761D01*
X75616842Y-67704761D02*
X75712080Y-67752380D01*
X75712080Y-67752380D02*
X75759700Y-67799999D01*
X75759700Y-67799999D02*
X75807319Y-67895237D01*
X75807319Y-67895237D02*
X75807319Y-67990475D01*
X75807319Y-67990475D02*
X75759700Y-68085713D01*
X75759700Y-68085713D02*
X75712080Y-68133332D01*
X75712080Y-68133332D02*
X75616842Y-68180951D01*
X75616842Y-68180951D02*
X75426366Y-68228570D01*
X75426366Y-68228570D02*
X75188271Y-68228570D01*
X75188271Y-68228570D02*
X74997795Y-68180951D01*
X74997795Y-68180951D02*
X74902557Y-68133332D01*
X74902557Y-68133332D02*
X74854938Y-68085713D01*
X74854938Y-68085713D02*
X74807319Y-67990475D01*
X108055595Y-60269819D02*
X108055595Y-61079342D01*
X108055595Y-61079342D02*
X108103214Y-61174580D01*
X108103214Y-61174580D02*
X108150833Y-61222200D01*
X108150833Y-61222200D02*
X108246071Y-61269819D01*
X108246071Y-61269819D02*
X108436547Y-61269819D01*
X108436547Y-61269819D02*
X108531785Y-61222200D01*
X108531785Y-61222200D02*
X108579404Y-61174580D01*
X108579404Y-61174580D02*
X108627023Y-61079342D01*
X108627023Y-61079342D02*
X108627023Y-60269819D01*
X109007976Y-60269819D02*
X109627023Y-60269819D01*
X109627023Y-60269819D02*
X109293690Y-60650771D01*
X109293690Y-60650771D02*
X109436547Y-60650771D01*
X109436547Y-60650771D02*
X109531785Y-60698390D01*
X109531785Y-60698390D02*
X109579404Y-60746009D01*
X109579404Y-60746009D02*
X109627023Y-60841247D01*
X109627023Y-60841247D02*
X109627023Y-61079342D01*
X109627023Y-61079342D02*
X109579404Y-61174580D01*
X109579404Y-61174580D02*
X109531785Y-61222200D01*
X109531785Y-61222200D02*
X109436547Y-61269819D01*
X109436547Y-61269819D02*
X109150833Y-61269819D01*
X109150833Y-61269819D02*
X109055595Y-61222200D01*
X109055595Y-61222200D02*
X109007976Y-61174580D01*
X93704819Y-66191666D02*
X93228628Y-66524999D01*
X93704819Y-66763094D02*
X92704819Y-66763094D01*
X92704819Y-66763094D02*
X92704819Y-66382142D01*
X92704819Y-66382142D02*
X92752438Y-66286904D01*
X92752438Y-66286904D02*
X92800057Y-66239285D01*
X92800057Y-66239285D02*
X92895295Y-66191666D01*
X92895295Y-66191666D02*
X93038152Y-66191666D01*
X93038152Y-66191666D02*
X93133390Y-66239285D01*
X93133390Y-66239285D02*
X93181009Y-66286904D01*
X93181009Y-66286904D02*
X93228628Y-66382142D01*
X93228628Y-66382142D02*
X93228628Y-66763094D01*
X93038152Y-65334523D02*
X93704819Y-65334523D01*
X92657200Y-65572618D02*
X93371485Y-65810713D01*
X93371485Y-65810713D02*
X93371485Y-65191666D01*
%TO.C,R1*%
D12*
X91670276Y-72982500D02*
X92179724Y-72982500D01*
X91670276Y-74027500D02*
X92179724Y-74027500D01*
%TO.C,R5*%
X89852500Y-70132776D02*
X89852500Y-70642224D01*
X90897500Y-70132776D02*
X90897500Y-70642224D01*
%TO.C,J10*%
X76352500Y-58680000D02*
X86392500Y-58680000D01*
X76352500Y-78920000D02*
X76352500Y-58680000D01*
X79372500Y-78920000D02*
X79372500Y-58680000D01*
X84272500Y-78920000D02*
X84272500Y-58680000D01*
X85772500Y-78920000D02*
X85772500Y-58680000D01*
X86392500Y-58680000D02*
X86392500Y-76000000D01*
X86392500Y-76600000D02*
X86392500Y-78920000D01*
X86392500Y-78920000D02*
X76352500Y-78920000D01*
X86392500Y-76300000D02*
X87002500Y-75860000D01*
X87002500Y-76740000D01*
X86392500Y-76300000D01*
G36*
X87002500Y-76740000D02*
G01*
X86392500Y-76300000D01*
X87002500Y-75860000D01*
X87002500Y-76740000D01*
G37*
%TO.C,U3*%
X94317500Y-64615000D02*
X95317500Y-64615000D01*
X94317500Y-65615000D02*
X94317500Y-64615000D01*
X96427500Y-65715000D02*
X98067500Y-65715000D01*
X96427500Y-68255000D02*
X98067500Y-68255000D01*
X96427500Y-70795000D02*
X98067500Y-70795000D01*
X96427500Y-73335000D02*
X98067500Y-73335000D01*
X98067500Y-61725000D02*
X118267500Y-61725000D01*
X98067500Y-77325000D02*
X98067500Y-61725000D01*
X118267500Y-61725000D02*
X123567500Y-64525000D01*
X118267500Y-77325000D02*
X98067500Y-77325000D01*
X123567500Y-64525000D02*
X123567500Y-74525000D01*
X123567500Y-74525000D02*
X118267500Y-77325000D01*
%TO.C,R4*%
X88200000Y-64705000D02*
X88200000Y-67355000D01*
X92500000Y-64705000D02*
X92500000Y-67355000D01*
X88200000Y-64705000D02*
G75*
G02*
X92484388Y-64679524I2150000J-1300000D01*
G01*
X92500000Y-67355000D02*
G75*
G02*
X88217855Y-67383027I-2150000J1350000D01*
G01*
%TD*%
M02*
